<?xml version="1.0" encoding="UTF-8"?>
<!DOCTYPE svg PUBLIC "-//W3C//DTD SVG 1.1//EN" "http://www.w3.org/Graphics/SVG/1.1/DTD/svg11.dtd">
<!-- Creator: CorelDRAW 2018 (64-Bit Evaluation Version) -->
<svg xmlns="http://www.w3.org/2000/svg" xml:space="preserve" width="63.0881mm" height="63.0881mm" version="1.1" style="shape-rendering:geometricPrecision; text-rendering:geometricPrecision; image-rendering:optimizeQuality; fill-rule:evenodd; clip-rule:evenodd"
viewBox="0 0 1085.42 1085.42"
 xmlns:xlink="http://www.w3.org/1999/xlink">
 <defs>
  <style type="text/css">
   <![CDATA[
    .str0 {stroke:#00CCFF;stroke-width:12.14;stroke-miterlimit:22.9256}
    .fil3 {fill:none}
    .fil1 {fill:#002444}
    .fil2 {fill:#00CCFF}
    .fil0 {fill:white}
   ]]>
  </style>
   <clipPath id="id0">
    <path d="M683.51 595.71l245.48 245.48c27.8,27.8 27.8,73.11 0,100.91 -27.8,27.8 -73.11,27.8 -100.91,0l-245.49 -245.48c-51.61,32.66 -111.34,50.02 -173,50.02 -178.89,0 -323.94,-145.04 -323.94,-323.94 0,-178.89 145.04,-323.94 323.94,-323.94 178.89,0 323.94,145.04 323.94,323.94 0,61.66 -17.36,121.4 -50.02,173.01zm-273.92 -328.03c-85.63,0 -155.03,69.4 -155.03,155.03 0,85.63 69.4,155.02 155.03,155.02 85.63,0 155.02,-69.4 155.02,-155.02 0,-85.63 -69.4,-155.03 -155.02,-155.03z"/>
   </clipPath>
 </defs>
 <g id="Layer_x0020_1">
  <metadata id="CorelCorpID_0Corel-Layer"/>
  <g id="_3168433657696">
   <path class="fil0" d="M866.05 571.1l158.36 158.36c81.35,81.35 81.35,213.59 0.01,294.95 -81.35,81.35 -213.6,81.36 -294.95,0.01l-158.36 -158.36c-41.61,12.61 -84.94,19.02 -128.56,19.02 -244.34,0 -442.54,-198.19 -442.54,-442.53 0,-244.34 198.19,-442.54 442.54,-442.54 244.34,0 442.53,198.19 442.53,442.54 0,43.62 -6.41,86.95 -19.02,128.56zm-388.59 -128.56c0,-19.34 -15.58,-34.92 -34.92,-34.92 -19.34,0 -34.92,15.58 -34.92,34.92 0,19.34 15.58,34.92 34.92,34.92 19.34,0 34.92,-15.58 34.92,-34.92z"/>
  </g>
  <path class="fil1" d="M801.59 585.84l183.21 183.21c59.49,59.49 59.49,156.25 0,215.75 -59.49,59.5 -156.26,59.5 -215.75,0l-183.21 -183.21c-45.36,18.11 -93.93,27.47 -143.31,27.47 -213.43,0 -386.53,-173.1 -386.53,-386.53 0,-213.43 173.1,-386.53 386.53,-386.53 213.43,0 386.53,173.1 386.53,386.53 0,49.38 -9.37,97.95 -27.47,143.31zm-359.06 -234.23c-50.25,0 -90.92,40.67 -90.92,90.92 0,50.25 40.67,90.92 90.92,90.92 50.25,0 90.92,-40.67 90.92,-90.92 0,-50.25 -40.67,-90.92 -90.92,-90.92z"/>
  <path class="fil1" d="M683.51 595.71l245.48 245.48c27.8,27.8 27.8,73.11 0,100.91 -27.8,27.8 -73.11,27.8 -100.91,0l-245.49 -245.48c-51.61,32.66 -111.34,50.02 -173,50.02 -178.89,0 -323.94,-145.04 -323.94,-323.94 0,-178.89 145.04,-323.94 323.94,-323.94 178.89,0 323.94,145.04 323.94,323.94 0,61.66 -17.36,121.4 -50.02,173.01zm-273.92 -328.03c-85.63,0 -155.03,69.4 -155.03,155.03 0,85.63 69.4,155.02 155.03,155.02 85.63,0 155.02,-69.4 155.02,-155.02 0,-85.63 -69.4,-155.03 -155.02,-155.03z"/>
  <g style="clip-path:url(#id0)">
   <g id="_3168433665024">
    <polygon id="1" class="fil2" points="55.71,243.44 59.93,231.39 55.56,211.92 60.34,198.27 77.91,184.1 80.2,187.67 64.66,200.2 60.47,212.26 64.09,232.72 59.24,246.57 "/>
    <polygon class="fil2" points="-18.07,344.29 -23.75,360.63 -18.95,360.14 -13.56,344.65 -16.68,322.72 -11.86,308.96 -15.31,305.59 -20.85,321.41 "/>
    <g>
     <path class="fil2" d="M231.84 344.08c-0.96,2.76 0.32,5.72 2.87,6.61 2.55,0.89 5.39,-0.63 6.36,-3.39 0.71,-2.04 0.2,-4.19 -1.15,-5.53l6.73 -19.27 10.37 -8.06 2.73 -8.37 -16.36 12.26 -7.76 22.23c-1.66,0.39 -3.14,1.68 -3.78,3.51z"/>
     <rect class="fil2" transform="matrix(-0.221114 0.633431 0.343904 0.120048 277.296 248.869)" width="102.78" height="11.95" rx="5.97" ry="5.97"/>
     <rect class="fil2" transform="matrix(-0.554871 0.30879 -0.147771 -0.358197 333.497 224.169)" width="102.78" height="11.95" rx="5.97" ry="5.97"/>
     <rect class="fil2" transform="matrix(-0.554871 0.30879 -0.147771 -0.358197 386.024 194.926)" width="102.78" height="11.95" rx="5.97" ry="5.97"/>
     <rect class="fil2" transform="matrix(2.0228 -5.79477 0.343904 0.120048 380.406 196.167)" width="102.78" height="11.95" rx="5.97" ry="5.97"/>
    </g>
    <g>
     <path class="fil2" d="M309.84 419.28c1.05,2.56 3.95,3.5 6.45,2.1 2.51,-1.4 3.69,-4.6 2.63,-7.16 -0.78,-1.89 -2.56,-2.9 -4.45,-2.73l-7.37 -17.86 2.65 -13.34 -3.35 -7.6 -4.48 20.75 8.5 20.6c-1.01,1.55 -1.29,3.54 -0.59,5.24z"/>
     <rect class="fil2" transform="matrix(0.242169 0.587016 0.338582 -0.188424 282.71 321.56)" width="102.78" height="11.95" rx="5.97" ry="5.97"/>
     <rect class="fil2" transform="matrix(-0.221114 0.633431 -0.343904 -0.120048 309.362 261.712)" width="102.78" height="11.95" rx="5.97" ry="5.97"/>
     <rect class="fil2" transform="matrix(-0.221114 0.633431 -0.343904 -0.120048 330.287 201.742)" width="102.78" height="11.95" rx="5.97" ry="5.97"/>
     <rect class="fil2" transform="matrix(-2.21541 -5.37015 0.338582 -0.188424 326.828 206.919)" width="102.78" height="11.95" rx="5.97" ry="5.97"/>
    </g>
    <g>
     <path class="fil2" d="M23.24 659.25c2.46,0.86 5.26,-0.77 6.26,-3.63 1,-2.86 -0.18,-5.88 -2.64,-6.74 -1.82,-0.63 -3.82,0.09 -5.14,1.67l-17.14 -5.98 -6.62 -10.81 -7.46 -2.38 10.03 17.08 19.78 6.91c0.24,1.8 1.31,3.32 2.94,3.89z"/>
     <rect class="fil2" transform="matrix(0.563592 0.196735 0.134924 -0.38652 -60.5817 616.261)" width="102.78" height="11.95" rx="5.97" ry="5.97"/>
     <rect class="fil2" transform="matrix(0.242169 0.587016 -0.338582 0.188424 -79.0917 556.324)" width="102.78" height="11.95" rx="5.97" ry="5.97"/>
     <rect class="fil2" transform="matrix(0.242169 0.587016 -0.338582 0.188424 -102.026 500.755)" width="102.78" height="11.95" rx="5.97" ry="5.97"/>
     <rect class="fil2" transform="matrix(-5.15587 -1.79978 0.134924 -0.38652 -101.3 506.836)" width="102.78" height="11.95" rx="5.97" ry="5.97"/>
    </g>
    <g>
     <path class="fil2" d="M317.15 390.58c-0.96,2.76 0.32,5.72 2.87,6.61 2.55,0.89 5.39,-0.63 6.36,-3.39 0.71,-2.04 0.2,-4.19 -1.15,-5.53l6.73 -19.27 10.37 -8.06 2.73 -8.37 -16.36 12.26 -7.76 22.23c-1.67,0.39 -3.14,1.68 -3.78,3.51z"/>
     <rect class="fil2" transform="matrix(-0.221114 0.633431 0.343904 0.120048 362.603 295.369)" width="102.78" height="11.95" rx="5.97" ry="5.97"/>
     <rect class="fil2" transform="matrix(-0.554871 0.30879 -0.147771 -0.358197 418.804 270.669)" width="102.78" height="11.95" rx="5.97" ry="5.97"/>
     <rect class="fil2" transform="matrix(-0.554871 0.30879 -0.147771 -0.358197 471.331 241.426)" width="102.78" height="11.95" rx="5.97" ry="5.97"/>
     <rect class="fil2" transform="matrix(2.0228 -5.79477 0.343904 0.120048 465.713 242.667)" width="102.78" height="11.95" rx="5.97" ry="5.97"/>
    </g>
    <g>
     <path class="fil2" d="M404.65 383.51c1.05,2.56 3.94,3.5 6.45,2.1 2.51,-1.4 3.69,-4.6 2.63,-7.16 -0.78,-1.89 -2.56,-2.9 -4.45,-2.73l-7.37 -17.86 2.65 -13.34 -3.35 -7.6 -4.48 20.75 8.5 20.6c-1.01,1.55 -1.29,3.54 -0.59,5.24z"/>
     <rect class="fil2" transform="matrix(0.242169 0.587016 0.338582 -0.188424 377.518 285.783)" width="102.78" height="11.95" rx="5.97" ry="5.97"/>
     <rect class="fil2" transform="matrix(-0.221114 0.633431 -0.343904 -0.120048 404.17 225.935)" width="102.78" height="11.95" rx="5.97" ry="5.97"/>
     <rect class="fil2" transform="matrix(-0.221114 0.633431 -0.343904 -0.120048 425.095 165.964)" width="102.78" height="11.95" rx="5.97" ry="5.97"/>
     <rect class="fil2" transform="matrix(-2.21541 -5.37015 0.338582 -0.188424 421.635 171.142)" width="102.78" height="11.95" rx="5.97" ry="5.97"/>
    </g>
    <g>
     <path class="fil2" d="M72.02 562.16c2.46,0.86 5.26,-0.77 6.26,-3.63 1,-2.86 -0.18,-5.88 -2.64,-6.74 -1.81,-0.63 -3.82,0.09 -5.14,1.67l-17.14 -5.98 -6.62 -10.81 -7.46 -2.38 10.03 17.08 19.78 6.9c0.24,1.8 1.31,3.32 2.94,3.89z"/>
     <rect class="fil2" transform="matrix(0.563592 0.196735 0.134924 -0.38652 -11.8101 519.165)" width="102.78" height="11.95" rx="5.97" ry="5.97"/>
     <rect class="fil2" transform="matrix(0.242169 0.587016 -0.338582 0.188424 -30.32 459.228)" width="102.78" height="11.95" rx="5.97" ry="5.97"/>
     <rect class="fil2" transform="matrix(0.242169 0.587016 -0.338582 0.188424 -53.2547 403.659)" width="102.78" height="11.95" rx="5.97" ry="5.97"/>
     <rect class="fil2" transform="matrix(-5.15587 -1.79978 0.134924 -0.38652 -52.5288 409.74)" width="102.78" height="11.95" rx="5.97" ry="5.97"/>
    </g>
    <g>
     <path class="fil2" d="M402.46 437.08c-0.96,2.76 0.32,5.72 2.87,6.61 2.55,0.89 5.39,-0.63 6.36,-3.39 0.71,-2.04 0.2,-4.19 -1.15,-5.53l6.73 -19.27 10.37 -8.06 2.73 -8.37 -16.36 12.26 -7.76 22.23c-1.67,0.39 -3.14,1.68 -3.78,3.51z"/>
     <rect class="fil2" transform="matrix(-0.221114 0.633431 0.343904 0.120048 447.909 341.869)" width="102.78" height="11.95" rx="5.97" ry="5.97"/>
     <rect class="fil2" transform="matrix(-0.554871 0.30879 -0.147771 -0.358197 504.111 317.169)" width="102.78" height="11.95" rx="5.97" ry="5.97"/>
     <rect class="fil2" transform="matrix(-0.554871 0.30879 -0.147771 -0.358197 556.638 287.926)" width="102.78" height="11.95" rx="5.97" ry="5.97"/>
     <rect class="fil2" transform="matrix(2.0228 -5.79477 0.343904 0.120048 551.02 289.167)" width="102.78" height="11.95" rx="5.97" ry="5.97"/>
    </g>
    <g>
     <path class="fil2" d="M499.46 347.73c1.05,2.56 3.95,3.5 6.45,2.1 2.51,-1.4 3.69,-4.6 2.63,-7.16 -0.78,-1.89 -2.56,-2.9 -4.45,-2.73l-7.37 -17.86 2.65 -13.34 -3.35 -7.6 -4.48 20.75 8.5 20.6c-1.01,1.55 -1.29,3.54 -0.59,5.24z"/>
     <rect class="fil2" transform="matrix(0.242169 0.587016 0.338582 -0.188424 472.326 250.006)" width="102.78" height="11.95" rx="5.97" ry="5.97"/>
     <rect class="fil2" transform="matrix(-0.221114 0.633431 -0.343904 -0.120048 498.978 190.158)" width="102.78" height="11.95" rx="5.97" ry="5.97"/>
     <rect class="fil2" transform="matrix(-0.221114 0.633431 -0.343904 -0.120048 519.903 130.187)" width="102.78" height="11.95" rx="5.97" ry="5.97"/>
     <rect class="fil2" transform="matrix(-2.21541 -5.37015 0.338582 -0.188424 516.443 135.365)" width="102.78" height="11.95" rx="5.97" ry="5.97"/>
    </g>
    <g>
     <path class="fil2" d="M120.79 465.06c2.46,0.86 5.26,-0.77 6.26,-3.63 1,-2.86 -0.18,-5.88 -2.64,-6.74 -1.82,-0.63 -3.82,0.09 -5.14,1.67l-17.14 -5.98 -6.62 -10.81 -7.46 -2.38 10.03 17.08 19.78 6.91c0.24,1.8 1.31,3.32 2.94,3.89z"/>
     <rect class="fil2" transform="matrix(0.563592 0.196735 0.134924 -0.38652 36.9616 422.068)" width="102.78" height="11.95" rx="5.97" ry="5.97"/>
     <rect class="fil2" transform="matrix(0.242169 0.587016 -0.338582 0.188424 18.4517 362.132)" width="102.78" height="11.95" rx="5.97" ry="5.97"/>
     <rect class="fil2" transform="matrix(0.242169 0.587016 -0.338582 0.188424 -4.48305 306.562)" width="102.78" height="11.95" rx="5.97" ry="5.97"/>
     <rect class="fil2" transform="matrix(-5.15587 -1.79978 0.134924 -0.38652 -3.75713 312.644)" width="102.78" height="11.95" rx="5.97" ry="5.97"/>
    </g>
    <g>
     <path class="fil2" d="M487.76 483.58c-0.96,2.76 0.32,5.72 2.87,6.61 2.55,0.89 5.39,-0.63 6.36,-3.39 0.71,-2.04 0.2,-4.19 -1.15,-5.53l6.73 -19.27 10.37 -8.06 2.73 -8.37 -16.36 12.26 -7.76 22.23c-1.66,0.39 -3.14,1.68 -3.78,3.51z"/>
     <rect class="fil2" transform="matrix(-0.221114 0.633431 0.343904 0.120048 533.216 388.369)" width="102.78" height="11.95" rx="5.97" ry="5.97"/>
     <rect class="fil2" transform="matrix(-0.554871 0.30879 -0.147771 -0.358197 589.418 363.669)" width="102.78" height="11.95" rx="5.97" ry="5.97"/>
     <rect class="fil2" transform="matrix(-0.554871 0.30879 -0.147771 -0.358197 641.945 334.426)" width="102.78" height="11.95" rx="5.97" ry="5.97"/>
     <rect class="fil2" transform="matrix(2.0228 -5.79477 0.343904 0.120048 636.327 335.667)" width="102.78" height="11.95" rx="5.97" ry="5.97"/>
    </g>
    <g>
     <path class="fil2" d="M594.27 311.95c1.05,2.56 3.94,3.5 6.45,2.1 2.51,-1.4 3.69,-4.6 2.63,-7.16 -0.78,-1.89 -2.56,-2.9 -4.45,-2.73l-7.37 -17.86 2.65 -13.34 -3.35 -7.6 -4.48 20.74 8.5 20.61c-1.01,1.55 -1.29,3.54 -0.59,5.24z"/>
     <rect class="fil2" transform="matrix(0.242169 0.587016 0.338582 -0.188424 567.134 214.229)" width="102.78" height="11.95" rx="5.97" ry="5.97"/>
     <rect class="fil2" transform="matrix(-0.221114 0.633431 -0.343904 -0.120048 593.786 154.381)" width="102.78" height="11.95" rx="5.97" ry="5.97"/>
     <rect class="fil2" transform="matrix(-0.221114 0.633431 -0.343904 -0.120048 614.711 94.4104)" width="102.78" height="11.95" rx="5.97" ry="5.97"/>
     <rect class="fil2" transform="matrix(-2.21541 -5.37015 0.338582 -0.188424 611.251 99.5877)" width="102.78" height="11.95" rx="5.97" ry="5.97"/>
    </g>
    <g>
     <path class="fil2" d="M169.56 367.96c2.46,0.86 5.26,-0.77 6.26,-3.63 1,-2.86 -0.18,-5.88 -2.64,-6.74 -1.82,-0.63 -3.82,0.09 -5.14,1.67l-17.14 -5.98 -6.62 -10.81 -7.46 -2.38 10.03 17.08 19.78 6.91c0.24,1.8 1.31,3.32 2.94,3.89z"/>
     <rect class="fil2" transform="matrix(0.563592 0.196735 0.134924 -0.38652 85.7333 324.972)" width="102.78" height="11.95" rx="5.97" ry="5.97"/>
     <rect class="fil2" transform="matrix(0.242169 0.587016 -0.338582 0.188424 67.2234 265.035)" width="102.78" height="11.95" rx="5.97" ry="5.97"/>
     <rect class="fil2" transform="matrix(0.242169 0.587016 -0.338582 0.188424 44.2886 209.466)" width="102.78" height="11.95" rx="5.97" ry="5.97"/>
     <rect class="fil2" transform="matrix(-5.15587 -1.79978 0.134924 -0.38652 45.0146 215.547)" width="102.78" height="11.95" rx="5.97" ry="5.97"/>
    </g>
    <g>
     <path class="fil2" d="M573.07 530.08c-0.96,2.76 0.32,5.72 2.87,6.61 2.55,0.89 5.39,-0.63 6.36,-3.39 0.71,-2.04 0.19,-4.19 -1.15,-5.53l6.73 -19.27 10.37 -8.06 2.73 -8.37 -16.36 12.26 -7.76 22.23c-1.66,0.39 -3.14,1.68 -3.78,3.51z"/>
     <rect class="fil2" transform="matrix(-0.221114 0.633431 0.343904 0.120048 618.523 434.869)" width="102.78" height="11.95" rx="5.97" ry="5.97"/>
     <rect class="fil2" transform="matrix(-0.554871 0.30879 -0.147771 -0.358197 674.725 410.169)" width="102.78" height="11.95" rx="5.97" ry="5.97"/>
     <rect class="fil2" transform="matrix(-0.554871 0.30879 -0.147771 -0.358197 727.252 380.926)" width="102.78" height="11.95" rx="5.97" ry="5.97"/>
     <rect class="fil2" transform="matrix(2.0228 -5.79477 0.343904 0.120048 721.634 382.167)" width="102.78" height="11.95" rx="5.97" ry="5.97"/>
    </g>
    <g>
     <path class="fil2" d="M218.33 270.87c2.46,0.86 5.26,-0.77 6.26,-3.63 1,-2.86 -0.18,-5.88 -2.64,-6.74 -1.82,-0.63 -3.82,0.09 -5.14,1.67l-17.14 -5.98 -6.62 -10.81 -7.46 -2.38 10.03 17.08 19.78 6.91c0.24,1.8 1.31,3.32 2.94,3.89z"/>
     <rect class="fil2" transform="matrix(0.563592 0.196735 0.134924 -0.38652 134.505 227.876)" width="102.78" height="11.95" rx="5.97" ry="5.97"/>
     <rect class="fil2" transform="matrix(0.242169 0.587016 -0.338582 0.188424 115.995 167.939)" width="102.78" height="11.95" rx="5.97" ry="5.97"/>
     <rect class="fil2" transform="matrix(0.242169 0.587016 -0.338582 0.188424 93.0603 112.37)" width="102.78" height="11.95" rx="5.97" ry="5.97"/>
     <rect class="fil2" transform="matrix(-5.15587 -1.79978 0.134924 -0.38652 93.7862 118.451)" width="102.78" height="11.95" rx="5.97" ry="5.97"/>
    </g>
    <g>
     <path class="fil2" d="M658.38 576.58c-0.96,2.76 0.32,5.72 2.87,6.61 2.55,0.89 5.39,-0.63 6.36,-3.39 0.71,-2.04 0.2,-4.19 -1.15,-5.53l6.73 -19.27 10.37 -8.06 2.73 -8.37 -16.36 12.26 -7.76 22.23c-1.66,0.39 -3.14,1.68 -3.78,3.51z"/>
     <rect class="fil2" transform="matrix(-0.221114 0.633431 0.343904 0.120048 703.83 481.369)" width="102.78" height="11.95" rx="5.97" ry="5.97"/>
     <rect class="fil2" transform="matrix(-0.554871 0.30879 -0.147771 -0.358197 760.032 456.668)" width="102.78" height="11.95" rx="5.97" ry="5.97"/>
     <rect class="fil2" transform="matrix(-0.554871 0.30879 -0.147771 -0.358197 812.559 427.426)" width="102.78" height="11.95" rx="5.97" ry="5.97"/>
     <rect class="fil2" transform="matrix(2.0228 -5.79477 0.343904 0.120048 806.941 428.667)" width="102.78" height="11.95" rx="5.97" ry="5.97"/>
    </g>
    <g>
     <path class="fil2" d="M267.1 173.77c2.46,0.86 5.26,-0.77 6.26,-3.63 1,-2.86 -0.18,-5.88 -2.64,-6.74 -1.82,-0.63 -3.82,0.09 -5.14,1.67l-17.14 -5.98 -6.62 -10.81 -7.46 -2.38 10.03 17.08 19.78 6.91c0.24,1.8 1.31,3.32 2.94,3.89z"/>
     <rect class="fil2" transform="matrix(0.563592 0.196735 0.134924 -0.38652 183.277 130.779)" width="102.78" height="11.95" rx="5.97" ry="5.97"/>
     <rect class="fil2" transform="matrix(0.242169 0.587016 -0.338582 0.188424 164.767 70.8425)" width="102.78" height="11.95" rx="5.97" ry="5.97"/>
     <rect class="fil2" transform="matrix(0.242169 0.587016 -0.338582 0.188424 141.832 15.2734)" width="102.78" height="11.95" rx="5.97" ry="5.97"/>
     <rect class="fil2" transform="matrix(-5.15587 -1.79978 0.134924 -0.38652 142.558 21.3547)" width="102.78" height="11.95" rx="5.97" ry="5.97"/>
    </g>
    <g>
     <path class="fil2" d="M743.69 623.08c-0.96,2.76 0.32,5.72 2.87,6.61 2.55,0.89 5.39,-0.63 6.36,-3.39 0.71,-2.04 0.2,-4.19 -1.15,-5.53l6.73 -19.27 10.37 -8.06 2.73 -8.37 -16.36 12.26 -7.76 22.23c-1.66,0.39 -3.14,1.68 -3.78,3.51z"/>
     <rect class="fil2" transform="matrix(-0.221114 0.633431 0.343904 0.120048 789.137 527.869)" width="102.78" height="11.95" rx="5.97" ry="5.97"/>
     <rect class="fil2" transform="matrix(-0.554871 0.30879 -0.147771 -0.358197 845.339 503.168)" width="102.78" height="11.95" rx="5.97" ry="5.97"/>
     <rect class="fil2" transform="matrix(-0.554871 0.30879 -0.147771 -0.358197 897.866 473.926)" width="102.78" height="11.95" rx="5.97" ry="5.97"/>
     <rect class="fil2" transform="matrix(2.0228 -5.79477 0.343904 0.120048 892.247 475.167)" width="102.78" height="11.95" rx="5.97" ry="5.97"/>
    </g>
    <g>
     <path class="fil2" d="M-357.96 520.58c-0.96,2.76 -3.81,4.28 -6.36,3.39 -2.55,-0.89 -3.83,-3.85 -2.87,-6.61 0.71,-2.04 2.45,-3.4 4.34,-3.61l6.73 -19.27 -3.1 -12.77 3.07 -8.25 5.18 19.78 -7.76 22.23c1.06,1.34 1.41,3.27 0.77,5.1z"/>
     <rect class="fil2" transform="matrix(-0.221114 0.633431 -0.343904 -0.120048 -334.286 417.763)" width="102.78" height="11.95" rx="5.97" ry="5.97"/>
     <rect class="fil2" transform="matrix(0.242169 0.587016 0.338582 -0.188424 -362.908 363.453)" width="102.78" height="11.95" rx="5.97" ry="5.97"/>
     <rect class="fil2" transform="matrix(0.242169 0.587016 0.338582 -0.188424 -385.826 307.875)" width="102.78" height="11.95" rx="5.97" ry="5.97"/>
     <rect class="fil2" transform="matrix(2.0228 -5.79477 -0.343904 -0.120048 -382.2 312.342)" width="102.78" height="11.95" rx="5.97" ry="5.97"/>
    </g>
    <g>
     <path class="fil2" d="M-238.52 506.68c-0.96,2.76 -3.81,4.28 -6.36,3.39 -2.55,-0.89 -3.83,-3.85 -2.87,-6.61 0.71,-2.04 2.45,-3.4 4.34,-3.61l6.73 -19.27 -3.1 -12.77 3.07 -8.25 5.18 19.78 -7.76 22.23c1.06,1.34 1.41,3.27 0.77,5.1z"/>
     <rect class="fil2" transform="matrix(-0.221114 0.633431 -0.343904 -0.120048 -214.843 403.868)" width="102.78" height="11.95" rx="5.97" ry="5.97"/>
     <rect class="fil2" transform="matrix(0.242169 0.587016 0.338582 -0.188424 -243.465 349.558)" width="102.78" height="11.95" rx="5.97" ry="5.97"/>
     <rect class="fil2" transform="matrix(0.242169 0.587016 0.338582 -0.188424 -266.383 293.98)" width="102.78" height="11.95" rx="5.97" ry="5.97"/>
     <rect class="fil2" transform="matrix(2.0228 -5.79477 -0.343904 -0.120048 -262.757 298.448)" width="102.78" height="11.95" rx="5.97" ry="5.97"/>
    </g>
    <g>
     <path class="fil2" d="M-119.07 492.79c-0.96,2.76 -3.81,4.28 -6.36,3.39 -2.55,-0.89 -3.83,-3.85 -2.87,-6.61 0.71,-2.04 2.45,-3.4 4.34,-3.61l6.73 -19.27 -3.1 -12.77 3.07 -8.25 5.18 19.78 -7.76 22.23c1.06,1.34 1.41,3.27 0.77,5.1z"/>
     <rect class="fil2" transform="matrix(-0.221114 0.633431 -0.343904 -0.120048 -95.4002 389.973)" width="102.78" height="11.95" rx="5.97" ry="5.97"/>
     <rect class="fil2" transform="matrix(0.242169 0.587016 0.338582 -0.188424 -124.022 335.664)" width="102.78" height="11.95" rx="5.97" ry="5.97"/>
     <rect class="fil2" transform="matrix(0.242169 0.587016 0.338582 -0.188424 -146.94 280.085)" width="102.78" height="11.95" rx="5.97" ry="5.97"/>
     <rect class="fil2" transform="matrix(2.0228 -5.79477 -0.343904 -0.120048 -143.314 284.553)" width="102.78" height="11.95" rx="5.97" ry="5.97"/>
    </g>
    <g>
     <path class="fil2" d="M398.57 305.81c-2.46,-0.86 -3.64,-3.87 -2.64,-6.74 1,-2.86 3.8,-4.49 6.26,-3.63 1.81,0.63 2.93,2.45 2.99,4.51l17.14 5.98 11.91 -4.34 7.32 2.78 -18.48 7.13 -19.78 -6.91c-1.31,1.26 -3.09,1.79 -4.72,1.22z"/>
     <rect class="fil2" transform="matrix(-0.563592 -0.196735 0.134924 -0.38652 490.94 324.327)" width="102.78" height="11.95" rx="5.97" ry="5.97"/>
     <rect class="fil2" transform="matrix(-0.554871 0.30879 0.147771 0.358197 542.728 288.929)" width="102.78" height="11.95" rx="5.97" ry="5.97"/>
     <rect class="fil2" transform="matrix(-0.554871 0.30879 0.147771 0.358197 595.262 259.704)" width="102.78" height="11.95" rx="5.97" ry="5.97"/>
     <rect class="fil2" transform="matrix(5.15587 1.79978 0.134924 -0.38652 590.91 264.013)" width="102.78" height="11.95" rx="5.97" ry="5.97"/>
    </g>
    <g>
     <path class="fil2" d="M411.56 264.69c-2.42,1.35 -5.26,0.28 -6.36,-2.37 -1.09,-2.65 -0.02,-5.9 2.39,-7.24 1.79,-0.99 3.81,-0.67 5.18,0.63l16.88 -9.39 6.23 -12.09 7.35 -3.87 -9.4 19.03 -19.48 10.84c-0.18,1.84 -1.19,3.57 -2.8,4.47z"/>
     <rect class="fil2" transform="matrix(-0.554871 0.30879 -0.147771 -0.358197 493.618 205.082)" width="102.78" height="11.95" rx="5.97" ry="5.97"/>
     <rect class="fil2" transform="matrix(-0.221114 0.633431 0.343904 0.120048 509.999 141.649)" width="102.78" height="11.95" rx="5.97" ry="5.97"/>
     <rect class="fil2" transform="matrix(-0.221114 0.633431 0.343904 0.120048 530.941 81.6843)" width="102.78" height="11.95" rx="5.97" ry="5.97"/>
     <rect class="fil2" transform="matrix(5.07608 -2.82488 -0.147771 -0.358197 530.427 87.8899)" width="102.78" height="11.95" rx="5.97" ry="5.97"/>
    </g>
    <g>
     <path class="fil2" d="M0.37 478.89c-0.96,2.76 -3.81,4.28 -6.36,3.39 -2.55,-0.89 -3.83,-3.85 -2.87,-6.61 0.71,-2.04 2.45,-3.4 4.34,-3.61l6.73 -19.27 -3.1 -12.77 3.08 -8.25 5.18 19.78 -7.76 22.23c1.06,1.34 1.41,3.27 0.77,5.1z"/>
     <rect class="fil2" transform="matrix(-0.221114 0.633431 -0.343904 -0.120048 24.0428 376.079)" width="102.78" height="11.95" rx="5.97" ry="5.97"/>
     <rect class="fil2" transform="matrix(0.242169 0.587016 0.338582 -0.188424 -4.57874 321.769)" width="102.78" height="11.95" rx="5.97" ry="5.97"/>
     <rect class="fil2" transform="matrix(0.242169 0.587016 0.338582 -0.188424 -27.497 266.191)" width="102.78" height="11.95" rx="5.97" ry="5.97"/>
     <rect class="fil2" transform="matrix(2.0228 -5.79477 -0.343904 -0.120048 -23.8711 270.658)" width="102.78" height="11.95" rx="5.97" ry="5.97"/>
    </g>
    <g>
     <path class="fil2" d="M402.58 436.01c-2.46,-0.86 -3.64,-3.87 -2.64,-6.74 1,-2.86 3.8,-4.49 6.26,-3.63 1.82,0.63 2.93,2.45 2.99,4.51l17.14 5.98 11.91 -4.34 7.32 2.78 -18.48 7.13 -19.78 -6.91c-1.31,1.26 -3.09,1.79 -4.72,1.22z"/>
     <rect class="fil2" transform="matrix(-0.563592 -0.196735 0.134924 -0.38652 494.953 454.52)" width="102.78" height="11.95" rx="5.97" ry="5.97"/>
     <rect class="fil2" transform="matrix(-0.554871 0.30879 0.147771 0.358197 546.741 419.123)" width="102.78" height="11.95" rx="5.97" ry="5.97"/>
     <rect class="fil2" transform="matrix(-0.554871 0.30879 0.147771 0.358197 599.275 389.898)" width="102.78" height="11.95" rx="5.97" ry="5.97"/>
     <rect class="fil2" transform="matrix(5.15587 1.79978 0.134924 -0.38652 594.923 394.206)" width="102.78" height="11.95" rx="5.97" ry="5.97"/>
    </g>
    <g>
     <path class="fil2" d="M498.86 346.93c-2.42,1.35 -5.26,0.28 -6.36,-2.37 -1.09,-2.65 -0.02,-5.9 2.39,-7.24 1.79,-0.99 3.81,-0.67 5.18,0.63l16.88 -9.39 6.23 -12.09 7.35 -3.87 -9.41 19.03 -19.48 10.84c-0.18,1.84 -1.19,3.57 -2.8,4.47z"/>
     <rect class="fil2" transform="matrix(-0.554871 0.30879 -0.147771 -0.358197 580.914 287.318)" width="102.78" height="11.95" rx="5.97" ry="5.97"/>
     <rect class="fil2" transform="matrix(-0.221114 0.633431 0.343904 0.120048 597.296 223.885)" width="102.78" height="11.95" rx="5.97" ry="5.97"/>
     <rect class="fil2" transform="matrix(-0.221114 0.633431 0.343904 0.120048 618.238 163.92)" width="102.78" height="11.95" rx="5.97" ry="5.97"/>
     <rect class="fil2" transform="matrix(5.07608 -2.82488 -0.147771 -0.358197 617.724 170.126)" width="102.78" height="11.95" rx="5.97" ry="5.97"/>
    </g>
    <g>
     <path class="fil2" d="M119.81 465c-0.96,2.76 -3.81,4.28 -6.36,3.39 -2.55,-0.89 -3.83,-3.85 -2.87,-6.61 0.71,-2.04 2.45,-3.4 4.34,-3.61l6.73 -19.27 -3.1 -12.77 3.07 -8.25 5.18 19.78 -7.76 22.23c1.06,1.34 1.41,3.27 0.77,5.1z"/>
     <rect class="fil2" transform="matrix(-0.221114 0.633431 -0.343904 -0.120048 143.486 362.184)" width="102.78" height="11.95" rx="5.97" ry="5.97"/>
     <rect class="fil2" transform="matrix(0.242169 0.587016 0.338582 -0.188424 114.864 307.874)" width="102.78" height="11.95" rx="5.97" ry="5.97"/>
     <rect class="fil2" transform="matrix(0.242169 0.587016 0.338582 -0.188424 91.946 252.296)" width="102.78" height="11.95" rx="5.97" ry="5.97"/>
     <rect class="fil2" transform="matrix(2.0228 -5.79477 -0.343904 -0.120048 95.5719 256.763)" width="102.78" height="11.95" rx="5.97" ry="5.97"/>
    </g>
    <g>
     <path class="fil2" d="M406.6 566.2c-2.46,-0.86 -3.64,-3.87 -2.64,-6.74 1,-2.86 3.8,-4.49 6.26,-3.63 1.81,0.63 2.93,2.45 2.99,4.51l17.14 5.98 11.91 -4.34 7.32 2.78 -18.48 7.13 -19.78 -6.91c-1.31,1.26 -3.09,1.79 -4.72,1.22z"/>
     <rect class="fil2" transform="matrix(-0.563592 -0.196735 0.134924 -0.38652 498.966 584.714)" width="102.78" height="11.95" rx="5.97" ry="5.97"/>
     <rect class="fil2" transform="matrix(-0.554871 0.30879 0.147771 0.358197 550.754 549.316)" width="102.78" height="11.95" rx="5.97" ry="5.97"/>
     <rect class="fil2" transform="matrix(-0.554871 0.30879 0.147771 0.358197 603.288 520.091)" width="102.78" height="11.95" rx="5.97" ry="5.97"/>
     <rect class="fil2" transform="matrix(5.15587 1.79978 0.134924 -0.38652 598.936 524.4)" width="102.78" height="11.95" rx="5.97" ry="5.97"/>
    </g>
    <g>
     <path class="fil2" d="M586.16 429.16c-2.42,1.35 -5.26,0.28 -6.36,-2.37 -1.1,-2.65 -0.02,-5.89 2.39,-7.24 1.79,-0.99 3.81,-0.67 5.18,0.63l16.88 -9.39 6.23 -12.09 7.35 -3.87 -9.4 19.03 -19.48 10.84c-0.18,1.84 -1.19,3.57 -2.8,4.47z"/>
     <rect class="fil2" transform="matrix(-0.554871 0.30879 -0.147771 -0.358197 668.211 369.553)" width="102.78" height="11.95" rx="5.97" ry="5.97"/>
     <rect class="fil2" transform="matrix(-0.221114 0.633431 0.343904 0.120048 684.593 306.121)" width="102.78" height="11.95" rx="5.97" ry="5.97"/>
     <rect class="fil2" transform="matrix(-0.221114 0.633431 0.343904 0.120048 705.534 246.156)" width="102.78" height="11.95" rx="5.97" ry="5.97"/>
     <rect class="fil2" transform="matrix(5.07608 -2.82488 -0.147771 -0.358197 705.02 252.361)" width="102.78" height="11.95" rx="5.97" ry="5.97"/>
    </g>
    <g>
     <path class="fil2" d="M239.26 451.11c-0.96,2.76 -3.81,4.28 -6.36,3.39 -2.55,-0.89 -3.83,-3.85 -2.87,-6.61 0.71,-2.04 2.45,-3.4 4.34,-3.61l6.73 -19.27 -3.1 -12.77 3.07 -8.25 5.18 19.78 -7.76 22.23c1.06,1.34 1.41,3.27 0.77,5.1z"/>
     <rect class="fil2" transform="matrix(-0.221114 0.633431 -0.343904 -0.120048 262.929 348.289)" width="102.78" height="11.95" rx="5.97" ry="5.97"/>
     <rect class="fil2" transform="matrix(0.242169 0.587016 0.338582 -0.188424 234.307 293.98)" width="102.78" height="11.95" rx="5.97" ry="5.97"/>
     <rect class="fil2" transform="matrix(0.242169 0.587016 0.338582 -0.188424 211.389 238.401)" width="102.78" height="11.95" rx="5.97" ry="5.97"/>
     <rect class="fil2" transform="matrix(2.0228 -5.79477 -0.343904 -0.120048 215.015 242.869)" width="102.78" height="11.95" rx="5.97" ry="5.97"/>
    </g>
    <g>
     <path class="fil2" d="M410.61 696.39c-2.46,-0.86 -3.64,-3.87 -2.64,-6.74 1,-2.86 3.8,-4.49 6.26,-3.63 1.82,0.63 2.93,2.45 2.99,4.51l17.14 5.98 11.91 -4.34 7.32 2.78 -18.48 7.13 -19.78 -6.9c-1.31,1.26 -3.09,1.79 -4.72,1.22z"/>
     <rect class="fil2" transform="matrix(-0.563592 -0.196735 0.134924 -0.38652 502.979 714.907)" width="102.78" height="11.95" rx="5.97" ry="5.97"/>
     <rect class="fil2" transform="matrix(-0.554871 0.30879 0.147771 0.358197 554.767 679.51)" width="102.78" height="11.95" rx="5.97" ry="5.97"/>
     <rect class="fil2" transform="matrix(-0.554871 0.30879 0.147771 0.358197 607.301 650.285)" width="102.78" height="11.95" rx="5.97" ry="5.97"/>
     <rect class="fil2" transform="matrix(5.15587 1.79978 0.134924 -0.38652 602.949 654.593)" width="102.78" height="11.95" rx="5.97" ry="5.97"/>
    </g>
    <g>
     <path class="fil2" d="M673.45 511.4c-2.42,1.35 -5.26,0.28 -6.36,-2.37 -1.09,-2.65 -0.02,-5.89 2.39,-7.24 1.79,-0.99 3.81,-0.67 5.18,0.63l16.88 -9.39 6.23 -12.09 7.35 -3.87 -9.4 19.03 -19.48 10.84c-0.18,1.84 -1.19,3.57 -2.8,4.47z"/>
     <rect class="fil2" transform="matrix(-0.554871 0.30879 -0.147771 -0.358197 755.508 451.789)" width="102.78" height="11.95" rx="5.97" ry="5.97"/>
     <rect class="fil2" transform="matrix(-0.221114 0.633431 0.343904 0.120048 771.889 388.356)" width="102.78" height="11.95" rx="5.97" ry="5.97"/>
     <rect class="fil2" transform="matrix(-0.221114 0.633431 0.343904 0.120048 792.831 328.391)" width="102.78" height="11.95" rx="5.97" ry="5.97"/>
     <rect class="fil2" transform="matrix(5.07608 -2.82488 -0.147771 -0.358197 792.317 334.597)" width="102.78" height="11.95" rx="5.97" ry="5.97"/>
    </g>
    <g>
     <path class="fil2" d="M358.7 437.21c-0.96,2.76 -3.81,4.28 -6.36,3.39 -2.55,-0.89 -3.83,-3.85 -2.87,-6.61 0.71,-2.04 2.45,-3.4 4.34,-3.61l6.73 -19.27 -3.1 -12.77 3.07 -8.25 5.18 19.78 -7.76 22.23c1.06,1.34 1.41,3.27 0.77,5.1z"/>
     <rect class="fil2" transform="matrix(-0.221114 0.633431 -0.343904 -0.120048 382.372 334.395)" width="102.78" height="11.95" rx="5.97" ry="5.97"/>
     <rect class="fil2" transform="matrix(0.242169 0.587016 0.338582 -0.188424 353.75 280.085)" width="102.78" height="11.95" rx="5.97" ry="5.97"/>
     <rect class="fil2" transform="matrix(0.242169 0.587016 0.338582 -0.188424 330.832 224.507)" width="102.78" height="11.95" rx="5.97" ry="5.97"/>
     <rect class="fil2" transform="matrix(2.0228 -5.79477 -0.343904 -0.120048 334.458 228.974)" width="102.78" height="11.95" rx="5.97" ry="5.97"/>
    </g>
    <g>
     <path class="fil2" d="M414.62 826.59c-2.46,-0.86 -3.64,-3.87 -2.64,-6.74 1,-2.86 3.8,-4.49 6.26,-3.63 1.81,0.63 2.93,2.45 2.99,4.51l17.14 5.99 11.91 -4.34 7.32 2.78 -18.48 7.13 -19.78 -6.91c-1.31,1.26 -3.09,1.79 -4.72,1.22z"/>
     <rect class="fil2" transform="matrix(-0.563592 -0.196735 0.134924 -0.38652 506.992 845.101)" width="102.78" height="11.95" rx="5.97" ry="5.97"/>
     <rect class="fil2" transform="matrix(-0.554871 0.30879 0.147771 0.358197 558.78 809.703)" width="102.78" height="11.95" rx="5.97" ry="5.97"/>
     <rect class="fil2" transform="matrix(-0.554871 0.30879 0.147771 0.358197 611.314 780.478)" width="102.78" height="11.95" rx="5.97" ry="5.97"/>
     <rect class="fil2" transform="matrix(5.15587 1.79978 0.134924 -0.38652 606.962 784.787)" width="102.78" height="11.95" rx="5.97" ry="5.97"/>
    </g>
    <g>
     <path class="fil2" d="M760.75 593.63c-2.42,1.35 -5.26,0.28 -6.36,-2.37 -1.09,-2.65 -0.02,-5.89 2.39,-7.24 1.79,-0.99 3.81,-0.67 5.18,0.63l16.88 -9.39 6.23 -12.09 7.35 -3.87 -9.41 19.03 -19.48 10.84c-0.18,1.84 -1.19,3.57 -2.8,4.47z"/>
     <rect class="fil2" transform="matrix(-0.554871 0.30879 -0.147771 -0.358197 842.804 534.025)" width="102.78" height="11.95" rx="5.97" ry="5.97"/>
     <rect class="fil2" transform="matrix(-0.221114 0.633431 0.343904 0.120048 859.186 470.592)" width="102.78" height="11.95" rx="5.97" ry="5.97"/>
     <rect class="fil2" transform="matrix(-0.221114 0.633431 0.343904 0.120048 880.127 410.627)" width="102.78" height="11.95" rx="5.97" ry="5.97"/>
     <rect class="fil2" transform="matrix(5.07608 -2.82488 -0.147771 -0.358197 879.613 416.833)" width="102.78" height="11.95" rx="5.97" ry="5.97"/>
    </g>
    <g>
     <path class="fil2" d="M478.14 423.32c-0.96,2.76 -3.81,4.28 -6.36,3.39 -2.55,-0.89 -3.83,-3.85 -2.87,-6.61 0.71,-2.04 2.45,-3.4 4.34,-3.61l6.73 -19.27 -3.1 -12.77 3.07 -8.25 5.18 19.78 -7.76 22.23c1.06,1.34 1.41,3.27 0.77,5.1z"/>
     <rect class="fil2" transform="matrix(-0.221114 0.633431 -0.343904 -0.120048 501.815 320.5)" width="102.78" height="11.95" rx="5.97" ry="5.97"/>
     <rect class="fil2" transform="matrix(0.242169 0.587016 0.338582 -0.188424 473.193 266.19)" width="102.78" height="11.95" rx="5.97" ry="5.97"/>
     <rect class="fil2" transform="matrix(0.242169 0.587016 0.338582 -0.188424 450.275 210.612)" width="102.78" height="11.95" rx="5.97" ry="5.97"/>
     <rect class="fil2" transform="matrix(2.0228 -5.79477 -0.343904 -0.120048 453.901 215.079)" width="102.78" height="11.95" rx="5.97" ry="5.97"/>
    </g>
    <g>
     <path class="fil2" d="M418.63 956.78c-2.46,-0.86 -3.64,-3.87 -2.64,-6.74 1,-2.86 3.8,-4.49 6.26,-3.63 1.82,0.63 2.93,2.45 2.99,4.51l17.14 5.98 11.91 -4.34 7.32 2.78 -18.48 7.13 -19.78 -6.91c-1.31,1.26 -3.09,1.79 -4.72,1.22z"/>
     <rect class="fil2" transform="matrix(-0.563592 -0.196735 0.134924 -0.38652 511.005 975.294)" width="102.78" height="11.95" rx="5.97" ry="5.97"/>
     <rect class="fil2" transform="matrix(-0.554871 0.30879 0.147771 0.358197 562.793 939.897)" width="102.78" height="11.95" rx="5.97" ry="5.97"/>
     <rect class="fil2" transform="matrix(-0.554871 0.30879 0.147771 0.358197 615.327 910.672)" width="102.78" height="11.95" rx="5.97" ry="5.97"/>
     <rect class="fil2" transform="matrix(5.15587 1.79978 0.134924 -0.38652 610.975 914.98)" width="102.78" height="11.95" rx="5.97" ry="5.97"/>
    </g>
    <g>
     <path class="fil2" d="M848.05 675.87c-2.42,1.35 -5.26,0.28 -6.36,-2.37 -1.09,-2.65 -0.02,-5.89 2.39,-7.24 1.79,-0.99 3.81,-0.67 5.18,0.63l16.88 -9.39 6.23 -12.09 7.35 -3.87 -9.4 19.03 -19.48 10.84c-0.18,1.84 -1.19,3.57 -2.8,4.47z"/>
     <rect class="fil2" transform="matrix(-0.554871 0.30879 -0.147771 -0.358197 930.101 616.26)" width="102.78" height="11.95" rx="5.97" ry="5.97"/>
     <rect class="fil2" transform="matrix(-0.221114 0.633431 0.343904 0.120048 946.482 552.828)" width="102.78" height="11.95" rx="5.97" ry="5.97"/>
     <rect class="fil2" transform="matrix(-0.221114 0.633431 0.343904 0.120048 967.424 492.863)" width="102.78" height="11.95" rx="5.97" ry="5.97"/>
     <rect class="fil2" transform="matrix(5.07608 -2.82488 -0.147771 -0.358197 966.91 499.068)" width="102.78" height="11.95" rx="5.97" ry="5.97"/>
    </g>
    <g>
     <path class="fil2" d="M597.58 409.42c-0.96,2.76 -3.81,4.28 -6.36,3.39 -2.55,-0.89 -3.83,-3.85 -2.87,-6.61 0.71,-2.04 2.45,-3.4 4.34,-3.61l6.73 -19.27 -3.1 -12.77 3.07 -8.25 5.18 19.78 -7.76 22.23c1.06,1.34 1.41,3.27 0.77,5.1z"/>
     <rect class="fil2" transform="matrix(-0.221114 0.633431 -0.343904 -0.120048 621.258 306.605)" width="102.78" height="11.95" rx="5.97" ry="5.97"/>
     <rect class="fil2" transform="matrix(0.242169 0.587016 0.338582 -0.188424 592.636 252.296)" width="102.78" height="11.95" rx="5.97" ry="5.97"/>
     <rect class="fil2" transform="matrix(0.242169 0.587016 0.338582 -0.188424 569.718 196.717)" width="102.78" height="11.95" rx="5.97" ry="5.97"/>
     <rect class="fil2" transform="matrix(2.0228 -5.79477 -0.343904 -0.120048 573.344 201.185)" width="102.78" height="11.95" rx="5.97" ry="5.97"/>
    </g>
    <g>
     <path class="fil2" d="M208.68 395.12c0.96,-2.76 -0.32,-5.72 -2.87,-6.61 -2.55,-0.89 -5.39,0.63 -6.36,3.39 -0.71,2.04 -0.2,4.19 1.15,5.53l-6.73 19.27 -10.37 8.06 -2.72 8.37 16.36 -12.26 7.76 -22.23c1.66,-0.39 3.14,-1.68 3.78,-3.51z"/>
     <rect class="fil2" transform="matrix(0.221114 -0.633431 -0.343904 -0.120048 163.226 490.334)" width="102.78" height="11.95" rx="5.97" ry="5.97"/>
     <rect class="fil2" transform="matrix(0.554871 -0.30879 0.147771 0.358197 107.024 515.034)" width="102.78" height="11.95" rx="5.97" ry="5.97"/>
     <rect class="fil2" transform="matrix(0.554871 -0.30879 0.147771 0.358197 54.4968 544.276)" width="102.78" height="11.95" rx="5.97" ry="5.97"/>
     <rect class="fil2" transform="matrix(-2.0228 5.79477 -0.343904 -0.120048 60.1153 543.036)" width="102.78" height="11.95" rx="5.97" ry="5.97"/>
    </g>
    <g>
     <path class="fil2" d="M325.3 470.74c-1.05,-2.56 -3.94,-3.5 -6.45,-2.1 -2.51,1.4 -3.69,4.6 -2.63,7.16 0.78,1.89 2.56,2.9 4.45,2.73l7.37 17.86 -2.65 13.34 3.35 7.6 4.48 -20.74 -8.5 -20.6c1.01,-1.55 1.29,-3.54 0.59,-5.24z"/>
     <rect class="fil2" transform="matrix(-0.242169 -0.587016 -0.338582 0.188424 352.432 568.463)" width="102.78" height="11.95" rx="5.97" ry="5.97"/>
     <rect class="fil2" transform="matrix(0.221114 -0.633431 0.343904 0.120048 325.78 628.311)" width="102.78" height="11.95" rx="5.97" ry="5.97"/>
     <rect class="fil2" transform="matrix(0.221114 -0.633431 0.343904 0.120048 304.855 688.282)" width="102.78" height="11.95" rx="5.97" ry="5.97"/>
     <rect class="fil2" transform="matrix(2.21541 5.37015 -0.338582 0.188424 308.315 683.104)" width="102.78" height="11.95" rx="5.97" ry="5.97"/>
    </g>
    <g>
     <path class="fil2" d="M68.27 680.98c-2.46,-0.86 -5.26,0.77 -6.26,3.63 -1,2.86 0.18,5.88 2.64,6.74 1.82,0.63 3.82,-0.09 5.14,-1.67l17.14 5.99 6.62 10.81 7.46 2.38 -10.03 -17.08 -19.78 -6.9c-0.24,-1.8 -1.31,-3.32 -2.94,-3.9z"/>
     <rect class="fil2" transform="matrix(-0.563592 -0.196735 -0.134924 0.38652 152.091 723.971)" width="102.78" height="11.95" rx="5.97" ry="5.97"/>
     <rect class="fil2" transform="matrix(-0.242169 -0.587016 0.338582 -0.188424 170.601 783.908)" width="102.78" height="11.95" rx="5.97" ry="5.97"/>
     <rect class="fil2" transform="matrix(-0.242169 -0.587016 0.338582 -0.188424 193.535 839.477)" width="102.78" height="11.95" rx="5.97" ry="5.97"/>
     <rect class="fil2" transform="matrix(5.15587 1.79978 -0.134924 0.38652 192.809 833.395)" width="102.78" height="11.95" rx="5.97" ry="5.97"/>
    </g>
    <g>
     <path class="fil2" d="M238.4 480.12c0.96,-2.76 -0.32,-5.72 -2.87,-6.61 -2.55,-0.89 -5.39,0.63 -6.36,3.39 -0.71,2.04 -0.2,4.19 1.15,5.53l-6.73 19.27 -10.37 8.06 -2.73 8.37 16.36 -12.26 7.76 -22.23c1.67,-0.39 3.14,-1.68 3.78,-3.51z"/>
     <rect class="fil2" transform="matrix(0.221114 -0.633431 -0.343904 -0.120048 192.942 575.336)" width="102.78" height="11.95" rx="5.97" ry="5.97"/>
     <rect class="fil2" transform="matrix(0.554871 -0.30879 0.147771 0.358197 136.741 600.036)" width="102.78" height="11.95" rx="5.97" ry="5.97"/>
     <rect class="fil2" transform="matrix(0.554871 -0.30879 0.147771 0.358197 84.2138 629.278)" width="102.78" height="11.95" rx="5.97" ry="5.97"/>
     <rect class="fil2" transform="matrix(-2.0228 5.79477 -0.343904 -0.120048 89.8323 628.038)" width="102.78" height="11.95" rx="5.97" ry="5.97"/>
    </g>
    <g>
     <path class="fil2" d="M402.85 503.38c-1.05,-2.56 -3.95,-3.5 -6.45,-2.1 -2.51,1.4 -3.69,4.6 -2.63,7.16 0.78,1.89 2.56,2.9 4.45,2.73l7.37 17.86 -2.65 13.34 3.35 7.6 4.48 -20.75 -8.5 -20.6c1.01,-1.55 1.29,-3.54 0.59,-5.24z"/>
     <rect class="fil2" transform="matrix(-0.242169 -0.587016 -0.338582 0.188424 429.984 601.107)" width="102.78" height="11.95" rx="5.97" ry="5.97"/>
     <rect class="fil2" transform="matrix(0.221114 -0.633431 0.343904 0.120048 403.332 660.954)" width="102.78" height="11.95" rx="5.97" ry="5.97"/>
     <rect class="fil2" transform="matrix(0.221114 -0.633431 0.343904 0.120048 382.407 720.925)" width="102.78" height="11.95" rx="5.97" ry="5.97"/>
     <rect class="fil2" transform="matrix(2.21541 5.37015 -0.338582 0.188424 385.866 715.748)" width="102.78" height="11.95" rx="5.97" ry="5.97"/>
    </g>
    <g>
     <path class="fil2" d="M148.22 642.14c-2.46,-0.86 -5.26,0.77 -6.26,3.63 -1,2.86 0.18,5.88 2.64,6.74 1.82,0.63 3.82,-0.09 5.14,-1.67l17.14 5.98 6.62 10.81 7.46 2.38 -10.03 -17.08 -19.78 -6.91c-0.24,-1.8 -1.31,-3.32 -2.94,-3.89z"/>
     <rect class="fil2" transform="matrix(-0.563592 -0.196735 -0.134924 0.38652 232.048 685.134)" width="102.78" height="11.95" rx="5.97" ry="5.97"/>
     <rect class="fil2" transform="matrix(-0.242169 -0.587016 0.338582 -0.188424 250.558 745.07)" width="102.78" height="11.95" rx="5.97" ry="5.97"/>
     <rect class="fil2" transform="matrix(-0.242169 -0.587016 0.338582 -0.188424 273.493 800.64)" width="102.78" height="11.95" rx="5.97" ry="5.97"/>
     <rect class="fil2" transform="matrix(5.15587 1.79978 -0.134924 0.38652 272.767 794.558)" width="102.78" height="11.95" rx="5.97" ry="5.97"/>
    </g>
    <g>
     <path class="fil2" d="M287.15 555.57c0.96,-2.76 -0.32,-5.72 -2.87,-6.61 -2.55,-0.89 -5.39,0.63 -6.36,3.39 -0.71,2.04 -0.2,4.19 1.15,5.53l-6.73 19.27 -10.37 8.06 -2.73 8.37 16.36 -12.26 7.76 -22.23c1.67,-0.39 3.14,-1.68 3.78,-3.51z"/>
     <rect class="fil2" transform="matrix(0.221114 -0.633431 -0.343904 -0.120048 241.701 650.783)" width="102.78" height="11.95" rx="5.97" ry="5.97"/>
     <rect class="fil2" transform="matrix(0.554871 -0.30879 0.147771 0.358197 185.499 675.483)" width="102.78" height="11.95" rx="5.97" ry="5.97"/>
     <rect class="fil2" transform="matrix(0.554871 -0.30879 0.147771 0.358197 132.972 704.726)" width="102.78" height="11.95" rx="5.97" ry="5.97"/>
     <rect class="fil2" transform="matrix(-2.0228 5.79477 -0.343904 -0.120048 138.591 703.485)" width="102.78" height="11.95" rx="5.97" ry="5.97"/>
    </g>
    <g>
     <path class="fil2" d="M488.66 514.97c-1.06,-2.56 -3.95,-3.5 -6.45,-2.1 -2.51,1.4 -3.69,4.6 -2.63,7.16 0.78,1.89 2.56,2.9 4.45,2.73l7.37 17.86 -2.65 13.34 3.35 7.6 4.48 -20.75 -8.5 -20.6c1.01,-1.55 1.29,-3.54 0.59,-5.24z"/>
     <rect class="fil2" transform="matrix(-0.242169 -0.587016 -0.338582 0.188424 515.798 612.696)" width="102.78" height="11.95" rx="5.97" ry="5.97"/>
     <rect class="fil2" transform="matrix(0.221114 -0.633431 0.343904 0.120048 489.146 672.543)" width="102.78" height="11.95" rx="5.97" ry="5.97"/>
     <rect class="fil2" transform="matrix(0.221114 -0.633431 0.343904 0.120048 468.221 732.514)" width="102.78" height="11.95" rx="5.97" ry="5.97"/>
     <rect class="fil2" transform="matrix(2.21541 5.37015 -0.338582 0.188424 471.68 727.337)" width="102.78" height="11.95" rx="5.97" ry="5.97"/>
    </g>
    <g>
     <path class="fil2" d="M220.82 583.08c-2.46,-0.86 -5.26,0.77 -6.26,3.63 -1,2.86 0.18,5.88 2.64,6.74 1.82,0.63 3.82,-0.09 5.14,-1.67l17.14 5.98 6.62 10.81 7.46 2.38 -10.03 -17.08 -19.78 -6.91c-0.24,-1.8 -1.31,-3.32 -2.94,-3.89z"/>
     <rect class="fil2" transform="matrix(-0.563592 -0.196735 -0.134924 0.38652 304.649 626.076)" width="102.78" height="11.95" rx="5.97" ry="5.97"/>
     <rect class="fil2" transform="matrix(-0.242169 -0.587016 0.338582 -0.188424 323.159 686.013)" width="102.78" height="11.95" rx="5.97" ry="5.97"/>
     <rect class="fil2" transform="matrix(-0.242169 -0.587016 0.338582 -0.188424 346.093 741.582)" width="102.78" height="11.95" rx="5.97" ry="5.97"/>
     <rect class="fil2" transform="matrix(5.15587 1.79978 -0.134924 0.38652 345.367 735.5)" width="102.78" height="11.95" rx="5.97" ry="5.97"/>
    </g>
    <g>
     <path class="fil2" d="M335.91 631.02c0.96,-2.76 -0.32,-5.72 -2.87,-6.61 -2.55,-0.89 -5.39,0.63 -6.36,3.39 -0.71,2.04 -0.2,4.19 1.15,5.53l-6.73 19.27 -10.37 8.06 -2.73 8.37 16.36 -12.26 7.76 -22.23c1.67,-0.39 3.14,-1.68 3.78,-3.51z"/>
     <rect class="fil2" transform="matrix(0.221114 -0.633431 -0.343904 -0.120048 290.46 726.23)" width="102.78" height="11.95" rx="5.97" ry="5.97"/>
     <rect class="fil2" transform="matrix(0.554871 -0.30879 0.147771 0.358197 234.258 750.93)" width="102.78" height="11.95" rx="5.97" ry="5.97"/>
     <rect class="fil2" transform="matrix(0.554871 -0.30879 0.147771 0.358197 181.731 780.173)" width="102.78" height="11.95" rx="5.97" ry="5.97"/>
     <rect class="fil2" transform="matrix(-2.0228 5.79477 -0.343904 -0.120048 187.349 778.932)" width="102.78" height="11.95" rx="5.97" ry="5.97"/>
    </g>
    <g>
     <path class="fil2" d="M574.48 526.56c-1.05,-2.56 -3.94,-3.5 -6.45,-2.1 -2.51,1.4 -3.69,4.6 -2.63,7.16 0.78,1.89 2.56,2.9 4.45,2.73l7.37 17.86 -2.65 13.34 3.35 7.6 4.48 -20.75 -8.5 -20.6c1.01,-1.55 1.29,-3.54 0.59,-5.24z"/>
     <rect class="fil2" transform="matrix(-0.242169 -0.587016 -0.338582 0.188424 601.612 624.285)" width="102.78" height="11.95" rx="5.97" ry="5.97"/>
     <rect class="fil2" transform="matrix(0.221114 -0.633431 0.343904 0.120048 574.96 684.132)" width="102.78" height="11.95" rx="5.97" ry="5.97"/>
     <rect class="fil2" transform="matrix(0.221114 -0.633431 0.343904 0.120048 554.035 744.103)" width="102.78" height="11.95" rx="5.97" ry="5.97"/>
     <rect class="fil2" transform="matrix(2.21541 5.37015 -0.338582 0.188424 557.494 738.926)" width="102.78" height="11.95" rx="5.97" ry="5.97"/>
    </g>
    <g>
     <path class="fil2" d="M293.42 524.03c-2.46,-0.86 -5.26,0.77 -6.26,3.63 -1,2.86 0.18,5.88 2.64,6.74 1.82,0.63 3.82,-0.09 5.14,-1.67l17.14 5.99 6.62 10.81 7.46 2.38 -10.03 -17.08 -19.78 -6.91c-0.24,-1.8 -1.31,-3.32 -2.94,-3.89z"/>
     <rect class="fil2" transform="matrix(-0.563592 -0.196735 -0.134924 0.38652 377.249 567.018)" width="102.78" height="11.95" rx="5.97" ry="5.97"/>
     <rect class="fil2" transform="matrix(-0.242169 -0.587016 0.338582 -0.188424 395.759 626.955)" width="102.78" height="11.95" rx="5.97" ry="5.97"/>
     <rect class="fil2" transform="matrix(-0.242169 -0.587016 0.338582 -0.188424 418.694 682.524)" width="102.78" height="11.95" rx="5.97" ry="5.97"/>
     <rect class="fil2" transform="matrix(5.15587 1.79978 -0.134924 0.38652 417.968 676.443)" width="102.78" height="11.95" rx="5.97" ry="5.97"/>
    </g>
    <g>
     <path class="fil2" d="M384.67 706.46c0.96,-2.76 -0.32,-5.72 -2.87,-6.61 -2.55,-0.89 -5.39,0.63 -6.36,3.39 -0.71,2.04 -0.2,4.19 1.15,5.53l-6.73 19.27 -10.37 8.06 -2.73 8.37 16.36 -12.26 7.76 -22.23c1.66,-0.39 3.14,-1.68 3.78,-3.51z"/>
     <rect class="fil2" transform="matrix(0.221114 -0.633431 -0.343904 -0.120048 339.218 801.678)" width="102.78" height="11.95" rx="5.97" ry="5.97"/>
     <rect class="fil2" transform="matrix(0.554871 -0.30879 0.147771 0.358197 283.017 826.378)" width="102.78" height="11.95" rx="5.97" ry="5.97"/>
     <rect class="fil2" transform="matrix(0.554871 -0.30879 0.147771 0.358197 230.49 855.62)" width="102.78" height="11.95" rx="5.97" ry="5.97"/>
     <rect class="fil2" transform="matrix(-2.0228 5.79477 -0.343904 -0.120048 236.108 854.38)" width="102.78" height="11.95" rx="5.97" ry="5.97"/>
    </g>
    <g>
     <path class="fil2" d="M660.29 538.15c-1.05,-2.56 -3.94,-3.5 -6.45,-2.1 -2.51,1.4 -3.69,4.6 -2.63,7.16 0.78,1.89 2.56,2.9 4.45,2.73l7.37 17.86 -2.65 13.34 3.35 7.6 4.48 -20.75 -8.5 -20.6c1.01,-1.55 1.29,-3.54 0.59,-5.24z"/>
     <rect class="fil2" transform="matrix(-0.242169 -0.587016 -0.338582 0.188424 687.426 635.874)" width="102.78" height="11.95" rx="5.97" ry="5.97"/>
     <rect class="fil2" transform="matrix(0.221114 -0.633431 0.343904 0.120048 660.774 695.722)" width="102.78" height="11.95" rx="5.97" ry="5.97"/>
     <rect class="fil2" transform="matrix(0.221114 -0.633431 0.343904 0.120048 639.849 755.692)" width="102.78" height="11.95" rx="5.97" ry="5.97"/>
     <rect class="fil2" transform="matrix(2.21541 5.37015 -0.338582 0.188424 643.308 750.515)" width="102.78" height="11.95" rx="5.97" ry="5.97"/>
    </g>
    <g>
     <path class="fil2" d="M366.02 464.97c-2.46,-0.86 -5.26,0.77 -6.26,3.63 -1,2.86 0.18,5.88 2.64,6.74 1.81,0.63 3.82,-0.09 5.14,-1.67l17.14 5.98 6.62 10.81 7.46 2.38 -10.03 -17.08 -19.78 -6.91c-0.24,-1.8 -1.31,-3.32 -2.94,-3.89z"/>
     <rect class="fil2" transform="matrix(-0.563592 -0.196735 -0.134924 0.38652 449.85 507.96)" width="102.78" height="11.95" rx="5.97" ry="5.97"/>
     <rect class="fil2" transform="matrix(-0.242169 -0.587016 0.338582 -0.188424 468.36 567.897)" width="102.78" height="11.95" rx="5.97" ry="5.97"/>
     <rect class="fil2" transform="matrix(-0.242169 -0.587016 0.338582 -0.188424 491.295 623.466)" width="102.78" height="11.95" rx="5.97" ry="5.97"/>
     <rect class="fil2" transform="matrix(5.15587 1.79978 -0.134924 0.38652 490.569 617.385)" width="102.78" height="11.95" rx="5.97" ry="5.97"/>
    </g>
    <g>
     <path class="fil2" d="M433.43 781.91c0.96,-2.76 -0.32,-5.72 -2.87,-6.61 -2.55,-0.89 -5.39,0.63 -6.36,3.39 -0.71,2.04 -0.2,4.19 1.15,5.53l-6.73 19.27 -10.37 8.06 -2.73 8.37 16.36 -12.26 7.76 -22.23c1.66,-0.39 3.14,-1.68 3.78,-3.51z"/>
     <rect class="fil2" transform="matrix(0.221114 -0.633431 -0.343904 -0.120048 387.977 877.125)" width="102.78" height="11.95" rx="5.97" ry="5.97"/>
     <rect class="fil2" transform="matrix(0.554871 -0.30879 0.147771 0.358197 331.775 901.825)" width="102.78" height="11.95" rx="5.97" ry="5.97"/>
     <rect class="fil2" transform="matrix(0.554871 -0.30879 0.147771 0.358197 279.248 931.067)" width="102.78" height="11.95" rx="5.97" ry="5.97"/>
     <rect class="fil2" transform="matrix(-2.0228 5.79477 -0.343904 -0.120048 284.867 929.827)" width="102.78" height="11.95" rx="5.97" ry="5.97"/>
    </g>
    <g>
     <path class="fil2" d="M746.11 549.74c-1.05,-2.56 -3.94,-3.5 -6.45,-2.1 -2.51,1.4 -3.69,4.6 -2.63,7.16 0.78,1.89 2.56,2.9 4.45,2.73l7.37 17.86 -2.65 13.34 3.35 7.6 4.48 -20.75 -8.5 -20.6c1.01,-1.55 1.29,-3.54 0.59,-5.24z"/>
     <rect class="fil2" transform="matrix(-0.242169 -0.587016 -0.338582 0.188424 773.24 647.463)" width="102.78" height="11.95" rx="5.97" ry="5.97"/>
     <rect class="fil2" transform="matrix(0.221114 -0.633431 0.343904 0.120048 746.588 707.311)" width="102.78" height="11.95" rx="5.97" ry="5.97"/>
     <rect class="fil2" transform="matrix(0.221114 -0.633431 0.343904 0.120048 725.663 767.281)" width="102.78" height="11.95" rx="5.97" ry="5.97"/>
     <rect class="fil2" transform="matrix(2.21541 5.37015 -0.338582 0.188424 729.122 762.104)" width="102.78" height="11.95" rx="5.97" ry="5.97"/>
    </g>
    <g>
     <path class="fil2" d="M438.62 405.91c-2.46,-0.86 -5.26,0.77 -6.26,3.63 -1,2.86 0.18,5.88 2.64,6.74 1.82,0.63 3.82,-0.09 5.14,-1.67l17.14 5.98 6.62 10.81 7.46 2.38 -10.03 -17.08 -19.78 -6.9c-0.24,-1.8 -1.31,-3.32 -2.94,-3.89z"/>
     <rect class="fil2" transform="matrix(-0.563592 -0.196735 -0.134924 0.38652 522.451 448.902)" width="102.78" height="11.95" rx="5.97" ry="5.97"/>
     <rect class="fil2" transform="matrix(-0.242169 -0.587016 0.338582 -0.188424 540.961 508.839)" width="102.78" height="11.95" rx="5.97" ry="5.97"/>
     <rect class="fil2" transform="matrix(-0.242169 -0.587016 0.338582 -0.188424 563.895 564.408)" width="102.78" height="11.95" rx="5.97" ry="5.97"/>
     <rect class="fil2" transform="matrix(5.15587 1.79978 -0.134924 0.38652 563.169 558.327)" width="102.78" height="11.95" rx="5.97" ry="5.97"/>
    </g>
    <g>
     <path class="fil2" d="M482.19 857.36c0.96,-2.76 -0.32,-5.72 -2.87,-6.61 -2.55,-0.89 -5.39,0.63 -6.36,3.39 -0.71,2.04 -0.2,4.19 1.15,5.53l-6.73 19.27 -10.37 8.06 -2.73 8.37 16.36 -12.26 7.76 -22.23c1.66,-0.39 3.14,-1.68 3.78,-3.51z"/>
     <rect class="fil2" transform="matrix(0.221114 -0.633431 -0.343904 -0.120048 436.735 952.572)" width="102.78" height="11.95" rx="5.97" ry="5.97"/>
     <rect class="fil2" transform="matrix(0.554871 -0.30879 0.147771 0.358197 380.534 977.272)" width="102.78" height="11.95" rx="5.97" ry="5.97"/>
     <rect class="fil2" transform="matrix(0.554871 -0.30879 0.147771 0.358197 328.007 1006.51)" width="102.78" height="11.95" rx="5.97" ry="5.97"/>
     <rect class="fil2" transform="matrix(-2.0228 5.79477 -0.343904 -0.120048 333.625 1005.27)" width="102.78" height="11.95" rx="5.97" ry="5.97"/>
    </g>
    <g>
     <path class="fil2" d="M831.92 561.33c-1.05,-2.56 -3.94,-3.5 -6.45,-2.1 -2.51,1.4 -3.69,4.6 -2.63,7.16 0.78,1.89 2.56,2.9 4.45,2.73l7.37 17.86 -2.65 13.34 3.35 7.6 4.48 -20.75 -8.5 -20.6c1.01,-1.55 1.29,-3.54 0.59,-5.24z"/>
     <rect class="fil2" transform="matrix(-0.242169 -0.587016 -0.338582 0.188424 859.054 659.052)" width="102.78" height="11.95" rx="5.97" ry="5.97"/>
     <rect class="fil2" transform="matrix(0.221114 -0.633431 0.343904 0.120048 832.401 718.9)" width="102.78" height="11.95" rx="5.97" ry="5.97"/>
     <rect class="fil2" transform="matrix(0.221114 -0.633431 0.343904 0.120048 811.477 778.871)" width="102.78" height="11.95" rx="5.97" ry="5.97"/>
     <rect class="fil2" transform="matrix(2.21541 5.37015 -0.338582 0.188424 814.936 773.693)" width="102.78" height="11.95" rx="5.97" ry="5.97"/>
    </g>
    <g>
     <path class="fil2" d="M511.23 346.85c-2.46,-0.86 -5.26,0.77 -6.26,3.63 -1,2.86 0.18,5.88 2.64,6.74 1.82,0.63 3.82,-0.09 5.14,-1.67l17.14 5.98 6.62 10.81 7.46 2.38 -10.03 -17.08 -19.78 -6.91c-0.24,-1.8 -1.31,-3.32 -2.94,-3.89z"/>
     <rect class="fil2" transform="matrix(-0.563592 -0.196735 -0.134924 0.38652 595.051 389.844)" width="102.78" height="11.95" rx="5.97" ry="5.97"/>
     <rect class="fil2" transform="matrix(-0.242169 -0.587016 0.338582 -0.188424 613.561 449.781)" width="102.78" height="11.95" rx="5.97" ry="5.97"/>
     <rect class="fil2" transform="matrix(-0.242169 -0.587016 0.338582 -0.188424 636.496 505.35)" width="102.78" height="11.95" rx="5.97" ry="5.97"/>
     <rect class="fil2" transform="matrix(5.15587 1.79978 -0.134924 0.38652 635.77 499.269)" width="102.78" height="11.95" rx="5.97" ry="5.97"/>
    </g>
    <g>
     <path class="fil2" d="M530.95 932.81c0.96,-2.76 -0.32,-5.72 -2.87,-6.61 -2.55,-0.89 -5.39,0.63 -6.36,3.39 -0.71,2.04 -0.2,4.19 1.15,5.53l-6.73 19.27 -10.37 8.06 -2.72 8.37 16.36 -12.26 7.76 -22.23c1.66,-0.39 3.14,-1.68 3.78,-3.51z"/>
     <rect class="fil2" transform="matrix(0.221114 -0.633431 -0.343904 -0.120048 485.494 1028.02)" width="102.78" height="11.95" rx="5.97" ry="5.97"/>
     <rect class="fil2" transform="matrix(0.554871 -0.30879 0.147771 0.358197 429.292 1052.72)" width="102.78" height="11.95" rx="5.97" ry="5.97"/>
     <rect class="fil2" transform="matrix(0.554871 -0.30879 0.147771 0.358197 376.765 1081.96)" width="102.78" height="11.95" rx="5.97" ry="5.97"/>
     <rect class="fil2" transform="matrix(-2.0228 5.79477 -0.343904 -0.120048 382.384 1080.72)" width="102.78" height="11.95" rx="5.97" ry="5.97"/>
    </g>
    <g>
     <path class="fil2" d="M917.73 572.92c-1.05,-2.56 -3.95,-3.5 -6.45,-2.1 -2.51,1.4 -3.69,4.6 -2.63,7.16 0.78,1.89 2.56,2.9 4.45,2.73l7.37 17.86 -2.65 13.34 3.35 7.6 4.48 -20.75 -8.5 -20.6c1.01,-1.55 1.29,-3.54 0.59,-5.24z"/>
     <rect class="fil2" transform="matrix(-0.242169 -0.587016 -0.338582 0.188424 944.868 670.641)" width="102.78" height="11.95" rx="5.97" ry="5.97"/>
     <rect class="fil2" transform="matrix(0.221114 -0.633431 0.343904 0.120048 918.215 730.489)" width="102.78" height="11.95" rx="5.97" ry="5.97"/>
     <rect class="fil2" transform="matrix(0.221114 -0.633431 0.343904 0.120048 897.291 790.46)" width="102.78" height="11.95" rx="5.97" ry="5.97"/>
     <rect class="fil2" transform="matrix(2.21541 5.37015 -0.338582 0.188424 900.75 785.282)" width="102.78" height="11.95" rx="5.97" ry="5.97"/>
    </g>
    <g>
     <path class="fil2" d="M583.83 287.8c-2.46,-0.86 -5.26,0.77 -6.26,3.63 -1,2.86 0.18,5.88 2.64,6.74 1.82,0.63 3.82,-0.09 5.14,-1.67l17.14 5.98 6.62 10.81 7.46 2.38 -10.03 -17.08 -19.78 -6.91c-0.24,-1.8 -1.31,-3.32 -2.94,-3.89z"/>
     <rect class="fil2" transform="matrix(-0.563592 -0.196735 -0.134924 0.38652 667.652 330.786)" width="102.78" height="11.95" rx="5.97" ry="5.97"/>
     <rect class="fil2" transform="matrix(-0.242169 -0.587016 0.338582 -0.188424 686.162 390.723)" width="102.78" height="11.95" rx="5.97" ry="5.97"/>
     <rect class="fil2" transform="matrix(-0.242169 -0.587016 0.338582 -0.188424 709.097 446.292)" width="102.78" height="11.95" rx="5.97" ry="5.97"/>
     <rect class="fil2" transform="matrix(5.15587 1.79978 -0.134924 0.38652 708.371 440.211)" width="102.78" height="11.95" rx="5.97" ry="5.97"/>
    </g>
    <g>
     <path class="fil2" d="M204.57 249.76c-0.96,2.76 0.32,5.72 2.87,6.61 2.55,0.89 5.39,-0.63 6.36,-3.39 0.71,-2.04 0.19,-4.19 -1.15,-5.53l6.73 -19.27 10.37 -8.06 2.73 -8.37 -16.36 12.26 -7.76 22.23c-1.66,0.39 -3.14,1.68 -3.78,3.51z"/>
     <rect class="fil2" transform="matrix(-0.221114 0.633431 0.343904 0.120048 250.02 154.543)" width="102.78" height="11.95" rx="5.97" ry="5.97"/>
     <rect class="fil2" transform="matrix(-0.554871 0.30879 -0.147771 -0.358197 306.222 129.843)" width="102.78" height="11.95" rx="5.97" ry="5.97"/>
     <rect class="fil2" transform="matrix(-0.554871 0.30879 -0.147771 -0.358197 358.749 100.6)" width="102.78" height="11.95" rx="5.97" ry="5.97"/>
     <rect class="fil2" transform="matrix(2.0228 -5.79477 0.343904 0.120048 353.131 101.841)" width="102.78" height="11.95" rx="5.97" ry="5.97"/>
    </g>
    <g>
     <path class="fil2" d="M228.11 378.63c1.05,2.56 3.95,3.5 6.45,2.1 2.51,-1.4 3.69,-4.6 2.63,-7.16 -0.78,-1.89 -2.56,-2.9 -4.45,-2.73l-7.37 -17.86 2.65 -13.34 -3.35 -7.6 -4.48 20.75 8.5 20.6c-1.01,1.55 -1.29,3.54 -0.59,5.24z"/>
     <rect class="fil2" transform="matrix(0.242169 0.587016 0.338582 -0.188424 200.977 280.907)" width="102.78" height="11.95" rx="5.97" ry="5.97"/>
     <rect class="fil2" transform="matrix(-0.221114 0.633431 -0.343904 -0.120048 227.629 221.059)" width="102.78" height="11.95" rx="5.97" ry="5.97"/>
     <rect class="fil2" transform="matrix(-0.221114 0.633431 -0.343904 -0.120048 248.554 161.089)" width="102.78" height="11.95" rx="5.97" ry="5.97"/>
     <rect class="fil2" transform="matrix(-2.21541 -5.37015 0.338582 -0.188424 245.094 166.266)" width="102.78" height="11.95" rx="5.97" ry="5.97"/>
    </g>
    <g>
     <path class="fil2" d="M-65.07 696.09c2.46,0.86 5.26,-0.77 6.26,-3.63 1,-2.86 -0.18,-5.88 -2.64,-6.74 -1.81,-0.63 -3.82,0.09 -5.14,1.67l-17.14 -5.98 -6.62 -10.81 -7.46 -2.38 10.03 17.08 19.78 6.91c0.24,1.8 1.31,3.32 2.94,3.89z"/>
     <rect class="fil2" transform="matrix(0.563592 0.196735 0.134924 -0.38652 -148.895 653.095)" width="102.78" height="11.95" rx="5.97" ry="5.97"/>
     <rect class="fil2" transform="matrix(0.242169 0.587016 -0.338582 0.188424 -167.405 593.159)" width="102.78" height="11.95" rx="5.97" ry="5.97"/>
     <rect class="fil2" transform="matrix(0.242169 0.587016 -0.338582 0.188424 -190.339 537.589)" width="102.78" height="11.95" rx="5.97" ry="5.97"/>
     <rect class="fil2" transform="matrix(-5.15587 -1.79978 0.134924 -0.38652 -189.613 543.671)" width="102.78" height="11.95" rx="5.97" ry="5.97"/>
    </g>
    <g>
     <path class="fil2" d="M177.29 155.43c-0.96,2.76 0.32,5.72 2.87,6.61 2.55,0.89 5.4,-0.63 6.36,-3.39 0.71,-2.04 0.2,-4.19 -1.15,-5.53l6.73 -19.27 10.37 -8.06 2.73 -8.37 -16.36 12.26 -7.76 22.23c-1.66,0.39 -3.14,1.68 -3.78,3.51z"/>
     <rect class="fil2" transform="matrix(-0.221114 0.633431 0.343904 0.120048 222.745 60.2164)" width="102.78" height="11.95" rx="5.97" ry="5.97"/>
     <rect class="fil2" transform="matrix(-0.554871 0.30879 -0.147771 -0.358197 278.947 35.5163)" width="102.78" height="11.95" rx="5.97" ry="5.97"/>
     <rect class="fil2" transform="matrix(-0.554871 0.30879 -0.147771 -0.358197 331.474 6.27389)" width="102.78" height="11.95" rx="5.97" ry="5.97"/>
     <rect class="fil2" transform="matrix(2.0228 -5.79477 0.343904 0.120048 325.855 7.51442)" width="102.78" height="11.95" rx="5.97" ry="5.97"/>
    </g>
    <g>
     <path class="fil2" d="M587.9 -609.81c1.01,-2.88 -0.35,-5.98 -3.02,-6.91 -2.68,-0.93 -5.66,0.65 -6.67,3.53 -0.74,2.13 -0.2,4.38 1.21,5.78l-7.03 20.14 -10.88 8.42 -2.85 8.75 17.15 -12.8 8.11 -23.24c1.75,-0.41 3.29,-1.75 3.96,-3.67z"/>
     <rect class="fil2" transform="matrix(0.231146 -0.66217 -0.36107 -0.12604 540.338 -510.296)" width="102.78" height="11.95" rx="5.97" ry="5.97"/>
     <rect class="fil2" transform="matrix(0.581857 -0.322168 0.155581 0.374835 481.393 -484.543)" width="102.78" height="11.95" rx="5.97" ry="5.97"/>
     <rect class="fil2" transform="matrix(0.581857 -0.322168 0.155581 0.374835 426.312 -454.033)" width="102.78" height="11.95" rx="5.97" ry="5.97"/>
     <rect class="fil2" transform="matrix(-2.11458 6.05768 -0.36107 -0.12604 432.206 -455.323)" width="102.78" height="11.95" rx="5.97" ry="5.97"/>
    </g>
    <g>
     <path class="fil2" d="M639.18 -530.84c1.01,-2.89 -0.35,-5.98 -3.02,-6.91 -2.67,-0.93 -5.66,0.65 -6.67,3.53 -0.74,2.13 -0.2,4.38 1.21,5.78l-7.03 20.14 -10.87 8.42 -2.85 8.75 17.15 -12.8 8.11 -23.24c1.75,-0.41 3.29,-1.75 3.96,-3.67z"/>
     <rect class="fil2" transform="matrix(0.231146 -0.66217 -0.36107 -0.12604 591.613 -431.32)" width="102.78" height="11.95" rx="5.97" ry="5.97"/>
     <rect class="fil2" transform="matrix(0.581857 -0.322168 0.155581 0.374835 532.668 -405.566)" width="102.78" height="11.95" rx="5.97" ry="5.97"/>
     <rect class="fil2" transform="matrix(0.581857 -0.322168 0.155581 0.374835 477.587 -375.057)" width="102.78" height="11.95" rx="5.97" ry="5.97"/>
     <rect class="fil2" transform="matrix(-2.11458 6.05768 -0.36107 -0.12604 483.481 -376.346)" width="102.78" height="11.95" rx="5.97" ry="5.97"/>
    </g>
    <g>
     <path class="fil2" d="M690.45 -451.86c1.01,-2.89 -0.34,-5.98 -3.02,-6.91 -2.67,-0.93 -5.66,0.65 -6.67,3.53 -0.74,2.13 -0.2,4.38 1.22,5.78l-7.03 20.14 -10.88 8.42 -2.85 8.75 17.15 -12.8 8.11 -23.24c1.75,-0.41 3.29,-1.75 3.96,-3.67z"/>
     <rect class="fil2" transform="matrix(0.231146 -0.66217 -0.36107 -0.12604 642.888 -352.343)" width="102.78" height="11.95" rx="5.97" ry="5.97"/>
     <rect class="fil2" transform="matrix(0.581857 -0.322168 0.155581 0.374835 583.943 -326.59)" width="102.78" height="11.95" rx="5.97" ry="5.97"/>
     <rect class="fil2" transform="matrix(0.581857 -0.322168 0.155581 0.374835 528.862 -296.08)" width="102.78" height="11.95" rx="5.97" ry="5.97"/>
     <rect class="fil2" transform="matrix(-2.11458 6.05768 -0.36107 -0.12604 534.756 -297.37)" width="102.78" height="11.95" rx="5.97" ry="5.97"/>
    </g>
    <g>
     <path class="fil2" d="M741.73 -372.88c1.01,-2.89 -0.35,-5.98 -3.02,-6.91 -2.68,-0.93 -5.66,0.65 -6.67,3.53 -0.74,2.13 -0.2,4.38 1.21,5.78l-7.03 20.14 -10.88 8.42 -2.85 8.75 17.15 -12.8 8.11 -23.24c1.74,-0.41 3.29,-1.75 3.96,-3.67z"/>
     <rect class="fil2" transform="matrix(0.231146 -0.66217 -0.36107 -0.12604 694.163 -273.366)" width="102.78" height="11.95" rx="5.97" ry="5.97"/>
     <rect class="fil2" transform="matrix(0.581857 -0.322168 0.155581 0.374835 635.218 -247.613)" width="102.78" height="11.95" rx="5.97" ry="5.97"/>
     <rect class="fil2" transform="matrix(0.581857 -0.322168 0.155581 0.374835 580.137 -217.104)" width="102.78" height="11.95" rx="5.97" ry="5.97"/>
     <rect class="fil2" transform="matrix(-2.11458 6.05768 -0.36107 -0.12604 586.031 -218.393)" width="102.78" height="11.95" rx="5.97" ry="5.97"/>
    </g>
    <g>
     <path class="fil2" d="M793 -293.91c1.01,-2.88 -0.35,-5.98 -3.02,-6.91 -2.68,-0.93 -5.66,0.65 -6.67,3.53 -0.74,2.13 -0.2,4.38 1.21,5.78l-7.03 20.14 -10.88 8.42 -2.85 8.75 17.15 -12.8 8.11 -23.24c1.75,-0.41 3.29,-1.75 3.96,-3.67z"/>
     <rect class="fil2" transform="matrix(0.231146 -0.66217 -0.36107 -0.12604 745.438 -194.39)" width="102.78" height="11.95" rx="5.97" ry="5.97"/>
     <rect class="fil2" transform="matrix(0.581857 -0.322168 0.155581 0.374835 686.493 -168.636)" width="102.78" height="11.95" rx="5.97" ry="5.97"/>
     <rect class="fil2" transform="matrix(0.581857 -0.322168 0.155581 0.374835 631.412 -138.127)" width="102.78" height="11.95" rx="5.97" ry="5.97"/>
     <rect class="fil2" transform="matrix(-2.11458 6.05768 -0.36107 -0.12604 637.306 -139.417)" width="102.78" height="11.95" rx="5.97" ry="5.97"/>
    </g>
    <g>
     <path class="fil2" d="M844.28 -214.93c1.01,-2.88 -0.34,-5.98 -3.02,-6.91 -2.67,-0.93 -5.66,0.65 -6.67,3.53 -0.74,2.13 -0.2,4.38 1.22,5.78l-7.03 20.14 -10.87 8.42 -2.85 8.75 17.15 -12.8 8.11 -23.24c1.75,-0.41 3.29,-1.75 3.96,-3.67z"/>
     <rect class="fil2" transform="matrix(0.231146 -0.66217 -0.36107 -0.12604 796.713 -115.413)" width="102.78" height="11.95" rx="5.97" ry="5.97"/>
     <rect class="fil2" transform="matrix(0.581857 -0.322168 0.155581 0.374835 737.768 -89.6597)" width="102.78" height="11.95" rx="5.97" ry="5.97"/>
     <rect class="fil2" transform="matrix(0.581857 -0.322168 0.155581 0.374835 682.687 -59.1504)" width="102.78" height="11.95" rx="5.97" ry="5.97"/>
     <rect class="fil2" transform="matrix(-2.11458 6.05768 -0.36107 -0.12604 688.581 -60.4399)" width="102.78" height="11.95" rx="5.97" ry="5.97"/>
    </g>
    <g>
     <path class="fil2" d="M895.55 -135.95c1.01,-2.89 -0.35,-5.98 -3.02,-6.91 -2.67,-0.93 -5.66,0.65 -6.67,3.53 -0.74,2.13 -0.2,4.38 1.22,5.78l-7.03 20.14 -10.88 8.42 -2.85 8.75 17.15 -12.8 8.11 -23.24c1.75,-0.41 3.29,-1.75 3.96,-3.67z"/>
     <rect class="fil2" transform="matrix(0.231146 -0.66217 -0.36107 -0.12604 847.988 -36.4366)" width="102.78" height="11.95" rx="5.97" ry="5.97"/>
     <rect class="fil2" transform="matrix(0.581857 -0.322168 0.155581 0.374835 789.043 -10.6831)" width="102.78" height="11.95" rx="5.97" ry="5.97"/>
     <rect class="fil2" transform="matrix(0.581857 -0.322168 0.155581 0.374835 733.962 19.8262)" width="102.78" height="11.95" rx="5.97" ry="5.97"/>
     <rect class="fil2" transform="matrix(-2.11458 6.05768 -0.36107 -0.12604 739.856 18.5367)" width="102.78" height="11.95" rx="5.97" ry="5.97"/>
    </g>
   </g>
  </g>
  <path class="fil3 str0" d="M683.51 595.71l245.48 245.48c27.8,27.8 27.8,73.11 0,100.91 -27.8,27.8 -73.11,27.8 -100.91,0l-245.49 -245.48c-51.61,32.66 -111.34,50.02 -173,50.02 -178.89,0 -323.94,-145.04 -323.94,-323.94 0,-178.89 145.04,-323.94 323.94,-323.94 178.89,0 323.94,145.04 323.94,323.94 0,61.66 -17.36,121.4 -50.02,173.01zm-273.92 -328.03c-85.63,0 -155.03,69.4 -155.03,155.03 0,85.63 69.4,155.02 155.03,155.02 85.63,0 155.02,-69.4 155.02,-155.02 0,-85.63 -69.4,-155.03 -155.02,-155.03z"/>
 </g>
</svg>
