<?xml version="1.0" encoding="UTF-8"?>
<!DOCTYPE svg PUBLIC "-//W3C//DTD SVG 1.1//EN" "http://www.w3.org/Graphics/SVG/1.1/DTD/svg11.dtd">
<!-- Creator: CorelDRAW 2018 (64-Bit Evaluation Version) -->
<svg xmlns="http://www.w3.org/2000/svg" xml:space="preserve" width="141.826mm" height="102.109mm" version="1.1" style="shape-rendering:geometricPrecision; text-rendering:geometricPrecision; image-rendering:optimizeQuality; fill-rule:evenodd; clip-rule:evenodd"
viewBox="0 0 2377.49 1711.71"
 xmlns:xlink="http://www.w3.org/1999/xlink">
 <defs>
  <style type="text/css">
   <![CDATA[
    .str0 {stroke:#00CCFF;stroke-width:11.83;stroke-miterlimit:22.9256}
    .fil4 {fill:none}
    .fil0 {fill:#FEFEFE}
    .fil1 {fill:#002444}
    .fil3 {fill:#00CCFF}
    .fil2 {fill:white}
   ]]>
  </style>
   <clipPath id="id0">
    <path d="M1710.01 1324.59l312.77 0c13.03,0 23.35,4.32 23.35,9.51l0 45.77c0,5.24 -10.32,9.24 -23.35,9.24l-312.77 0c-12.99,0 -23.35,-4 -23.35,-9.24l0 -45.77c0,-5.24 10.37,-9.51 23.35,-9.51l0 0zm-321.29 -802.06c180.9,0 327.88,149.51 327.88,333.53 0,184.06 -146.97,333.18 -327.88,333.18 -181,0 -327.97,-149.15 -327.97,-333.18 0,-183.98 146.98,-333.53 327.97,-333.53l0 0zm0 -51.33c-208.97,0 -378.66,172.41 -378.66,384.84 0,212.48 169.66,384.84 378.66,384.84 208.92,0 378.62,-172.36 378.62,-384.84 0,-212.43 -169.66,-384.84 -378.62,-384.84l0 0zm0 -36.86c228.94,0 414.81,188.95 414.81,421.7 0,232.8 -185.89,421.7 -414.81,421.7 -228.97,0 -414.81,-188.92 -414.81,-421.7 0,-232.75 185.84,-421.7 414.81,-421.7l0 0zm-1044.95 -107.67l440.78 0c18.32,0 33.26,14.59 33.26,32.91l0 160.04c0,18.27 -14.94,32.86 -33.26,32.86l-440.78 0.02c-18.32,0 -32.91,-14.59 -32.91,-32.86l0 -160.04c0,-18.34 14.57,-32.93 32.91,-32.93l0 0zm1240.18 -161.34c-18.32,0 -33.26,14.59 -33.26,32.91l0 30.96 -1295.87 0c-34.51,0 -62.17,27.66 -62.17,62.17l0 1124.3c0,34.59 27.66,62.57 62.17,62.57l1825.27 -0.02c34.51,0 62.17,-27.97 62.17,-62.57l0 -1124.25c0,-34.51 -27.66,-62.17 -62.17,-62.17l-100.81 0 0 -30.96c0,-18.32 -14.89,-32.91 -33.21,-32.91l-362.12 0.02 0 -0.05z"/>
   </clipPath>
 </defs>
 <g id="Layer_x0020_1">
  <metadata id="CorelCorpID_0Corel-Layer"/>
  <path class="fil0" d="M1793.68 0.05l209.24 -0.01c60,-0 114,25.85 151.37,67.05 124.36,5.85 223.2,108.34 223.2,234.16l0 1175.6c0,129.6 -104.73,234.84 -234.42,234.84l-1908.65 0.02c-129.68,0 -234.43,-105.25 -234.43,-234.84l0 -1175.65c0,-129.59 104.84,-234.42 234.42,-234.42l1238.68 0c37.38,-41.04 91.29,-66.79 151.16,-66.79l169.41 0 0 0.05z"/>
  <path class="fil1" d="M1659.67 129.65l316.05 -0.02c40.69,-0 74.99,27.6 84.81,65.22l52.05 0c64.88,0 117.2,52.32 117.2,117.2l0 1148c0,64.88 -52.22,117.62 -117.2,117.62l-1863.85 0.02c-64.98,0 -117.21,-52.74 -117.21,-117.62l0 -1148.06c0,-64.89 52.32,-117.2 117.21,-117.2l1272.36 0c9.83,-37.62 44.18,-65.22 84.86,-65.22l53.72 0 0 0.05z"/>
  <path class="fil2" d="M1579.64 250.09l260.72 -0.01c33.57,-0 61.86,22.77 69.97,53.8l42.93 0c53.53,0 96.69,43.16 96.69,96.69l0 947.03c0,53.53 -43.08,97.03 -96.69,97.03l-1537.55 0.01c-53.6,0 -96.69,-43.51 -96.69,-97.03l0 -947.07c0,-53.53 43.16,-96.69 96.69,-96.69l1049.61 0c8.11,-31.03 36.44,-53.8 70,-53.8l44.31 0 0 0.04z"/>
  <g>
   <path class="fil1" d="M1710.01 1324.59l312.77 0c13.03,0 23.35,4.32 23.35,9.51l0 45.77c0,5.24 -10.32,9.24 -23.35,9.24l-312.77 0c-12.99,0 -23.35,-4 -23.35,-9.24l0 -45.77c0,-5.24 10.37,-9.51 23.35,-9.51l0 0zm-321.29 -802.06c180.9,0 327.88,149.51 327.88,333.53 0,184.06 -146.97,333.18 -327.88,333.18 -181,0 -327.97,-149.15 -327.97,-333.18 0,-183.98 146.98,-333.53 327.97,-333.53l0 0zm0 -51.33c-208.97,0 -378.66,172.41 -378.66,384.84 0,212.48 169.66,384.84 378.66,384.84 208.92,0 378.62,-172.36 378.62,-384.84 0,-212.43 -169.66,-384.84 -378.62,-384.84l0 0zm0 -36.86c228.94,0 414.81,188.95 414.81,421.7 0,232.8 -185.89,421.7 -414.81,421.7 -228.97,0 -414.81,-188.92 -414.81,-421.7 0,-232.75 185.84,-421.7 414.81,-421.7l0 0zm-1044.95 -107.67l440.78 0c18.32,0 33.26,14.59 33.26,32.91l0 160.04c0,18.27 -14.94,32.86 -33.26,32.86l-440.78 0.02c-18.32,0 -32.91,-14.59 -32.91,-32.86l0 -160.04c0,-18.34 14.57,-32.93 32.91,-32.93l0 0zm1240.18 -161.34c-18.32,0 -33.26,14.59 -33.26,32.91l0 30.96 -1295.87 0c-34.51,0 -62.17,27.66 -62.17,62.17l0 1124.3c0,34.59 27.66,62.57 62.17,62.57l1825.27 -0.02c34.51,0 62.17,-27.97 62.17,-62.57l0 -1124.25c0,-34.51 -27.66,-62.17 -62.17,-62.17l-100.81 0 0 -30.96c0,-18.32 -14.89,-32.91 -33.21,-32.91l-362.12 0.02 0 -0.05z"/>
  </g>
  <g style="clip-path:url(#id0)">
   <g>
    <polygon id="1" class="fil3" points="308.98,431.93 319.46,402.02 308.63,353.7 320.48,319.83 364.09,284.67 369.76,293.53 331.21,324.61 320.8,354.55 329.8,405.31 317.76,439.7 "/>
    <polygon class="fil3" points="125.93,682.17 111.82,722.71 123.73,721.5 137.1,683.06 129.38,628.64 141.33,594.5 132.77,586.14 119.03,625.39 "/>
    <g id="_3168552975616">
     <path class="fil3" d="M746.05 681.65c-2.39,6.85 0.8,14.19 7.12,16.39 6.32,2.21 13.38,-1.56 15.77,-8.4 1.77,-5.06 0.49,-10.39 -2.85,-13.72l16.69 -47.81 25.74 -20.01 6.76 -20.77 -40.6 30.42 -19.26 55.17c-4.13,0.98 -7.78,4.16 -9.37,8.72z"/>
     <rect class="fil3" transform="matrix(-0.563113 1.61316 0.875824 0.305727 858.833 445.392)" width="100.14" height="11.64" rx="5.82" ry="5.82"/>
     <rect class="fil3" transform="matrix(-1.41309 0.786399 -0.376331 -0.912224 998.291 384.101)" width="100.14" height="11.64" rx="5.82" ry="5.82"/>
     <rect class="fil3" transform="matrix(-1.41309 0.786399 -0.376331 -0.912224 1128.63 311.54)" width="100.14" height="11.64" rx="5.82" ry="5.82"/>
     <rect class="fil3" transform="matrix(5.15148 -14.7576 0.875824 0.305727 1114.69 314.618)" width="100.14" height="11.64" rx="5.82" ry="5.82"/>
    </g>
    <g id="_3168552974144">
     <path class="fil3" d="M939.6 868.26c2.62,6.34 9.79,8.68 16.01,5.22 6.22,-3.46 9.15,-11.42 6.53,-17.76 -1.93,-4.69 -6.36,-7.19 -11.05,-6.78l-18.28 -44.31 6.58 -33.11 -8.31 -18.87 -11.11 51.48 21.09 51.13c-2.5,3.85 -3.21,8.78 -1.47,13z"/>
     <rect class="fil3" transform="matrix(0.616733 1.49496 0.862271 -0.479861 872.269 625.765)" width="100.14" height="11.64" rx="5.82" ry="5.82"/>
     <rect class="fil3" transform="matrix(-0.563113 1.61316 -0.875824 -0.305727 938.403 477.261)" width="100.14" height="11.64" rx="5.82" ry="5.82"/>
     <rect class="fil3" transform="matrix(-0.563113 1.61316 -0.875824 -0.305727 990.325 328.451)" width="100.14" height="11.64" rx="5.82" ry="5.82"/>
     <rect class="fil3" transform="matrix(-5.64201 -13.6762 0.862271 -0.479861 981.741 341.298)" width="100.14" height="11.64" rx="5.82" ry="5.82"/>
    </g>
    <g id="_3168552972032">
     <path class="fil3" d="M228.43 1463.71c6.09,2.13 13.04,-1.91 15.52,-9.01 2.48,-7.1 -0.45,-14.59 -6.54,-16.72 -4.5,-1.57 -9.47,0.22 -12.76,4.14l-42.54 -14.85 -16.43 -26.82 -18.51 -5.91 24.88 42.38 49.09 17.14c0.59,4.47 3.24,8.25 7.3,9.66z"/>
     <rect class="fil3" transform="matrix(1.43531 0.501027 0.343612 -0.984353 20.4313 1357.03)" width="100.14" height="11.64" rx="5.82" ry="5.82"/>
     <rect class="fil3" transform="matrix(0.616733 1.49496 -0.862271 0.479861 -25.4989 1208.31)" width="100.14" height="11.64" rx="5.82" ry="5.82"/>
     <rect class="fil3" transform="matrix(0.616733 1.49496 -0.862271 0.479861 -82.4087 1070.42)" width="100.14" height="11.64" rx="5.82" ry="5.82"/>
     <rect class="fil3" transform="matrix(-13.1305 -4.58351 0.343612 -0.984353 -80.6074 1085.51)" width="100.14" height="11.64" rx="5.82" ry="5.82"/>
    </g>
    <g id="_3168552968896">
     <path class="fil3" d="M957.73 797.04c-2.39,6.85 0.8,14.19 7.12,16.39 6.32,2.21 13.38,-1.56 15.77,-8.4 1.77,-5.06 0.49,-10.39 -2.85,-13.72l16.69 -47.81 25.74 -20.01 6.76 -20.76 -40.6 30.42 -19.26 55.17c-4.13,0.98 -7.78,4.17 -9.37,8.72z"/>
     <rect class="fil3" transform="matrix(-0.563113 1.61316 0.875824 0.305727 1070.51 560.776)" width="100.14" height="11.64" rx="5.82" ry="5.82"/>
     <rect class="fil3" transform="matrix(-1.41309 0.786399 -0.376331 -0.912224 1209.97 499.485)" width="100.14" height="11.64" rx="5.82" ry="5.82"/>
     <rect class="fil3" transform="matrix(-1.41309 0.786399 -0.376331 -0.912224 1340.31 426.924)" width="100.14" height="11.64" rx="5.82" ry="5.82"/>
     <rect class="fil3" transform="matrix(5.15148 -14.7576 0.875824 0.305727 1326.37 430.002)" width="100.14" height="11.64" rx="5.82" ry="5.82"/>
    </g>
    <g id="_3168552967520">
     <path class="fil3" d="M1174.85 779.48c2.62,6.34 9.78,8.68 16.01,5.22 6.22,-3.46 9.15,-11.42 6.53,-17.76 -1.93,-4.69 -6.36,-7.19 -11.04,-6.78l-18.28 -44.31 6.58 -33.11 -8.31 -18.87 -11.11 51.48 21.09 51.13c-2.5,3.85 -3.21,8.78 -1.47,13z"/>
     <rect class="fil3" transform="matrix(0.616733 1.49496 0.862271 -0.479861 1107.52 536.989)" width="100.14" height="11.64" rx="5.82" ry="5.82"/>
     <rect class="fil3" transform="matrix(-0.563113 1.61316 -0.875824 -0.305727 1173.66 388.485)" width="100.14" height="11.64" rx="5.82" ry="5.82"/>
     <rect class="fil3" transform="matrix(-0.563113 1.61316 -0.875824 -0.305727 1225.58 239.674)" width="100.14" height="11.64" rx="5.82" ry="5.82"/>
     <rect class="fil3" transform="matrix(-5.64201 -13.6762 0.862271 -0.479861 1217 252.521)" width="100.14" height="11.64" rx="5.82" ry="5.82"/>
    </g>
    <g id="_3168552965760">
     <path class="fil3" d="M349.45 1222.78c6.09,2.13 13.04,-1.91 15.52,-9.01 2.48,-7.1 -0.45,-14.59 -6.54,-16.72 -4.5,-1.57 -9.47,0.22 -12.76,4.14l-42.54 -14.85 -16.43 -26.82 -18.51 -5.91 24.88 42.38 49.09 17.14c0.59,4.47 3.25,8.25 7.3,9.66z"/>
     <rect class="fil3" transform="matrix(1.43531 0.501027 0.343612 -0.984353 141.452 1116.1)" width="100.14" height="11.64" rx="5.82" ry="5.82"/>
     <rect class="fil3" transform="matrix(0.616733 1.49496 -0.862271 0.479861 95.5222 967.372)" width="100.14" height="11.64" rx="5.82" ry="5.82"/>
     <rect class="fil3" transform="matrix(0.616733 1.49496 -0.862271 0.479861 38.6124 829.484)" width="100.14" height="11.64" rx="5.82" ry="5.82"/>
     <rect class="fil3" transform="matrix(-13.1305 -4.58351 0.343612 -0.984353 40.4137 844.574)" width="100.14" height="11.64" rx="5.82" ry="5.82"/>
    </g>
    <g id="_3168552963744">
     <path class="fil3" d="M1169.41 912.42c-2.39,6.85 0.8,14.19 7.12,16.39 6.32,2.21 13.38,-1.56 15.77,-8.4 1.77,-5.06 0.49,-10.39 -2.85,-13.72l16.69 -47.81 25.74 -20.01 6.76 -20.77 -40.6 30.42 -19.26 55.17c-4.13,0.98 -7.78,4.17 -9.37,8.72z"/>
     <rect class="fil3" transform="matrix(-0.563113 1.61316 0.875824 0.305727 1282.19 676.16)" width="100.14" height="11.64" rx="5.82" ry="5.82"/>
     <rect class="fil3" transform="matrix(-1.41309 0.786399 -0.376331 -0.912224 1421.65 614.869)" width="100.14" height="11.64" rx="5.82" ry="5.82"/>
     <rect class="fil3" transform="matrix(-1.41309 0.786399 -0.376331 -0.912224 1551.99 542.308)" width="100.14" height="11.64" rx="5.82" ry="5.82"/>
     <rect class="fil3" transform="matrix(5.15148 -14.7576 0.875824 0.305727 1538.05 545.386)" width="100.14" height="11.64" rx="5.82" ry="5.82"/>
    </g>
    <g id="_3168552961632">
     <path class="fil3" d="M1410.11 690.71c2.62,6.35 9.79,8.68 16.01,5.22 6.22,-3.46 9.15,-11.42 6.53,-17.76 -1.93,-4.69 -6.36,-7.19 -11.04,-6.78l-18.28 -44.31 6.58 -33.11 -8.31 -18.87 -11.11 51.48 21.09 51.13c-2.5,3.85 -3.21,8.78 -1.47,13z"/>
     <rect class="fil3" transform="matrix(0.616733 1.49496 0.862271 -0.479861 1342.78 448.212)" width="100.14" height="11.64" rx="5.82" ry="5.82"/>
     <rect class="fil3" transform="matrix(-0.563113 1.61316 -0.875824 -0.305727 1408.91 299.708)" width="100.14" height="11.64" rx="5.82" ry="5.82"/>
     <rect class="fil3" transform="matrix(-0.563113 1.61316 -0.875824 -0.305727 1460.83 150.898)" width="100.14" height="11.64" rx="5.82" ry="5.82"/>
     <rect class="fil3" transform="matrix(-5.64201 -13.6762 0.862271 -0.479861 1452.25 163.745)" width="100.14" height="11.64" rx="5.82" ry="5.82"/>
    </g>
    <g id="_3168552958624">
     <path class="fil3" d="M470.48 981.84c6.09,2.13 13.04,-1.91 15.52,-9.01 2.48,-7.1 -0.45,-14.59 -6.54,-16.72 -4.5,-1.57 -9.47,0.22 -12.76,4.14l-42.54 -14.85 -16.43 -26.82 -18.51 -5.91 24.88 42.38 49.09 17.13c0.59,4.47 3.25,8.25 7.3,9.66z"/>
     <rect class="fil3" transform="matrix(1.43531 0.501027 0.343612 -0.984353 262.473 875.165)" width="100.14" height="11.64" rx="5.82" ry="5.82"/>
     <rect class="fil3" transform="matrix(0.616733 1.49496 -0.862271 0.479861 216.543 726.439)" width="100.14" height="11.64" rx="5.82" ry="5.82"/>
     <rect class="fil3" transform="matrix(0.616733 1.49496 -0.862271 0.479861 159.633 588.551)" width="100.14" height="11.64" rx="5.82" ry="5.82"/>
     <rect class="fil3" transform="matrix(-13.1305 -4.58351 0.343612 -0.984353 161.435 603.641)" width="100.14" height="11.64" rx="5.82" ry="5.82"/>
    </g>
    <g id="_3168552957504">
     <path class="fil3" d="M1381.09 1027.8c-2.39,6.85 0.8,14.19 7.12,16.39 6.32,2.21 13.38,-1.56 15.77,-8.4 1.77,-5.06 0.48,-10.39 -2.86,-13.72l16.69 -47.81 25.74 -20.01 6.76 -20.76 -40.6 30.42 -19.26 55.17c-4.13,0.98 -7.78,4.17 -9.37,8.72z"/>
     <rect class="fil3" transform="matrix(-0.563113 1.61316 0.875824 0.305727 1493.87 791.544)" width="100.14" height="11.64" rx="5.82" ry="5.82"/>
     <rect class="fil3" transform="matrix(-1.41309 0.786399 -0.376331 -0.912224 1633.33 730.253)" width="100.14" height="11.64" rx="5.82" ry="5.82"/>
     <rect class="fil3" transform="matrix(-1.41309 0.786399 -0.376331 -0.912224 1763.67 657.692)" width="100.14" height="11.64" rx="5.82" ry="5.82"/>
     <rect class="fil3" transform="matrix(5.15148 -14.7576 0.875824 0.305727 1749.73 660.77)" width="100.14" height="11.64" rx="5.82" ry="5.82"/>
    </g>
    <g id="_3168552980576">
     <path class="fil3" d="M1645.36 601.93c2.62,6.34 9.78,8.68 16.01,5.22 6.22,-3.46 9.15,-11.42 6.53,-17.76 -1.93,-4.69 -6.36,-7.19 -11.04,-6.78l-18.28 -44.31 6.58 -33.11 -8.31 -18.87 -11.11 51.48 21.09 51.13c-2.5,3.85 -3.21,8.78 -1.47,13z"/>
     <rect class="fil3" transform="matrix(0.616733 1.49496 0.862271 -0.479861 1578.03 359.436)" width="100.14" height="11.64" rx="5.82" ry="5.82"/>
     <rect class="fil3" transform="matrix(-0.563113 1.61316 -0.875824 -0.305727 1644.17 210.932)" width="100.14" height="11.64" rx="5.82" ry="5.82"/>
     <rect class="fil3" transform="matrix(-0.563113 1.61316 -0.875824 -0.305727 1696.09 62.1215)" width="100.14" height="11.64" rx="5.82" ry="5.82"/>
     <rect class="fil3" transform="matrix(-5.64201 -13.6762 0.862271 -0.479861 1687.5 74.9685)" width="100.14" height="11.64" rx="5.82" ry="5.82"/>
    </g>
    <g id="_3168443177872">
     <path class="fil3" d="M591.5 740.91c6.09,2.13 13.04,-1.91 15.52,-9.01 2.48,-7.1 -0.45,-14.59 -6.54,-16.71 -4.5,-1.57 -9.47,0.22 -12.76,4.14l-42.54 -14.85 -16.43 -26.82 -18.51 -5.91 24.88 42.38 49.09 17.13c0.59,4.47 3.24,8.25 7.3,9.66z"/>
     <rect class="fil3" transform="matrix(1.43531 0.501027 0.343612 -0.984353 383.495 634.233)" width="100.14" height="11.64" rx="5.82" ry="5.82"/>
     <rect class="fil3" transform="matrix(0.616733 1.49496 -0.862271 0.479861 337.564 485.506)" width="100.14" height="11.64" rx="5.82" ry="5.82"/>
     <rect class="fil3" transform="matrix(0.616733 1.49496 -0.862271 0.479861 280.655 347.618)" width="100.14" height="11.64" rx="5.82" ry="5.82"/>
     <rect class="fil3" transform="matrix(-13.1305 -4.58351 0.343612 -0.984353 282.456 362.708)" width="100.14" height="11.64" rx="5.82" ry="5.82"/>
    </g>
    <g id="_3168443161712">
     <path class="fil3" d="M1592.76 1143.19c-2.39,6.85 0.8,14.19 7.12,16.39 6.32,2.21 13.38,-1.56 15.77,-8.4 1.77,-5.06 0.48,-10.39 -2.86,-13.72l16.69 -47.81 25.74 -20.01 6.76 -20.76 -40.6 30.42 -19.26 55.17c-4.13,0.98 -7.78,4.17 -9.37,8.72z"/>
     <rect class="fil3" transform="matrix(-0.563113 1.61316 0.875824 0.305727 1705.55 906.928)" width="100.14" height="11.64" rx="5.82" ry="5.82"/>
     <rect class="fil3" transform="matrix(-1.41309 0.786399 -0.376331 -0.912224 1845.01 845.638)" width="100.14" height="11.64" rx="5.82" ry="5.82"/>
     <rect class="fil3" transform="matrix(-1.41309 0.786399 -0.376331 -0.912224 1975.35 773.076)" width="100.14" height="11.64" rx="5.82" ry="5.82"/>
     <rect class="fil3" transform="matrix(5.15148 -14.7576 0.875824 0.305727 1961.4 776.154)" width="100.14" height="11.64" rx="5.82" ry="5.82"/>
    </g>
    <g id="_3168465350080">
     <path class="fil3" d="M712.52 499.98c6.09,2.13 13.04,-1.91 15.52,-9.01 2.48,-7.1 -0.45,-14.59 -6.54,-16.71 -4.5,-1.57 -9.47,0.22 -12.76,4.14l-42.54 -14.85 -16.43 -26.82 -18.51 -5.91 24.88 42.38 49.09 17.13c0.59,4.47 3.25,8.25 7.3,9.66z"/>
     <rect class="fil3" transform="matrix(1.43531 0.501027 0.343612 -0.984353 504.516 393.3)" width="100.14" height="11.64" rx="5.82" ry="5.82"/>
     <rect class="fil3" transform="matrix(0.616733 1.49496 -0.862271 0.479861 458.585 244.574)" width="100.14" height="11.64" rx="5.82" ry="5.82"/>
     <rect class="fil3" transform="matrix(0.616733 1.49496 -0.862271 0.479861 401.676 106.685)" width="100.14" height="11.64" rx="5.82" ry="5.82"/>
     <rect class="fil3" transform="matrix(-13.1305 -4.58351 0.343612 -0.984353 403.477 121.776)" width="100.14" height="11.64" rx="5.82" ry="5.82"/>
    </g>
    <g id="_3168465356864">
     <path class="fil3" d="M1804.44 1258.57c-2.39,6.85 0.8,14.19 7.12,16.39 6.32,2.21 13.38,-1.56 15.77,-8.4 1.77,-5.06 0.48,-10.39 -2.86,-13.72l16.69 -47.81 25.74 -20.01 6.76 -20.77 -40.6 30.42 -19.26 55.17c-4.13,0.98 -7.78,4.16 -9.37,8.72z"/>
     <rect class="fil3" transform="matrix(-0.563113 1.61316 0.875824 0.305727 1917.23 1022.31)" width="100.14" height="11.64" rx="5.82" ry="5.82"/>
     <rect class="fil3" transform="matrix(-1.41309 0.786399 -0.376331 -0.912224 2056.69 961.022)" width="100.14" height="11.64" rx="5.82" ry="5.82"/>
     <rect class="fil3" transform="matrix(-1.41309 0.786399 -0.376331 -0.912224 2187.03 888.46)" width="100.14" height="11.64" rx="5.82" ry="5.82"/>
     <rect class="fil3" transform="matrix(5.15148 -14.7576 0.875824 0.305727 2173.08 891.538)" width="100.14" height="11.64" rx="5.82" ry="5.82"/>
    </g>
    <g id="_3168436725648">
     <path class="fil3" d="M833.54 259.04c6.09,2.13 13.04,-1.91 15.52,-9.01 2.48,-7.1 -0.45,-14.59 -6.54,-16.71 -4.5,-1.57 -9.47,0.22 -12.76,4.14l-42.54 -14.85 -16.43 -26.82 -18.51 -5.91 24.88 42.38 49.09 17.14c0.59,4.46 3.25,8.25 7.3,9.66z"/>
     <rect class="fil3" transform="matrix(1.43531 0.501027 0.343612 -0.984353 625.537 152.367)" width="100.14" height="11.64" rx="5.82" ry="5.82"/>
     <rect class="fil3" transform="matrix(0.616733 1.49496 -0.862271 0.479861 579.606 3.64069)" width="100.14" height="11.64" rx="5.82" ry="5.82"/>
     <rect class="fil3" transform="matrix(0.616733 1.49496 -0.862271 0.479861 522.697 -134.248)" width="100.14" height="11.64" rx="5.82" ry="5.82"/>
     <rect class="fil3" transform="matrix(-13.1305 -4.58351 0.343612 -0.984353 524.498 -119.157)" width="100.14" height="11.64" rx="5.82" ry="5.82"/>
    </g>
    <g id="_3168436722256">
     <path class="fil3" d="M2016.12 1373.96c-2.39,6.85 0.8,14.19 7.12,16.39 6.32,2.21 13.39,-1.56 15.77,-8.4 1.77,-5.06 0.49,-10.39 -2.85,-13.72l16.69 -47.81 25.74 -20.01 6.76 -20.76 -40.6 30.42 -19.26 55.17c-4.13,0.98 -7.78,4.17 -9.37,8.72z"/>
     <rect class="fil3" transform="matrix(-0.563113 1.61316 0.875824 0.305727 2128.91 1137.7)" width="100.14" height="11.64" rx="5.82" ry="5.82"/>
     <rect class="fil3" transform="matrix(-1.41309 0.786399 -0.376331 -0.912224 2268.36 1076.41)" width="100.14" height="11.64" rx="5.82" ry="5.82"/>
     <rect class="fil3" transform="matrix(-1.41309 0.786399 -0.376331 -0.912224 2398.7 1003.84)" width="100.14" height="11.64" rx="5.82" ry="5.82"/>
     <rect class="fil3" transform="matrix(5.15148 -14.7576 0.875824 0.305727 2384.76 1006.92)" width="100.14" height="11.64" rx="5.82" ry="5.82"/>
    </g>
    <g id="_3168436717456">
     <path class="fil3" d="M-717.48 1119.61c-2.39,6.85 -9.45,10.61 -15.77,8.4 -6.32,-2.21 -9.51,-9.55 -7.12,-16.39 1.77,-5.06 6.09,-8.44 10.77,-8.96l16.69 -47.81 -7.7 -31.68 7.63 -20.46 12.85 49.08 -19.26 55.17c2.63,3.33 3.5,8.11 1.91,12.66z"/>
     <rect class="fil3" transform="matrix(-0.563113 1.61316 -0.875824 -0.305727 -658.733 864.481)" width="100.14" height="11.64" rx="5.82" ry="5.82"/>
     <rect class="fil3" transform="matrix(0.616733 1.49496 0.862271 -0.479861 -729.754 729.719)" width="100.14" height="11.64" rx="5.82" ry="5.82"/>
     <rect class="fil3" transform="matrix(0.616733 1.49496 0.862271 -0.479861 -786.623 591.808)" width="100.14" height="11.64" rx="5.82" ry="5.82"/>
     <rect class="fil3" transform="matrix(5.15148 -14.7576 -0.875824 -0.305727 -777.626 602.893)" width="100.14" height="11.64" rx="5.82" ry="5.82"/>
    </g>
    <g id="_3168436713968">
     <path class="fil3" d="M-421.09 1085.13c-2.39,6.85 -9.45,10.61 -15.77,8.4 -6.32,-2.21 -9.51,-9.55 -7.12,-16.39 1.77,-5.06 6.09,-8.44 10.77,-8.96l16.69 -47.81 -7.7 -31.68 7.63 -20.46 12.85 49.08 -19.26 55.17c2.63,3.33 3.5,8.11 1.91,12.66z"/>
     <rect class="fil3" transform="matrix(-0.563113 1.61316 -0.875824 -0.305727 -362.35 830.003)" width="100.14" height="11.64" rx="5.82" ry="5.82"/>
     <rect class="fil3" transform="matrix(0.616733 1.49496 0.862271 -0.479861 -433.371 695.241)" width="100.14" height="11.64" rx="5.82" ry="5.82"/>
     <rect class="fil3" transform="matrix(0.616733 1.49496 0.862271 -0.479861 -490.24 557.33)" width="100.14" height="11.64" rx="5.82" ry="5.82"/>
     <rect class="fil3" transform="matrix(5.15148 -14.7576 -0.875824 -0.305727 -481.242 568.415)" width="100.14" height="11.64" rx="5.82" ry="5.82"/>
    </g>
    <g id="_3167605967952">
     <path class="fil3" d="M-124.71 1050.65c-2.39,6.85 -9.45,10.61 -15.77,8.4 -6.32,-2.21 -9.51,-9.55 -7.12,-16.39 1.77,-5.06 6.09,-8.44 10.77,-8.96l16.69 -47.81 -7.7 -31.68 7.63 -20.46 12.85 49.08 -19.26 55.17c2.63,3.33 3.5,8.11 1.91,12.66z"/>
     <rect class="fil3" transform="matrix(-0.563113 1.61316 -0.875824 -0.305727 -65.9665 795.525)" width="100.14" height="11.64" rx="5.82" ry="5.82"/>
     <rect class="fil3" transform="matrix(0.616733 1.49496 0.862271 -0.479861 -136.987 660.763)" width="100.14" height="11.64" rx="5.82" ry="5.82"/>
     <rect class="fil3" transform="matrix(0.616733 1.49496 0.862271 -0.479861 -193.856 522.852)" width="100.14" height="11.64" rx="5.82" ry="5.82"/>
     <rect class="fil3" transform="matrix(5.15148 -14.7576 -0.875824 -0.305727 -184.859 533.937)" width="100.14" height="11.64" rx="5.82" ry="5.82"/>
    </g>
    <g id="_3167606357568">
     <path class="fil3" d="M1159.76 586.69c-6.09,-2.13 -9.02,-9.61 -6.54,-16.72 2.48,-7.1 9.43,-11.14 15.52,-9.01 4.5,1.57 7.28,6.07 7.42,11.18l42.54 14.85 29.55 -10.76 18.17 6.89 -45.85 17.69 -49.09 -17.14c-3.24,3.13 -7.67,4.44 -11.72,3.02z"/>
     <rect class="fil3" transform="matrix(-1.43531 -0.501027 0.343612 -0.984353 1388.97 632.631)" width="100.14" height="11.64" rx="5.82" ry="5.82"/>
     <rect class="fil3" transform="matrix(-1.41309 0.786399 0.376331 0.912224 1517.47 544.796)" width="100.14" height="11.64" rx="5.82" ry="5.82"/>
     <rect class="fil3" transform="matrix(-1.41309 0.786399 0.376331 0.912224 1647.83 472.278)" width="100.14" height="11.64" rx="5.82" ry="5.82"/>
     <rect class="fil3" transform="matrix(13.1305 4.58351 0.343612 -0.984353 1637.03 482.969)" width="100.14" height="11.64" rx="5.82" ry="5.82"/>
    </g>
    <g id="_3167702520656">
     <path class="fil3" d="M1192 484.66c-6,3.34 -13.06,0.71 -15.78,-5.88 -2.72,-6.58 -0.06,-14.63 5.94,-17.97 4.43,-2.47 9.45,-1.67 12.86,1.57l41.88 -23.31 15.45 -30.01 18.24 -9.6 -23.34 47.21 -48.33 26.9c-0.44,4.57 -2.95,8.87 -6.94,11.09z"/>
     <rect class="fil3" transform="matrix(-1.41309 0.786399 -0.376331 -0.912224 1395.61 336.739)" width="100.14" height="11.64" rx="5.82" ry="5.82"/>
     <rect class="fil3" transform="matrix(-0.563113 1.61316 0.875824 0.305727 1436.26 179.339)" width="100.14" height="11.64" rx="5.82" ry="5.82"/>
     <rect class="fil3" transform="matrix(-0.563113 1.61316 0.875824 0.305727 1488.22 30.5433)" width="100.14" height="11.64" rx="5.82" ry="5.82"/>
     <rect class="fil3" transform="matrix(12.9273 -7.19416 -0.376331 -0.912224 1486.95 45.9417)" width="100.14" height="11.64" rx="5.82" ry="5.82"/>
    </g>
    <g id="_3167695919040">
     <path class="fil3" d="M171.67 1016.17c-2.39,6.85 -9.45,10.61 -15.77,8.4 -6.32,-2.21 -9.51,-9.55 -7.12,-16.39 1.77,-5.06 6.09,-8.44 10.77,-8.96l16.69 -47.81 -7.7 -31.68 7.63 -20.46 12.85 49.08 -19.26 55.17c2.63,3.33 3.5,8.11 1.91,12.66z"/>
     <rect class="fil3" transform="matrix(-0.563113 1.61316 -0.875824 -0.305727 230.417 761.047)" width="100.14" height="11.64" rx="5.82" ry="5.82"/>
     <rect class="fil3" transform="matrix(0.616733 1.49496 0.862271 -0.479861 159.396 626.285)" width="100.14" height="11.64" rx="5.82" ry="5.82"/>
     <rect class="fil3" transform="matrix(0.616733 1.49496 0.862271 -0.479861 102.527 488.374)" width="100.14" height="11.64" rx="5.82" ry="5.82"/>
     <rect class="fil3" transform="matrix(5.15148 -14.7576 -0.875824 -0.305727 111.524 499.459)" width="100.14" height="11.64" rx="5.82" ry="5.82"/>
    </g>
    <g id="_3168448418544">
     <path class="fil3" d="M1169.72 909.75c-6.09,-2.13 -9.02,-9.61 -6.54,-16.71 2.48,-7.1 9.43,-11.14 15.52,-9.01 4.5,1.57 7.28,6.07 7.42,11.18l42.54 14.85 29.55 -10.77 18.17 6.89 -45.85 17.69 -49.09 -17.14c-3.24,3.13 -7.67,4.44 -11.72,3.02z"/>
     <rect class="fil3" transform="matrix(-1.43531 -0.501027 0.343612 -0.984353 1398.92 955.691)" width="100.14" height="11.64" rx="5.82" ry="5.82"/>
     <rect class="fil3" transform="matrix(-1.41309 0.786399 0.376331 0.912224 1527.43 867.856)" width="100.14" height="11.64" rx="5.82" ry="5.82"/>
     <rect class="fil3" transform="matrix(-1.41309 0.786399 0.376331 0.912224 1657.79 795.338)" width="100.14" height="11.64" rx="5.82" ry="5.82"/>
     <rect class="fil3" transform="matrix(13.1305 4.58351 0.343612 -0.984353 1646.99 806.029)" width="100.14" height="11.64" rx="5.82" ry="5.82"/>
    </g>
    <g id="_3167697370400">
     <path class="fil3" d="M1408.62 688.71c-6,3.34 -13.06,0.71 -15.78,-5.88 -2.72,-6.58 -0.06,-14.63 5.94,-17.97 4.43,-2.47 9.45,-1.67 12.86,1.57l41.88 -23.31 15.45 -30.01 18.24 -9.6 -23.34 47.21 -48.33 26.89c-0.44,4.57 -2.95,8.87 -6.94,11.09z"/>
     <rect class="fil3" transform="matrix(-1.41309 0.786399 -0.376331 -0.912224 1612.23 540.797)" width="100.14" height="11.64" rx="5.82" ry="5.82"/>
     <rect class="fil3" transform="matrix(-0.563113 1.61316 0.875824 0.305727 1652.88 383.397)" width="100.14" height="11.64" rx="5.82" ry="5.82"/>
     <rect class="fil3" transform="matrix(-0.563113 1.61316 0.875824 0.305727 1704.84 234.601)" width="100.14" height="11.64" rx="5.82" ry="5.82"/>
     <rect class="fil3" transform="matrix(12.9273 -7.19416 -0.376331 -0.912224 1703.56 250)" width="100.14" height="11.64" rx="5.82" ry="5.82"/>
    </g>
    <g id="_3167605497712">
     <path class="fil3" d="M468.06 981.69c-2.39,6.85 -9.45,10.61 -15.77,8.4 -6.32,-2.21 -9.51,-9.55 -7.12,-16.39 1.77,-5.06 6.09,-8.44 10.77,-8.96l16.69 -47.81 -7.7 -31.68 7.63 -20.46 12.85 49.08 -19.26 55.17c2.63,3.33 3.5,8.11 1.91,12.66z"/>
     <rect class="fil3" transform="matrix(-0.563113 1.61316 -0.875824 -0.305727 526.8 726.569)" width="100.14" height="11.64" rx="5.82" ry="5.82"/>
     <rect class="fil3" transform="matrix(0.616733 1.49496 0.862271 -0.479861 455.779 591.807)" width="100.14" height="11.64" rx="5.82" ry="5.82"/>
     <rect class="fil3" transform="matrix(0.616733 1.49496 0.862271 -0.479861 398.911 453.896)" width="100.14" height="11.64" rx="5.82" ry="5.82"/>
     <rect class="fil3" transform="matrix(5.15148 -14.7576 -0.875824 -0.305727 407.908 464.981)" width="100.14" height="11.64" rx="5.82" ry="5.82"/>
    </g>
    <g id="_3168445937824">
     <path class="fil3" d="M1179.68 1232.81c-6.09,-2.13 -9.02,-9.61 -6.54,-16.72 2.48,-7.1 9.43,-11.14 15.52,-9.01 4.5,1.57 7.28,6.07 7.42,11.18l42.54 14.85 29.55 -10.77 18.17 6.89 -45.85 17.69 -49.09 -17.13c-3.24,3.13 -7.67,4.44 -11.72,3.02z"/>
     <rect class="fil3" transform="matrix(-1.43531 -0.501027 0.343612 -0.984353 1408.88 1278.75)" width="100.14" height="11.64" rx="5.82" ry="5.82"/>
     <rect class="fil3" transform="matrix(-1.41309 0.786399 0.376331 0.912224 1537.39 1190.92)" width="100.14" height="11.64" rx="5.82" ry="5.82"/>
     <rect class="fil3" transform="matrix(-1.41309 0.786399 0.376331 0.912224 1667.75 1118.4)" width="100.14" height="11.64" rx="5.82" ry="5.82"/>
     <rect class="fil3" transform="matrix(13.1305 4.58351 0.343612 -0.984353 1656.94 1129.09)" width="100.14" height="11.64" rx="5.82" ry="5.82"/>
    </g>
    <g id="_3168445973408">
     <path class="fil3" d="M1625.23 892.77c-6,3.34 -13.06,0.71 -15.78,-5.88 -2.72,-6.58 -0.06,-14.63 5.94,-17.97 4.43,-2.47 9.45,-1.67 12.86,1.57l41.88 -23.31 15.45 -30.01 18.24 -9.6 -23.34 47.21 -48.33 26.9c-0.44,4.57 -2.95,8.87 -6.94,11.09z"/>
     <rect class="fil3" transform="matrix(-1.41309 0.786399 -0.376331 -0.912224 1828.84 744.855)" width="100.14" height="11.64" rx="5.82" ry="5.82"/>
     <rect class="fil3" transform="matrix(-0.563113 1.61316 0.875824 0.305727 1869.49 587.455)" width="100.14" height="11.64" rx="5.82" ry="5.82"/>
     <rect class="fil3" transform="matrix(-0.563113 1.61316 0.875824 0.305727 1921.46 438.659)" width="100.14" height="11.64" rx="5.82" ry="5.82"/>
     <rect class="fil3" transform="matrix(12.9273 -7.19416 -0.376331 -0.912224 1920.18 454.058)" width="100.14" height="11.64" rx="5.82" ry="5.82"/>
    </g>
    <g id="_3168512382432">
     <path class="fil3" d="M764.44 947.22c-2.39,6.85 -9.45,10.61 -15.77,8.4 -6.32,-2.21 -9.51,-9.55 -7.12,-16.39 1.77,-5.06 6.09,-8.44 10.77,-8.96l16.69 -47.81 -7.7 -31.68 7.63 -20.46 12.85 49.08 -19.26 55.17c2.63,3.33 3.5,8.11 1.91,12.66z"/>
     <rect class="fil3" transform="matrix(-0.563113 1.61316 -0.875824 -0.305727 823.184 692.091)" width="100.14" height="11.64" rx="5.82" ry="5.82"/>
     <rect class="fil3" transform="matrix(0.616733 1.49496 0.862271 -0.479861 752.163 557.329)" width="100.14" height="11.64" rx="5.82" ry="5.82"/>
     <rect class="fil3" transform="matrix(0.616733 1.49496 0.862271 -0.479861 695.294 419.418)" width="100.14" height="11.64" rx="5.82" ry="5.82"/>
     <rect class="fil3" transform="matrix(5.15148 -14.7576 -0.875824 -0.305727 704.291 430.503)" width="100.14" height="11.64" rx="5.82" ry="5.82"/>
    </g>
    <g id="_3168512381248">
     <path class="fil3" d="M1189.64 1555.87c-6.09,-2.13 -9.02,-9.61 -6.54,-16.71 2.48,-7.1 9.43,-11.14 15.52,-9.01 4.5,1.57 7.28,6.07 7.42,11.18l42.54 14.85 29.55 -10.76 18.17 6.89 -45.85 17.69 -49.09 -17.14c-3.24,3.13 -7.67,4.44 -11.72,3.02z"/>
     <rect class="fil3" transform="matrix(-1.43531 -0.501027 0.343612 -0.984353 1418.84 1601.81)" width="100.14" height="11.64" rx="5.82" ry="5.82"/>
     <rect class="fil3" transform="matrix(-1.41309 0.786399 0.376331 0.912224 1547.35 1513.98)" width="100.14" height="11.64" rx="5.82" ry="5.82"/>
     <rect class="fil3" transform="matrix(-1.41309 0.786399 0.376331 0.912224 1677.7 1441.46)" width="100.14" height="11.64" rx="5.82" ry="5.82"/>
     <rect class="fil3" transform="matrix(13.1305 4.58351 0.343612 -0.984353 1666.9 1452.15)" width="100.14" height="11.64" rx="5.82" ry="5.82"/>
    </g>
    <g id="_3168512378880">
     <path class="fil3" d="M1841.85 1096.83c-6,3.34 -13.06,0.71 -15.78,-5.88 -2.72,-6.58 -0.06,-14.63 5.94,-17.97 4.43,-2.47 9.45,-1.67 12.86,1.57l41.88 -23.31 15.45 -30.01 18.25 -9.6 -23.34 47.21 -48.33 26.9c-0.44,4.57 -2.95,8.87 -6.94,11.09z"/>
     <rect class="fil3" transform="matrix(-1.41309 0.786399 -0.376331 -0.912224 2045.46 948.913)" width="100.14" height="11.64" rx="5.82" ry="5.82"/>
     <rect class="fil3" transform="matrix(-0.563113 1.61316 0.875824 0.305727 2086.11 791.513)" width="100.14" height="11.64" rx="5.82" ry="5.82"/>
     <rect class="fil3" transform="matrix(-0.563113 1.61316 0.875824 0.305727 2138.07 642.717)" width="100.14" height="11.64" rx="5.82" ry="5.82"/>
     <rect class="fil3" transform="matrix(12.9273 -7.19416 -0.376331 -0.912224 2136.8 658.116)" width="100.14" height="11.64" rx="5.82" ry="5.82"/>
    </g>
    <g id="_3168512376704">
     <path class="fil3" d="M1060.82 912.74c-2.39,6.85 -9.45,10.61 -15.77,8.4 -6.32,-2.21 -9.51,-9.55 -7.12,-16.39 1.77,-5.06 6.09,-8.44 10.77,-8.96l16.69 -47.81 -7.7 -31.68 7.63 -20.46 12.85 49.08 -19.26 55.17c2.63,3.33 3.5,8.11 1.91,12.66z"/>
     <rect class="fil3" transform="matrix(-0.563113 1.61316 -0.875824 -0.305727 1119.57 657.613)" width="100.14" height="11.64" rx="5.82" ry="5.82"/>
     <rect class="fil3" transform="matrix(0.616733 1.49496 0.862271 -0.479861 1048.55 522.851)" width="100.14" height="11.64" rx="5.82" ry="5.82"/>
     <rect class="fil3" transform="matrix(0.616733 1.49496 0.862271 -0.479861 991.677 384.94)" width="100.14" height="11.64" rx="5.82" ry="5.82"/>
     <rect class="fil3" transform="matrix(5.15148 -14.7576 -0.875824 -0.305727 1000.67 396.025)" width="100.14" height="11.64" rx="5.82" ry="5.82"/>
    </g>
    <g id="_3168512373408">
     <path class="fil3" d="M1199.59 1878.93c-6.09,-2.13 -9.02,-9.61 -6.54,-16.71 2.48,-7.1 9.43,-11.14 15.52,-9.01 4.5,1.57 7.28,6.07 7.42,11.18l42.54 14.85 29.55 -10.77 18.17 6.89 -45.85 17.69 -49.09 -17.14c-3.24,3.13 -7.67,4.44 -11.72,3.02z"/>
     <rect class="fil3" transform="matrix(-1.43531 -0.501027 0.343612 -0.984353 1428.8 1924.87)" width="100.14" height="11.64" rx="5.82" ry="5.82"/>
     <rect class="fil3" transform="matrix(-1.41309 0.786399 0.376331 0.912224 1557.3 1837.03)" width="100.14" height="11.64" rx="5.82" ry="5.82"/>
     <rect class="fil3" transform="matrix(-1.41309 0.786399 0.376331 0.912224 1687.66 1764.52)" width="100.14" height="11.64" rx="5.82" ry="5.82"/>
     <rect class="fil3" transform="matrix(13.1305 4.58351 0.343612 -0.984353 1676.86 1775.21)" width="100.14" height="11.64" rx="5.82" ry="5.82"/>
    </g>
    <g id="_3168512369600">
     <path class="fil3" d="M2058.46 1300.89c-6,3.34 -13.06,0.71 -15.78,-5.88 -2.72,-6.58 -0.06,-14.63 5.94,-17.97 4.43,-2.47 9.45,-1.67 12.86,1.57l41.88 -23.31 15.45 -30.01 18.25 -9.6 -23.34 47.21 -48.33 26.9c-0.44,4.57 -2.95,8.87 -6.94,11.09z"/>
     <rect class="fil3" transform="matrix(-1.41309 0.786399 -0.376331 -0.912224 2262.07 1152.97)" width="100.14" height="11.64" rx="5.82" ry="5.82"/>
     <rect class="fil3" transform="matrix(-0.563113 1.61316 0.875824 0.305727 2302.72 995.571)" width="100.14" height="11.64" rx="5.82" ry="5.82"/>
     <rect class="fil3" transform="matrix(-0.563113 1.61316 0.875824 0.305727 2354.69 846.775)" width="100.14" height="11.64" rx="5.82" ry="5.82"/>
     <rect class="fil3" transform="matrix(12.9273 -7.19416 -0.376331 -0.912224 2353.41 862.174)" width="100.14" height="11.64" rx="5.82" ry="5.82"/>
    </g>
    <g id="_3168512368128">
     <path class="fil3" d="M1357.21 878.26c-2.39,6.85 -9.45,10.61 -15.77,8.4 -6.32,-2.21 -9.51,-9.55 -7.12,-16.39 1.77,-5.06 6.09,-8.44 10.77,-8.96l16.69 -47.81 -7.7 -31.68 7.63 -20.46 12.85 49.08 -19.26 55.17c2.63,3.33 3.5,8.11 1.91,12.66z"/>
     <rect class="fil3" transform="matrix(-0.563113 1.61316 -0.875824 -0.305727 1415.95 623.135)" width="100.14" height="11.64" rx="5.82" ry="5.82"/>
     <rect class="fil3" transform="matrix(0.616733 1.49496 0.862271 -0.479861 1344.93 488.373)" width="100.14" height="11.64" rx="5.82" ry="5.82"/>
     <rect class="fil3" transform="matrix(0.616733 1.49496 0.862271 -0.479861 1288.06 350.462)" width="100.14" height="11.64" rx="5.82" ry="5.82"/>
     <rect class="fil3" transform="matrix(5.15148 -14.7576 -0.875824 -0.305727 1297.06 361.547)" width="100.14" height="11.64" rx="5.82" ry="5.82"/>
    </g>
    <g id="_3168512366752">
     <path class="fil3" d="M1209.55 2201.99c-6.09,-2.13 -9.02,-9.61 -6.54,-16.72 2.48,-7.1 9.43,-11.14 15.52,-9.01 4.5,1.57 7.28,6.07 7.42,11.18l42.54 14.85 29.55 -10.77 18.17 6.89 -45.85 17.69 -49.09 -17.13c-3.24,3.13 -7.67,4.44 -11.72,3.02z"/>
     <rect class="fil3" transform="matrix(-1.43531 -0.501027 0.343612 -0.984353 1438.75 2247.93)" width="100.14" height="11.64" rx="5.82" ry="5.82"/>
     <rect class="fil3" transform="matrix(-1.41309 0.786399 0.376331 0.912224 1567.26 2160.09)" width="100.14" height="11.64" rx="5.82" ry="5.82"/>
     <rect class="fil3" transform="matrix(-1.41309 0.786399 0.376331 0.912224 1697.62 2087.58)" width="100.14" height="11.64" rx="5.82" ry="5.82"/>
     <rect class="fil3" transform="matrix(13.1305 4.58351 0.343612 -0.984353 1686.82 2098.27)" width="100.14" height="11.64" rx="5.82" ry="5.82"/>
    </g>
    <g id="_3168512364768">
     <path class="fil3" d="M2275.08 1504.95c-6,3.34 -13.06,0.71 -15.78,-5.88 -2.72,-6.58 -0.06,-14.63 5.94,-17.97 4.43,-2.47 9.45,-1.67 12.86,1.57l41.88 -23.31 15.45 -30.01 18.25 -9.6 -23.34 47.21 -48.33 26.89c-0.44,4.57 -2.95,8.87 -6.94,11.09z"/>
     <rect class="fil3" transform="matrix(-1.41309 0.786399 -0.376331 -0.912224 2478.69 1357.03)" width="100.14" height="11.64" rx="5.82" ry="5.82"/>
     <rect class="fil3" transform="matrix(-0.563113 1.61316 0.875824 0.305727 2519.34 1199.63)" width="100.14" height="11.64" rx="5.82" ry="5.82"/>
     <rect class="fil3" transform="matrix(-0.563113 1.61316 0.875824 0.305727 2571.3 1050.83)" width="100.14" height="11.64" rx="5.82" ry="5.82"/>
     <rect class="fil3" transform="matrix(12.9273 -7.19416 -0.376331 -0.912224 2570.03 1066.23)" width="100.14" height="11.64" rx="5.82" ry="5.82"/>
    </g>
    <g id="_3168512362208">
     <path class="fil3" d="M1653.59 843.78c-2.39,6.85 -9.45,10.61 -15.77,8.4 -6.32,-2.21 -9.51,-9.55 -7.12,-16.39 1.77,-5.06 6.09,-8.44 10.77,-8.96l16.69 -47.81 -7.7 -31.68 7.63 -20.46 12.85 49.08 -19.26 55.17c2.63,3.33 3.5,8.11 1.91,12.66z"/>
     <rect class="fil3" transform="matrix(-0.563113 1.61316 -0.875824 -0.305727 1712.33 588.657)" width="100.14" height="11.64" rx="5.82" ry="5.82"/>
     <rect class="fil3" transform="matrix(0.616733 1.49496 0.862271 -0.479861 1641.31 453.895)" width="100.14" height="11.64" rx="5.82" ry="5.82"/>
     <rect class="fil3" transform="matrix(0.616733 1.49496 0.862271 -0.479861 1584.44 315.984)" width="100.14" height="11.64" rx="5.82" ry="5.82"/>
     <rect class="fil3" transform="matrix(5.15148 -14.7576 -0.875824 -0.305727 1593.44 327.069)" width="100.14" height="11.64" rx="5.82" ry="5.82"/>
    </g>
    <g id="_3168512357056">
     <path class="fil3" d="M688.57 808.3c2.39,-6.85 -0.8,-14.19 -7.12,-16.39 -6.32,-2.21 -13.38,1.56 -15.77,8.4 -1.77,5.06 -0.48,10.39 2.86,13.72l-16.69 47.81 -25.74 20.01 -6.76 20.76 40.6 -30.42 19.26 -55.17c4.13,-0.98 7.78,-4.17 9.37,-8.72z"/>
     <rect class="fil3" transform="matrix(0.563113 -1.61316 -0.875824 -0.305727 575.782 1044.56)" width="100.14" height="11.64" rx="5.82" ry="5.82"/>
     <rect class="fil3" transform="matrix(1.41309 -0.786399 0.376331 0.912224 436.324 1105.85)" width="100.14" height="11.64" rx="5.82" ry="5.82"/>
     <rect class="fil3" transform="matrix(1.41309 -0.786399 0.376331 0.912224 305.985 1178.41)" width="100.14" height="11.64" rx="5.82" ry="5.82"/>
     <rect class="fil3" transform="matrix(-5.15148 14.7576 -0.875824 -0.305727 319.926 1175.33)" width="100.14" height="11.64" rx="5.82" ry="5.82"/>
    </g>
    <g id="_3168512356352">
     <path class="fil3" d="M977.95 995.93c-2.62,-6.34 -9.79,-8.68 -16.01,-5.22 -6.22,3.46 -9.15,11.42 -6.53,17.76 1.93,4.69 6.36,7.19 11.04,6.78l18.28 44.31 -6.58 33.11 8.31 18.87 11.11 -51.48 -21.09 -51.13c2.5,-3.85 3.21,-8.78 1.47,-13z"/>
     <rect class="fil3" transform="matrix(-0.616733 -1.49496 -0.862271 0.479861 1045.28 1238.43)" width="100.14" height="11.64" rx="5.82" ry="5.82"/>
     <rect class="fil3" transform="matrix(0.563113 -1.61316 0.875824 0.305727 979.142 1386.93)" width="100.14" height="11.64" rx="5.82" ry="5.82"/>
     <rect class="fil3" transform="matrix(0.563113 -1.61316 0.875824 0.305727 927.22 1535.74)" width="100.14" height="11.64" rx="5.82" ry="5.82"/>
     <rect class="fil3" transform="matrix(5.64201 13.6762 -0.862271 0.479861 935.804 1522.89)" width="100.14" height="11.64" rx="5.82" ry="5.82"/>
    </g>
    <g id="_3168512353888">
     <path class="fil3" d="M340.15 1517.62c-6.09,-2.13 -13.04,1.91 -15.52,9.01 -2.48,7.1 0.45,14.59 6.54,16.71 4.5,1.57 9.47,-0.22 12.76,-4.14l42.54 14.85 16.43 26.82 18.51 5.91 -24.88 -42.38 -49.09 -17.14c-0.59,-4.46 -3.24,-8.25 -7.3,-9.66z"/>
     <rect class="fil3" transform="matrix(-1.43531 -0.501027 -0.343612 0.984353 548.152 1624.3)" width="100.14" height="11.64" rx="5.82" ry="5.82"/>
     <rect class="fil3" transform="matrix(-0.616733 -1.49496 0.862271 -0.479861 594.082 1773.03)" width="100.14" height="11.64" rx="5.82" ry="5.82"/>
     <rect class="fil3" transform="matrix(-0.616733 -1.49496 0.862271 -0.479861 650.992 1910.91)" width="100.14" height="11.64" rx="5.82" ry="5.82"/>
     <rect class="fil3" transform="matrix(13.1305 4.58351 -0.343612 0.984353 649.191 1895.82)" width="100.14" height="11.64" rx="5.82" ry="5.82"/>
    </g>
    <g id="_3168512352608">
     <path class="fil3" d="M762.31 1019.22c2.39,-6.85 -0.8,-14.19 -7.12,-16.39 -6.32,-2.21 -13.38,1.56 -15.77,8.4 -1.77,5.06 -0.48,10.39 2.86,13.72l-16.69 47.81 -25.74 20.01 -6.76 20.76 40.6 -30.42 19.26 -55.17c4.13,-0.98 7.78,-4.17 9.37,-8.72z"/>
     <rect class="fil3" transform="matrix(0.563113 -1.61316 -0.875824 -0.305727 649.521 1255.48)" width="100.14" height="11.64" rx="5.82" ry="5.82"/>
     <rect class="fil3" transform="matrix(1.41309 -0.786399 0.376331 0.912224 510.063 1316.77)" width="100.14" height="11.64" rx="5.82" ry="5.82"/>
     <rect class="fil3" transform="matrix(1.41309 -0.786399 0.376331 0.912224 379.724 1389.33)" width="100.14" height="11.64" rx="5.82" ry="5.82"/>
     <rect class="fil3" transform="matrix(-5.15148 14.7576 -0.875824 -0.305727 393.666 1386.25)" width="100.14" height="11.64" rx="5.82" ry="5.82"/>
    </g>
    <g id="_3168512349440">
     <path class="fil3" d="M1170.38 1076.93c-2.62,-6.34 -9.79,-8.68 -16.01,-5.22 -6.22,3.46 -9.15,11.42 -6.53,17.76 1.93,4.69 6.36,7.19 11.04,6.78l18.28 44.31 -6.58 33.11 8.31 18.87 11.11 -51.48 -21.09 -51.13c2.5,-3.85 3.21,-8.78 1.47,-13z"/>
     <rect class="fil3" transform="matrix(-0.616733 -1.49496 -0.862271 0.479861 1237.71 1319.43)" width="100.14" height="11.64" rx="5.82" ry="5.82"/>
     <rect class="fil3" transform="matrix(0.563113 -1.61316 0.875824 0.305727 1171.58 1467.93)" width="100.14" height="11.64" rx="5.82" ry="5.82"/>
     <rect class="fil3" transform="matrix(0.563113 -1.61316 0.875824 0.305727 1119.65 1616.74)" width="100.14" height="11.64" rx="5.82" ry="5.82"/>
     <rect class="fil3" transform="matrix(5.64201 13.6762 -0.862271 0.479861 1128.24 1603.9)" width="100.14" height="11.64" rx="5.82" ry="5.82"/>
    </g>
    <g id="_3168512346336">
     <path class="fil3" d="M538.55 1421.25c-6.09,-2.13 -13.04,1.91 -15.52,9.01 -2.48,7.1 0.45,14.59 6.54,16.71 4.5,1.57 9.47,-0.22 12.76,-4.14l42.54 14.85 16.43 26.82 18.51 5.91 -24.88 -42.38 -49.09 -17.14c-0.59,-4.46 -3.25,-8.25 -7.3,-9.66z"/>
     <rect class="fil3" transform="matrix(-1.43531 -0.501027 -0.343612 0.984353 746.557 1527.93)" width="100.14" height="11.64" rx="5.82" ry="5.82"/>
     <rect class="fil3" transform="matrix(-0.616733 -1.49496 0.862271 -0.479861 792.487 1676.66)" width="100.14" height="11.64" rx="5.82" ry="5.82"/>
     <rect class="fil3" transform="matrix(-0.616733 -1.49496 0.862271 -0.479861 849.397 1814.54)" width="100.14" height="11.64" rx="5.82" ry="5.82"/>
     <rect class="fil3" transform="matrix(13.1305 4.58351 -0.343612 0.984353 847.596 1799.45)" width="100.14" height="11.64" rx="5.82" ry="5.82"/>
    </g>
    <g id="_3168512340384">
     <path class="fil3" d="M883.29 1206.43c2.39,-6.85 -0.8,-14.19 -7.12,-16.39 -6.32,-2.21 -13.38,1.56 -15.77,8.4 -1.77,5.06 -0.48,10.39 2.86,13.72l-16.69 47.81 -25.74 20.01 -6.76 20.77 40.6 -30.42 19.26 -55.17c4.13,-0.98 7.78,-4.16 9.37,-8.72z"/>
     <rect class="fil3" transform="matrix(0.563113 -1.61316 -0.875824 -0.305727 770.51 1442.69)" width="100.14" height="11.64" rx="5.82" ry="5.82"/>
     <rect class="fil3" transform="matrix(1.41309 -0.786399 0.376331 0.912224 631.052 1503.98)" width="100.14" height="11.64" rx="5.82" ry="5.82"/>
     <rect class="fil3" transform="matrix(1.41309 -0.786399 0.376331 0.912224 500.713 1576.55)" width="100.14" height="11.64" rx="5.82" ry="5.82"/>
     <rect class="fil3" transform="matrix(-5.15148 14.7576 -0.875824 -0.305727 514.654 1573.47)" width="100.14" height="11.64" rx="5.82" ry="5.82"/>
    </g>
    <g id="_3168512339296">
     <path class="fil3" d="M1383.32 1105.69c-2.62,-6.35 -9.79,-8.68 -16.01,-5.22 -6.22,3.46 -9.15,11.42 -6.53,17.76 1.94,4.69 6.36,7.19 11.05,6.78l18.28 44.31 -6.58 33.11 8.31 18.87 11.11 -51.48 -21.09 -51.13c2.5,-3.85 3.21,-8.78 1.47,-13z"/>
     <rect class="fil3" transform="matrix(-0.616733 -1.49496 -0.862271 0.479861 1450.65 1348.19)" width="100.14" height="11.64" rx="5.82" ry="5.82"/>
     <rect class="fil3" transform="matrix(0.563113 -1.61316 0.875824 0.305727 1384.51 1496.69)" width="100.14" height="11.64" rx="5.82" ry="5.82"/>
     <rect class="fil3" transform="matrix(0.563113 -1.61316 0.875824 0.305727 1332.59 1645.5)" width="100.14" height="11.64" rx="5.82" ry="5.82"/>
     <rect class="fil3" transform="matrix(5.64201 13.6762 -0.862271 0.479861 1341.18 1632.65)" width="100.14" height="11.64" rx="5.82" ry="5.82"/>
    </g>
    <g id="_3168512334208">
     <path class="fil3" d="M718.7 1274.71c-6.09,-2.13 -13.04,1.91 -15.52,9.01 -2.48,7.1 0.45,14.59 6.54,16.71 4.5,1.57 9.47,-0.22 12.76,-4.14l42.54 14.85 16.43 26.82 18.51 5.92 -24.88 -42.38 -49.09 -17.14c-0.59,-4.46 -3.24,-8.25 -7.3,-9.66z"/>
     <rect class="fil3" transform="matrix(-1.43531 -0.501027 -0.343612 0.984353 926.707 1381.39)" width="100.14" height="11.64" rx="5.82" ry="5.82"/>
     <rect class="fil3" transform="matrix(-0.616733 -1.49496 0.862271 -0.479861 972.637 1530.11)" width="100.14" height="11.64" rx="5.82" ry="5.82"/>
     <rect class="fil3" transform="matrix(-0.616733 -1.49496 0.862271 -0.479861 1029.55 1668)" width="100.14" height="11.64" rx="5.82" ry="5.82"/>
     <rect class="fil3" transform="matrix(13.1305 4.58351 -0.343612 0.984353 1027.75 1652.91)" width="100.14" height="11.64" rx="5.82" ry="5.82"/>
    </g>
    <g id="_3168512332384">
     <path class="fil3" d="M1004.28 1393.65c2.39,-6.85 -0.8,-14.19 -7.12,-16.39 -6.32,-2.21 -13.38,1.56 -15.77,8.4 -1.77,5.06 -0.48,10.39 2.86,13.72l-16.69 47.81 -25.74 20.01 -6.76 20.76 40.6 -30.42 19.26 -55.17c4.13,-0.98 7.78,-4.17 9.37,-8.72z"/>
     <rect class="fil3" transform="matrix(0.563113 -1.61316 -0.875824 -0.305727 891.498 1629.91)" width="100.14" height="11.64" rx="5.82" ry="5.82"/>
     <rect class="fil3" transform="matrix(1.41309 -0.786399 0.376331 0.912224 752.041 1691.2)" width="100.14" height="11.64" rx="5.82" ry="5.82"/>
     <rect class="fil3" transform="matrix(1.41309 -0.786399 0.376331 0.912224 621.701 1763.76)" width="100.14" height="11.64" rx="5.82" ry="5.82"/>
     <rect class="fil3" transform="matrix(-5.15148 14.7576 -0.875824 -0.305727 635.643 1760.68)" width="100.14" height="11.64" rx="5.82" ry="5.82"/>
    </g>
    <g id="_3168512321760">
     <path class="fil3" d="M1596.26 1134.45c-2.62,-6.34 -9.79,-8.68 -16.01,-5.22 -6.22,3.46 -9.15,11.42 -6.53,17.76 1.93,4.69 6.36,7.19 11.04,6.78l18.28 44.31 -6.58 33.11 8.31 18.87 11.11 -51.48 -21.09 -51.13c2.5,-3.85 3.21,-8.78 1.47,-13z"/>
     <rect class="fil3" transform="matrix(-0.616733 -1.49496 -0.862271 0.479861 1663.59 1376.94)" width="100.14" height="11.64" rx="5.82" ry="5.82"/>
     <rect class="fil3" transform="matrix(0.563113 -1.61316 0.875824 0.305727 1597.45 1525.45)" width="100.14" height="11.64" rx="5.82" ry="5.82"/>
     <rect class="fil3" transform="matrix(0.563113 -1.61316 0.875824 0.305727 1545.53 1674.26)" width="100.14" height="11.64" rx="5.82" ry="5.82"/>
     <rect class="fil3" transform="matrix(5.64201 13.6762 -0.862271 0.479861 1554.11 1661.41)" width="100.14" height="11.64" rx="5.82" ry="5.82"/>
    </g>
    <g id="_3168506779376">
     <path class="fil3" d="M898.85 1128.16c-6.09,-2.13 -13.04,1.91 -15.52,9.01 -2.48,7.1 0.45,14.59 6.54,16.71 4.5,1.57 9.47,-0.22 12.76,-4.14l42.54 14.85 16.43 26.82 18.51 5.92 -24.88 -42.38 -49.09 -17.14c-0.59,-4.46 -3.25,-8.25 -7.3,-9.66z"/>
     <rect class="fil3" transform="matrix(-1.43531 -0.501027 -0.343612 0.984353 1106.86 1234.84)" width="100.14" height="11.64" rx="5.82" ry="5.82"/>
     <rect class="fil3" transform="matrix(-0.616733 -1.49496 0.862271 -0.479861 1152.79 1383.57)" width="100.14" height="11.64" rx="5.82" ry="5.82"/>
     <rect class="fil3" transform="matrix(-0.616733 -1.49496 0.862271 -0.479861 1209.7 1521.45)" width="100.14" height="11.64" rx="5.82" ry="5.82"/>
     <rect class="fil3" transform="matrix(13.1305 4.58351 -0.343612 0.984353 1207.9 1506.36)" width="100.14" height="11.64" rx="5.82" ry="5.82"/>
    </g>
    <g id="_3168506844880">
     <path class="fil3" d="M1125.27 1580.86c2.39,-6.85 -0.8,-14.19 -7.12,-16.39 -6.32,-2.21 -13.38,1.56 -15.77,8.4 -1.77,5.06 -0.49,10.39 2.86,13.72l-16.69 47.81 -25.74 20.01 -6.76 20.76 40.6 -30.42 19.26 -55.17c4.13,-0.98 7.78,-4.17 9.37,-8.72z"/>
     <rect class="fil3" transform="matrix(0.563113 -1.61316 -0.875824 -0.305727 1012.49 1817.12)" width="100.14" height="11.64" rx="5.82" ry="5.82"/>
     <rect class="fil3" transform="matrix(1.41309 -0.786399 0.376331 0.912224 873.029 1878.41)" width="100.14" height="11.64" rx="5.82" ry="5.82"/>
     <rect class="fil3" transform="matrix(1.41309 -0.786399 0.376331 0.912224 742.69 1950.97)" width="100.14" height="11.64" rx="5.82" ry="5.82"/>
     <rect class="fil3" transform="matrix(-5.15148 14.7576 -0.875824 -0.305727 756.631 1947.89)" width="100.14" height="11.64" rx="5.82" ry="5.82"/>
    </g>
    <g id="_3168506841584">
     <path class="fil3" d="M1809.19 1163.21c-2.62,-6.35 -9.79,-8.68 -16.01,-5.22 -6.22,3.46 -9.15,11.42 -6.53,17.76 1.94,4.69 6.36,7.19 11.05,6.78l18.28 44.31 -6.58 33.11 8.31 18.87 11.11 -51.48 -21.09 -51.13c2.5,-3.85 3.21,-8.78 1.47,-13z"/>
     <rect class="fil3" transform="matrix(-0.616733 -1.49496 -0.862271 0.479861 1876.52 1405.7)" width="100.14" height="11.64" rx="5.82" ry="5.82"/>
     <rect class="fil3" transform="matrix(0.563113 -1.61316 0.875824 0.305727 1810.39 1554.2)" width="100.14" height="11.64" rx="5.82" ry="5.82"/>
     <rect class="fil3" transform="matrix(0.563113 -1.61316 0.875824 0.305727 1758.47 1703.01)" width="100.14" height="11.64" rx="5.82" ry="5.82"/>
     <rect class="fil3" transform="matrix(5.64201 13.6762 -0.862271 0.479861 1767.05 1690.17)" width="100.14" height="11.64" rx="5.82" ry="5.82"/>
    </g>
    <g id="_3168506827504">
     <path class="fil3" d="M1079 981.62c-6.09,-2.13 -13.04,1.91 -15.52,9.01 -2.48,7.1 0.45,14.59 6.54,16.72 4.5,1.57 9.47,-0.22 12.76,-4.14l42.54 14.85 16.43 26.82 18.51 5.91 -24.88 -42.38 -49.09 -17.14c-0.59,-4.47 -3.25,-8.25 -7.3,-9.66z"/>
     <rect class="fil3" transform="matrix(-1.43531 -0.501027 -0.343612 0.984353 1287.01 1088.3)" width="100.14" height="11.64" rx="5.82" ry="5.82"/>
     <rect class="fil3" transform="matrix(-0.616733 -1.49496 0.862271 -0.479861 1332.94 1237.02)" width="100.14" height="11.64" rx="5.82" ry="5.82"/>
     <rect class="fil3" transform="matrix(-0.616733 -1.49496 0.862271 -0.479861 1389.85 1374.91)" width="100.14" height="11.64" rx="5.82" ry="5.82"/>
     <rect class="fil3" transform="matrix(13.1305 4.58351 -0.343612 0.984353 1388.05 1359.82)" width="100.14" height="11.64" rx="5.82" ry="5.82"/>
    </g>
    <g id="_3168380691968">
     <path class="fil3" d="M1246.26 1768.07c2.39,-6.85 -0.8,-14.19 -7.12,-16.39 -6.32,-2.21 -13.38,1.56 -15.77,8.4 -1.77,5.06 -0.49,10.39 2.85,13.72l-16.69 47.81 -25.74 20.01 -6.76 20.76 40.6 -30.42 19.26 -55.17c4.13,-0.98 7.78,-4.17 9.37,-8.72z"/>
     <rect class="fil3" transform="matrix(0.563113 -1.61316 -0.875824 -0.305727 1133.48 2004.33)" width="100.14" height="11.64" rx="5.82" ry="5.82"/>
     <rect class="fil3" transform="matrix(1.41309 -0.786399 0.376331 0.912224 994.018 2065.62)" width="100.14" height="11.64" rx="5.82" ry="5.82"/>
     <rect class="fil3" transform="matrix(1.41309 -0.786399 0.376331 0.912224 863.678 2138.19)" width="100.14" height="11.64" rx="5.82" ry="5.82"/>
     <rect class="fil3" transform="matrix(-5.15148 14.7576 -0.875824 -0.305727 877.62 2135.11)" width="100.14" height="11.64" rx="5.82" ry="5.82"/>
    </g>
    <g id="_3168380678496">
     <path class="fil3" d="M2022.13 1191.96c-2.62,-6.34 -9.78,-8.68 -16.01,-5.22 -6.22,3.46 -9.15,11.42 -6.53,17.76 1.93,4.69 6.36,7.19 11.04,6.78l18.28 44.31 -6.58 33.11 8.31 18.87 11.11 -51.48 -21.09 -51.13c2.5,-3.85 3.21,-8.78 1.47,-13z"/>
     <rect class="fil3" transform="matrix(-0.616733 -1.49496 -0.862271 0.479861 2089.46 1434.46)" width="100.14" height="11.64" rx="5.82" ry="5.82"/>
     <rect class="fil3" transform="matrix(0.563113 -1.61316 0.875824 0.305727 2023.33 1582.96)" width="100.14" height="11.64" rx="5.82" ry="5.82"/>
     <rect class="fil3" transform="matrix(0.563113 -1.61316 0.875824 0.305727 1971.4 1731.77)" width="100.14" height="11.64" rx="5.82" ry="5.82"/>
     <rect class="fil3" transform="matrix(5.64201 13.6762 -0.862271 0.479861 1979.99 1718.92)" width="100.14" height="11.64" rx="5.82" ry="5.82"/>
    </g>
    <g id="_3168380659456">
     <path class="fil3" d="M1259.15 835.07c-6.09,-2.13 -13.04,1.91 -15.52,9.01 -2.48,7.1 0.45,14.59 6.54,16.72 4.5,1.57 9.48,-0.22 12.76,-4.14l42.54 14.85 16.43 26.82 18.51 5.91 -24.88 -42.38 -49.09 -17.13c-0.59,-4.47 -3.24,-8.25 -7.3,-9.66z"/>
     <rect class="fil3" transform="matrix(-1.43531 -0.501027 -0.343612 0.984353 1467.16 941.75)" width="100.14" height="11.64" rx="5.82" ry="5.82"/>
     <rect class="fil3" transform="matrix(-0.616733 -1.49496 0.862271 -0.479861 1513.09 1090.48)" width="100.14" height="11.64" rx="5.82" ry="5.82"/>
     <rect class="fil3" transform="matrix(-0.616733 -1.49496 0.862271 -0.479861 1570 1228.36)" width="100.14" height="11.64" rx="5.82" ry="5.82"/>
     <rect class="fil3" transform="matrix(13.1305 4.58351 -0.343612 0.984353 1568.2 1213.27)" width="100.14" height="11.64" rx="5.82" ry="5.82"/>
    </g>
    <g id="_3168380709696">
     <path class="fil3" d="M1367.25 1955.29c2.39,-6.85 -0.8,-14.19 -7.12,-16.39 -6.32,-2.21 -13.38,1.56 -15.77,8.4 -1.77,5.06 -0.49,10.39 2.85,13.72l-16.69 47.81 -25.74 20.01 -6.76 20.76 40.6 -30.42 19.26 -55.17c4.13,-0.98 7.78,-4.17 9.37,-8.72z"/>
     <rect class="fil3" transform="matrix(0.563113 -1.61316 -0.875824 -0.305727 1254.46 2191.55)" width="100.14" height="11.64" rx="5.82" ry="5.82"/>
     <rect class="fil3" transform="matrix(1.41309 -0.786399 0.376331 0.912224 1115.01 2252.84)" width="100.14" height="11.64" rx="5.82" ry="5.82"/>
     <rect class="fil3" transform="matrix(1.41309 -0.786399 0.376331 0.912224 984.667 2325.4)" width="100.14" height="11.64" rx="5.82" ry="5.82"/>
     <rect class="fil3" transform="matrix(-5.15148 14.7576 -0.875824 -0.305727 998.609 2322.32)" width="100.14" height="11.64" rx="5.82" ry="5.82"/>
    </g>
    <g id="_3168380701088">
     <path class="fil3" d="M2235.07 1220.72c-2.62,-6.34 -9.79,-8.68 -16.01,-5.22 -6.22,3.46 -9.15,11.42 -6.53,17.76 1.93,4.69 6.36,7.19 11.04,6.78l18.28 44.31 -6.58 33.11 8.31 18.87 11.11 -51.48 -21.09 -51.13c2.5,-3.85 3.21,-8.78 1.47,-13z"/>
     <rect class="fil3" transform="matrix(-0.616733 -1.49496 -0.862271 0.479861 2302.4 1463.21)" width="100.14" height="11.64" rx="5.82" ry="5.82"/>
     <rect class="fil3" transform="matrix(0.563113 -1.61316 0.875824 0.305727 2236.26 1611.72)" width="100.14" height="11.64" rx="5.82" ry="5.82"/>
     <rect class="fil3" transform="matrix(0.563113 -1.61316 0.875824 0.305727 2184.34 1760.53)" width="100.14" height="11.64" rx="5.82" ry="5.82"/>
     <rect class="fil3" transform="matrix(5.64201 13.6762 -0.862271 0.479861 2192.92 1747.68)" width="100.14" height="11.64" rx="5.82" ry="5.82"/>
    </g>
    <g id="_3168515671488">
     <path class="fil3" d="M1439.3 688.53c-6.09,-2.13 -13.04,1.91 -15.52,9.01 -2.48,7.1 0.45,14.59 6.54,16.71 4.5,1.57 9.47,-0.22 12.76,-4.14l42.54 14.85 16.43 26.82 18.51 5.91 -24.88 -42.38 -49.09 -17.14c-0.59,-4.46 -3.25,-8.25 -7.3,-9.66z"/>
     <rect class="fil3" transform="matrix(-1.43531 -0.501027 -0.343612 0.984353 1647.31 795.205)" width="100.14" height="11.64" rx="5.82" ry="5.82"/>
     <rect class="fil3" transform="matrix(-0.616733 -1.49496 0.862271 -0.479861 1693.24 943.931)" width="100.14" height="11.64" rx="5.82" ry="5.82"/>
     <rect class="fil3" transform="matrix(-0.616733 -1.49496 0.862271 -0.479861 1750.15 1081.82)" width="100.14" height="11.64" rx="5.82" ry="5.82"/>
     <rect class="fil3" transform="matrix(13.1305 4.58351 -0.343612 0.984353 1748.34 1066.73)" width="100.14" height="11.64" rx="5.82" ry="5.82"/>
    </g>
    <g id="_3168515670176">
     <path class="fil3" d="M1488.24 2142.5c2.39,-6.85 -0.8,-14.19 -7.12,-16.39 -6.32,-2.21 -13.38,1.56 -15.77,8.4 -1.77,5.06 -0.49,10.39 2.85,13.72l-16.69 47.81 -25.74 20.01 -6.76 20.77 40.6 -30.42 19.26 -55.17c4.13,-0.98 7.78,-4.17 9.37,-8.72z"/>
     <rect class="fil3" transform="matrix(0.563113 -1.61316 -0.875824 -0.305727 1375.45 2378.76)" width="100.14" height="11.64" rx="5.82" ry="5.82"/>
     <rect class="fil3" transform="matrix(1.41309 -0.786399 0.376331 0.912224 1235.99 2440.05)" width="100.14" height="11.64" rx="5.82" ry="5.82"/>
     <rect class="fil3" transform="matrix(1.41309 -0.786399 0.376331 0.912224 1105.66 2512.61)" width="100.14" height="11.64" rx="5.82" ry="5.82"/>
     <rect class="fil3" transform="matrix(-5.15148 14.7576 -0.875824 -0.305727 1119.6 2509.53)" width="100.14" height="11.64" rx="5.82" ry="5.82"/>
    </g>
    <g id="_3168515667808">
     <path class="fil3" d="M2448 1249.48c-2.62,-6.34 -9.79,-8.68 -16.01,-5.22 -6.22,3.46 -9.15,11.42 -6.53,17.76 1.94,4.69 6.36,7.19 11.05,6.78l18.28 44.31 -6.58 33.11 8.31 18.87 11.11 -51.48 -21.09 -51.13c2.5,-3.85 3.21,-8.78 1.47,-13z"/>
     <rect class="fil3" transform="matrix(-0.616733 -1.49496 -0.862271 0.479861 2515.33 1491.97)" width="100.14" height="11.64" rx="5.82" ry="5.82"/>
     <rect class="fil3" transform="matrix(0.563113 -1.61316 0.875824 0.305727 2449.2 1640.47)" width="100.14" height="11.64" rx="5.82" ry="5.82"/>
     <rect class="fil3" transform="matrix(0.563113 -1.61316 0.875824 0.305727 2397.28 1789.28)" width="100.14" height="11.64" rx="5.82" ry="5.82"/>
     <rect class="fil3" transform="matrix(5.64201 13.6762 -0.862271 0.479861 2405.86 1776.44)" width="100.14" height="11.64" rx="5.82" ry="5.82"/>
    </g>
    <g id="_3168515665184">
     <path class="fil3" d="M1619.45 541.98c-6.09,-2.13 -13.04,1.91 -15.52,9.01 -2.48,7.1 0.45,14.59 6.54,16.71 4.5,1.57 9.47,-0.22 12.76,-4.14l42.54 14.85 16.43 26.82 18.51 5.92 -24.88 -42.38 -49.09 -17.14c-0.59,-4.46 -3.25,-8.25 -7.3,-9.66z"/>
     <rect class="fil3" transform="matrix(-1.43531 -0.501027 -0.343612 0.984353 1827.46 648.66)" width="100.14" height="11.64" rx="5.82" ry="5.82"/>
     <rect class="fil3" transform="matrix(-0.616733 -1.49496 0.862271 -0.479861 1873.39 797.386)" width="100.14" height="11.64" rx="5.82" ry="5.82"/>
     <rect class="fil3" transform="matrix(-0.616733 -1.49496 0.862271 -0.479861 1930.3 935.275)" width="100.14" height="11.64" rx="5.82" ry="5.82"/>
     <rect class="fil3" transform="matrix(13.1305 4.58351 -0.343612 0.984353 1928.49 920.185)" width="100.14" height="11.64" rx="5.82" ry="5.82"/>
    </g>
    <g id="_3168515662624">
     <path class="fil3" d="M678.37 447.59c-2.39,6.85 0.8,14.19 7.12,16.39 6.32,2.21 13.39,-1.56 15.77,-8.4 1.77,-5.06 0.49,-10.39 -2.85,-13.72l16.69 -47.81 25.74 -20.01 6.76 -20.76 -40.6 30.42 -19.26 55.17c-4.13,0.98 -7.78,4.17 -9.37,8.72z"/>
     <rect class="fil3" transform="matrix(-0.563113 1.61316 0.875824 0.305727 791.153 211.332)" width="100.14" height="11.64" rx="5.82" ry="5.82"/>
     <rect class="fil3" transform="matrix(-1.41309 0.786399 -0.376331 -0.912224 930.611 150.042)" width="100.14" height="11.64" rx="5.82" ry="5.82"/>
     <rect class="fil3" transform="matrix(-1.41309 0.786399 -0.376331 -0.912224 1060.95 77.4806)" width="100.14" height="11.64" rx="5.82" ry="5.82"/>
     <rect class="fil3" transform="matrix(5.15148 -14.7576 0.875824 0.305727 1047.01 80.5588)" width="100.14" height="11.64" rx="5.82" ry="5.82"/>
    </g>
    <g id="_3168515660640">
     <path class="fil3" d="M736.79 767.38c2.62,6.35 9.79,8.68 16.01,5.22 6.22,-3.46 9.15,-11.42 6.53,-17.76 -1.93,-4.69 -6.36,-7.19 -11.04,-6.78l-18.28 -44.31 6.58 -33.11 -8.31 -18.87 -11.11 51.48 21.09 51.13c-2.5,3.85 -3.21,8.78 -1.47,13z"/>
     <rect class="fil3" transform="matrix(0.616733 1.49496 0.862271 -0.479861 669.458 524.89)" width="100.14" height="11.64" rx="5.82" ry="5.82"/>
     <rect class="fil3" transform="matrix(-0.563113 1.61316 -0.875824 -0.305727 735.592 376.386)" width="100.14" height="11.64" rx="5.82" ry="5.82"/>
     <rect class="fil3" transform="matrix(-0.563113 1.61316 -0.875824 -0.305727 787.514 227.576)" width="100.14" height="11.64" rx="5.82" ry="5.82"/>
     <rect class="fil3" transform="matrix(-5.64201 -13.6762 0.862271 -0.479861 778.93 240.423)" width="100.14" height="11.64" rx="5.82" ry="5.82"/>
    </g>
    <g id="_3168515660064">
     <path class="fil3" d="M9.3 1555.11c6.09,2.13 13.04,-1.91 15.52,-9.01 2.48,-7.1 -0.45,-14.59 -6.54,-16.71 -4.5,-1.57 -9.47,0.22 -12.76,4.14l-42.54 -14.85 -16.43 -26.82 -18.51 -5.91 24.88 42.38 49.09 17.14c0.59,4.46 3.25,8.25 7.3,9.66z"/>
     <rect class="fil3" transform="matrix(1.43531 0.501027 0.343612 -0.984353 -198.707 1448.43)" width="100.14" height="11.64" rx="5.82" ry="5.82"/>
     <rect class="fil3" transform="matrix(0.616733 1.49496 -0.862271 0.479861 -244.637 1299.71)" width="100.14" height="11.64" rx="5.82" ry="5.82"/>
     <rect class="fil3" transform="matrix(0.616733 1.49496 -0.862271 0.479861 -301.547 1161.82)" width="100.14" height="11.64" rx="5.82" ry="5.82"/>
     <rect class="fil3" transform="matrix(-13.1305 -4.58351 0.343612 -0.984353 -299.745 1176.91)" width="100.14" height="11.64" rx="5.82" ry="5.82"/>
    </g>
    <g id="_3168515656992">
     <path class="fil3" d="M610.69 213.53c-2.39,6.85 0.8,14.19 7.12,16.39 6.32,2.21 13.38,-1.56 15.77,-8.4 1.77,-5.06 0.48,-10.39 -2.86,-13.72l16.69 -47.81 25.74 -20.01 6.76 -20.76 -40.6 30.42 -19.26 55.17c-4.13,0.98 -7.78,4.17 -9.37,8.72z"/>
     <rect class="fil3" transform="matrix(-0.563113 1.61316 0.875824 0.305727 723.473 -22.7268)" width="100.14" height="11.64" rx="5.82" ry="5.82"/>
     <rect class="fil3" transform="matrix(-1.41309 0.786399 -0.376331 -0.912224 862.931 -84.0171)" width="100.14" height="11.64" rx="5.82" ry="5.82"/>
     <rect class="fil3" transform="matrix(-1.41309 0.786399 -0.376331 -0.912224 993.27 -156.579)" width="100.14" height="11.64" rx="5.82" ry="5.82"/>
     <rect class="fil3" transform="matrix(5.15148 -14.7576 0.875824 0.305727 979.329 -153.5)" width="100.14" height="11.64" rx="5.82" ry="5.82"/>
    </g>
    <g id="_3168515655744">
     <path class="fil3" d="M1629.57 -1685.32c2.5,-7.16 -0.86,-14.84 -7.49,-17.16 -6.64,-2.32 -14.04,1.61 -16.54,8.77 -1.85,5.29 -0.49,10.87 3.02,14.35l-17.45 49.98 -26.98 20.89 -7.07 21.71 42.56 -31.76 20.13 -57.67c4.33,-1.02 8.16,-4.35 9.83,-9.11z"/>
     <rect class="fil3" transform="matrix(0.588662 -1.68635 -0.919541 -0.320987 1511.54 -1438.39)" width="100.14" height="11.64" rx="5.82" ry="5.82"/>
     <rect class="fil3" transform="matrix(1.48182 -0.820469 0.39622 0.954595 1365.28 -1374.48)" width="100.14" height="11.64" rx="5.82" ry="5.82"/>
     <rect class="fil3" transform="matrix(1.48182 -0.820469 0.39622 0.954595 1228.6 -1298.78)" width="100.14" height="11.64" rx="5.82" ry="5.82"/>
     <rect class="fil3" transform="matrix(-5.38521 15.4271 -0.919541 -0.320987 1243.22 -1301.98)" width="100.14" height="11.64" rx="5.82" ry="5.82"/>
    </g>
    <g id="_3168515653408">
     <path class="fil3" d="M1756.8 -1489.35c2.5,-7.16 -0.86,-14.84 -7.49,-17.16 -6.64,-2.32 -14.04,1.61 -16.54,8.77 -1.85,5.29 -0.49,10.87 3.02,14.35l-17.45 49.98 -26.98 20.89 -7.07 21.71 42.56 -31.76 20.13 -57.67c4.33,-1.01 8.16,-4.35 9.83,-9.1z"/>
     <rect class="fil3" transform="matrix(0.588662 -1.68635 -0.919541 -0.320987 1638.77 -1242.41)" width="100.14" height="11.64" rx="5.82" ry="5.82"/>
     <rect class="fil3" transform="matrix(1.48182 -0.820469 0.39622 0.954595 1492.51 -1178.51)" width="100.14" height="11.64" rx="5.82" ry="5.82"/>
     <rect class="fil3" transform="matrix(1.48182 -0.820469 0.39622 0.954595 1355.83 -1102.81)" width="100.14" height="11.64" rx="5.82" ry="5.82"/>
     <rect class="fil3" transform="matrix(-5.38521 15.4271 -0.919541 -0.320987 1370.46 -1106)" width="100.14" height="11.64" rx="5.82" ry="5.82"/>
    </g>
    <g id="_3168515650624">
     <path class="fil3" d="M1884.03 -1293.38c2.5,-7.16 -0.86,-14.84 -7.49,-17.16 -6.64,-2.32 -14.04,1.61 -16.54,8.77 -1.85,5.29 -0.49,10.87 3.02,14.35l-17.45 49.98 -26.98 20.89 -7.07 21.71 42.56 -31.76 20.13 -57.67c4.33,-1.02 8.16,-4.35 9.83,-9.11z"/>
     <rect class="fil3" transform="matrix(0.588662 -1.68635 -0.919541 -0.320987 1766.01 -1046.44)" width="100.14" height="11.64" rx="5.82" ry="5.82"/>
     <rect class="fil3" transform="matrix(1.48182 -0.820469 0.39622 0.954595 1619.74 -982.539)" width="100.14" height="11.64" rx="5.82" ry="5.82"/>
     <rect class="fil3" transform="matrix(1.48182 -0.820469 0.39622 0.954595 1483.06 -906.834)" width="100.14" height="11.64" rx="5.82" ry="5.82"/>
     <rect class="fil3" transform="matrix(-5.38521 15.4271 -0.919541 -0.320987 1497.69 -910.034)" width="100.14" height="11.64" rx="5.82" ry="5.82"/>
    </g>
    <g id="_3168515649280">
     <path class="fil3" d="M2011.26 -1097.41c2.5,-7.16 -0.86,-14.84 -7.49,-17.16 -6.64,-2.32 -14.04,1.61 -16.54,8.77 -1.85,5.29 -0.49,10.87 3.02,14.35l-17.45 49.98 -26.98 20.89 -7.07 21.71 42.56 -31.76 20.13 -57.67c4.33,-1.01 8.16,-4.35 9.83,-9.1z"/>
     <rect class="fil3" transform="matrix(0.588662 -1.68635 -0.919541 -0.320987 1893.24 -850.473)" width="100.14" height="11.64" rx="5.82" ry="5.82"/>
     <rect class="fil3" transform="matrix(1.48182 -0.820469 0.39622 0.954595 1746.98 -786.568)" width="100.14" height="11.64" rx="5.82" ry="5.82"/>
     <rect class="fil3" transform="matrix(1.48182 -0.820469 0.39622 0.954595 1610.3 -710.863)" width="100.14" height="11.64" rx="5.82" ry="5.82"/>
     <rect class="fil3" transform="matrix(-5.38521 15.4271 -0.919541 -0.320987 1624.92 -714.063)" width="100.14" height="11.64" rx="5.82" ry="5.82"/>
    </g>
    <g id="_3168515714880">
     <path class="fil3" d="M2138.5 -901.44c2.5,-7.16 -0.86,-14.84 -7.49,-17.16 -6.64,-2.32 -14.04,1.61 -16.54,8.77 -1.85,5.29 -0.49,10.87 3.02,14.35l-17.45 49.98 -26.98 20.89 -7.07 21.71 42.56 -31.76 20.13 -57.67c4.33,-1.01 8.16,-4.35 9.83,-9.11z"/>
     <rect class="fil3" transform="matrix(0.588662 -1.68635 -0.919541 -0.320987 2020.47 -654.502)" width="100.14" height="11.64" rx="5.82" ry="5.82"/>
     <rect class="fil3" transform="matrix(1.48182 -0.820469 0.39622 0.954595 1874.21 -590.597)" width="100.14" height="11.64" rx="5.82" ry="5.82"/>
     <rect class="fil3" transform="matrix(1.48182 -0.820469 0.39622 0.954595 1737.53 -514.892)" width="100.14" height="11.64" rx="5.82" ry="5.82"/>
     <rect class="fil3" transform="matrix(-5.38521 15.4271 -0.919541 -0.320987 1752.16 -518.092)" width="100.14" height="11.64" rx="5.82" ry="5.82"/>
    </g>
    <g id="_3168515712672">
     <path class="fil3" d="M2265.73 -705.47c2.5,-7.16 -0.86,-14.84 -7.49,-17.16 -6.64,-2.32 -14.04,1.61 -16.54,8.77 -1.85,5.29 -0.5,10.87 3.02,14.35l-17.45 49.98 -26.98 20.89 -7.07 21.71 42.56 -31.76 20.13 -57.67c4.33,-1.01 8.16,-4.35 9.82,-9.1z"/>
     <rect class="fil3" transform="matrix(0.588662 -1.68635 -0.919541 -0.320987 2147.71 -458.531)" width="100.14" height="11.64" rx="5.82" ry="5.82"/>
     <rect class="fil3" transform="matrix(1.48182 -0.820469 0.39622 0.954595 2001.44 -394.626)" width="100.14" height="11.64" rx="5.82" ry="5.82"/>
     <rect class="fil3" transform="matrix(1.48182 -0.820469 0.39622 0.954595 1864.76 -318.921)" width="100.14" height="11.64" rx="5.82" ry="5.82"/>
     <rect class="fil3" transform="matrix(-5.38521 15.4271 -0.919541 -0.320987 1879.39 -322.121)" width="100.14" height="11.64" rx="5.82" ry="5.82"/>
    </g>
    <g id="_3168515711296">
     <path class="fil3" d="M2392.96 -509.5c2.5,-7.16 -0.86,-14.84 -7.49,-17.16 -6.63,-2.32 -14.04,1.61 -16.54,8.77 -1.85,5.29 -0.5,10.87 3.02,14.35l-17.45 49.98 -26.98 20.89 -7.07 21.71 42.56 -31.76 20.13 -57.67c4.33,-1.01 8.16,-4.35 9.82,-9.11z"/>
     <rect class="fil3" transform="matrix(0.588662 -1.68635 -0.919541 -0.320987 2274.94 -262.56)" width="100.14" height="11.64" rx="5.82" ry="5.82"/>
     <rect class="fil3" transform="matrix(1.48182 -0.820469 0.39622 0.954595 2128.67 -198.655)" width="100.14" height="11.64" rx="5.82" ry="5.82"/>
     <rect class="fil3" transform="matrix(1.48182 -0.820469 0.39622 0.954595 1992 -122.95)" width="100.14" height="11.64" rx="5.82" ry="5.82"/>
     <rect class="fil3" transform="matrix(-5.38521 15.4271 -0.919541 -0.320987 2006.62 -126.15)" width="100.14" height="11.64" rx="5.82" ry="5.82"/>
    </g>
   </g>
  </g>
  <path class="fil4 str0" d="M1710.01 1324.59l312.77 0c13.03,0 23.35,4.32 23.35,9.51l0 45.77c0,5.24 -10.32,9.24 -23.35,9.24l-312.77 0c-12.99,0 -23.35,-4 -23.35,-9.24l0 -45.77c0,-5.24 10.37,-9.51 23.35,-9.51m-321.29 -802.06c180.9,0 327.88,149.51 327.88,333.53 0,184.06 -146.97,333.18 -327.88,333.18 -181,0 -327.97,-149.15 -327.97,-333.18 0,-183.98 146.98,-333.53 327.97,-333.53m0 -51.33c-208.97,0 -378.66,172.41 -378.66,384.84 0,212.48 169.66,384.84 378.66,384.84 208.92,0 378.62,-172.36 378.62,-384.84 0,-212.43 -169.66,-384.84 -378.62,-384.84m0 -36.86c228.94,0 414.81,188.95 414.81,421.7 0,232.8 -185.89,421.7 -414.81,421.7 -228.97,0 -414.81,-188.92 -414.81,-421.7 0,-232.75 185.84,-421.7 414.81,-421.7m-1044.95 -107.67l440.78 0c18.32,0 33.26,14.59 33.26,32.91l0 160.04c0,18.27 -14.94,32.86 -33.26,32.86l-440.78 0.02c-18.32,0 -32.91,-14.59 -32.91,-32.86l0 -160.04c0,-18.34 14.57,-32.93 32.91,-32.93m1240.18 -161.34c-18.32,0 -33.26,14.59 -33.26,32.91l0 30.96 -1295.87 0c-34.51,0 -62.17,27.66 -62.17,62.17l0 1124.3c0,34.59 27.66,62.57 62.17,62.57l1825.27 -0.02c34.51,0 62.17,-27.97 62.17,-62.57l0 -1124.25c0,-34.51 -27.66,-62.17 -62.17,-62.17l-100.81 0 0 -30.96c0,-18.32 -14.89,-32.91 -33.21,-32.91l-362.12 0.02 0 -0.05z"/>
 </g>
</svg>
