<?xml version="1.0" encoding="UTF-8"?>
<!DOCTYPE svg PUBLIC "-//W3C//DTD SVG 1.1//EN" "http://www.w3.org/Graphics/SVG/1.1/DTD/svg11.dtd">
<!-- Creator: CorelDRAW 2018 (64-Bit Evaluation Version) -->
<svg xmlns="http://www.w3.org/2000/svg" xml:space="preserve" width="147.925mm" height="107.568mm" version="1.1" style="shape-rendering:geometricPrecision; text-rendering:geometricPrecision; image-rendering:optimizeQuality; fill-rule:evenodd; clip-rule:evenodd"
viewBox="0 0 11106.79 8076.6"
 xmlns:xlink="http://www.w3.org/1999/xlink">
 <defs>
  <style type="text/css">
   <![CDATA[
    .str0 {stroke:red;stroke-width:105.95;stroke-miterlimit:22.9256}
    .fil3 {fill:none}
    .fil0 {fill:#FEFEFE}
    .fil1 {fill:#660808}
    .fil2 {fill:red}
   ]]>
  </style>
   <clipPath id="id0">
    <path d="M5269.7 6679.15c-155.04,-173.74 -542.16,-512.43 -860.27,-752.66 -942.53,-711.79 -1070.81,-814.8 -1453.5,-1167.18 -705.52,-649.64 -1005.13,-1302.31 -1004.11,-2187.29 0.5,-432.01 29.95,-598.45 150.93,-853.09 205.26,-432.03 507.6,-753.06 894.16,-949.4 273.79,-139.07 408.81,-200.85 866.01,-203.38 478.26,-2.64 578.94,53.12 860.27,207.67 342.42,188.12 694.88,590.17 767.73,875.75l45 176.39 110.97 -242.93c627.08,-1372.8 2629.14,-1352.26 3325.86,34.12 221.02,439.8 245.29,1378.88 49.3,1907.86 -255.66,690.03 -735.84,1216.11 -1845.88,2022.25 -727.98,528.69 -1551.89,1328.61 -1609.24,1440.95 -66.58,130.41 -3.18,20.43 -297.23,-309.07z"/>
   </clipPath>
 </defs>
 <g id="Layer_x0020_1">
  <metadata id="CorelCorpID_0Corel-Layer"/>
  <path class="fil0" d="M5819.06 625.79c298.9,-262.06 657.37,-447.99 1051.31,-545.9 1226.27,-304.75 2514.41,282.8 3082.4,1413.02 338.27,673.11 344.6,1843.36 84.64,2544.96 -393.43,1061.89 -1239.57,1747.87 -2125.91,2391.57 -133.09,96.66 -262.74,198 -390.2,301.94 -245.18,199.93 -482.91,409.21 -712.76,626.57 -82.23,77.76 -163.61,156.52 -242.37,237.81 -18.59,19.18 -41.69,40.95 -60.82,62.27 -152.6,254.76 -387.4,414.01 -697.14,418.43 -373.29,5.33 -583.46,-185.75 -759.87,-484.76 -30.48,-51.67 -70.32,-100.39 -110.18,-145.05 -142.08,-159.23 -321.87,-305.37 -486.44,-441.45 -84.94,-70.23 -171.09,-139.04 -259.05,-205.47 -517.78,-391.01 -1035.24,-776.88 -1513.29,-1217.07 -838.26,-771.88 -1263.51,-1627.05 -1262.17,-2776.66 0.53,-450.95 31.11,-780.33 228.32,-1195.42 270.33,-569.02 689.73,-1032.51 1254.42,-1319.33 443.23,-225.14 727.34,-287.35 1223.84,-290.09 526.99,-2.91 786.35,51.88 1249.84,306.5 154.62,84.94 306.06,194.75 445.44,318.1z"/>
  <path class="fil1" d="M5689.2 1209.45c928.18,-1257.61 2984.25,-1066.89 3726.46,410.01 281,559.15 280.9,1601.63 64.68,2185.2 -356.89,963.26 -1162.3,1598.05 -1967.79,2183.02 -139.84,101.56 -276.3,208.14 -410.23,317.36 -253.23,206.5 -500.25,423.93 -737.67,648.45 -86.92,82.2 -173.15,165.75 -256.41,251.68 -33.77,34.85 -78.76,79.2 -109.3,118.83 -69.55,128.33 -165.02,222.17 -330.71,224.54 -203.25,2.91 -279.68,-119.07 -364.38,-262.63 -45.76,-77.56 -102.35,-149.19 -162.19,-216.26 -151.08,-169.3 -360.46,-343.98 -535.63,-488.82 -90.02,-74.43 -181.45,-147.42 -274.67,-217.81 -512.84,-387.29 -1007.1,-753.89 -1479.53,-1188.9 -746.94,-687.79 -1117.63,-1423.5 -1116.44,-2443.84 0.45,-387.4 17.79,-650.97 184.62,-1002.11 227.62,-479.12 576.06,-869.21 1050.98,-1110.44 378.99,-192.51 584.77,-238.71 1021.77,-241.12 461.69,-2.55 637.59,35.2 1029.86,250.7 225.99,124.15 477.48,339.05 666.58,582.15z"/>
  <path id="path2417" class="fil1" d="M5269.7 6679.15c-155.04,-173.74 -542.16,-512.43 -860.27,-752.66 -942.53,-711.79 -1070.81,-814.8 -1453.5,-1167.18 -705.52,-649.64 -1005.13,-1302.31 -1004.11,-2187.29 0.5,-432.01 29.95,-598.45 150.93,-853.09 205.26,-432.03 507.6,-753.06 894.16,-949.4 273.79,-139.07 408.81,-200.85 866.01,-203.38 478.26,-2.64 578.94,53.12 860.27,207.67 342.42,188.12 694.88,590.17 767.73,875.75l45 176.39 110.97 -242.93c627.08,-1372.8 2629.14,-1352.26 3325.86,34.12 221.02,439.8 245.29,1378.88 49.3,1907.86 -255.66,690.03 -735.84,1216.11 -1845.88,2022.25 -727.98,528.69 -1551.89,1328.61 -1609.24,1440.95 -66.58,130.41 -3.18,20.43 -297.23,-309.07z"/>
  <g style="clip-path:url(#id0)">
   <g id="_2023716292992">
    <polygon id="1" class="fil2" points="6469.84,875.29 6548.03,889.74 6663.65,844.26 6752.19,860.58 6856.18,955.15 6836.37,972.63 6744.47,889.04 6666.25,874.76 6543.86,916.64 6453.98,900.02 "/>
    <polygon class="fil2" points="5778.93,517.88 5672.99,498.53 5680.58,527.58 5781.03,545.93 5912.97,505.81 6002.22,522.3 6019.64,497.84 5917.04,478.89 "/>
    <g>
     <path class="fil2" d="M6019.15 2055.06c-17.89,-3.29 -34.86,7.44 -37.9,23.96 -3.03,16.53 9.02,32.59 26.92,35.87 13.22,2.43 25.95,-2.8 32.91,-12.37l124.96 22.95 59.51 56.1 54.09 8.76 -91.06 -88.92 -144.2 -26.49c-4.01,-9.86 -13.33,-17.69 -25.23,-19.87z"/>
     <rect class="fil2" transform="matrix(-0.94134 -0.172912 -0.0938781 0.511075 6648.34 2243.64)" width="448.54" height="52.14" rx="26.07" ry="26.07"/>
     <rect class="fil2" transform="matrix(-0.556841 -0.714507 0.472548 -0.286777 6854.02 2565.76)" width="448.54" height="52.14" rx="26.07" ry="26.07"/>
     <rect class="fil2" transform="matrix(-0.556841 -0.714507 0.472548 -0.286777 7084.14 2860.94)" width="448.54" height="52.14" rx="26.07" ry="26.07"/>
     <rect class="fil2" transform="matrix(8.61159 1.58184 -0.0938781 0.511075 7071.13 2827.56)" width="448.54" height="52.14" rx="26.07" ry="26.07"/>
    </g>
    <g>
     <path class="fil2" d="M5631.1 2606.81c-14.72,8.93 -17.76,27.6 -6.77,41.69 10.98,14.09 31.83,18.28 46.55,9.35 10.88,-6.61 15.38,-18.53 12.55,-30l102.8 -62.39 84.62 3.56 43.57 -27.86 -131.9 -7.72 -118.62 72c-10.5,-4.72 -23,-4.58 -32.79,1.37z"/>
     <rect class="fil2" transform="matrix(-0.774415 0.469972 0.339785 0.435993 6206.34 2346.45)" width="448.54" height="52.14" rx="26.07" ry="26.07"/>
     <rect class="fil2" transform="matrix(-0.94134 -0.172912 0.0938781 -0.511075 6599.99 2453.19)" width="448.54" height="52.14" rx="26.07" ry="26.07"/>
     <rect class="fil2" transform="matrix(-0.94134 -0.172912 0.0938781 -0.511075 6988.92 2524.57)" width="448.54" height="52.14" rx="26.07" ry="26.07"/>
     <rect class="fil2" transform="matrix(7.08452 -4.29941 0.339785 0.435993 6953.76 2508.24)" width="448.54" height="52.14" rx="26.07" ry="26.07"/>
    </g>
    <g>
     <path class="fil2" d="M3880.87 1073.15c-2.92,15.93 9.76,31.6 28.33,35.01 18.57,3.41 36,-6.74 38.92,-22.66 2.16,-11.77 -4.2,-23.4 -15.17,-30.05l20.42 -111.18 60.15 -51.07 7.53 -48.17 -95.47 78.02 -23.57 128.3c-10.84,3.19 -19.2,11.23 -21.14,21.81z"/>
     <rect class="fil2" transform="matrix(-0.153848 0.837553 0.574406 0.105511 4065.19 516.372)" width="448.54" height="52.14" rx="26.07" ry="26.07"/>
     <rect class="fil2" transform="matrix(-0.774415 0.469972 -0.339785 -0.435993 4416.21 345.197)" width="448.54" height="52.14" rx="26.07" ry="26.07"/>
     <rect class="fil2" transform="matrix(-0.774415 0.469972 -0.339785 -0.435993 4736.13 150.979)" width="448.54" height="52.14" rx="26.07" ry="26.07"/>
     <rect class="fil2" transform="matrix(1.40744 -7.66213 0.574406 0.105511 4699.41 161.259)" width="448.54" height="52.14" rx="26.07" ry="26.07"/>
    </g>
    <g>
     <path class="fil2" d="M5814.66 2624.31c-17.89,-3.29 -34.87,7.44 -37.9,23.96 -3.03,16.52 9.02,32.59 26.91,35.87 13.23,2.43 25.95,-2.79 32.92,-12.36l124.95 22.95 59.52 56.1 54.09 8.76 -91.06 -88.92 -144.2 -26.49c-4.01,-9.86 -13.33,-17.69 -25.23,-19.87z"/>
     <rect class="fil2" transform="matrix(-0.94134 -0.172912 -0.0938781 0.511075 6443.85 2812.89)" width="448.54" height="52.14" rx="26.07" ry="26.07"/>
     <rect class="fil2" transform="matrix(-0.556841 -0.714507 0.472548 -0.286777 6649.53 3135.01)" width="448.54" height="52.14" rx="26.07" ry="26.07"/>
     <rect class="fil2" transform="matrix(-0.556841 -0.714507 0.472548 -0.286777 6879.64 3430.18)" width="448.54" height="52.14" rx="26.07" ry="26.07"/>
     <rect class="fil2" transform="matrix(8.61159 1.58184 -0.0938781 0.511075 6866.64 3396.81)" width="448.54" height="52.14" rx="26.07" ry="26.07"/>
    </g>
    <g>
     <path class="fil2" d="M5941.84 3155.84c-14.72,8.93 -17.75,27.6 -6.77,41.69 10.98,14.09 31.83,18.28 46.54,9.35 10.89,-6.61 15.38,-18.53 12.55,-30l102.8 -62.39 84.62 3.56 43.56 -27.86 -131.9 -7.71 -118.62 71.99c-10.5,-4.72 -23,-4.58 -32.79,1.37z"/>
     <rect class="fil2" transform="matrix(-0.774415 0.469972 0.339785 0.435993 6517.08 2895.48)" width="448.54" height="52.14" rx="26.07" ry="26.07"/>
     <rect class="fil2" transform="matrix(-0.94134 -0.172912 0.0938781 -0.511075 6910.73 3002.21)" width="448.54" height="52.14" rx="26.07" ry="26.07"/>
     <rect class="fil2" transform="matrix(-0.94134 -0.172912 0.0938781 -0.511075 7299.66 3073.6)" width="448.54" height="52.14" rx="26.07" ry="26.07"/>
     <rect class="fil2" transform="matrix(7.08452 -4.29941 0.339785 0.435993 7264.5 3057.27)" width="448.54" height="52.14" rx="26.07" ry="26.07"/>
    </g>
    <g>
     <path class="fil2" d="M4524.81 1280.34c-2.92,15.93 9.76,31.6 28.33,35.01 18.57,3.41 36,-6.74 38.92,-22.65 2.16,-11.77 -4.2,-23.4 -15.17,-30.06l20.42 -111.18 60.15 -51.08 7.54 -48.17 -95.48 78.01 -23.57 128.3c-10.84,3.18 -19.2,11.22 -21.14,21.8z"/>
     <rect class="fil2" transform="matrix(-0.153848 0.837553 0.574406 0.105511 4709.13 723.568)" width="448.54" height="52.14" rx="26.07" ry="26.07"/>
     <rect class="fil2" transform="matrix(-0.774415 0.469972 -0.339785 -0.435993 5060.15 552.394)" width="448.54" height="52.14" rx="26.07" ry="26.07"/>
     <rect class="fil2" transform="matrix(-0.774415 0.469972 -0.339785 -0.435993 5380.07 358.175)" width="448.54" height="52.14" rx="26.07" ry="26.07"/>
     <rect class="fil2" transform="matrix(1.40744 -7.66213 0.574406 0.105511 5343.36 368.455)" width="448.54" height="52.14" rx="26.07" ry="26.07"/>
    </g>
    <g>
     <path class="fil2" d="M5610.17 3193.55c-17.9,-3.28 -34.87,7.45 -37.9,23.97 -3.03,16.52 9.02,32.58 26.91,35.87 13.23,2.43 25.95,-2.8 32.91,-12.37l124.96 22.95 59.52 56.11 54.08 8.76 -91.06 -88.92 -144.2 -26.49c-4.01,-9.86 -13.32,-17.7 -25.22,-19.88z"/>
     <rect class="fil2" transform="matrix(-0.94134 -0.172912 -0.0938781 0.511075 6239.36 3382.13)" width="448.54" height="52.14" rx="26.07" ry="26.07"/>
     <rect class="fil2" transform="matrix(-0.556841 -0.714507 0.472548 -0.286777 6445.04 3704.25)" width="448.54" height="52.14" rx="26.07" ry="26.07"/>
     <rect class="fil2" transform="matrix(-0.556841 -0.714507 0.472548 -0.286777 6675.15 3999.43)" width="448.54" height="52.14" rx="26.07" ry="26.07"/>
     <rect class="fil2" transform="matrix(8.61159 1.58184 -0.0938781 0.511075 6662.15 3966.05)" width="448.54" height="52.14" rx="26.07" ry="26.07"/>
    </g>
    <g>
     <path class="fil2" d="M6252.58 3704.86c-14.72,8.93 -17.76,27.6 -6.77,41.7 10.98,14.09 31.83,18.28 46.55,9.34 10.88,-6.61 15.38,-18.53 12.55,-30l102.8 -62.39 84.62 3.56 43.57 -27.86 -131.9 -7.71 -118.62 71.99c-10.5,-4.72 -23,-4.58 -32.79,1.37z"/>
     <rect class="fil2" transform="matrix(-0.774415 0.469972 0.339785 0.435993 6827.82 3444.5)" width="448.54" height="52.14" rx="26.07" ry="26.07"/>
     <rect class="fil2" transform="matrix(-0.94134 -0.172912 0.0938781 -0.511075 7221.47 3551.24)" width="448.54" height="52.14" rx="26.07" ry="26.07"/>
     <rect class="fil2" transform="matrix(-0.94134 -0.172912 0.0938781 -0.511075 7610.4 3622.63)" width="448.54" height="52.14" rx="26.07" ry="26.07"/>
     <rect class="fil2" transform="matrix(7.08452 -4.29941 0.339785 0.435993 7575.24 3606.29)" width="448.54" height="52.14" rx="26.07" ry="26.07"/>
    </g>
    <g>
     <path class="fil2" d="M5168.75 1487.54c-2.93,15.92 9.76,31.6 28.32,35.01 18.57,3.41 36,-6.74 38.92,-22.66 2.16,-11.77 -4.2,-23.4 -15.17,-30.05l20.42 -111.18 60.16 -51.07 7.53 -48.17 -95.48 78.02 -23.57 128.3c-10.83,3.19 -19.19,11.23 -21.14,21.81z"/>
     <rect class="fil2" transform="matrix(-0.153848 0.837553 0.574406 0.105511 5353.08 930.765)" width="448.54" height="52.14" rx="26.07" ry="26.07"/>
     <rect class="fil2" transform="matrix(-0.774415 0.469972 -0.339785 -0.435993 5704.1 759.59)" width="448.54" height="52.14" rx="26.07" ry="26.07"/>
     <rect class="fil2" transform="matrix(-0.774415 0.469972 -0.339785 -0.435993 6024.02 565.372)" width="448.54" height="52.14" rx="26.07" ry="26.07"/>
     <rect class="fil2" transform="matrix(1.40744 -7.66213 0.574406 0.105511 5987.3 575.652)" width="448.54" height="52.14" rx="26.07" ry="26.07"/>
    </g>
    <g>
     <path class="fil2" d="M5405.67 3762.8c-17.89,-3.29 -34.86,7.44 -37.9,23.97 -3.03,16.52 9.02,32.58 26.92,35.87 13.22,2.43 25.95,-2.8 32.91,-12.37l124.96 22.95 59.51 56.11 54.09 8.76 -91.06 -88.92 -144.2 -26.49c-4.01,-9.87 -13.33,-17.7 -25.23,-19.88z"/>
     <rect class="fil2" transform="matrix(-0.94134 -0.172912 -0.0938781 0.511075 6034.86 3951.38)" width="448.54" height="52.14" rx="26.07" ry="26.07"/>
     <rect class="fil2" transform="matrix(-0.556841 -0.714507 0.472548 -0.286777 6240.55 4273.5)" width="448.54" height="52.14" rx="26.07" ry="26.07"/>
     <rect class="fil2" transform="matrix(-0.556841 -0.714507 0.472548 -0.286777 6470.66 4568.67)" width="448.54" height="52.14" rx="26.07" ry="26.07"/>
     <rect class="fil2" transform="matrix(8.61159 1.58184 -0.0938781 0.511075 6457.66 4535.3)" width="448.54" height="52.14" rx="26.07" ry="26.07"/>
    </g>
    <g>
     <path class="fil2" d="M6563.31 4253.89c-14.72,8.93 -17.75,27.61 -6.77,41.7 10.98,14.09 31.83,18.28 46.54,9.34 10.89,-6.61 15.38,-18.53 12.55,-30l102.8 -62.39 84.62 3.56 43.56 -27.86 -131.9 -7.71 -118.62 71.99c-10.5,-4.72 -23,-4.58 -32.79,1.37z"/>
     <rect class="fil2" transform="matrix(-0.774415 0.469972 0.339785 0.435993 7138.56 3993.53)" width="448.54" height="52.14" rx="26.07" ry="26.07"/>
     <rect class="fil2" transform="matrix(-0.94134 -0.172912 0.0938781 -0.511075 7532.2 4100.27)" width="448.54" height="52.14" rx="26.07" ry="26.07"/>
     <rect class="fil2" transform="matrix(-0.94134 -0.172912 0.0938781 -0.511075 7921.14 4171.65)" width="448.54" height="52.14" rx="26.07" ry="26.07"/>
     <rect class="fil2" transform="matrix(7.08452 -4.29941 0.339785 0.435993 7885.98 4155.32)" width="448.54" height="52.14" rx="26.07" ry="26.07"/>
    </g>
    <g>
     <path class="fil2" d="M5812.69 1694.74c-2.92,15.93 9.76,31.6 28.33,35.01 18.57,3.41 36,-6.74 38.92,-22.66 2.16,-11.77 -4.2,-23.4 -15.17,-30.05l20.42 -111.18 60.15 -51.07 7.53 -48.17 -95.47 78.02 -23.57 128.3c-10.84,3.19 -19.2,11.23 -21.14,21.81z"/>
     <rect class="fil2" transform="matrix(-0.153848 0.837553 0.574406 0.105511 5997.02 1137.96)" width="448.54" height="52.14" rx="26.07" ry="26.07"/>
     <rect class="fil2" transform="matrix(-0.774415 0.469972 -0.339785 -0.435993 6348.04 966.787)" width="448.54" height="52.14" rx="26.07" ry="26.07"/>
     <rect class="fil2" transform="matrix(-0.774415 0.469972 -0.339785 -0.435993 6667.96 772.568)" width="448.54" height="52.14" rx="26.07" ry="26.07"/>
     <rect class="fil2" transform="matrix(1.40744 -7.66213 0.574406 0.105511 6631.24 782.848)" width="448.54" height="52.14" rx="26.07" ry="26.07"/>
    </g>
    <g>
     <path class="fil2" d="M5201.18 4332.04c-17.89,-3.29 -34.87,7.44 -37.9,23.97 -3.03,16.52 9.02,32.58 26.91,35.87 13.23,2.43 25.95,-2.8 32.92,-12.37l124.95 22.95 59.52 56.1 54.08 8.77 -91.05 -88.93 -144.2 -26.48c-4.01,-9.87 -13.33,-17.7 -25.23,-19.88z"/>
     <rect class="fil2" transform="matrix(-0.94134 -0.172912 -0.0938781 0.511075 5830.37 4520.62)" width="448.54" height="52.14" rx="26.07" ry="26.07"/>
     <rect class="fil2" transform="matrix(-0.556841 -0.714507 0.472548 -0.286777 6036.05 4842.75)" width="448.54" height="52.14" rx="26.07" ry="26.07"/>
     <rect class="fil2" transform="matrix(-0.556841 -0.714507 0.472548 -0.286777 6266.17 5137.92)" width="448.54" height="52.14" rx="26.07" ry="26.07"/>
     <rect class="fil2" transform="matrix(8.61159 1.58184 -0.0938781 0.511075 6253.16 5104.54)" width="448.54" height="52.14" rx="26.07" ry="26.07"/>
    </g>
    <g>
     <path class="fil2" d="M6456.64 1901.94c-2.92,15.92 9.76,31.6 28.33,35 18.57,3.42 36,-6.74 38.92,-22.65 2.16,-11.77 -4.2,-23.4 -15.17,-30.05l20.42 -111.18 60.15 -51.08 7.53 -48.17 -95.47 78.01 -23.57 128.3c-10.84,3.18 -19.2,11.22 -21.14,21.81z"/>
     <rect class="fil2" transform="matrix(-0.153848 0.837553 0.574406 0.105511 6640.96 1345.16)" width="448.54" height="52.14" rx="26.07" ry="26.07"/>
     <rect class="fil2" transform="matrix(-0.774415 0.469972 -0.339785 -0.435993 6991.98 1173.98)" width="448.54" height="52.14" rx="26.07" ry="26.07"/>
     <rect class="fil2" transform="matrix(-0.774415 0.469972 -0.339785 -0.435993 7311.9 979.764)" width="448.54" height="52.14" rx="26.07" ry="26.07"/>
     <rect class="fil2" transform="matrix(1.40744 -7.66213 0.574406 0.105511 7275.18 990.045)" width="448.54" height="52.14" rx="26.07" ry="26.07"/>
    </g>
    <g>
     <path class="fil2" d="M4996.69 4901.29c-17.9,-3.29 -34.87,7.44 -37.9,23.96 -3.04,16.53 9.01,32.59 26.91,35.87 13.23,2.43 25.95,-2.8 32.91,-12.37l124.96 22.95 59.52 56.1 54.08 8.76 -91.06 -88.92 -144.2 -26.49c-4.01,-9.86 -13.32,-17.69 -25.22,-19.87z"/>
     <rect class="fil2" transform="matrix(-0.94134 -0.172912 -0.0938781 0.511075 5625.88 5089.87)" width="448.54" height="52.14" rx="26.07" ry="26.07"/>
     <rect class="fil2" transform="matrix(-0.556841 -0.714507 0.472548 -0.286777 5831.56 5411.99)" width="448.54" height="52.14" rx="26.07" ry="26.07"/>
     <rect class="fil2" transform="matrix(-0.556841 -0.714507 0.472548 -0.286777 6061.67 5707.16)" width="448.54" height="52.14" rx="26.07" ry="26.07"/>
     <rect class="fil2" transform="matrix(8.61159 1.58184 -0.0938781 0.511075 6048.67 5673.79)" width="448.54" height="52.14" rx="26.07" ry="26.07"/>
    </g>
    <g>
     <path class="fil2" d="M7100.58 2109.13c-2.93,15.93 9.76,31.6 28.32,35.01 18.57,3.41 36,-6.74 38.92,-22.66 2.16,-11.77 -4.2,-23.4 -15.17,-30.05l20.42 -111.18 60.16 -51.07 7.53 -48.17 -95.48 78.02 -23.57 128.3c-10.83,3.19 -19.19,11.23 -21.14,21.81z"/>
     <rect class="fil2" transform="matrix(-0.153848 0.837553 0.574406 0.105511 7284.91 1552.35)" width="448.54" height="52.14" rx="26.07" ry="26.07"/>
     <rect class="fil2" transform="matrix(-0.774415 0.469972 -0.339785 -0.435993 7635.92 1381.18)" width="448.54" height="52.14" rx="26.07" ry="26.07"/>
     <rect class="fil2" transform="matrix(-0.774415 0.469972 -0.339785 -0.435993 7955.84 1186.96)" width="448.54" height="52.14" rx="26.07" ry="26.07"/>
     <rect class="fil2" transform="matrix(1.40744 -7.66213 0.574406 0.105511 7919.13 1197.24)" width="448.54" height="52.14" rx="26.07" ry="26.07"/>
    </g>
    <g>
     <path class="fil2" d="M4792.19 5470.53c-17.89,-3.28 -34.87,7.45 -37.9,23.97 -3.03,16.52 9.02,32.59 26.91,35.87 13.23,2.43 25.96,-2.8 32.92,-12.36l124.96 22.95 59.51 56.1 54.09 8.76 -91.06 -88.92 -144.2 -26.49c-4.01,-9.86 -13.33,-17.69 -25.23,-19.88z"/>
     <rect class="fil2" transform="matrix(-0.94134 -0.172912 -0.0938781 0.511075 5421.38 5659.11)" width="448.54" height="52.14" rx="26.07" ry="26.07"/>
     <rect class="fil2" transform="matrix(-0.556841 -0.714507 0.472548 -0.286777 5627.07 5981.24)" width="448.54" height="52.14" rx="26.07" ry="26.07"/>
     <rect class="fil2" transform="matrix(-0.556841 -0.714507 0.472548 -0.286777 5857.18 6276.41)" width="448.54" height="52.14" rx="26.07" ry="26.07"/>
     <rect class="fil2" transform="matrix(8.61159 1.58184 -0.0938781 0.511075 5844.18 6243.03)" width="448.54" height="52.14" rx="26.07" ry="26.07"/>
    </g>
    <g>
     <path class="fil2" d="M4369.48 -1404.51c-17.89,-3.29 -29.94,-19.35 -26.91,-35.87 3.03,-16.52 20,-27.26 37.9,-23.97 13.23,2.43 23.26,11.84 26.37,23.25l124.96 22.95 75.56 -31.29 53.67 11.03 -116.72 50.76 -144.2 -26.49c-7.25,7.79 -18.74,11.8 -30.64,9.62z"/>
     <rect class="fil2" transform="matrix(-0.94134 -0.172912 0.0938781 -0.511075 5024.61 -1357.17)" width="448.54" height="52.14" rx="26.07" ry="26.07"/>
     <rect class="fil2" transform="matrix(-0.774415 0.469972 0.339785 0.435993 5331.35 -1585.17)" width="448.54" height="52.14" rx="26.07" ry="26.07"/>
     <rect class="fil2" transform="matrix(-0.774415 0.469972 0.339785 0.435993 5651.34 -1779.3)" width="448.54" height="52.14" rx="26.07" ry="26.07"/>
     <rect class="fil2" transform="matrix(8.61159 1.58184 0.0938781 -0.511075 5627.32 -1752.72)" width="448.54" height="52.14" rx="26.07" ry="26.07"/>
    </g>
    <g>
     <path class="fil2" d="M4569.16 -683.01c-17.89,-3.29 -29.94,-19.35 -26.91,-35.87 3.03,-16.52 20,-27.25 37.9,-23.96 13.23,2.43 23.26,11.84 26.37,23.25l124.96 22.95 75.56 -31.29 53.67 11.03 -116.72 50.76 -144.2 -26.48c-7.25,7.79 -18.74,11.8 -30.64,9.62z"/>
     <rect class="fil2" transform="matrix(-0.94134 -0.172912 0.0938781 -0.511075 5224.29 -635.675)" width="448.54" height="52.14" rx="26.07" ry="26.07"/>
     <rect class="fil2" transform="matrix(-0.774415 0.469972 0.339785 0.435993 5531.02 -863.674)" width="448.54" height="52.14" rx="26.07" ry="26.07"/>
     <rect class="fil2" transform="matrix(-0.774415 0.469972 0.339785 0.435993 5851.01 -1057.8)" width="448.54" height="52.14" rx="26.07" ry="26.07"/>
     <rect class="fil2" transform="matrix(8.61159 1.58184 0.0938781 -0.511075 5827 -1031.22)" width="448.54" height="52.14" rx="26.07" ry="26.07"/>
    </g>
    <g>
     <path class="fil2" d="M4768.84 38.49c-17.9,-3.29 -29.94,-19.35 -26.91,-35.87 3.03,-16.52 20,-27.26 37.9,-23.97 13.22,2.43 23.26,11.84 26.37,23.25l124.95 22.95 75.57 -31.29 53.67 11.03 -116.72 50.76 -144.2 -26.49c-7.25,7.79 -18.74,11.8 -30.64,9.62z"/>
     <rect class="fil2" transform="matrix(-0.94134 -0.172912 0.0938781 -0.511075 5423.97 85.8225)" width="448.54" height="52.14" rx="26.07" ry="26.07"/>
     <rect class="fil2" transform="matrix(-0.774415 0.469972 0.339785 0.435993 5730.7 -142.176)" width="448.54" height="52.14" rx="26.07" ry="26.07"/>
     <rect class="fil2" transform="matrix(-0.774415 0.469972 0.339785 0.435993 6050.69 -336.302)" width="448.54" height="52.14" rx="26.07" ry="26.07"/>
     <rect class="fil2" transform="matrix(8.61159 1.58184 0.0938781 -0.511075 6026.67 -309.725)" width="448.54" height="52.14" rx="26.07" ry="26.07"/>
    </g>
    <g>
     <path class="fil2" d="M6413.99 3044.13c2.93,-15.93 20.36,-26.07 38.92,-22.66 18.57,3.42 31.25,19.09 28.32,35.01 -2.16,11.77 -12.25,20.39 -24.86,22.7l-20.42 111.18 38.07 69.11 -10.08 47.71 -61.52 -106.86 23.57 -128.3c-9,-6.83 -13.96,-17.31 -12.01,-27.9z"/>
     <rect class="fil2" transform="matrix(0.153848 -0.837553 0.574406 0.105511 6388.41 3630.07)" width="448.54" height="52.14" rx="26.07" ry="26.07"/>
     <rect class="fil2" transform="matrix(-0.556841 -0.714507 -0.472548 0.286777 6655.68 3914.82)" width="448.54" height="52.14" rx="26.07" ry="26.07"/>
     <rect class="fil2" transform="matrix(-0.556841 -0.714507 -0.472548 0.286777 6885.7 4210.05)" width="448.54" height="52.14" rx="26.07" ry="26.07"/>
     <rect class="fil2" transform="matrix(-1.40744 7.66213 0.574406 0.105511 6855.03 4187.39)" width="448.54" height="52.14" rx="26.07" ry="26.07"/>
    </g>
    <g>
     <path class="fil2" d="M6679.37 3084.75c-10.59,-13.58 -6.78,-32.11 8.49,-41.39 15.28,-9.27 36.25,-5.77 46.84,7.81 7.82,10.05 7.79,22.79 1.07,32.5l73.91 94.85 80.36 26.74 30.82 41.54 -126.03 -39.67 -85.3 -109.45c-11.49,0.68 -23.12,-3.9 -30.16,-12.93z"/>
     <rect class="fil2" transform="matrix(-0.556841 -0.714507 0.472548 -0.286777 7124.54 3532.53)" width="448.54" height="52.14" rx="26.07" ry="26.07"/>
     <rect class="fil2" transform="matrix(-0.94134 -0.172912 -0.0938781 0.511075 7530.42 3572.66)" width="448.54" height="52.14" rx="26.07" ry="26.07"/>
     <rect class="fil2" transform="matrix(-0.94134 -0.172912 -0.0938781 0.511075 7919.33 3644.16)" width="448.54" height="52.14" rx="26.07" ry="26.07"/>
     <rect class="fil2" transform="matrix(5.09411 6.53647 0.472548 -0.286777 7880.66 3646.93)" width="448.54" height="52.14" rx="26.07" ry="26.07"/>
    </g>
    <g>
     <path class="fil2" d="M4968.51 759.99c-17.9,-3.29 -29.95,-19.35 -26.91,-35.87 3.03,-16.52 20,-27.25 37.9,-23.96 13.22,2.43 23.26,11.84 26.37,23.25l124.95 22.95 75.57 -31.29 53.67 11.03 -116.72 50.76 -144.2 -26.48c-7.25,7.79 -18.74,11.8 -30.64,9.62z"/>
     <rect class="fil2" transform="matrix(-0.94134 -0.172912 0.0938781 -0.511075 5623.64 807.32)" width="448.54" height="52.14" rx="26.07" ry="26.07"/>
     <rect class="fil2" transform="matrix(-0.774415 0.469972 0.339785 0.435993 5930.38 579.322)" width="448.54" height="52.14" rx="26.07" ry="26.07"/>
     <rect class="fil2" transform="matrix(-0.774415 0.469972 0.339785 0.435993 6250.37 385.196)" width="448.54" height="52.14" rx="26.07" ry="26.07"/>
     <rect class="fil2" transform="matrix(8.61159 1.58184 0.0938781 -0.511075 6226.35 411.773)" width="448.54" height="52.14" rx="26.07" ry="26.07"/>
    </g>
    <g>
     <path class="fil2" d="M5616.91 3193.3c2.93,-15.93 20.36,-26.07 38.92,-22.66 18.57,3.41 31.25,19.09 28.33,35.01 -2.16,11.77 -12.25,20.38 -24.87,22.7l-20.42 111.18 38.07 69.12 -10.08 47.7 -61.52 -106.85 23.57 -128.3c-9,-6.83 -13.96,-17.31 -12.01,-27.89z"/>
     <rect class="fil2" transform="matrix(0.153848 -0.837553 0.574406 0.105511 5591.33 3779.24)" width="448.54" height="52.14" rx="26.07" ry="26.07"/>
     <rect class="fil2" transform="matrix(-0.556841 -0.714507 -0.472548 0.286777 5858.6 4063.98)" width="448.54" height="52.14" rx="26.07" ry="26.07"/>
     <rect class="fil2" transform="matrix(-0.556841 -0.714507 -0.472548 0.286777 6088.62 4359.22)" width="448.54" height="52.14" rx="26.07" ry="26.07"/>
     <rect class="fil2" transform="matrix(-1.40744 7.66213 0.574406 0.105511 6057.95 4336.56)" width="448.54" height="52.14" rx="26.07" ry="26.07"/>
    </g>
    <g>
     <path class="fil2" d="M5168.19 1481.48c-17.9,-3.29 -29.95,-19.35 -26.92,-35.87 3.04,-16.52 20.01,-27.26 37.9,-23.97 13.23,2.43 23.26,11.84 26.37,23.25l124.96 22.95 75.57 -31.29 53.67 11.03 -116.72 50.76 -144.2 -26.49c-7.25,7.79 -18.74,11.8 -30.64,9.62z"/>
     <rect class="fil2" transform="matrix(-0.94134 -0.172912 0.0938781 -0.511075 5823.32 1528.82)" width="448.54" height="52.14" rx="26.07" ry="26.07"/>
     <rect class="fil2" transform="matrix(-0.774415 0.469972 0.339785 0.435993 6130.05 1300.82)" width="448.54" height="52.14" rx="26.07" ry="26.07"/>
     <rect class="fil2" transform="matrix(-0.774415 0.469972 0.339785 0.435993 6450.04 1106.69)" width="448.54" height="52.14" rx="26.07" ry="26.07"/>
     <rect class="fil2" transform="matrix(8.61159 1.58184 0.0938781 -0.511075 6426.03 1133.27)" width="448.54" height="52.14" rx="26.07" ry="26.07"/>
    </g>
    <g>
     <path class="fil2" d="M4819.83 3342.46c2.93,-15.92 20.36,-26.07 38.92,-22.65 18.57,3.41 31.25,19.09 28.33,35 -2.16,11.77 -12.25,20.39 -24.86,22.7l-20.43 111.18 38.08 69.11 -10.08 47.71 -61.52 -106.85 23.57 -128.3c-9,-6.83 -13.96,-17.31 -12.01,-27.9z"/>
     <rect class="fil2" transform="matrix(0.153848 -0.837553 0.574406 0.105511 4794.25 3928.4)" width="448.54" height="52.14" rx="26.07" ry="26.07"/>
     <rect class="fil2" transform="matrix(-0.556841 -0.714507 -0.472548 0.286777 5061.52 4213.15)" width="448.54" height="52.14" rx="26.07" ry="26.07"/>
     <rect class="fil2" transform="matrix(-0.556841 -0.714507 -0.472548 0.286777 5291.53 4508.38)" width="448.54" height="52.14" rx="26.07" ry="26.07"/>
     <rect class="fil2" transform="matrix(-1.40744 7.66213 0.574406 0.105511 5260.87 4485.73)" width="448.54" height="52.14" rx="26.07" ry="26.07"/>
    </g>
    <g>
     <path class="fil2" d="M5834.51 4316.05c-10.58,-13.58 -6.78,-32.12 8.49,-41.39 15.28,-9.27 36.25,-5.77 46.84,7.81 7.82,10.04 7.79,22.79 1.07,32.5l73.92 94.85 80.35 26.74 30.82 41.54 -126.03 -39.67 -85.3 -109.46c-11.49,0.68 -23.12,-3.89 -30.16,-12.92z"/>
     <rect class="fil2" transform="matrix(-0.556841 -0.714507 0.472548 -0.286777 6279.68 4763.84)" width="448.54" height="52.14" rx="26.07" ry="26.07"/>
     <rect class="fil2" transform="matrix(-0.94134 -0.172912 -0.0938781 0.511075 6685.56 4803.97)" width="448.54" height="52.14" rx="26.07" ry="26.07"/>
     <rect class="fil2" transform="matrix(-0.94134 -0.172912 -0.0938781 0.511075 7074.47 4875.46)" width="448.54" height="52.14" rx="26.07" ry="26.07"/>
     <rect class="fil2" transform="matrix(5.09411 6.53647 0.472548 -0.286777 7035.81 4878.23)" width="448.54" height="52.14" rx="26.07" ry="26.07"/>
    </g>
    <g>
     <path class="fil2" d="M5367.87 2202.99c-17.9,-3.29 -29.95,-19.35 -26.92,-35.87 3.04,-16.52 20.01,-27.25 37.9,-23.96 13.23,2.43 23.26,11.83 26.37,23.25l124.96 22.95 75.57 -31.29 53.67 11.03 -116.72 50.76 -144.2 -26.48c-7.25,7.79 -18.75,11.8 -30.64,9.62z"/>
     <rect class="fil2" transform="matrix(-0.94134 -0.172912 0.0938781 -0.511075 6023 2250.32)" width="448.54" height="52.14" rx="26.07" ry="26.07"/>
     <rect class="fil2" transform="matrix(-0.774415 0.469972 0.339785 0.435993 6329.73 2022.32)" width="448.54" height="52.14" rx="26.07" ry="26.07"/>
     <rect class="fil2" transform="matrix(-0.774415 0.469972 0.339785 0.435993 6649.72 1828.19)" width="448.54" height="52.14" rx="26.07" ry="26.07"/>
     <rect class="fil2" transform="matrix(8.61159 1.58184 0.0938781 -0.511075 6625.71 1854.77)" width="448.54" height="52.14" rx="26.07" ry="26.07"/>
    </g>
    <g>
     <path class="fil2" d="M4022.74 3491.63c2.93,-15.93 20.36,-26.07 38.92,-22.66 18.57,3.41 31.25,19.09 28.33,35.01 -2.16,11.77 -12.25,20.38 -24.86,22.7l-20.42 111.18 38.07 69.11 -10.08 47.7 -61.52 -106.85 23.57 -128.3c-9,-6.83 -13.96,-17.31 -12.01,-27.9z"/>
     <rect class="fil2" transform="matrix(0.153848 -0.837553 0.574406 0.105511 3997.17 4077.57)" width="448.54" height="52.14" rx="26.07" ry="26.07"/>
     <rect class="fil2" transform="matrix(-0.556841 -0.714507 -0.472548 0.286777 4264.44 4362.31)" width="448.54" height="52.14" rx="26.07" ry="26.07"/>
     <rect class="fil2" transform="matrix(-0.556841 -0.714507 -0.472548 0.286777 4494.45 4657.55)" width="448.54" height="52.14" rx="26.07" ry="26.07"/>
     <rect class="fil2" transform="matrix(-1.40744 7.66213 0.574406 0.105511 4463.79 4634.89)" width="448.54" height="52.14" rx="26.07" ry="26.07"/>
    </g>
    <g>
     <path class="fil2" d="M5412.09 4931.7c-10.59,-13.58 -6.79,-32.11 8.48,-41.39 15.28,-9.27 36.25,-5.77 46.84,7.82 7.82,10.04 7.79,22.78 1.07,32.49l73.92 94.85 80.35 26.75 30.82 41.53 -126.03 -39.67 -85.3 -109.45c-11.5,0.68 -23.13,-3.9 -30.16,-12.93z"/>
     <rect class="fil2" transform="matrix(-0.556841 -0.714507 0.472548 -0.286777 5857.25 5379.49)" width="448.54" height="52.14" rx="26.07" ry="26.07"/>
     <rect class="fil2" transform="matrix(-0.94134 -0.172912 -0.0938781 0.511075 6263.13 5419.62)" width="448.54" height="52.14" rx="26.07" ry="26.07"/>
     <rect class="fil2" transform="matrix(-0.94134 -0.172912 -0.0938781 0.511075 6652.05 5491.11)" width="448.54" height="52.14" rx="26.07" ry="26.07"/>
     <rect class="fil2" transform="matrix(5.09411 6.53647 0.472548 -0.286777 6613.38 5493.88)" width="448.54" height="52.14" rx="26.07" ry="26.07"/>
    </g>
    <g>
     <path class="fil2" d="M5567.54 2924.48c-17.89,-3.29 -29.94,-19.35 -26.91,-35.87 3.03,-16.53 20.01,-27.26 37.9,-23.97 13.23,2.43 23.26,11.84 26.37,23.25l124.96 22.95 75.57 -31.29 53.67 11.03 -116.72 50.76 -144.2 -26.49c-7.25,7.79 -18.75,11.8 -30.65,9.62z"/>
     <rect class="fil2" transform="matrix(-0.94134 -0.172912 0.0938781 -0.511075 6222.67 2971.81)" width="448.54" height="52.14" rx="26.07" ry="26.07"/>
     <rect class="fil2" transform="matrix(-0.774415 0.469972 0.339785 0.435993 6529.41 2743.82)" width="448.54" height="52.14" rx="26.07" ry="26.07"/>
     <rect class="fil2" transform="matrix(-0.774415 0.469972 0.339785 0.435993 6849.4 2549.69)" width="448.54" height="52.14" rx="26.07" ry="26.07"/>
     <rect class="fil2" transform="matrix(8.61159 1.58184 0.0938781 -0.511075 6825.38 2576.27)" width="448.54" height="52.14" rx="26.07" ry="26.07"/>
    </g>
    <g>
     <path class="fil2" d="M3225.66 3640.79c2.93,-15.92 20.36,-26.06 38.92,-22.65 18.57,3.41 31.25,19.09 28.33,35.01 -2.16,11.77 -12.25,20.38 -24.86,22.69l-20.42 111.18 38.07 69.12 -10.08 47.7 -61.52 -106.85 23.57 -128.3c-9,-6.83 -13.96,-17.31 -12.01,-27.9z"/>
     <rect class="fil2" transform="matrix(0.153848 -0.837553 0.574406 0.105511 3200.09 4226.73)" width="448.54" height="52.14" rx="26.07" ry="26.07"/>
     <rect class="fil2" transform="matrix(-0.556841 -0.714507 -0.472548 0.286777 3467.36 4511.48)" width="448.54" height="52.14" rx="26.07" ry="26.07"/>
     <rect class="fil2" transform="matrix(-0.556841 -0.714507 -0.472548 0.286777 3697.37 4806.71)" width="448.54" height="52.14" rx="26.07" ry="26.07"/>
     <rect class="fil2" transform="matrix(-1.40744 7.66213 0.574406 0.105511 3666.71 4784.06)" width="448.54" height="52.14" rx="26.07" ry="26.07"/>
    </g>
    <g>
     <path class="fil2" d="M4989.66 5547.36c-10.59,-13.58 -6.79,-32.12 8.48,-41.39 15.28,-9.27 36.25,-5.77 46.84,7.81 7.82,10.04 7.79,22.78 1.07,32.5l73.92 94.85 80.35 26.74 30.82 41.53 -126.03 -39.66 -85.3 -109.46c-11.5,0.68 -23.13,-3.89 -30.16,-12.92z"/>
     <rect class="fil2" transform="matrix(-0.556841 -0.714507 0.472548 -0.286777 5434.82 5995.14)" width="448.54" height="52.14" rx="26.07" ry="26.07"/>
     <rect class="fil2" transform="matrix(-0.94134 -0.172912 -0.0938781 0.511075 5840.71 6035.27)" width="448.54" height="52.14" rx="26.07" ry="26.07"/>
     <rect class="fil2" transform="matrix(-0.94134 -0.172912 -0.0938781 0.511075 6229.62 6106.77)" width="448.54" height="52.14" rx="26.07" ry="26.07"/>
     <rect class="fil2" transform="matrix(5.09411 6.53647 0.472548 -0.286777 6190.95 6109.54)" width="448.54" height="52.14" rx="26.07" ry="26.07"/>
    </g>
    <g>
     <path class="fil2" d="M2428.59 3789.96c2.92,-15.93 20.35,-26.07 38.92,-22.66 18.57,3.42 31.25,19.09 28.33,35.01 -2.16,11.77 -12.25,20.39 -24.86,22.7l-20.42 111.18 38.07 69.11 -10.08 47.71 -61.52 -106.86 23.57 -128.3c-9,-6.83 -13.95,-17.31 -12.01,-27.9z"/>
     <rect class="fil2" transform="matrix(0.153848 -0.837553 0.574406 0.105511 2403.01 4375.9)" width="448.54" height="52.14" rx="26.07" ry="26.07"/>
     <rect class="fil2" transform="matrix(-0.556841 -0.714507 -0.472548 0.286777 2670.28 4660.65)" width="448.54" height="52.14" rx="26.07" ry="26.07"/>
     <rect class="fil2" transform="matrix(-0.556841 -0.714507 -0.472548 0.286777 2900.29 4955.88)" width="448.54" height="52.14" rx="26.07" ry="26.07"/>
     <rect class="fil2" transform="matrix(-1.40744 7.66213 0.574406 0.105511 2869.63 4933.22)" width="448.54" height="52.14" rx="26.07" ry="26.07"/>
    </g>
    <g>
     <path class="fil2" d="M4567.24 6163.01c-10.59,-13.58 -6.79,-32.11 8.49,-41.39 15.27,-9.27 36.24,-5.77 46.83,7.82 7.82,10.04 7.79,22.78 1.07,32.49l73.92 94.85 80.35 26.75 30.82 41.53 -126.03 -39.67 -85.3 -109.45c-11.5,0.68 -23.13,-3.9 -30.16,-12.93z"/>
     <rect class="fil2" transform="matrix(-0.556841 -0.714507 0.472548 -0.286777 5012.39 6610.8)" width="448.54" height="52.14" rx="26.07" ry="26.07"/>
     <rect class="fil2" transform="matrix(-0.94134 -0.172912 -0.0938781 0.511075 5418.28 6650.92)" width="448.54" height="52.14" rx="26.07" ry="26.07"/>
     <rect class="fil2" transform="matrix(-0.94134 -0.172912 -0.0938781 0.511075 5807.19 6722.42)" width="448.54" height="52.14" rx="26.07" ry="26.07"/>
     <rect class="fil2" transform="matrix(5.09411 6.53647 0.472548 -0.286777 5768.52 6725.19)" width="448.54" height="52.14" rx="26.07" ry="26.07"/>
    </g>
    <g>
     <path class="fil2" d="M5966.89 4367.48c-17.89,-3.29 -29.94,-19.35 -26.91,-35.87 3.03,-16.53 20.01,-27.26 37.9,-23.97 13.23,2.43 23.26,11.84 26.37,23.25l124.96 22.95 75.57 -31.29 53.67 11.03 -116.72 50.76 -144.2 -26.49c-7.25,7.79 -18.75,11.8 -30.65,9.62z"/>
     <rect class="fil2" transform="matrix(-0.94134 -0.172912 0.0938781 -0.511075 6622.03 4414.81)" width="448.54" height="52.14" rx="26.07" ry="26.07"/>
     <rect class="fil2" transform="matrix(-0.774415 0.469972 0.339785 0.435993 6928.76 4186.81)" width="448.54" height="52.14" rx="26.07" ry="26.07"/>
     <rect class="fil2" transform="matrix(-0.774415 0.469972 0.339785 0.435993 7248.75 3992.69)" width="448.54" height="52.14" rx="26.07" ry="26.07"/>
     <rect class="fil2" transform="matrix(8.61159 1.58184 0.0938781 -0.511075 7224.74 4019.26)" width="448.54" height="52.14" rx="26.07" ry="26.07"/>
    </g>
    <g>
     <path class="fil2" d="M5683.03 1961.36c17.89,3.28 34.87,-7.45 37.9,-23.97 3.03,-16.52 -9.02,-32.58 -26.91,-35.87 -13.23,-2.43 -25.95,2.8 -32.92,12.37l-124.95 -22.96 -59.52 -56.1 -54.08 -8.76 91.05 88.92 144.2 26.49c4.01,9.86 13.33,17.69 25.23,19.88z"/>
     <rect class="fil2" transform="matrix(0.94134 0.172912 0.0938781 -0.511075 5053.85 1772.78)" width="448.54" height="52.14" rx="26.07" ry="26.07"/>
     <rect class="fil2" transform="matrix(0.556841 0.714507 -0.472548 0.286777 4848.16 1450.65)" width="448.54" height="52.14" rx="26.07" ry="26.07"/>
     <rect class="fil2" transform="matrix(0.556841 0.714507 -0.472548 0.286777 4618.05 1155.48)" width="448.54" height="52.14" rx="26.07" ry="26.07"/>
     <rect class="fil2" transform="matrix(-8.61159 -1.58184 0.0938781 -0.511075 4631.05 1188.86)" width="448.54" height="52.14" rx="26.07" ry="26.07"/>
    </g>
    <g>
     <path class="fil2" d="M5329.35 2751.07c14.72,-8.93 17.76,-27.61 6.77,-41.7 -10.98,-14.09 -31.83,-18.28 -46.55,-9.34 -10.88,6.6 -15.37,18.53 -12.54,29.99l-102.8 62.39 -84.62 -3.56 -43.57 27.87 131.9 7.71 118.63 -71.99c10.5,4.72 23,4.57 32.78,-1.37z"/>
     <rect class="fil2" transform="matrix(0.774415 -0.469972 -0.339785 -0.435993 4754.12 3011.43)" width="448.54" height="52.14" rx="26.07" ry="26.07"/>
     <rect class="fil2" transform="matrix(0.94134 0.172912 -0.0938781 0.511075 4360.47 2904.69)" width="448.54" height="52.14" rx="26.07" ry="26.07"/>
     <rect class="fil2" transform="matrix(0.94134 0.172912 -0.0938781 0.511075 3971.54 2833.31)" width="448.54" height="52.14" rx="26.07" ry="26.07"/>
     <rect class="fil2" transform="matrix(-7.08452 4.29941 -0.339785 -0.435993 4006.69 2849.64)" width="448.54" height="52.14" rx="26.07" ry="26.07"/>
    </g>
    <g>
     <path class="fil2" d="M3790.26 1370.89c2.92,-15.93 -9.76,-31.6 -28.33,-35.01 -18.57,-3.41 -36,6.74 -38.92,22.65 -2.16,11.77 4.2,23.4 15.17,30.06l-20.42 111.18 -60.16 51.08 -7.53 48.17 95.48 -78.01 23.57 -128.3c10.84,-3.18 19.19,-11.22 21.14,-21.8z"/>
     <rect class="fil2" transform="matrix(0.153848 -0.837553 -0.574406 -0.105511 3605.93 1927.66)" width="448.54" height="52.14" rx="26.07" ry="26.07"/>
     <rect class="fil2" transform="matrix(0.774415 -0.469972 0.339785 0.435993 3254.91 2098.83)" width="448.54" height="52.14" rx="26.07" ry="26.07"/>
     <rect class="fil2" transform="matrix(0.774415 -0.469972 0.339785 0.435993 2934.99 2293.05)" width="448.54" height="52.14" rx="26.07" ry="26.07"/>
     <rect class="fil2" transform="matrix(-1.40744 7.66213 -0.574406 -0.105511 2971.71 2282.77)" width="448.54" height="52.14" rx="26.07" ry="26.07"/>
    </g>
    <g>
     <path class="fil2" d="M5188.54 2225.44c17.89,3.29 34.86,-7.44 37.9,-23.96 3.03,-16.53 -9.02,-32.59 -26.92,-35.87 -13.22,-2.43 -25.95,2.8 -32.91,12.37l-124.96 -22.95 -59.51 -56.1 -54.09 -8.76 91.06 88.92 144.2 26.49c4.01,9.86 13.33,17.69 25.23,19.87z"/>
     <rect class="fil2" transform="matrix(0.94134 0.172912 0.0938781 -0.511075 4559.35 2036.86)" width="448.54" height="52.14" rx="26.07" ry="26.07"/>
     <rect class="fil2" transform="matrix(0.556841 0.714507 -0.472548 0.286777 4353.67 1714.74)" width="448.54" height="52.14" rx="26.07" ry="26.07"/>
     <rect class="fil2" transform="matrix(0.556841 0.714507 -0.472548 0.286777 4123.55 1419.56)" width="448.54" height="52.14" rx="26.07" ry="26.07"/>
     <rect class="fil2" transform="matrix(-8.61159 -1.58184 0.0938781 -0.511075 4136.56 1452.94)" width="448.54" height="52.14" rx="26.07" ry="26.07"/>
    </g>
    <g>
     <path class="fil2" d="M5202.68 3259.36c14.72,-8.93 17.76,-27.61 6.77,-41.7 -10.98,-14.09 -31.83,-18.28 -46.55,-9.34 -10.88,6.61 -15.37,18.53 -12.54,29.99l-102.8 62.39 -84.62 -3.55 -43.57 27.86 131.9 7.71 118.63 -71.99c10.5,4.72 23,4.57 32.78,-1.37z"/>
     <rect class="fil2" transform="matrix(0.774415 -0.469972 -0.339785 -0.435993 4627.45 3519.72)" width="448.54" height="52.14" rx="26.07" ry="26.07"/>
     <rect class="fil2" transform="matrix(0.94134 0.172912 -0.0938781 0.511075 4233.8 3412.98)" width="448.54" height="52.14" rx="26.07" ry="26.07"/>
     <rect class="fil2" transform="matrix(0.94134 0.172912 -0.0938781 0.511075 3844.87 3341.6)" width="448.54" height="52.14" rx="26.07" ry="26.07"/>
     <rect class="fil2" transform="matrix(-7.08452 4.29941 -0.339785 -0.435993 3880.03 3357.93)" width="448.54" height="52.14" rx="26.07" ry="26.07"/>
    </g>
    <g>
     <path class="fil2" d="M4105.61 1825.63c2.93,-15.93 -9.76,-31.6 -28.33,-35.01 -18.56,-3.41 -36,6.74 -38.92,22.66 -2.16,11.77 4.2,23.4 15.17,30.05l-20.42 111.18 -60.16 51.07 -7.53 48.17 95.48 -78.02 23.56 -128.3c10.84,-3.18 19.2,-11.22 21.14,-21.8z"/>
     <rect class="fil2" transform="matrix(0.153848 -0.837553 -0.574406 -0.105511 3921.29 2382.41)" width="448.54" height="52.14" rx="26.07" ry="26.07"/>
     <rect class="fil2" transform="matrix(0.774415 -0.469972 0.339785 0.435993 3570.27 2553.58)" width="448.54" height="52.14" rx="26.07" ry="26.07"/>
     <rect class="fil2" transform="matrix(0.774415 -0.469972 0.339785 0.435993 3250.35 2747.8)" width="448.54" height="52.14" rx="26.07" ry="26.07"/>
     <rect class="fil2" transform="matrix(-1.40744 7.66213 -0.574406 -0.105511 3287.07 2737.52)" width="448.54" height="52.14" rx="26.07" ry="26.07"/>
    </g>
    <g>
     <path class="fil2" d="M4771.02 2597.52c17.89,3.29 34.87,-7.44 37.9,-23.96 3.03,-16.52 -9.02,-32.59 -26.91,-35.87 -13.23,-2.43 -25.95,2.8 -32.92,12.36l-124.95 -22.95 -59.52 -56.1 -54.08 -8.76 91.05 88.92 144.2 26.49c4.01,9.86 13.33,17.69 25.23,19.87z"/>
     <rect class="fil2" transform="matrix(0.94134 0.172912 0.0938781 -0.511075 4141.84 2408.95)" width="448.54" height="52.14" rx="26.07" ry="26.07"/>
     <rect class="fil2" transform="matrix(0.556841 0.714507 -0.472548 0.286777 3936.15 2086.82)" width="448.54" height="52.14" rx="26.07" ry="26.07"/>
     <rect class="fil2" transform="matrix(0.556841 0.714507 -0.472548 0.286777 3706.04 1791.65)" width="448.54" height="52.14" rx="26.07" ry="26.07"/>
     <rect class="fil2" transform="matrix(-8.61159 -1.58184 0.0938781 -0.511075 3719.04 1825.03)" width="448.54" height="52.14" rx="26.07" ry="26.07"/>
    </g>
    <g>
     <path class="fil2" d="M5213.44 3798.35c14.72,-8.93 17.75,-27.61 6.77,-41.7 -10.98,-14.09 -31.83,-18.28 -46.54,-9.34 -10.89,6.6 -15.38,18.52 -12.55,29.99l-102.8 62.39 -84.61 -3.56 -43.57 27.87 131.9 7.71 118.62 -71.99c10.5,4.72 23,4.57 32.79,-1.37z"/>
     <rect class="fil2" transform="matrix(0.774415 -0.469972 -0.339785 -0.435993 4638.2 4058.7)" width="448.54" height="52.14" rx="26.07" ry="26.07"/>
     <rect class="fil2" transform="matrix(0.94134 0.172912 -0.0938781 0.511075 4244.56 3951.97)" width="448.54" height="52.14" rx="26.07" ry="26.07"/>
     <rect class="fil2" transform="matrix(0.94134 0.172912 -0.0938781 0.511075 3855.62 3880.58)" width="448.54" height="52.14" rx="26.07" ry="26.07"/>
     <rect class="fil2" transform="matrix(-7.08452 4.29941 -0.339785 -0.435993 3890.78 3896.91)" width="448.54" height="52.14" rx="26.07" ry="26.07"/>
    </g>
    <g>
     <path class="fil2" d="M4538.34 2215.78c2.93,-15.92 -9.76,-31.6 -28.33,-35 -18.56,-3.42 -36,6.74 -38.92,22.65 -2.16,11.77 4.2,23.4 15.17,30.05l-20.42 111.18 -60.16 51.08 -7.53 48.17 95.48 -78.01 23.57 -128.3c10.83,-3.18 19.19,-11.22 21.14,-21.81z"/>
     <rect class="fil2" transform="matrix(0.153848 -0.837553 -0.574406 -0.105511 4354.01 2772.56)" width="448.54" height="52.14" rx="26.07" ry="26.07"/>
     <rect class="fil2" transform="matrix(0.774415 -0.469972 0.339785 0.435993 4003 2943.73)" width="448.54" height="52.14" rx="26.07" ry="26.07"/>
     <rect class="fil2" transform="matrix(0.774415 -0.469972 0.339785 0.435993 3683.08 3137.95)" width="448.54" height="52.14" rx="26.07" ry="26.07"/>
     <rect class="fil2" transform="matrix(-1.40744 7.66213 -0.574406 -0.105511 3719.79 3127.67)" width="448.54" height="52.14" rx="26.07" ry="26.07"/>
    </g>
    <g>
     <path class="fil2" d="M4353.51 2969.61c17.89,3.28 34.86,-7.45 37.9,-23.97 3.03,-16.52 -9.02,-32.58 -26.92,-35.87 -13.22,-2.43 -25.95,2.8 -32.91,12.37l-124.96 -22.95 -59.51 -56.11 -54.09 -8.76 91.06 88.92 144.2 26.49c4.01,9.86 13.33,17.7 25.23,19.88z"/>
     <rect class="fil2" transform="matrix(0.94134 0.172912 0.0938781 -0.511075 3724.32 2781.03)" width="448.54" height="52.14" rx="26.07" ry="26.07"/>
     <rect class="fil2" transform="matrix(0.556841 0.714507 -0.472548 0.286777 3518.64 2458.91)" width="448.54" height="52.14" rx="26.07" ry="26.07"/>
     <rect class="fil2" transform="matrix(0.556841 0.714507 -0.472548 0.286777 3288.52 2163.74)" width="448.54" height="52.14" rx="26.07" ry="26.07"/>
     <rect class="fil2" transform="matrix(-8.61159 -1.58184 0.0938781 -0.511075 3301.53 2197.11)" width="448.54" height="52.14" rx="26.07" ry="26.07"/>
    </g>
    <g>
     <path class="fil2" d="M5224.2 4337.33c14.72,-8.93 17.76,-27.6 6.77,-41.69 -10.98,-14.09 -31.83,-18.28 -46.55,-9.35 -10.88,6.61 -15.38,18.53 -12.55,30l-102.8 62.39 -84.62 -3.56 -43.57 27.86 131.9 7.72 118.62 -72c10.5,4.72 23,4.58 32.79,-1.37z"/>
     <rect class="fil2" transform="matrix(0.774415 -0.469972 -0.339785 -0.435993 4648.96 4597.69)" width="448.54" height="52.14" rx="26.07" ry="26.07"/>
     <rect class="fil2" transform="matrix(0.94134 0.172912 -0.0938781 0.511075 4255.31 4490.95)" width="448.54" height="52.14" rx="26.07" ry="26.07"/>
     <rect class="fil2" transform="matrix(0.94134 0.172912 -0.0938781 0.511075 3866.38 4419.57)" width="448.54" height="52.14" rx="26.07" ry="26.07"/>
     <rect class="fil2" transform="matrix(-7.08452 4.29941 -0.339785 -0.435993 3901.54 4435.9)" width="448.54" height="52.14" rx="26.07" ry="26.07"/>
    </g>
    <g>
     <path class="fil2" d="M4971.06 2605.94c2.93,-15.93 -9.76,-31.6 -28.32,-35.01 -18.57,-3.41 -36,6.74 -38.92,22.66 -2.16,11.77 4.2,23.4 15.17,30.05l-20.42 111.18 -60.16 51.07 -7.53 48.17 95.48 -78.02 23.57 -128.3c10.84,-3.19 19.19,-11.23 21.14,-21.81z"/>
     <rect class="fil2" transform="matrix(0.153848 -0.837553 -0.574406 -0.105511 4786.74 3162.72)" width="448.54" height="52.14" rx="26.07" ry="26.07"/>
     <rect class="fil2" transform="matrix(0.774415 -0.469972 0.339785 0.435993 4435.72 3333.89)" width="448.54" height="52.14" rx="26.07" ry="26.07"/>
     <rect class="fil2" transform="matrix(0.774415 -0.469972 0.339785 0.435993 4115.8 3528.11)" width="448.54" height="52.14" rx="26.07" ry="26.07"/>
     <rect class="fil2" transform="matrix(-1.40744 7.66213 -0.574406 -0.105511 4152.52 3517.83)" width="448.54" height="52.14" rx="26.07" ry="26.07"/>
    </g>
    <g>
     <path class="fil2" d="M3935.99 3341.7c17.9,3.29 34.87,-7.45 37.9,-23.97 3.03,-16.52 -9.02,-32.58 -26.91,-35.87 -13.23,-2.43 -25.95,2.8 -32.92,12.37l-124.95 -22.95 -59.52 -56.11 -54.08 -8.76 91.05 88.92 144.2 26.49c4.01,9.87 13.33,17.7 25.23,19.88z"/>
     <rect class="fil2" transform="matrix(0.94134 0.172912 0.0938781 -0.511075 3306.81 3153.12)" width="448.54" height="52.14" rx="26.07" ry="26.07"/>
     <rect class="fil2" transform="matrix(0.556841 0.714507 -0.472548 0.286777 3101.12 2830.99)" width="448.54" height="52.14" rx="26.07" ry="26.07"/>
     <rect class="fil2" transform="matrix(0.556841 0.714507 -0.472548 0.286777 2871.01 2535.82)" width="448.54" height="52.14" rx="26.07" ry="26.07"/>
     <rect class="fil2" transform="matrix(-8.61159 -1.58184 0.0938781 -0.511075 2884.01 2569.2)" width="448.54" height="52.14" rx="26.07" ry="26.07"/>
    </g>
    <g>
     <path class="fil2" d="M5234.95 4876.32c14.72,-8.93 17.76,-27.61 6.77,-41.7 -10.98,-14.09 -31.83,-18.28 -46.55,-9.34 -10.88,6.61 -15.38,18.53 -12.54,29.99l-102.8 62.39 -84.62 -3.55 -43.57 27.86 131.9 7.71 118.63 -71.99c10.5,4.72 22.99,4.57 32.78,-1.37z"/>
     <rect class="fil2" transform="matrix(0.774415 -0.469972 -0.339785 -0.435993 4659.71 5136.68)" width="448.54" height="52.14" rx="26.07" ry="26.07"/>
     <rect class="fil2" transform="matrix(0.94134 0.172912 -0.0938781 0.511075 4266.06 5029.94)" width="448.54" height="52.14" rx="26.07" ry="26.07"/>
     <rect class="fil2" transform="matrix(0.94134 0.172912 -0.0938781 0.511075 3877.13 4958.55)" width="448.54" height="52.14" rx="26.07" ry="26.07"/>
     <rect class="fil2" transform="matrix(-7.08452 4.29941 -0.339785 -0.435993 3912.29 4974.88)" width="448.54" height="52.14" rx="26.07" ry="26.07"/>
    </g>
    <g>
     <path class="fil2" d="M5403.78 2996.09c2.93,-15.93 -9.75,-31.6 -28.32,-35.01 -18.57,-3.41 -36,6.74 -38.92,22.66 -2.16,11.77 4.2,23.4 15.17,30.05l-20.42 111.18 -60.16 51.07 -7.53 48.17 95.48 -78.02 23.57 -128.3c10.84,-3.19 19.19,-11.23 21.14,-21.81z"/>
     <rect class="fil2" transform="matrix(0.153848 -0.837553 -0.574406 -0.105511 5219.46 3552.87)" width="448.54" height="52.14" rx="26.07" ry="26.07"/>
     <rect class="fil2" transform="matrix(0.774415 -0.469972 0.339785 0.435993 4868.44 3724.04)" width="448.54" height="52.14" rx="26.07" ry="26.07"/>
     <rect class="fil2" transform="matrix(0.774415 -0.469972 0.339785 0.435993 4548.52 3918.26)" width="448.54" height="52.14" rx="26.07" ry="26.07"/>
     <rect class="fil2" transform="matrix(-1.40744 7.66213 -0.574406 -0.105511 4585.24 3907.98)" width="448.54" height="52.14" rx="26.07" ry="26.07"/>
    </g>
    <g>
     <path class="fil2" d="M3518.48 3713.78c17.89,3.29 34.86,-7.44 37.9,-23.97 3.03,-16.52 -9.02,-32.58 -26.92,-35.87 -13.22,-2.43 -25.95,2.8 -32.91,12.37l-124.96 -22.95 -59.51 -56.11 -54.09 -8.76 91.06 88.93 144.2 26.48c4.01,9.87 13.33,17.7 25.23,19.88z"/>
     <rect class="fil2" transform="matrix(0.94134 0.172912 0.0938781 -0.511075 2889.29 3525.2)" width="448.54" height="52.14" rx="26.07" ry="26.07"/>
     <rect class="fil2" transform="matrix(0.556841 0.714507 -0.472548 0.286777 2683.61 3203.08)" width="448.54" height="52.14" rx="26.07" ry="26.07"/>
     <rect class="fil2" transform="matrix(0.556841 0.714507 -0.472548 0.286777 2453.5 2907.91)" width="448.54" height="52.14" rx="26.07" ry="26.07"/>
     <rect class="fil2" transform="matrix(-8.61159 -1.58184 0.0938781 -0.511075 2466.5 2941.28)" width="448.54" height="52.14" rx="26.07" ry="26.07"/>
    </g>
    <g>
     <path class="fil2" d="M5245.71 5415.31c14.72,-8.93 17.75,-27.61 6.77,-41.7 -10.98,-14.09 -31.83,-18.28 -46.54,-9.34 -10.89,6.6 -15.38,18.52 -12.55,29.99l-102.8 62.39 -84.62 -3.56 -43.56 27.87 131.9 7.71 118.62 -71.99c10.5,4.72 23,4.57 32.79,-1.37z"/>
     <rect class="fil2" transform="matrix(0.774415 -0.469972 -0.339785 -0.435993 4670.47 5675.66)" width="448.54" height="52.14" rx="26.07" ry="26.07"/>
     <rect class="fil2" transform="matrix(0.94134 0.172912 -0.0938781 0.511075 4276.82 5568.92)" width="448.54" height="52.14" rx="26.07" ry="26.07"/>
     <rect class="fil2" transform="matrix(0.94134 0.172912 -0.0938781 0.511075 3887.89 5497.54)" width="448.54" height="52.14" rx="26.07" ry="26.07"/>
     <rect class="fil2" transform="matrix(-7.08452 4.29941 -0.339785 -0.435993 3923.04 5513.87)" width="448.54" height="52.14" rx="26.07" ry="26.07"/>
    </g>
    <g>
     <path class="fil2" d="M5836.5 3386.24c2.93,-15.92 -9.75,-31.6 -28.32,-35 -18.57,-3.42 -36,6.74 -38.92,22.65 -2.16,11.77 4.2,23.4 15.17,30.05l-20.42 111.18 -60.16 51.08 -7.53 48.17 95.48 -78.01 23.57 -128.3c10.84,-3.18 19.19,-11.22 21.14,-21.81z"/>
     <rect class="fil2" transform="matrix(0.153848 -0.837553 -0.574406 -0.105511 5652.18 3943.03)" width="448.54" height="52.14" rx="26.07" ry="26.07"/>
     <rect class="fil2" transform="matrix(0.774415 -0.469972 0.339785 0.435993 5301.16 4114.2)" width="448.54" height="52.14" rx="26.07" ry="26.07"/>
     <rect class="fil2" transform="matrix(0.774415 -0.469972 0.339785 0.435993 4981.24 4308.42)" width="448.54" height="52.14" rx="26.07" ry="26.07"/>
     <rect class="fil2" transform="matrix(-1.40744 7.66213 -0.574406 -0.105511 5017.96 4298.14)" width="448.54" height="52.14" rx="26.07" ry="26.07"/>
    </g>
    <g>
     <path class="fil2" d="M3100.96 4085.87c17.9,3.29 34.87,-7.44 37.9,-23.96 3.03,-16.53 -9.02,-32.59 -26.91,-35.87 -13.23,-2.43 -25.95,2.8 -32.92,12.37l-124.95 -22.95 -59.52 -56.1 -54.08 -8.76 91.05 88.92 144.2 26.48c4.01,9.87 13.33,17.7 25.23,19.88z"/>
     <rect class="fil2" transform="matrix(0.94134 0.172912 0.0938781 -0.511075 2471.78 3897.29)" width="448.54" height="52.14" rx="26.07" ry="26.07"/>
     <rect class="fil2" transform="matrix(0.556841 0.714507 -0.472548 0.286777 2266.1 3575.17)" width="448.54" height="52.14" rx="26.07" ry="26.07"/>
     <rect class="fil2" transform="matrix(0.556841 0.714507 -0.472548 0.286777 2035.98 3279.99)" width="448.54" height="52.14" rx="26.07" ry="26.07"/>
     <rect class="fil2" transform="matrix(-8.61159 -1.58184 0.0938781 -0.511075 2048.99 3313.37)" width="448.54" height="52.14" rx="26.07" ry="26.07"/>
    </g>
    <g>
     <path class="fil2" d="M5256.46 5954.29c14.72,-8.93 17.75,-27.6 6.77,-41.69 -10.98,-14.09 -31.83,-18.28 -46.55,-9.35 -10.89,6.61 -15.38,18.53 -12.55,30l-102.8 62.39 -84.62 -3.56 -43.57 27.86 131.9 7.72 118.62 -72c10.5,4.72 23,4.58 32.79,-1.37z"/>
     <rect class="fil2" transform="matrix(0.774415 -0.469972 -0.339785 -0.435993 4681.22 6214.65)" width="448.54" height="52.14" rx="26.07" ry="26.07"/>
     <rect class="fil2" transform="matrix(0.94134 0.172912 -0.0938781 0.511075 4287.57 6107.91)" width="448.54" height="52.14" rx="26.07" ry="26.07"/>
     <rect class="fil2" transform="matrix(0.94134 0.172912 -0.0938781 0.511075 3898.64 6036.52)" width="448.54" height="52.14" rx="26.07" ry="26.07"/>
     <rect class="fil2" transform="matrix(-7.08452 4.29941 -0.339785 -0.435993 3933.8 6052.86)" width="448.54" height="52.14" rx="26.07" ry="26.07"/>
    </g>
    <g>
     <path class="fil2" d="M6269.23 3776.4c2.93,-15.93 -9.75,-31.6 -28.32,-35.01 -18.57,-3.41 -36,6.74 -38.92,22.66 -2.16,11.77 4.2,23.4 15.17,30.05l-20.42 111.18 -60.16 51.07 -7.53 48.17 95.48 -78.02 23.57 -128.3c10.84,-3.19 19.19,-11.23 21.14,-21.81z"/>
     <rect class="fil2" transform="matrix(0.153848 -0.837553 -0.574406 -0.105511 6084.9 4333.18)" width="448.54" height="52.14" rx="26.07" ry="26.07"/>
     <rect class="fil2" transform="matrix(0.774415 -0.469972 0.339785 0.435993 5733.89 4504.35)" width="448.54" height="52.14" rx="26.07" ry="26.07"/>
     <rect class="fil2" transform="matrix(0.774415 -0.469972 0.339785 0.435993 5413.97 4698.57)" width="448.54" height="52.14" rx="26.07" ry="26.07"/>
     <rect class="fil2" transform="matrix(-1.40744 7.66213 -0.574406 -0.105511 5450.68 4688.29)" width="448.54" height="52.14" rx="26.07" ry="26.07"/>
    </g>
    <g>
     <path class="fil2" d="M2683.45 4457.95c17.89,3.29 34.86,-7.44 37.9,-23.96 3.03,-16.53 -9.02,-32.59 -26.92,-35.87 -13.22,-2.43 -25.95,2.8 -32.91,12.37l-124.96 -22.95 -59.51 -56.1 -54.09 -8.76 91.06 88.92 144.2 26.49c4.01,9.86 13.33,17.69 25.23,19.87z"/>
     <rect class="fil2" transform="matrix(0.94134 0.172912 0.0938781 -0.511075 2054.27 4269.38)" width="448.54" height="52.14" rx="26.07" ry="26.07"/>
     <rect class="fil2" transform="matrix(0.556841 0.714507 -0.472548 0.286777 1848.58 3947.25)" width="448.54" height="52.14" rx="26.07" ry="26.07"/>
     <rect class="fil2" transform="matrix(0.556841 0.714507 -0.472548 0.286777 1618.47 3652.08)" width="448.54" height="52.14" rx="26.07" ry="26.07"/>
     <rect class="fil2" transform="matrix(-8.61159 -1.58184 0.0938781 -0.511075 1631.47 3685.46)" width="448.54" height="52.14" rx="26.07" ry="26.07"/>
    </g>
    <g>
     <path class="fil2" d="M5267.21 6493.28c14.72,-8.93 17.76,-27.61 6.77,-41.7 -10.98,-14.09 -31.83,-18.28 -46.55,-9.34 -10.88,6.61 -15.38,18.53 -12.55,29.99l-102.8 62.39 -84.62 -3.55 -43.57 27.86 131.9 7.71 118.63 -71.99c10.5,4.72 22.99,4.57 32.78,-1.37z"/>
     <rect class="fil2" transform="matrix(0.774415 -0.469972 -0.339785 -0.435993 4691.97 6753.63)" width="448.54" height="52.14" rx="26.07" ry="26.07"/>
     <rect class="fil2" transform="matrix(0.94134 0.172912 -0.0938781 0.511075 4298.33 6646.9)" width="448.54" height="52.14" rx="26.07" ry="26.07"/>
     <rect class="fil2" transform="matrix(0.94134 0.172912 -0.0938781 0.511075 3909.39 6575.51)" width="448.54" height="52.14" rx="26.07" ry="26.07"/>
     <rect class="fil2" transform="matrix(-7.08452 4.29941 -0.339785 -0.435993 3944.55 6591.84)" width="448.54" height="52.14" rx="26.07" ry="26.07"/>
    </g>
    <g>
     <path class="fil2" d="M6701.96 4166.56c2.92,-15.93 -9.76,-31.6 -28.33,-35.01 -18.57,-3.41 -36,6.74 -38.92,22.66 -2.16,11.77 4.2,23.4 15.17,30.05l-20.42 111.18 -60.16 51.07 -7.53 48.17 95.48 -78.02 23.57 -128.3c10.84,-3.19 19.2,-11.23 21.14,-21.81z"/>
     <rect class="fil2" transform="matrix(0.153848 -0.837553 -0.574406 -0.105511 6517.63 4723.34)" width="448.54" height="52.14" rx="26.07" ry="26.07"/>
     <rect class="fil2" transform="matrix(0.774415 -0.469972 0.339785 0.435993 6166.61 4894.51)" width="448.54" height="52.14" rx="26.07" ry="26.07"/>
     <rect class="fil2" transform="matrix(0.774415 -0.469972 0.339785 0.435993 5846.69 5088.73)" width="448.54" height="52.14" rx="26.07" ry="26.07"/>
     <rect class="fil2" transform="matrix(-1.40744 7.66213 -0.574406 -0.105511 5883.41 5078.45)" width="448.54" height="52.14" rx="26.07" ry="26.07"/>
    </g>
    <g>
     <path class="fil2" d="M6573.35 1797.08c-17.89,-3.29 -34.86,7.45 -37.9,23.97 -3.03,16.52 9.02,32.58 26.92,35.87 13.22,2.43 25.95,-2.8 32.91,-12.37l124.96 22.95 59.51 56.11 54.09 8.76 -91.06 -88.92 -144.2 -26.49c-4.01,-9.86 -13.33,-17.7 -25.23,-19.88z"/>
     <rect class="fil2" transform="matrix(-0.94134 -0.172912 -0.0938781 0.511075 7202.53 1985.66)" width="448.54" height="52.14" rx="26.07" ry="26.07"/>
     <rect class="fil2" transform="matrix(-0.556841 -0.714507 0.472548 -0.286777 7408.22 2307.79)" width="448.54" height="52.14" rx="26.07" ry="26.07"/>
     <rect class="fil2" transform="matrix(-0.556841 -0.714507 0.472548 -0.286777 7638.33 2602.96)" width="448.54" height="52.14" rx="26.07" ry="26.07"/>
     <rect class="fil2" transform="matrix(8.61159 1.58184 -0.0938781 0.511075 7625.33 2569.58)" width="448.54" height="52.14" rx="26.07" ry="26.07"/>
    </g>
    <g>
     <path class="fil2" d="M5803.05 2065.13c-14.72,8.93 -17.76,27.61 -6.77,41.7 10.98,14.09 31.83,18.28 46.55,9.34 10.88,-6.6 15.38,-18.52 12.54,-29.99l102.8 -62.39 84.62 3.56 43.57 -27.87 -131.9 -7.71 -118.63 72c-10.5,-4.72 -22.99,-4.58 -32.78,1.36z"/>
     <rect class="fil2" transform="matrix(-0.774415 0.469972 0.339785 0.435993 6378.28 1804.78)" width="448.54" height="52.14" rx="26.07" ry="26.07"/>
     <rect class="fil2" transform="matrix(-0.94134 -0.172912 0.0938781 -0.511075 6771.93 1911.52)" width="448.54" height="52.14" rx="26.07" ry="26.07"/>
     <rect class="fil2" transform="matrix(-0.94134 -0.172912 0.0938781 -0.511075 7160.86 1982.9)" width="448.54" height="52.14" rx="26.07" ry="26.07"/>
     <rect class="fil2" transform="matrix(7.08452 -4.29941 0.339785 0.435993 7125.71 1966.57)" width="448.54" height="52.14" rx="26.07" ry="26.07"/>
    </g>
    <g>
     <path class="fil2" d="M3569.83 565.09c-2.92,15.93 9.76,31.6 28.33,35.01 18.57,3.41 36,-6.74 38.92,-22.66 2.16,-11.77 -4.2,-23.4 -15.17,-30.05l20.42 -111.18 60.15 -51.07 7.53 -48.17 -95.47 78.02 -23.57 128.3c-10.84,3.19 -19.2,11.23 -21.14,21.81z"/>
     <rect class="fil2" transform="matrix(-0.153848 0.837553 0.574406 0.105511 3754.16 8.31093)" width="448.54" height="52.14" rx="26.07" ry="26.07"/>
     <rect class="fil2" transform="matrix(-0.774415 0.469972 -0.339785 -0.435993 4105.18 -162.863)" width="448.54" height="52.14" rx="26.07" ry="26.07"/>
     <rect class="fil2" transform="matrix(-0.774415 0.469972 -0.339785 -0.435993 4425.1 -357.082)" width="448.54" height="52.14" rx="26.07" ry="26.07"/>
     <rect class="fil2" transform="matrix(1.40744 -7.66213 0.574406 0.105511 4388.38 -346.802)" width="448.54" height="52.14" rx="26.07" ry="26.07"/>
    </g>
    <g>
     <path class="fil2" d="M7127.54 1539.11c-17.89,-3.29 -34.86,7.44 -37.9,23.96 -3.03,16.53 9.02,32.59 26.92,35.87 13.22,2.43 25.95,-2.8 32.91,-12.37l124.96 22.95 59.51 56.1 54.09 8.76 -91.06 -88.92 -144.2 -26.49c-4.01,-9.86 -13.33,-17.69 -25.23,-19.87z"/>
     <rect class="fil2" transform="matrix(-0.94134 -0.172912 -0.0938781 0.511075 7756.73 1727.69)" width="448.54" height="52.14" rx="26.07" ry="26.07"/>
     <rect class="fil2" transform="matrix(-0.556841 -0.714507 0.472548 -0.286777 7962.41 2049.81)" width="448.54" height="52.14" rx="26.07" ry="26.07"/>
     <rect class="fil2" transform="matrix(-0.556841 -0.714507 0.472548 -0.286777 8192.52 2344.98)" width="448.54" height="52.14" rx="26.07" ry="26.07"/>
     <rect class="fil2" transform="matrix(8.61159 1.58184 -0.0938781 0.511075 8179.52 2311.61)" width="448.54" height="52.14" rx="26.07" ry="26.07"/>
    </g>
    <g>
     <path class="fil2" d="M12227.7 3333.42c18.7,3.43 36.46,-7.85 39.64,-25.19 3.18,-17.34 -9.4,-34.19 -28.11,-37.63 -13.82,-2.54 -27.13,2.96 -34.42,13l-130.63 -23.99 -62.18 -58.85 -56.54 -9.16 95.13 93.28 150.74 27.69c4.18,10.35 13.92,18.56 26.36,20.85z"/>
     <rect class="fil2" transform="matrix(0.98405 0.180758 0.0985641 -0.536586 11570 3135.96)" width="448.54" height="52.14" rx="26.07" ry="26.07"/>
     <rect class="fil2" transform="matrix(0.581611 0.749617 -0.49429 0.301431 11355.2 2797.98)" width="448.54" height="52.14" rx="26.07" ry="26.07"/>
     <rect class="fil2" transform="matrix(0.581611 0.749617 -0.49429 0.301431 11114.9 2488.3)" width="448.54" height="52.14" rx="26.07" ry="26.07"/>
     <rect class="fil2" transform="matrix(-9.00231 -1.65361 0.0985641 -0.536586 11128.5 2523.33)" width="448.54" height="52.14" rx="26.07" ry="26.07"/>
    </g>
    <g>
     <path class="fil2" d="M11790.88 3724.36c18.71,3.44 36.46,-7.84 39.64,-25.19 3.19,-17.34 -9.4,-34.19 -28.1,-37.63 -13.83,-2.54 -27.14,2.97 -34.42,13.01l-130.63 -24 -62.18 -58.85 -56.54 -9.15 95.13 93.28 150.74 27.68c4.19,10.35 13.92,18.57 26.36,20.85z"/>
     <rect class="fil2" transform="matrix(0.98405 0.180758 0.0985641 -0.536586 11133.2 3526.91)" width="448.54" height="52.14" rx="26.07" ry="26.07"/>
     <rect class="fil2" transform="matrix(0.581611 0.749617 -0.49429 0.301431 10918.4 3188.92)" width="448.54" height="52.14" rx="26.07" ry="26.07"/>
     <rect class="fil2" transform="matrix(0.581611 0.749617 -0.49429 0.301431 10678.1 2879.24)" width="448.54" height="52.14" rx="26.07" ry="26.07"/>
     <rect class="fil2" transform="matrix(-9.00231 -1.65361 0.0985641 -0.536586 10691.6 2914.27)" width="448.54" height="52.14" rx="26.07" ry="26.07"/>
    </g>
    <g>
     <path class="fil2" d="M11354.06 4115.3c18.71,3.44 36.46,-7.84 39.65,-25.18 3.18,-17.34 -9.4,-34.2 -28.11,-37.63 -13.83,-2.55 -27.14,2.96 -34.42,13l-130.63 -24 -62.18 -58.85 -56.55 -9.15 95.14 93.28 150.74 27.69c4.18,10.35 13.91,18.56 26.35,20.84z"/>
     <rect class="fil2" transform="matrix(0.98405 0.180758 0.0985641 -0.536586 10696.4 3917.85)" width="448.54" height="52.14" rx="26.07" ry="26.07"/>
     <rect class="fil2" transform="matrix(0.581611 0.749617 -0.49429 0.301431 10481.6 3579.86)" width="448.54" height="52.14" rx="26.07" ry="26.07"/>
     <rect class="fil2" transform="matrix(0.581611 0.749617 -0.49429 0.301431 10241.3 3270.18)" width="448.54" height="52.14" rx="26.07" ry="26.07"/>
     <rect class="fil2" transform="matrix(-9.00231 -1.65361 0.0985641 -0.536586 10254.8 3305.21)" width="448.54" height="52.14" rx="26.07" ry="26.07"/>
    </g>
    <g>
     <path class="fil2" d="M10917.25 4506.25c18.7,3.43 36.46,-7.85 39.64,-25.19 3.18,-17.34 -9.4,-34.19 -28.11,-37.63 -13.82,-2.54 -27.13,2.96 -34.42,13l-130.63 -23.99 -62.18 -58.85 -56.54 -9.16 95.13 93.28 150.74 27.69c4.18,10.35 13.92,18.56 26.36,20.85z"/>
     <rect class="fil2" transform="matrix(0.98405 0.180758 0.0985641 -0.536586 10259.6 4308.79)" width="448.54" height="52.14" rx="26.07" ry="26.07"/>
     <rect class="fil2" transform="matrix(0.581611 0.749617 -0.49429 0.301431 10044.8 3970.8)" width="448.54" height="52.14" rx="26.07" ry="26.07"/>
     <rect class="fil2" transform="matrix(0.581611 0.749617 -0.49429 0.301431 9804.43 3661.12)" width="448.54" height="52.14" rx="26.07" ry="26.07"/>
     <rect class="fil2" transform="matrix(-9.00231 -1.65361 0.0985641 -0.536586 9818 3696.15)" width="448.54" height="52.14" rx="26.07" ry="26.07"/>
    </g>
    <g>
     <path class="fil2" d="M10480.42 4897.18c18.71,3.44 36.46,-7.84 39.64,-25.18 3.19,-17.35 -9.4,-34.2 -28.1,-37.64 -13.83,-2.54 -27.14,2.97 -34.42,13.01l-130.63 -24 -62.18 -58.85 -56.54 -9.15 95.13 93.28 150.74 27.68c4.19,10.35 13.92,18.57 26.36,20.85z"/>
     <rect class="fil2" transform="matrix(0.98405 0.180758 0.0985641 -0.536586 9822.75 4699.73)" width="448.54" height="52.14" rx="26.07" ry="26.07"/>
     <rect class="fil2" transform="matrix(0.581611 0.749617 -0.49429 0.301431 9607.96 4361.74)" width="448.54" height="52.14" rx="26.07" ry="26.07"/>
     <rect class="fil2" transform="matrix(0.581611 0.749617 -0.49429 0.301431 9367.61 4052.06)" width="448.54" height="52.14" rx="26.07" ry="26.07"/>
     <rect class="fil2" transform="matrix(-9.00231 -1.65361 0.0985641 -0.536586 9381.18 4087.09)" width="448.54" height="52.14" rx="26.07" ry="26.07"/>
    </g>
   </g>
  </g>
  <path class="fil3 str0" d="M5269.7 6679.15c-155.04,-173.74 -542.16,-512.43 -860.27,-752.66 -942.53,-711.79 -1070.81,-814.8 -1453.5,-1167.18 -705.52,-649.64 -1005.13,-1302.31 -1004.11,-2187.29 0.5,-432.01 29.95,-598.45 150.93,-853.09 205.26,-432.03 507.6,-753.06 894.16,-949.4 273.79,-139.07 408.81,-200.85 866.01,-203.38 478.26,-2.64 578.94,53.12 860.27,207.67 342.42,188.12 694.88,590.17 767.73,875.75l45 176.39 110.97 -242.93c627.08,-1372.8 2629.14,-1352.26 3325.86,34.12 221.02,439.8 245.29,1378.88 49.3,1907.86 -255.66,690.03 -735.84,1216.11 -1845.88,2022.25 -727.98,528.69 -1551.89,1328.61 -1609.24,1440.95 -66.58,130.41 -3.18,20.43 -297.23,-309.07z"/>
  <rect class="fil2" transform="matrix(0.825695 0.564117 -0.564117 0.825695 370.251 -186.64)" width="13240.64" height="1004.12" rx="502.06" ry="502.06"/>
 </g>
</svg>
