<?xml version="1.0" encoding="UTF-8"?>
<!DOCTYPE svg PUBLIC "-//W3C//DTD SVG 1.1//EN" "http://www.w3.org/Graphics/SVG/1.1/DTD/svg11.dtd">
<!-- Creator: CorelDRAW 2018 (64-Bit Evaluation Version) -->
<svg xmlns="http://www.w3.org/2000/svg" xml:space="preserve" width="148.136mm" height="234.872mm" version="1.1" style="shape-rendering:geometricPrecision; text-rendering:geometricPrecision; image-rendering:optimizeQuality; fill-rule:evenodd; clip-rule:evenodd"
viewBox="0 0 5281.71 8374.26"
 xmlns:xlink="http://www.w3.org/1999/xlink">
 <defs>
  <style type="text/css">
   <![CDATA[
    .str0 {stroke:#00CCFF;stroke-width:50.31;stroke-linecap:round;stroke-linejoin:round;stroke-miterlimit:22.9256}
    .fil3 {fill:none}
    .fil0 {fill:#FEFEFE}
    .fil1 {fill:#002444}
    .fil2 {fill:#00CCFF}
    .fil4 {fill:#FAFAFA}
    .fil5 {fill:white}
   ]]>
  </style>
    <clipPath id="id0">
     <path d="M1099.25 492.56l2745.39 0c315.01,-0 570.47,255.46 570.47,570.47l0 5936.46c-0,315.01 -255.46,570.47 -570.47,570.47l-2745.39 0c-315.01,-0 -570.47,-255.46 -570.47,-570.48l0 -5936.46c0,-315.01 255.46,-570.47 570.47,-570.47z"/>
    </clipPath>
 </defs>
 <g id="Layer_x0020_1">
  <metadata id="CorelCorpID_0Corel-Layer"/>
  <path class="fil0" d="M1310.54 0l2660.62 0c723.48,0 1310.54,587.06 1310.54,1310.54l0 5753.17c0,723.48 -587.06,1310.54 -1310.54,1310.54l-2660.62 0c-723.48,0 -1310.54,-587.07 -1310.54,-1310.55l0 -5753.17c0,-723.48 587.06,-1310.54 1310.54,-1310.54z"/>
  <path class="fil1" d="M1218.05 374.83l2711.54 0c475.55,0 861.32,385.78 861.32,861.33l0 5863.28c0,475.54 -385.79,861.32 -861.33,861.32l-2711.54 0c-475.55,0 -861.33,-385.79 -861.33,-861.33l0 -5863.27c0,-475.55 385.78,-861.33 861.33,-861.33z"/>
  <g id="_3168515697184">
   <path class="fil1" d="M1099.25 492.56l2745.39 0c315.01,-0 570.47,255.46 570.47,570.47l0 5936.46c-0,315.01 -255.46,570.47 -570.47,570.47l-2745.39 0c-315.01,-0 -570.47,-255.46 -570.47,-570.48l0 -5936.46c0,-315.01 255.46,-570.47 570.47,-570.47z"/>
   <g style="clip-path:url(#id0)">
    <g>
     <polygon id="1" class="fil2" points="-4.03,2991.3 24.04,2911.2 -4.98,2781.78 26.75,2691.05 143.56,2596.87 158.75,2620.62 55.5,2703.87 27.62,2784.04 51.72,2920.01 19.46,3012.1 "/>
     <polygon class="fil2" points="-494.31,3661.52 -532.09,3770.1 -500.21,3766.85 -464.39,3663.91 -485.07,3518.16 -453.05,3426.71 -475.98,3404.32 -512.79,3509.45 "/>
     <g>
      <path class="fil2" d="M1166.58 3660.14c-6.4,18.34 2.14,38 19.06,43.91 16.93,5.91 35.85,-4.17 42.25,-22.51 4.73,-13.56 1.3,-27.83 -7.64,-36.75l44.7 -128.05 68.94 -53.58 18.11 -55.62 -108.73 81.48 -51.58 147.77c-11.06,2.61 -20.85,11.16 -25.1,23.35z"/>
      <rect class="fil2" transform="matrix(-0.709103 2.03139 1.10289 0.384989 1468.66 3027.35)" width="212.99" height="24.76" rx="12.38" ry="12.38"/>
      <rect class="fil2" transform="matrix(-1.77945 0.990279 -0.473897 -1.14872 1842.17 2863.19)" width="212.99" height="24.76" rx="12.38" ry="12.38"/>
      <rect class="fil2" transform="matrix(-1.77945 0.990279 -0.473897 -1.14872 2191.27 2668.85)" width="212.99" height="24.76" rx="12.38" ry="12.38"/>
      <rect class="fil2" transform="matrix(6.48704 -18.5836 1.10289 0.384989 2153.93 2677.09)" width="212.99" height="24.76" rx="12.38" ry="12.38"/>
     </g>
     <g>
      <path class="fil2" d="M1684.97 4159.93c7.01,17 26.21,23.25 42.88,13.98 16.66,-9.28 24.49,-30.58 17.48,-47.57 -5.18,-12.56 -17.03,-19.26 -29.58,-18.15l-48.96 -118.67 17.62 -88.68 -22.25 -50.53 -29.76 137.87 56.49 136.93c-6.7,10.3 -8.6,23.51 -3.93,34.81z"/>
      <rect class="fil2" transform="matrix(0.776625 1.88254 1.08582 -0.604269 1504.64 3510.45)" width="212.99" height="24.76" rx="12.38" ry="12.38"/>
      <rect class="fil2" transform="matrix(-0.709103 2.03139 -1.10289 -0.384989 1681.77 3112.71)" width="212.99" height="24.76" rx="12.38" ry="12.38"/>
      <rect class="fil2" transform="matrix(-0.709103 2.03139 -1.10289 -0.384989 1820.84 2714.14)" width="212.99" height="24.76" rx="12.38" ry="12.38"/>
      <rect class="fil2" transform="matrix(-7.10474 -17.2219 1.08582 -0.604269 1797.85 2748.55)" width="212.99" height="24.76" rx="12.38" ry="12.38"/>
     </g>
     <g>
      <path class="fil2" d="M-219.76 5754.75c16.32,5.69 34.93,-5.12 41.57,-24.14 6.64,-19.03 -1.2,-39.07 -17.52,-44.77 -12.06,-4.21 -25.38,0.6 -34.19,11.08l-113.93 -39.77 -44.02 -71.83 -49.58 -15.84 66.64 113.5 131.47 45.89c1.59,11.96 8.69,22.09 19.54,25.88z"/>
      <rect class="fil2" transform="matrix(1.80742 0.630922 0.432695 -1.23955 -776.866 5469.03)" width="212.99" height="24.76" rx="12.38" ry="12.38"/>
      <rect class="fil2" transform="matrix(0.776625 1.88254 -1.08582 0.604269 -899.883 5070.69)" width="212.99" height="24.76" rx="12.38" ry="12.38"/>
      <rect class="fil2" transform="matrix(0.776625 1.88254 -1.08582 0.604269 -1052.31 4701.38)" width="212.99" height="24.76" rx="12.38" ry="12.38"/>
      <rect class="fil2" transform="matrix(-16.5347 -5.77181 0.432695 -1.23955 -1047.48 4741.8)" width="212.99" height="24.76" rx="12.38" ry="12.38"/>
     </g>
     <g>
      <path class="fil2" d="M1733.53 3969.17c-6.4,18.34 2.14,38 19.06,43.91 16.93,5.91 35.85,-4.17 42.25,-22.51 4.73,-13.56 1.3,-27.83 -7.65,-36.75l44.7 -128.05 68.94 -53.59 18.11 -55.61 -108.73 81.48 -51.58 147.76c-11.06,2.61 -20.85,11.16 -25.11,23.35z"/>
      <rect class="fil2" transform="matrix(-0.709103 2.03139 1.10289 0.384989 2035.61 3336.39)" width="212.99" height="24.76" rx="12.38" ry="12.38"/>
      <rect class="fil2" transform="matrix(-1.77945 0.990279 -0.473897 -1.14872 2409.12 3172.23)" width="212.99" height="24.76" rx="12.38" ry="12.38"/>
      <rect class="fil2" transform="matrix(-1.77945 0.990279 -0.473897 -1.14872 2758.21 2977.89)" width="212.99" height="24.76" rx="12.38" ry="12.38"/>
      <rect class="fil2" transform="matrix(6.48704 -18.5836 1.10289 0.384989 2720.87 2986.13)" width="212.99" height="24.76" rx="12.38" ry="12.38"/>
     </g>
     <g>
      <path class="fil2" d="M2315.06 3922.16c7.01,17 26.21,23.25 42.88,13.98 16.66,-9.28 24.49,-30.58 17.48,-47.57 -5.18,-12.56 -17.03,-19.26 -29.58,-18.15l-48.96 -118.67 17.62 -88.68 -22.25 -50.53 -29.76 137.87 56.49 136.93c-6.7,10.3 -8.6,23.51 -3.94,34.81z"/>
      <rect class="fil2" transform="matrix(0.776625 1.88254 1.08582 -0.604269 2134.73 3272.68)" width="212.99" height="24.76" rx="12.38" ry="12.38"/>
      <rect class="fil2" transform="matrix(-0.709103 2.03139 -1.10289 -0.384989 2311.86 2874.93)" width="212.99" height="24.76" rx="12.38" ry="12.38"/>
      <rect class="fil2" transform="matrix(-0.709103 2.03139 -1.10289 -0.384989 2450.93 2476.37)" width="212.99" height="24.76" rx="12.38" ry="12.38"/>
      <rect class="fil2" transform="matrix(-7.10474 -17.2219 1.08582 -0.604269 2427.94 2510.78)" width="212.99" height="24.76" rx="12.38" ry="12.38"/>
     </g>
     <g>
      <path class="fil2" d="M104.37 5109.45c16.32,5.7 34.93,-5.11 41.57,-24.14 6.64,-19.03 -1.2,-39.07 -17.52,-44.77 -12.06,-4.21 -25.38,0.6 -34.19,11.08l-113.93 -39.77 -44.02 -71.83 -49.58 -15.84 66.65 113.5 131.47 45.89c1.59,11.96 8.69,22.09 19.54,25.87z"/>
      <rect class="fil2" transform="matrix(1.80742 0.630922 0.432695 -1.23955 -452.731 4823.73)" width="212.99" height="24.76" rx="12.38" ry="12.38"/>
      <rect class="fil2" transform="matrix(0.776625 1.88254 -1.08582 0.604269 -575.747 4425.39)" width="212.99" height="24.76" rx="12.38" ry="12.38"/>
      <rect class="fil2" transform="matrix(0.776625 1.88254 -1.08582 0.604269 -728.171 4056.08)" width="212.99" height="24.76" rx="12.38" ry="12.38"/>
      <rect class="fil2" transform="matrix(-16.5347 -5.77181 0.432695 -1.23955 -723.347 4096.5)" width="212.99" height="24.76" rx="12.38" ry="12.38"/>
     </g>
     <g>
      <path class="fil2" d="M2300.47 4278.21c-6.4,18.34 2.14,38 19.06,43.91 16.93,5.91 35.85,-4.17 42.25,-22.51 4.73,-13.56 1.3,-27.83 -7.65,-36.75l44.7 -128.05 68.94 -53.58 18.11 -55.62 -108.73 81.48 -51.58 147.77c-11.06,2.61 -20.85,11.16 -25.11,23.35z"/>
      <rect class="fil2" transform="matrix(-0.709103 2.03139 1.10289 0.384989 2602.55 3645.43)" width="212.99" height="24.76" rx="12.38" ry="12.38"/>
      <rect class="fil2" transform="matrix(-1.77945 0.990279 -0.473897 -1.14872 2976.07 3481.27)" width="212.99" height="24.76" rx="12.38" ry="12.38"/>
      <rect class="fil2" transform="matrix(-1.77945 0.990279 -0.473897 -1.14872 3325.16 3286.92)" width="212.99" height="24.76" rx="12.38" ry="12.38"/>
      <rect class="fil2" transform="matrix(6.48704 -18.5836 1.10289 0.384989 3287.82 3295.17)" width="212.99" height="24.76" rx="12.38" ry="12.38"/>
     </g>
     <g>
      <path class="fil2" d="M2945.15 3684.38c7.01,17 26.21,23.25 42.88,13.98 16.66,-9.28 24.49,-30.58 17.48,-47.57 -5.18,-12.56 -17.03,-19.26 -29.58,-18.15l-48.96 -118.67 17.62 -88.68 -22.25 -50.53 -29.76 137.87 56.49 136.93c-6.7,10.3 -8.6,23.51 -3.94,34.81z"/>
      <rect class="fil2" transform="matrix(0.776625 1.88254 1.08582 -0.604269 2764.82 3034.91)" width="212.99" height="24.76" rx="12.38" ry="12.38"/>
      <rect class="fil2" transform="matrix(-0.709103 2.03139 -1.10289 -0.384989 2941.95 2637.16)" width="212.99" height="24.76" rx="12.38" ry="12.38"/>
      <rect class="fil2" transform="matrix(-0.709103 2.03139 -1.10289 -0.384989 3081.02 2238.6)" width="212.99" height="24.76" rx="12.38" ry="12.38"/>
      <rect class="fil2" transform="matrix(-7.10474 -17.2219 1.08582 -0.604269 3058.03 2273.01)" width="212.99" height="24.76" rx="12.38" ry="12.38"/>
     </g>
     <g>
      <path class="fil2" d="M428.51 4464.15c16.32,5.69 34.93,-5.12 41.57,-24.14 6.64,-19.03 -1.2,-39.07 -17.52,-44.77 -12.06,-4.21 -25.38,0.6 -34.19,11.08l-113.93 -39.77 -44.02 -71.83 -49.58 -15.84 66.65 113.5 131.47 45.89c1.59,11.96 8.69,22.09 19.54,25.88z"/>
      <rect class="fil2" transform="matrix(1.80742 0.630922 0.432695 -1.23955 -128.596 4178.43)" width="212.99" height="24.76" rx="12.38" ry="12.38"/>
      <rect class="fil2" transform="matrix(0.776625 1.88254 -1.08582 0.604269 -251.612 3780.09)" width="212.99" height="24.76" rx="12.38" ry="12.38"/>
      <rect class="fil2" transform="matrix(0.776625 1.88254 -1.08582 0.604269 -404.036 3410.78)" width="212.99" height="24.76" rx="12.38" ry="12.38"/>
      <rect class="fil2" transform="matrix(-16.5347 -5.77181 0.432695 -1.23955 -399.211 3451.2)" width="212.99" height="24.76" rx="12.38" ry="12.38"/>
     </g>
     <g>
      <path class="fil2" d="M2867.42 4587.25c-6.4,18.34 2.14,38 19.06,43.91 16.93,5.91 35.85,-4.17 42.25,-22.51 4.73,-13.56 1.3,-27.83 -7.65,-36.75l44.7 -128.05 68.94 -53.59 18.11 -55.61 -108.73 81.47 -51.58 147.77c-11.06,2.61 -20.85,11.16 -25.1,23.35z"/>
      <rect class="fil2" transform="matrix(-0.709103 2.03139 1.10289 0.384989 3169.5 3954.46)" width="212.99" height="24.76" rx="12.38" ry="12.38"/>
      <rect class="fil2" transform="matrix(-1.77945 0.990279 -0.473897 -1.14872 3543.02 3790.31)" width="212.99" height="24.76" rx="12.38" ry="12.38"/>
      <rect class="fil2" transform="matrix(-1.77945 0.990279 -0.473897 -1.14872 3892.11 3595.96)" width="212.99" height="24.76" rx="12.38" ry="12.38"/>
      <rect class="fil2" transform="matrix(6.48704 -18.5836 1.10289 0.384989 3854.77 3604.21)" width="212.99" height="24.76" rx="12.38" ry="12.38"/>
     </g>
     <g>
      <path class="fil2" d="M3575.24 3446.61c7.01,17 26.21,23.25 42.88,13.98 16.66,-9.28 24.49,-30.58 17.48,-47.57 -5.18,-12.56 -17.03,-19.26 -29.58,-18.15l-48.96 -118.67 17.62 -88.68 -22.25 -50.53 -29.76 137.87 56.49 136.94c-6.7,10.3 -8.6,23.51 -3.94,34.81z"/>
      <rect class="fil2" transform="matrix(0.776625 1.88254 1.08582 -0.604269 3394.91 2797.13)" width="212.99" height="24.76" rx="12.38" ry="12.38"/>
      <rect class="fil2" transform="matrix(-0.709103 2.03139 -1.10289 -0.384989 3572.04 2399.39)" width="212.99" height="24.76" rx="12.38" ry="12.38"/>
      <rect class="fil2" transform="matrix(-0.709103 2.03139 -1.10289 -0.384989 3711.11 2000.82)" width="212.99" height="24.76" rx="12.38" ry="12.38"/>
      <rect class="fil2" transform="matrix(-7.10474 -17.2219 1.08582 -0.604269 3688.12 2035.23)" width="212.99" height="24.76" rx="12.38" ry="12.38"/>
     </g>
     <g>
      <path class="fil2" d="M752.64 3818.85c16.32,5.7 34.93,-5.11 41.57,-24.14 6.64,-19.03 -1.2,-39.07 -17.52,-44.77 -12.06,-4.21 -25.38,0.6 -34.19,11.08l-113.93 -39.77 -44.02 -71.83 -49.58 -15.84 66.65 113.5 131.47 45.89c1.59,11.96 8.69,22.09 19.54,25.88z"/>
      <rect class="fil2" transform="matrix(1.80742 0.630922 0.432695 -1.23955 195.54 3533.13)" width="212.99" height="24.76" rx="12.38" ry="12.38"/>
      <rect class="fil2" transform="matrix(0.776625 1.88254 -1.08582 0.604269 72.5231 3134.79)" width="212.99" height="24.76" rx="12.38" ry="12.38"/>
      <rect class="fil2" transform="matrix(0.776625 1.88254 -1.08582 0.604269 -79.9005 2765.48)" width="212.99" height="24.76" rx="12.38" ry="12.38"/>
      <rect class="fil2" transform="matrix(-16.5347 -5.77181 0.432695 -1.23955 -75.0761 2805.9)" width="212.99" height="24.76" rx="12.38" ry="12.38"/>
     </g>
     <g>
      <path class="fil2" d="M3434.37 4896.29c-6.4,18.34 2.14,38 19.06,43.91 16.93,5.91 35.85,-4.17 42.25,-22.51 4.73,-13.56 1.3,-27.84 -7.65,-36.75l44.7 -128.05 68.94 -53.58 18.11 -55.62 -108.73 81.48 -51.58 147.77c-11.06,2.61 -20.85,11.16 -25.1,23.35z"/>
      <rect class="fil2" transform="matrix(-0.709103 2.03139 1.10289 0.384989 3736.45 4263.5)" width="212.99" height="24.76" rx="12.38" ry="12.38"/>
      <rect class="fil2" transform="matrix(-1.77945 0.990279 -0.473897 -1.14872 4109.96 4099.34)" width="212.99" height="24.76" rx="12.38" ry="12.38"/>
      <rect class="fil2" transform="matrix(-1.77945 0.990279 -0.473897 -1.14872 4459.06 3905)" width="212.99" height="24.76" rx="12.38" ry="12.38"/>
      <rect class="fil2" transform="matrix(6.48704 -18.5836 1.10289 0.384989 4421.72 3913.24)" width="212.99" height="24.76" rx="12.38" ry="12.38"/>
     </g>
     <g>
      <path class="fil2" d="M1076.78 3173.55c16.32,5.7 34.93,-5.11 41.57,-24.14 6.64,-19.03 -1.2,-39.08 -17.52,-44.77 -12.06,-4.21 -25.38,0.6 -34.19,11.08l-113.93 -39.77 -44.01 -71.83 -49.58 -15.84 66.65 113.5 131.47 45.89c1.59,11.96 8.69,22.09 19.54,25.87z"/>
      <rect class="fil2" transform="matrix(1.80742 0.630922 0.432695 -1.23955 519.675 2887.83)" width="212.99" height="24.76" rx="12.38" ry="12.38"/>
      <rect class="fil2" transform="matrix(0.776625 1.88254 -1.08582 0.604269 396.658 2489.49)" width="212.99" height="24.76" rx="12.38" ry="12.38"/>
      <rect class="fil2" transform="matrix(0.776625 1.88254 -1.08582 0.604269 244.235 2120.18)" width="212.99" height="24.76" rx="12.38" ry="12.38"/>
      <rect class="fil2" transform="matrix(-16.5347 -5.77181 0.432695 -1.23955 249.059 2160.6)" width="212.99" height="24.76" rx="12.38" ry="12.38"/>
     </g>
     <g>
      <path class="fil2" d="M4001.32 5205.32c-6.4,18.34 2.14,38 19.06,43.91 16.93,5.91 35.85,-4.17 42.25,-22.51 4.73,-13.56 1.3,-27.83 -7.65,-36.75l44.7 -128.05 68.94 -53.59 18.11 -55.62 -108.73 81.48 -51.58 147.77c-11.06,2.61 -20.85,11.16 -25.11,23.35z"/>
      <rect class="fil2" transform="matrix(-0.709103 2.03139 1.10289 0.384989 4303.4 4572.54)" width="212.99" height="24.76" rx="12.38" ry="12.38"/>
      <rect class="fil2" transform="matrix(-1.77945 0.990279 -0.473897 -1.14872 4676.91 4408.38)" width="212.99" height="24.76" rx="12.38" ry="12.38"/>
      <rect class="fil2" transform="matrix(-1.77945 0.990279 -0.473897 -1.14872 5026 4214.04)" width="212.99" height="24.76" rx="12.38" ry="12.38"/>
      <rect class="fil2" transform="matrix(6.48704 -18.5836 1.10289 0.384989 4988.66 4222.28)" width="212.99" height="24.76" rx="12.38" ry="12.38"/>
     </g>
     <g>
      <path class="fil2" d="M1400.91 2528.25c16.32,5.69 34.93,-5.12 41.57,-24.14 6.64,-19.03 -1.2,-39.07 -17.52,-44.77 -12.06,-4.21 -25.38,0.6 -34.19,11.08l-113.93 -39.77 -44.01 -71.83 -49.58 -15.84 66.65 113.5 131.47 45.89c1.59,11.96 8.69,22.09 19.54,25.88z"/>
      <rect class="fil2" transform="matrix(1.80742 0.630922 0.432695 -1.23955 843.81 2242.53)" width="212.99" height="24.76" rx="12.38" ry="12.38"/>
      <rect class="fil2" transform="matrix(0.776625 1.88254 -1.08582 0.604269 720.794 1844.19)" width="212.99" height="24.76" rx="12.38" ry="12.38"/>
      <rect class="fil2" transform="matrix(0.776625 1.88254 -1.08582 0.604269 568.37 1474.88)" width="212.99" height="24.76" rx="12.38" ry="12.38"/>
      <rect class="fil2" transform="matrix(-16.5347 -5.77181 0.432695 -1.23955 573.194 1515.3)" width="212.99" height="24.76" rx="12.38" ry="12.38"/>
     </g>
     <g>
      <path class="fil2" d="M4568.27 5514.36c-6.4,18.34 2.13,38 19.06,43.91 16.93,5.91 35.85,-4.17 42.25,-22.51 4.73,-13.56 1.3,-27.83 -7.65,-36.74l44.7 -128.05 68.94 -53.58 18.11 -55.62 -108.73 81.48 -51.58 147.76c-11.06,2.61 -20.85,11.16 -25.1,23.35z"/>
      <rect class="fil2" transform="matrix(-0.709103 2.03139 1.10289 0.384989 4870.34 4881.57)" width="212.99" height="24.76" rx="12.38" ry="12.38"/>
      <rect class="fil2" transform="matrix(-1.77945 0.990279 -0.473897 -1.14872 5243.86 4717.42)" width="212.99" height="24.76" rx="12.38" ry="12.38"/>
      <rect class="fil2" transform="matrix(-1.77945 0.990279 -0.473897 -1.14872 5592.95 4523.07)" width="212.99" height="24.76" rx="12.38" ry="12.38"/>
      <rect class="fil2" transform="matrix(6.48704 -18.5836 1.10289 0.384989 5555.61 4531.32)" width="212.99" height="24.76" rx="12.38" ry="12.38"/>
     </g>
     <g>
      <path class="fil2" d="M-2753.23 4833.12c-6.4,18.34 -25.32,28.42 -42.25,22.51 -16.93,-5.91 -25.46,-25.57 -19.06,-43.91 4.73,-13.56 16.3,-22.59 28.86,-24l44.7 -128.05 -20.62 -84.84 20.44 -54.81 34.4 131.44 -51.58 147.77c7.03,8.93 9.38,21.71 5.12,33.9z"/>
      <rect class="fil2" transform="matrix(-0.709103 2.03139 -1.10289 -0.384989 -2595.9 4149.81)" width="212.99" height="24.76" rx="12.38" ry="12.38"/>
      <rect class="fil2" transform="matrix(0.776625 1.88254 1.08582 -0.604269 -2786.12 3788.87)" width="212.99" height="24.76" rx="12.38" ry="12.38"/>
      <rect class="fil2" transform="matrix(0.776625 1.88254 1.08582 -0.604269 -2938.43 3419.5)" width="212.99" height="24.76" rx="12.38" ry="12.38"/>
      <rect class="fil2" transform="matrix(6.48704 -18.5836 -1.10289 -0.384989 -2914.33 3449.19)" width="212.99" height="24.76" rx="12.38" ry="12.38"/>
     </g>
     <g>
      <path class="fil2" d="M-1959.42 4740.78c-6.4,18.34 -25.32,28.42 -42.25,22.51 -16.93,-5.91 -25.47,-25.57 -19.06,-43.91 4.73,-13.56 16.3,-22.6 28.85,-24.01l44.7 -128.05 -20.62 -84.85 20.43 -54.8 34.41 131.44 -51.58 147.77c7.03,8.93 9.38,21.71 5.12,33.9z"/>
      <rect class="fil2" transform="matrix(-0.709103 2.03139 -1.10289 -0.384989 -1802.08 4057.47)" width="212.99" height="24.76" rx="12.38" ry="12.38"/>
      <rect class="fil2" transform="matrix(0.776625 1.88254 1.08582 -0.604269 -1992.3 3696.53)" width="212.99" height="24.76" rx="12.38" ry="12.38"/>
      <rect class="fil2" transform="matrix(0.776625 1.88254 1.08582 -0.604269 -2144.62 3327.16)" width="212.99" height="24.76" rx="12.38" ry="12.38"/>
      <rect class="fil2" transform="matrix(6.48704 -18.5836 -1.10289 -0.384989 -2120.52 3356.85)" width="212.99" height="24.76" rx="12.38" ry="12.38"/>
     </g>
     <g>
      <path class="fil2" d="M-1165.6 4648.44c-6.4,18.34 -25.32,28.42 -42.25,22.51 -16.93,-5.91 -25.46,-25.58 -19.06,-43.91 4.73,-13.56 16.3,-22.59 28.86,-24l44.7 -128.05 -20.62 -84.84 20.44 -54.81 34.4 131.44 -51.58 147.77c7.03,8.93 9.38,21.71 5.12,33.9z"/>
      <rect class="fil2" transform="matrix(-0.709103 2.03139 -1.10289 -0.384989 -1008.27 3965.13)" width="212.99" height="24.76" rx="12.38" ry="12.38"/>
      <rect class="fil2" transform="matrix(0.776625 1.88254 1.08582 -0.604269 -1198.49 3604.19)" width="212.99" height="24.76" rx="12.38" ry="12.38"/>
      <rect class="fil2" transform="matrix(0.776625 1.88254 1.08582 -0.604269 -1350.8 3234.81)" width="212.99" height="24.76" rx="12.38" ry="12.38"/>
      <rect class="fil2" transform="matrix(6.48704 -18.5836 -1.10289 -0.384989 -1326.7 3264.51)" width="212.99" height="24.76" rx="12.38" ry="12.38"/>
     </g>
     <g>
      <path class="fil2" d="M2274.64 3405.8c-16.32,-5.69 -24.16,-25.74 -17.52,-44.77 6.64,-19.03 25.26,-29.84 41.58,-24.14 12.06,4.21 19.49,16.26 19.86,29.94l113.93 39.77 79.15 -28.83 48.67 18.45 -122.8 47.37 -131.47 -45.89c-8.69,8.37 -20.55,11.88 -31.4,8.09z"/>
      <rect class="fil2" transform="matrix(-1.80742 -0.630922 0.432695 -1.23955 2888.53 3528.84)" width="212.99" height="24.76" rx="12.38" ry="12.38"/>
      <rect class="fil2" transform="matrix(-1.77945 0.990279 0.473897 1.14872 3232.72 3293.59)" width="212.99" height="24.76" rx="12.38" ry="12.38"/>
      <rect class="fil2" transform="matrix(-1.77945 0.990279 0.473897 1.14872 3581.86 3099.36)" width="212.99" height="24.76" rx="12.38" ry="12.38"/>
      <rect class="fil2" transform="matrix(16.5347 5.77181 0.432695 -1.23955 3552.93 3128)" width="212.99" height="24.76" rx="12.38" ry="12.38"/>
     </g>
     <g>
      <path class="fil2" d="M2360.99 3132.51c-16.06,8.94 -34.99,1.89 -42.26,-15.74 -7.28,-17.63 -0.15,-39.18 15.92,-48.12 11.87,-6.61 25.31,-4.48 34.45,4.2l112.17 -62.42 41.39 -80.38 48.86 -25.7 -62.51 126.44 -129.44 72.03c-1.17,12.23 -7.9,23.75 -18.58,29.7z"/>
      <rect class="fil2" transform="matrix(-1.77945 0.990279 -0.473897 -1.14872 2906.33 2736.34)" width="212.99" height="24.76" rx="12.38" ry="12.38"/>
      <rect class="fil2" transform="matrix(-0.709103 2.03139 1.10289 0.384989 3015.2 2314.77)" width="212.99" height="24.76" rx="12.38" ry="12.38"/>
      <rect class="fil2" transform="matrix(-0.709103 2.03139 1.10289 0.384989 3154.38 1916.25)" width="212.99" height="24.76" rx="12.38" ry="12.38"/>
      <rect class="fil2" transform="matrix(16.2788 -9.05929 -0.473897 -1.14872 3150.96 1957.49)" width="212.99" height="24.76" rx="12.38" ry="12.38"/>
     </g>
     <g>
      <path class="fil2" d="M-371.79 4556.09c-6.4,18.34 -25.32,28.42 -42.25,22.51 -16.93,-5.91 -25.47,-25.57 -19.06,-43.91 4.73,-13.56 16.3,-22.6 28.85,-24.01l44.7 -128.05 -20.62 -84.85 20.43 -54.8 34.41 131.44 -51.58 147.77c7.03,8.93 9.38,21.71 5.12,33.9z"/>
      <rect class="fil2" transform="matrix(-0.709103 2.03139 -1.10289 -0.384989 -214.454 3872.78)" width="212.99" height="24.76" rx="12.38" ry="12.38"/>
      <rect class="fil2" transform="matrix(0.776625 1.88254 1.08582 -0.604269 -404.672 3511.84)" width="212.99" height="24.76" rx="12.38" ry="12.38"/>
      <rect class="fil2" transform="matrix(0.776625 1.88254 1.08582 -0.604269 -556.986 3142.47)" width="212.99" height="24.76" rx="12.38" ry="12.38"/>
      <rect class="fil2" transform="matrix(6.48704 -18.5836 -1.10289 -0.384989 -532.888 3172.16)" width="212.99" height="24.76" rx="12.38" ry="12.38"/>
     </g>
     <g>
      <path class="fil2" d="M2301.31 4271.06c-16.32,-5.7 -24.16,-25.75 -17.52,-44.77 6.64,-19.03 25.26,-29.84 41.58,-24.14 12.06,4.21 19.49,16.26 19.87,29.95l113.93 39.77 79.15 -28.83 48.67 18.45 -122.8 47.37 -131.47 -45.89c-8.69,8.38 -20.55,11.88 -31.4,8.1z"/>
      <rect class="fil2" transform="matrix(-1.80742 -0.630922 0.432695 -1.23955 2915.2 4394.1)" width="212.99" height="24.76" rx="12.38" ry="12.38"/>
      <rect class="fil2" transform="matrix(-1.77945 0.990279 0.473897 1.14872 3259.39 4158.85)" width="212.99" height="24.76" rx="12.38" ry="12.38"/>
      <rect class="fil2" transform="matrix(-1.77945 0.990279 0.473897 1.14872 3608.53 3964.62)" width="212.99" height="24.76" rx="12.38" ry="12.38"/>
      <rect class="fil2" transform="matrix(16.5347 5.77181 0.432695 -1.23955 3579.6 3993.26)" width="212.99" height="24.76" rx="12.38" ry="12.38"/>
     </g>
     <g>
      <path class="fil2" d="M2941.16 3679.05c-16.07,8.94 -34.99,1.89 -42.26,-15.74 -7.27,-17.63 -0.15,-39.18 15.92,-48.12 11.87,-6.61 25.31,-4.48 34.45,4.2l112.17 -62.42 41.39 -80.38 48.86 -25.71 -62.51 126.44 -129.44 72.03c-1.17,12.24 -7.9,23.75 -18.58,29.7z"/>
      <rect class="fil2" transform="matrix(-1.77945 0.990279 -0.473897 -1.14872 3486.5 3282.88)" width="212.99" height="24.76" rx="12.38" ry="12.38"/>
      <rect class="fil2" transform="matrix(-0.709103 2.03139 1.10289 0.384989 3595.37 2861.31)" width="212.99" height="24.76" rx="12.38" ry="12.38"/>
      <rect class="fil2" transform="matrix(-0.709103 2.03139 1.10289 0.384989 3734.55 2462.78)" width="212.99" height="24.76" rx="12.38" ry="12.38"/>
      <rect class="fil2" transform="matrix(16.2788 -9.05929 -0.473897 -1.14872 3731.13 2504.02)" width="212.99" height="24.76" rx="12.38" ry="12.38"/>
     </g>
     <g>
      <path class="fil2" d="M422.03 4463.75c-6.4,18.34 -25.32,28.42 -42.25,22.51 -16.93,-5.91 -25.46,-25.57 -19.06,-43.91 4.73,-13.56 16.3,-22.59 28.86,-24l44.7 -128.05 -20.62 -84.85 20.44 -54.8 34.4 131.44 -51.58 147.76c7.03,8.93 9.38,21.71 5.12,33.9z"/>
      <rect class="fil2" transform="matrix(-0.709103 2.03139 -1.10289 -0.384989 579.361 3780.44)" width="212.99" height="24.76" rx="12.38" ry="12.38"/>
      <rect class="fil2" transform="matrix(0.776625 1.88254 1.08582 -0.604269 389.143 3419.5)" width="212.99" height="24.76" rx="12.38" ry="12.38"/>
      <rect class="fil2" transform="matrix(0.776625 1.88254 1.08582 -0.604269 236.829 3050.13)" width="212.99" height="24.76" rx="12.38" ry="12.38"/>
      <rect class="fil2" transform="matrix(6.48704 -18.5836 -1.10289 -0.384989 260.927 3079.82)" width="212.99" height="24.76" rx="12.38" ry="12.38"/>
     </g>
     <g>
      <path class="fil2" d="M2327.98 5136.32c-16.32,-5.7 -24.16,-25.74 -17.52,-44.77 6.64,-19.03 25.26,-29.84 41.57,-24.14 12.06,4.21 19.49,16.26 19.87,29.95l113.93 39.77 79.15 -28.83 48.67 18.45 -122.8 47.37 -131.47 -45.89c-8.68,8.37 -20.55,11.88 -31.4,8.09z"/>
      <rect class="fil2" transform="matrix(-1.80742 -0.630922 0.432695 -1.23955 2941.87 5259.37)" width="212.99" height="24.76" rx="12.38" ry="12.38"/>
      <rect class="fil2" transform="matrix(-1.77945 0.990279 0.473897 1.14872 3286.06 5024.12)" width="212.99" height="24.76" rx="12.38" ry="12.38"/>
      <rect class="fil2" transform="matrix(-1.77945 0.990279 0.473897 1.14872 3635.2 4829.89)" width="212.99" height="24.76" rx="12.38" ry="12.38"/>
      <rect class="fil2" transform="matrix(16.5347 5.77181 0.432695 -1.23955 3606.27 4858.52)" width="212.99" height="24.76" rx="12.38" ry="12.38"/>
     </g>
     <g>
      <path class="fil2" d="M3521.33 4225.58c-16.07,8.94 -34.99,1.89 -42.26,-15.74 -7.27,-17.63 -0.15,-39.18 15.92,-48.12 11.87,-6.61 25.31,-4.48 34.45,4.2l112.17 -62.42 41.39 -80.38 48.86 -25.7 -62.51 126.44 -129.44 72.03c-1.17,12.23 -7.9,23.75 -18.58,29.7z"/>
      <rect class="fil2" transform="matrix(-1.77945 0.990279 -0.473897 -1.14872 4066.67 3829.42)" width="212.99" height="24.76" rx="12.38" ry="12.38"/>
      <rect class="fil2" transform="matrix(-0.709103 2.03139 1.10289 0.384989 4175.54 3407.84)" width="212.99" height="24.76" rx="12.38" ry="12.38"/>
      <rect class="fil2" transform="matrix(-0.709103 2.03139 1.10289 0.384989 4314.72 3009.32)" width="212.99" height="24.76" rx="12.38" ry="12.38"/>
      <rect class="fil2" transform="matrix(16.2788 -9.05929 -0.473897 -1.14872 4311.3 3050.56)" width="212.99" height="24.76" rx="12.38" ry="12.38"/>
     </g>
     <g>
      <path class="fil2" d="M1215.84 4371.4c-6.4,18.34 -25.32,28.42 -42.25,22.51 -16.93,-5.91 -25.47,-25.57 -19.06,-43.91 4.73,-13.56 16.3,-22.59 28.85,-24l44.7 -128.05 -20.62 -84.84 20.43 -54.8 34.41 131.44 -51.58 147.77c7.03,8.93 9.38,21.71 5.12,33.9z"/>
      <rect class="fil2" transform="matrix(-0.709103 2.03139 -1.10289 -0.384989 1373.18 3688.1)" width="212.99" height="24.76" rx="12.38" ry="12.38"/>
      <rect class="fil2" transform="matrix(0.776625 1.88254 1.08582 -0.604269 1182.96 3327.16)" width="212.99" height="24.76" rx="12.38" ry="12.38"/>
      <rect class="fil2" transform="matrix(0.776625 1.88254 1.08582 -0.604269 1030.64 2957.78)" width="212.99" height="24.76" rx="12.38" ry="12.38"/>
      <rect class="fil2" transform="matrix(6.48704 -18.5836 -1.10289 -0.384989 1054.74 2987.47)" width="212.99" height="24.76" rx="12.38" ry="12.38"/>
     </g>
     <g>
      <path class="fil2" d="M2354.66 6001.58c-16.32,-5.69 -24.16,-25.74 -17.52,-44.77 6.64,-19.03 25.26,-29.84 41.57,-24.14 12.06,4.21 19.49,16.26 19.87,29.95l113.93 39.77 79.15 -28.83 48.67 18.45 -122.8 47.37 -131.48 -45.89c-8.68,8.38 -20.55,11.88 -31.4,8.09z"/>
      <rect class="fil2" transform="matrix(-1.80742 -0.630922 0.432695 -1.23955 2968.54 6124.63)" width="212.99" height="24.76" rx="12.38" ry="12.38"/>
      <rect class="fil2" transform="matrix(-1.77945 0.990279 0.473897 1.14872 3312.73 5889.38)" width="212.99" height="24.76" rx="12.38" ry="12.38"/>
      <rect class="fil2" transform="matrix(-1.77945 0.990279 0.473897 1.14872 3661.87 5695.15)" width="212.99" height="24.76" rx="12.38" ry="12.38"/>
      <rect class="fil2" transform="matrix(16.5347 5.77181 0.432695 -1.23955 3632.94 5723.78)" width="212.99" height="24.76" rx="12.38" ry="12.38"/>
     </g>
     <g>
      <path class="fil2" d="M4101.5 4772.12c-16.07,8.94 -34.99,1.89 -42.26,-15.74 -7.27,-17.63 -0.15,-39.18 15.92,-48.12 11.87,-6.61 25.31,-4.48 34.45,4.2l112.17 -62.42 41.39 -80.38 48.86 -25.71 -62.51 126.44 -129.44 72.03c-1.17,12.24 -7.9,23.75 -18.58,29.7z"/>
      <rect class="fil2" transform="matrix(-1.77945 0.990279 -0.473897 -1.14872 4646.84 4375.95)" width="212.99" height="24.76" rx="12.38" ry="12.38"/>
      <rect class="fil2" transform="matrix(-0.709103 2.03139 1.10289 0.384989 4755.71 3954.38)" width="212.99" height="24.76" rx="12.38" ry="12.38"/>
      <rect class="fil2" transform="matrix(-0.709103 2.03139 1.10289 0.384989 4894.89 3555.85)" width="212.99" height="24.76" rx="12.38" ry="12.38"/>
      <rect class="fil2" transform="matrix(16.2788 -9.05929 -0.473897 -1.14872 4891.47 3597.1)" width="212.99" height="24.76" rx="12.38" ry="12.38"/>
     </g>
     <g>
      <path class="fil2" d="M2009.65 4279.06c-6.4,18.34 -25.32,28.42 -42.25,22.51 -16.93,-5.91 -25.46,-25.57 -19.06,-43.91 4.73,-13.56 16.3,-22.6 28.86,-24l44.7 -128.05 -20.62 -84.85 20.44 -54.8 34.4 131.44 -51.58 147.76c7.03,8.93 9.38,21.71 5.12,33.9z"/>
      <rect class="fil2" transform="matrix(-0.709103 2.03139 -1.10289 -0.384989 2166.99 3595.75)" width="212.99" height="24.76" rx="12.38" ry="12.38"/>
      <rect class="fil2" transform="matrix(0.776625 1.88254 1.08582 -0.604269 1976.77 3234.81)" width="212.99" height="24.76" rx="12.38" ry="12.38"/>
      <rect class="fil2" transform="matrix(0.776625 1.88254 1.08582 -0.604269 1824.46 2865.44)" width="212.99" height="24.76" rx="12.38" ry="12.38"/>
      <rect class="fil2" transform="matrix(6.48704 -18.5836 -1.10289 -0.384989 1848.56 2895.13)" width="212.99" height="24.76" rx="12.38" ry="12.38"/>
     </g>
     <g>
      <path class="fil2" d="M2381.32 6866.85c-16.32,-5.7 -24.16,-25.74 -17.52,-44.77 6.64,-19.03 25.26,-29.84 41.58,-24.14 12.06,4.21 19.49,16.26 19.86,29.95l113.93 39.77 79.15 -28.83 48.66 18.45 -122.8 47.37 -131.48 -45.89c-8.68,8.38 -20.55,11.88 -31.4,8.1z"/>
      <rect class="fil2" transform="matrix(-1.80742 -0.630922 0.432695 -1.23955 2995.21 6989.89)" width="212.99" height="24.76" rx="12.38" ry="12.38"/>
      <rect class="fil2" transform="matrix(-1.77945 0.990279 0.473897 1.14872 3339.4 6754.64)" width="212.99" height="24.76" rx="12.38" ry="12.38"/>
      <rect class="fil2" transform="matrix(-1.77945 0.990279 0.473897 1.14872 3688.54 6560.41)" width="212.99" height="24.76" rx="12.38" ry="12.38"/>
      <rect class="fil2" transform="matrix(16.5347 5.77181 0.432695 -1.23955 3659.61 6589.05)" width="212.99" height="24.76" rx="12.38" ry="12.38"/>
     </g>
     <g>
      <path class="fil2" d="M4681.67 5318.66c-16.07,8.94 -34.99,1.89 -42.26,-15.74 -7.27,-17.63 -0.15,-39.18 15.92,-48.12 11.87,-6.61 25.31,-4.48 34.45,4.2l112.17 -62.42 41.39 -80.38 48.86 -25.7 -62.51 126.44 -129.44 72.03c-1.17,12.23 -7.9,23.75 -18.58,29.7z"/>
      <rect class="fil2" transform="matrix(-1.77945 0.990279 -0.473897 -1.14872 5227.01 4922.49)" width="212.99" height="24.76" rx="12.38" ry="12.38"/>
      <rect class="fil2" transform="matrix(-0.709103 2.03139 1.10289 0.384989 5335.88 4500.92)" width="212.99" height="24.76" rx="12.38" ry="12.38"/>
      <rect class="fil2" transform="matrix(-0.709103 2.03139 1.10289 0.384989 5475.06 4102.39)" width="212.99" height="24.76" rx="12.38" ry="12.38"/>
      <rect class="fil2" transform="matrix(16.2788 -9.05929 -0.473897 -1.14872 5471.64 4143.63)" width="212.99" height="24.76" rx="12.38" ry="12.38"/>
     </g>
     <g>
      <path class="fil2" d="M2803.47 4186.72c-6.4,18.34 -25.32,28.42 -42.25,22.51 -16.93,-5.91 -25.47,-25.57 -19.06,-43.91 4.73,-13.56 16.3,-22.59 28.85,-24l44.7 -128.05 -20.62 -84.84 20.43 -54.81 34.41 131.44 -51.58 147.77c7.03,8.93 9.38,21.71 5.12,33.9z"/>
      <rect class="fil2" transform="matrix(-0.709103 2.03139 -1.10289 -0.384989 2960.81 3503.41)" width="212.99" height="24.76" rx="12.38" ry="12.38"/>
      <rect class="fil2" transform="matrix(0.776625 1.88254 1.08582 -0.604269 2770.59 3142.47)" width="212.99" height="24.76" rx="12.38" ry="12.38"/>
      <rect class="fil2" transform="matrix(0.776625 1.88254 1.08582 -0.604269 2618.27 2773.1)" width="212.99" height="24.76" rx="12.38" ry="12.38"/>
      <rect class="fil2" transform="matrix(6.48704 -18.5836 -1.10289 -0.384989 2642.37 2802.79)" width="212.99" height="24.76" rx="12.38" ry="12.38"/>
     </g>
     <g>
      <path class="fil2" d="M2407.99 7732.11c-16.32,-5.69 -24.16,-25.74 -17.52,-44.77 6.64,-19.03 25.26,-29.84 41.58,-24.14 12.06,4.21 19.49,16.26 19.86,29.95l113.93 39.77 79.15 -28.83 48.67 18.45 -122.8 47.37 -131.47 -45.89c-8.69,8.37 -20.55,11.88 -31.4,8.09z"/>
      <rect class="fil2" transform="matrix(-1.80742 -0.630922 0.432695 -1.23955 3021.88 7855.15)" width="212.99" height="24.76" rx="12.38" ry="12.38"/>
      <rect class="fil2" transform="matrix(-1.77945 0.990279 0.473897 1.14872 3366.07 7619.9)" width="212.99" height="24.76" rx="12.38" ry="12.38"/>
      <rect class="fil2" transform="matrix(-1.77945 0.990279 0.473897 1.14872 3715.21 7425.67)" width="212.99" height="24.76" rx="12.38" ry="12.38"/>
      <rect class="fil2" transform="matrix(16.5347 5.77181 0.432695 -1.23955 3686.28 7454.31)" width="212.99" height="24.76" rx="12.38" ry="12.38"/>
     </g>
     <g>
      <path class="fil2" d="M5261.85 5865.19c-16.07,8.94 -34.99,1.89 -42.26,-15.74 -7.27,-17.63 -0.15,-39.18 15.92,-48.12 11.88,-6.61 25.31,-4.48 34.45,4.2l112.17 -62.42 41.39 -80.38 48.86 -25.71 -62.51 126.44 -129.44 72.03c-1.17,12.24 -7.9,23.75 -18.58,29.7z"/>
      <rect class="fil2" transform="matrix(-1.77945 0.990279 -0.473897 -1.14872 5807.18 5469.02)" width="212.99" height="24.76" rx="12.38" ry="12.38"/>
      <rect class="fil2" transform="matrix(-0.709103 2.03139 1.10289 0.384989 5916.05 5047.45)" width="212.99" height="24.76" rx="12.38" ry="12.38"/>
      <rect class="fil2" transform="matrix(-0.709103 2.03139 1.10289 0.384989 6055.23 4648.93)" width="212.99" height="24.76" rx="12.38" ry="12.38"/>
      <rect class="fil2" transform="matrix(16.2788 -9.05929 -0.473897 -1.14872 6051.81 4690.17)" width="212.99" height="24.76" rx="12.38" ry="12.38"/>
     </g>
     <g>
      <path class="fil2" d="M3597.28 4094.38c-6.4,18.34 -25.32,28.42 -42.25,22.51 -16.93,-5.91 -25.46,-25.57 -19.06,-43.91 4.73,-13.56 16.3,-22.6 28.86,-24.01l44.7 -128.05 -20.62 -84.85 20.44 -54.8 34.4 131.44 -51.58 147.77c7.03,8.93 9.38,21.71 5.12,33.9z"/>
      <rect class="fil2" transform="matrix(-0.709103 2.03139 -1.10289 -0.384989 3754.62 3411.06)" width="212.99" height="24.76" rx="12.38" ry="12.38"/>
      <rect class="fil2" transform="matrix(0.776625 1.88254 1.08582 -0.604269 3564.4 3050.12)" width="212.99" height="24.76" rx="12.38" ry="12.38"/>
      <rect class="fil2" transform="matrix(0.776625 1.88254 1.08582 -0.604269 3412.09 2680.75)" width="212.99" height="24.76" rx="12.38" ry="12.38"/>
      <rect class="fil2" transform="matrix(6.48704 -18.5836 -1.10289 -0.384989 3436.19 2710.44)" width="212.99" height="24.76" rx="12.38" ry="12.38"/>
     </g>
     <g>
      <path class="fil2" d="M1012.63 3999.34c6.4,-18.34 -2.14,-38 -19.06,-43.91 -16.93,-5.91 -35.85,4.17 -42.25,22.51 -4.73,13.56 -1.3,27.83 7.65,36.75l-44.7 128.05 -68.94 53.59 -18.11 55.62 108.73 -81.48 51.58 -147.77c11.06,-2.61 20.85,-11.16 25.11,-23.35z"/>
      <rect class="fil2" transform="matrix(0.709103 -2.03139 -1.10289 -0.384989 710.551 4632.12)" width="212.99" height="24.76" rx="12.38" ry="12.38"/>
      <rect class="fil2" transform="matrix(1.77945 -0.990279 0.473897 1.14872 337.036 4796.28)" width="212.99" height="24.76" rx="12.38" ry="12.38"/>
      <rect class="fil2" transform="matrix(1.77945 -0.990279 0.473897 1.14872 -12.0571 4990.62)" width="212.99" height="24.76" rx="12.38" ry="12.38"/>
      <rect class="fil2" transform="matrix(-6.48704 18.5836 -1.10289 -0.384989 25.2829 4982.38)" width="212.99" height="24.76" rx="12.38" ry="12.38"/>
     </g>
     <g>
      <path class="fil2" d="M1787.68 4501.89c-7.01,-16.99 -26.21,-23.25 -42.88,-13.98 -16.66,9.27 -24.5,30.58 -17.48,47.57 5.18,12.56 17.03,19.26 29.58,18.15l48.96 118.67 -17.63 88.68 22.25 50.53 29.76 -137.87 -56.49 -136.94c6.7,-10.3 8.6,-23.51 3.93,-34.81z"/>
      <rect class="fil2" transform="matrix(-0.776625 -1.88254 -1.08582 0.604269 1968.01 5151.37)" width="212.99" height="24.76" rx="12.38" ry="12.38"/>
      <rect class="fil2" transform="matrix(0.709103 -2.03139 1.10289 0.384989 1790.89 5549.11)" width="212.99" height="24.76" rx="12.38" ry="12.38"/>
      <rect class="fil2" transform="matrix(0.709103 -2.03139 1.10289 0.384989 1651.82 5947.68)" width="212.99" height="24.76" rx="12.38" ry="12.38"/>
      <rect class="fil2" transform="matrix(7.10474 17.2219 -1.08582 0.604269 1674.81 5913.27)" width="212.99" height="24.76" rx="12.38" ry="12.38"/>
     </g>
     <g>
      <path class="fil2" d="M79.45 5899.15c-16.32,-5.69 -34.93,5.12 -41.57,24.14 -6.64,19.03 1.2,39.07 17.52,44.77 12.06,4.21 25.38,-0.6 34.19,-11.08l113.93 39.77 44.02 71.83 49.58 15.84 -66.65 -113.5 -131.47 -45.89c-1.59,-11.96 -8.69,-22.09 -19.54,-25.88z"/>
      <rect class="fil2" transform="matrix(-1.80742 -0.630922 -0.432695 1.23955 636.549 6184.86)" width="212.99" height="24.76" rx="12.38" ry="12.38"/>
      <rect class="fil2" transform="matrix(-0.776625 -1.88254 1.08582 -0.604269 759.565 6583.2)" width="212.99" height="24.76" rx="12.38" ry="12.38"/>
      <rect class="fil2" transform="matrix(-0.776625 -1.88254 1.08582 -0.604269 911.989 6952.51)" width="212.99" height="24.76" rx="12.38" ry="12.38"/>
      <rect class="fil2" transform="matrix(16.5347 5.77181 -0.432695 1.23955 907.164 6912.1)" width="212.99" height="24.76" rx="12.38" ry="12.38"/>
     </g>
     <g>
      <path class="fil2" d="M1210.13 4564.26c6.4,-18.34 -2.14,-38 -19.06,-43.91 -16.93,-5.91 -35.85,4.17 -42.25,22.51 -4.73,13.56 -1.3,27.83 7.65,36.75l-44.7 128.05 -68.94 53.59 -18.11 55.61 108.73 -81.48 51.58 -147.76c11.06,-2.61 20.85,-11.16 25.11,-23.35z"/>
      <rect class="fil2" transform="matrix(0.709103 -2.03139 -1.10289 -0.384989 908.049 5197.04)" width="212.99" height="24.76" rx="12.38" ry="12.38"/>
      <rect class="fil2" transform="matrix(1.77945 -0.990279 0.473897 1.14872 534.534 5361.2)" width="212.99" height="24.76" rx="12.38" ry="12.38"/>
      <rect class="fil2" transform="matrix(1.77945 -0.990279 0.473897 1.14872 185.441 5555.54)" width="212.99" height="24.76" rx="12.38" ry="12.38"/>
      <rect class="fil2" transform="matrix(-6.48704 18.5836 -1.10289 -0.384989 222.781 5547.3)" width="212.99" height="24.76" rx="12.38" ry="12.38"/>
     </g>
     <g>
      <path class="fil2" d="M2303.09 4718.83c-7.01,-16.99 -26.21,-23.25 -42.88,-13.98 -16.66,9.27 -24.49,30.58 -17.48,47.57 5.18,12.56 17.03,19.26 29.58,18.15l48.96 118.67 -17.62 88.68 22.25 50.53 29.76 -137.87 -56.49 -136.94c6.7,-10.3 8.6,-23.51 3.94,-34.81z"/>
      <rect class="fil2" transform="matrix(-0.776625 -1.88254 -1.08582 0.604269 2483.42 5368.31)" width="212.99" height="24.76" rx="12.38" ry="12.38"/>
      <rect class="fil2" transform="matrix(0.709103 -2.03139 1.10289 0.384989 2306.29 5766.06)" width="212.99" height="24.76" rx="12.38" ry="12.38"/>
      <rect class="fil2" transform="matrix(0.709103 -2.03139 1.10289 0.384989 2167.22 6164.62)" width="212.99" height="24.76" rx="12.38" ry="12.38"/>
      <rect class="fil2" transform="matrix(7.10474 17.2219 -1.08582 0.604269 2190.22 6130.21)" width="212.99" height="24.76" rx="12.38" ry="12.38"/>
     </g>
     <g>
      <path class="fil2" d="M610.84 5641.03c-16.32,-5.69 -34.93,5.12 -41.57,24.14 -6.64,19.03 1.2,39.07 17.52,44.77 12.06,4.21 25.38,-0.6 34.19,-11.08l113.93 39.77 44.02 71.83 49.58 15.84 -66.65 -113.5 -131.47 -45.89c-1.59,-11.96 -8.69,-22.09 -19.54,-25.88z"/>
      <rect class="fil2" transform="matrix(-1.80742 -0.630922 -0.432695 1.23955 1167.94 5926.75)" width="212.99" height="24.76" rx="12.38" ry="12.38"/>
      <rect class="fil2" transform="matrix(-0.776625 -1.88254 1.08582 -0.604269 1290.96 6325.09)" width="212.99" height="24.76" rx="12.38" ry="12.38"/>
      <rect class="fil2" transform="matrix(-0.776625 -1.88254 1.08582 -0.604269 1443.38 6694.4)" width="212.99" height="24.76" rx="12.38" ry="12.38"/>
      <rect class="fil2" transform="matrix(16.5347 5.77181 -0.432695 1.23955 1438.56 6653.99)" width="212.99" height="24.76" rx="12.38" ry="12.38"/>
     </g>
     <g>
      <path class="fil2" d="M1534.17 5065.68c6.4,-18.34 -2.13,-38 -19.06,-43.91 -16.93,-5.91 -35.85,4.17 -42.25,22.51 -4.73,13.56 -1.3,27.83 7.65,36.75l-44.7 128.05 -68.94 53.59 -18.11 55.61 108.73 -81.48 51.58 -147.76c11.06,-2.61 20.85,-11.16 25.1,-23.35z"/>
      <rect class="fil2" transform="matrix(0.709103 -2.03139 -1.10289 -0.384989 1232.1 5698.46)" width="212.99" height="24.76" rx="12.38" ry="12.38"/>
      <rect class="fil2" transform="matrix(1.77945 -0.990279 0.473897 1.14872 858.582 5862.62)" width="212.99" height="24.76" rx="12.38" ry="12.38"/>
      <rect class="fil2" transform="matrix(1.77945 -0.990279 0.473897 1.14872 509.489 6056.96)" width="212.99" height="24.76" rx="12.38" ry="12.38"/>
      <rect class="fil2" transform="matrix(-6.48704 18.5836 -1.10289 -0.384989 546.829 6048.72)" width="212.99" height="24.76" rx="12.38" ry="12.38"/>
     </g>
     <g>
      <path class="fil2" d="M2873.41 4795.85c-7.01,-16.99 -26.21,-23.25 -42.88,-13.98 -16.67,9.27 -24.5,30.58 -17.49,47.57 5.18,12.56 17.03,19.26 29.58,18.15l48.95 118.67 -17.62 88.68 22.25 50.53 29.76 -137.87 -56.49 -136.94c6.7,-10.3 8.6,-23.51 3.94,-34.81z"/>
      <rect class="fil2" transform="matrix(-0.776625 -1.88254 -1.08582 0.604269 3053.74 5445.34)" width="212.99" height="24.76" rx="12.38" ry="12.38"/>
      <rect class="fil2" transform="matrix(0.709103 -2.03139 1.10289 0.384989 2876.61 5843.08)" width="212.99" height="24.76" rx="12.38" ry="12.38"/>
      <rect class="fil2" transform="matrix(0.709103 -2.03139 1.10289 0.384989 2737.54 6241.64)" width="212.99" height="24.76" rx="12.38" ry="12.38"/>
      <rect class="fil2" transform="matrix(7.10474 17.2219 -1.08582 0.604269 2760.53 6207.24)" width="212.99" height="24.76" rx="12.38" ry="12.38"/>
     </g>
     <g>
      <path class="fil2" d="M1093.34 5248.54c-16.32,-5.7 -34.93,5.11 -41.57,24.14 -6.64,19.03 1.2,39.07 17.52,44.77 12.06,4.21 25.38,-0.6 34.19,-11.08l113.93 39.77 44.02 71.83 49.58 15.84 -66.64 -113.5 -131.47 -45.89c-1.59,-11.96 -8.69,-22.09 -19.54,-25.88z"/>
      <rect class="fil2" transform="matrix(-1.80742 -0.630922 -0.432695 1.23955 1650.45 5534.26)" width="212.99" height="24.76" rx="12.38" ry="12.38"/>
      <rect class="fil2" transform="matrix(-0.776625 -1.88254 1.08582 -0.604269 1773.46 5932.6)" width="212.99" height="24.76" rx="12.38" ry="12.38"/>
      <rect class="fil2" transform="matrix(-0.776625 -1.88254 1.08582 -0.604269 1925.89 6301.91)" width="212.99" height="24.76" rx="12.38" ry="12.38"/>
      <rect class="fil2" transform="matrix(16.5347 5.77181 -0.432695 1.23955 1921.06 6261.49)" width="212.99" height="24.76" rx="12.38" ry="12.38"/>
     </g>
     <g>
      <path class="fil2" d="M1858.22 5567.1c6.4,-18.34 -2.14,-38 -19.06,-43.91 -16.93,-5.91 -35.85,4.17 -42.25,22.51 -4.73,13.56 -1.3,27.83 7.65,36.75l-44.7 128.05 -68.94 53.59 -18.11 55.61 108.73 -81.48 51.58 -147.76c11.06,-2.61 20.85,-11.16 25.1,-23.35z"/>
      <rect class="fil2" transform="matrix(0.709103 -2.03139 -1.10289 -0.384989 1556.15 6199.88)" width="212.99" height="24.76" rx="12.38" ry="12.38"/>
      <rect class="fil2" transform="matrix(1.77945 -0.990279 0.473897 1.14872 1182.63 6364.04)" width="212.99" height="24.76" rx="12.38" ry="12.38"/>
      <rect class="fil2" transform="matrix(1.77945 -0.990279 0.473897 1.14872 833.538 6558.38)" width="212.99" height="24.76" rx="12.38" ry="12.38"/>
      <rect class="fil2" transform="matrix(-6.48704 18.5836 -1.10289 -0.384989 870.878 6550.14)" width="212.99" height="24.76" rx="12.38" ry="12.38"/>
     </g>
     <g>
      <path class="fil2" d="M3443.72 4872.88c-7.01,-16.99 -26.21,-23.25 -42.88,-13.98 -16.67,9.27 -24.5,30.58 -17.48,47.57 5.18,12.56 17.03,19.26 29.58,18.15l48.96 118.67 -17.63 88.68 22.25 50.53 29.76 -137.87 -56.49 -136.94c6.7,-10.3 8.6,-23.51 3.93,-34.81z"/>
      <rect class="fil2" transform="matrix(-0.776625 -1.88254 -1.08582 0.604269 3624.05 5522.36)" width="212.99" height="24.76" rx="12.38" ry="12.38"/>
      <rect class="fil2" transform="matrix(0.709103 -2.03139 1.10289 0.384989 3446.92 5920.1)" width="212.99" height="24.76" rx="12.38" ry="12.38"/>
      <rect class="fil2" transform="matrix(0.709103 -2.03139 1.10289 0.384989 3307.86 6318.66)" width="212.99" height="24.76" rx="12.38" ry="12.38"/>
      <rect class="fil2" transform="matrix(7.10474 17.2219 -1.08582 0.604269 3330.85 6284.26)" width="212.99" height="24.76" rx="12.38" ry="12.38"/>
     </g>
     <g>
      <path class="fil2" d="M1575.85 4856.04c-16.32,-5.7 -34.93,5.11 -41.57,24.14 -6.64,19.03 1.2,39.07 17.52,44.77 12.06,4.21 25.38,-0.6 34.19,-11.08l113.93 39.77 44.02 71.83 49.58 15.84 -66.64 -113.5 -131.47 -45.89c-1.59,-11.96 -8.69,-22.09 -19.54,-25.87z"/>
      <rect class="fil2" transform="matrix(-1.80742 -0.630922 -0.432695 1.23955 2132.95 5141.76)" width="212.99" height="24.76" rx="12.38" ry="12.38"/>
      <rect class="fil2" transform="matrix(-0.776625 -1.88254 1.08582 -0.604269 2255.96 5540.1)" width="212.99" height="24.76" rx="12.38" ry="12.38"/>
      <rect class="fil2" transform="matrix(-0.776625 -1.88254 1.08582 -0.604269 2408.39 5909.41)" width="212.99" height="24.76" rx="12.38" ry="12.38"/>
      <rect class="fil2" transform="matrix(16.5347 5.77181 -0.432695 1.23955 2403.56 5868.99)" width="212.99" height="24.76" rx="12.38" ry="12.38"/>
     </g>
     <g>
      <path class="fil2" d="M2182.27 6068.52c6.4,-18.34 -2.13,-38 -19.06,-43.91 -16.93,-5.91 -35.85,4.17 -42.25,22.51 -4.73,13.56 -1.3,27.83 7.65,36.75l-44.7 128.05 -68.94 53.59 -18.11 55.61 108.73 -81.47 51.58 -147.77c11.06,-2.61 20.85,-11.16 25.1,-23.35z"/>
      <rect class="fil2" transform="matrix(0.709103 -2.03139 -1.10289 -0.384989 1880.19 6701.3)" width="212.99" height="24.76" rx="12.38" ry="12.38"/>
      <rect class="fil2" transform="matrix(1.77945 -0.990279 0.473897 1.14872 1506.68 6865.46)" width="212.99" height="24.76" rx="12.38" ry="12.38"/>
      <rect class="fil2" transform="matrix(1.77945 -0.990279 0.473897 1.14872 1157.59 7059.8)" width="212.99" height="24.76" rx="12.38" ry="12.38"/>
      <rect class="fil2" transform="matrix(-6.48704 18.5836 -1.10289 -0.384989 1194.93 7051.56)" width="212.99" height="24.76" rx="12.38" ry="12.38"/>
     </g>
     <g>
      <path class="fil2" d="M4014.04 4949.9c-7.01,-16.99 -26.21,-23.25 -42.88,-13.98 -16.66,9.27 -24.49,30.58 -17.48,47.57 5.18,12.56 17.03,19.26 29.58,18.15l48.96 118.67 -17.62 88.68 22.25 50.53 29.76 -137.87 -56.49 -136.94c6.7,-10.3 8.6,-23.51 3.94,-34.81z"/>
      <rect class="fil2" transform="matrix(-0.776625 -1.88254 -1.08582 0.604269 4194.37 5599.38)" width="212.99" height="24.76" rx="12.38" ry="12.38"/>
      <rect class="fil2" transform="matrix(0.709103 -2.03139 1.10289 0.384989 4017.24 5997.12)" width="212.99" height="24.76" rx="12.38" ry="12.38"/>
      <rect class="fil2" transform="matrix(0.709103 -2.03139 1.10289 0.384989 3878.18 6395.69)" width="212.99" height="24.76" rx="12.38" ry="12.38"/>
      <rect class="fil2" transform="matrix(7.10474 17.2219 -1.08582 0.604269 3901.17 6361.28)" width="212.99" height="24.76" rx="12.38" ry="12.38"/>
     </g>
     <g>
      <path class="fil2" d="M2058.35 4463.54c-16.32,-5.69 -34.93,5.12 -41.58,24.14 -6.64,19.03 1.21,39.07 17.52,44.77 12.06,4.21 25.38,-0.6 34.19,-11.08l113.93 39.77 44.02 71.83 49.58 15.84 -66.64 -113.5 -131.48 -45.89c-1.58,-11.96 -8.69,-22.09 -19.54,-25.88z"/>
      <rect class="fil2" transform="matrix(-1.80742 -0.630922 -0.432695 1.23955 2615.45 4749.26)" width="212.99" height="24.76" rx="12.38" ry="12.38"/>
      <rect class="fil2" transform="matrix(-0.776625 -1.88254 1.08582 -0.604269 2738.47 5147.6)" width="212.99" height="24.76" rx="12.38" ry="12.38"/>
      <rect class="fil2" transform="matrix(-0.776625 -1.88254 1.08582 -0.604269 2890.89 5516.91)" width="212.99" height="24.76" rx="12.38" ry="12.38"/>
      <rect class="fil2" transform="matrix(16.5347 5.77181 -0.432695 1.23955 2886.07 5476.5)" width="212.99" height="24.76" rx="12.38" ry="12.38"/>
     </g>
     <g>
      <path class="fil2" d="M2506.32 6569.94c6.4,-18.34 -2.14,-38 -19.06,-43.91 -16.93,-5.91 -35.85,4.17 -42.25,22.51 -4.73,13.56 -1.3,27.83 7.65,36.75l-44.7 128.05 -68.94 53.59 -18.11 55.61 108.73 -81.47 51.58 -147.77c11.06,-2.61 20.85,-11.16 25.1,-23.35z"/>
      <rect class="fil2" transform="matrix(0.709103 -2.03139 -1.10289 -0.384989 2204.24 7202.72)" width="212.99" height="24.76" rx="12.38" ry="12.38"/>
      <rect class="fil2" transform="matrix(1.77945 -0.990279 0.473897 1.14872 1830.73 7366.88)" width="212.99" height="24.76" rx="12.38" ry="12.38"/>
      <rect class="fil2" transform="matrix(1.77945 -0.990279 0.473897 1.14872 1481.63 7561.22)" width="212.99" height="24.76" rx="12.38" ry="12.38"/>
      <rect class="fil2" transform="matrix(-6.48704 18.5836 -1.10289 -0.384989 1518.97 7552.98)" width="212.99" height="24.76" rx="12.38" ry="12.38"/>
     </g>
     <g>
      <path class="fil2" d="M4584.36 5026.92c-7.01,-16.99 -26.21,-23.25 -42.88,-13.98 -16.67,9.27 -24.5,30.58 -17.49,47.57 5.18,12.56 17.03,19.26 29.58,18.15l48.95 118.67 -17.62 88.68 22.25 50.53 29.76 -137.87 -56.49 -136.94c6.7,-10.3 8.6,-23.51 3.94,-34.81z"/>
      <rect class="fil2" transform="matrix(-0.776625 -1.88254 -1.08582 0.604269 4764.69 5676.4)" width="212.99" height="24.76" rx="12.38" ry="12.38"/>
      <rect class="fil2" transform="matrix(0.709103 -2.03139 1.10289 0.384989 4587.56 6074.14)" width="212.99" height="24.76" rx="12.38" ry="12.38"/>
      <rect class="fil2" transform="matrix(0.709103 -2.03139 1.10289 0.384989 4448.49 6472.71)" width="212.99" height="24.76" rx="12.38" ry="12.38"/>
      <rect class="fil2" transform="matrix(7.10474 17.2219 -1.08582 0.604269 4471.48 6438.3)" width="212.99" height="24.76" rx="12.38" ry="12.38"/>
     </g>
     <g>
      <path class="fil2" d="M2540.85 4071.05c-16.32,-5.69 -34.93,5.12 -41.58,24.14 -6.64,19.03 1.21,39.07 17.52,44.77 12.06,4.21 25.38,-0.6 34.19,-11.08l113.93 39.77 44.02 71.83 49.58 15.84 -66.64 -113.5 -131.48 -45.89c-1.58,-11.96 -8.69,-22.09 -19.54,-25.88z"/>
      <rect class="fil2" transform="matrix(-1.80742 -0.630922 -0.432695 1.23955 3097.95 4356.77)" width="212.99" height="24.76" rx="12.38" ry="12.38"/>
      <rect class="fil2" transform="matrix(-0.776625 -1.88254 1.08582 -0.604269 3220.97 4755.1)" width="212.99" height="24.76" rx="12.38" ry="12.38"/>
      <rect class="fil2" transform="matrix(-0.776625 -1.88254 1.08582 -0.604269 3373.39 5124.42)" width="212.99" height="24.76" rx="12.38" ry="12.38"/>
      <rect class="fil2" transform="matrix(16.5347 5.77181 -0.432695 1.23955 3368.57 5084)" width="212.99" height="24.76" rx="12.38" ry="12.38"/>
     </g>
     <g>
      <path class="fil2" d="M2830.37 7071.36c6.4,-18.34 -2.14,-38 -19.06,-43.91 -16.93,-5.91 -35.85,4.17 -42.25,22.51 -4.73,13.56 -1.3,27.83 7.65,36.75l-44.7 128.05 -68.94 53.59 -18.11 55.61 108.73 -81.47 51.58 -147.77c11.06,-2.61 20.85,-11.16 25.11,-23.35z"/>
      <rect class="fil2" transform="matrix(0.709103 -2.03139 -1.10289 -0.384989 2528.29 7704.14)" width="212.99" height="24.76" rx="12.38" ry="12.38"/>
      <rect class="fil2" transform="matrix(1.77945 -0.990279 0.473897 1.14872 2154.77 7868.3)" width="212.99" height="24.76" rx="12.38" ry="12.38"/>
      <rect class="fil2" transform="matrix(1.77945 -0.990279 0.473897 1.14872 1805.68 8062.64)" width="212.99" height="24.76" rx="12.38" ry="12.38"/>
      <rect class="fil2" transform="matrix(-6.48704 18.5836 -1.10289 -0.384989 1843.02 8054.4)" width="212.99" height="24.76" rx="12.38" ry="12.38"/>
     </g>
     <g>
      <path class="fil2" d="M5154.67 5103.94c-7.01,-16.99 -26.21,-23.25 -42.88,-13.98 -16.67,9.27 -24.5,30.58 -17.48,47.57 5.18,12.56 17.03,19.26 29.58,18.15l48.96 118.67 -17.63 88.68 22.25 50.53 29.76 -137.87 -56.49 -136.94c6.7,-10.3 8.6,-23.51 3.93,-34.81z"/>
      <rect class="fil2" transform="matrix(-0.776625 -1.88254 -1.08582 0.604269 5335.01 5753.42)" width="212.99" height="24.76" rx="12.38" ry="12.38"/>
      <rect class="fil2" transform="matrix(0.709103 -2.03139 1.10289 0.384989 5157.88 6151.16)" width="212.99" height="24.76" rx="12.38" ry="12.38"/>
      <rect class="fil2" transform="matrix(0.709103 -2.03139 1.10289 0.384989 5018.81 6549.73)" width="212.99" height="24.76" rx="12.38" ry="12.38"/>
      <rect class="fil2" transform="matrix(7.10474 17.2219 -1.08582 0.604269 5041.8 6515.32)" width="212.99" height="24.76" rx="12.38" ry="12.38"/>
     </g>
     <g>
      <path class="fil2" d="M3023.35 3678.55c-16.32,-5.7 -34.93,5.11 -41.58,24.14 -6.64,19.03 1.21,39.07 17.52,44.77 12.06,4.21 25.38,-0.6 34.19,-11.08l113.93 39.77 44.02 71.83 49.58 15.84 -66.64 -113.5 -131.48 -45.89c-1.59,-11.96 -8.69,-22.09 -19.54,-25.88z"/>
      <rect class="fil2" transform="matrix(-1.80742 -0.630922 -0.432695 1.23955 3580.45 3964.27)" width="212.99" height="24.76" rx="12.38" ry="12.38"/>
      <rect class="fil2" transform="matrix(-0.776625 -1.88254 1.08582 -0.604269 3703.47 4362.61)" width="212.99" height="24.76" rx="12.38" ry="12.38"/>
      <rect class="fil2" transform="matrix(-0.776625 -1.88254 1.08582 -0.604269 3855.89 4731.92)" width="212.99" height="24.76" rx="12.38" ry="12.38"/>
      <rect class="fil2" transform="matrix(16.5347 5.77181 -0.432695 1.23955 3851.07 4691.5)" width="212.99" height="24.76" rx="12.38" ry="12.38"/>
     </g>
     <g>
      <path class="fil2" d="M3154.42 7572.78c6.4,-18.34 -2.14,-38 -19.06,-43.91 -16.93,-5.91 -35.85,4.17 -42.25,22.51 -4.73,13.56 -1.3,27.83 7.65,36.75l-44.7 128.05 -68.94 53.59 -18.11 55.61 108.73 -81.47 51.58 -147.77c11.06,-2.61 20.85,-11.16 25.1,-23.35z"/>
      <rect class="fil2" transform="matrix(0.709103 -2.03139 -1.10289 -0.384989 2852.34 8205.56)" width="212.99" height="24.76" rx="12.38" ry="12.38"/>
      <rect class="fil2" transform="matrix(1.77945 -0.990279 0.473897 1.14872 2478.82 8369.72)" width="212.99" height="24.76" rx="12.38" ry="12.38"/>
      <rect class="fil2" transform="matrix(1.77945 -0.990279 0.473897 1.14872 2129.73 8564.06)" width="212.99" height="24.76" rx="12.38" ry="12.38"/>
      <rect class="fil2" transform="matrix(-6.48704 18.5836 -1.10289 -0.384989 2167.07 8555.82)" width="212.99" height="24.76" rx="12.38" ry="12.38"/>
     </g>
     <g>
      <path class="fil2" d="M5724.99 5180.96c-7.01,-16.99 -26.21,-23.25 -42.88,-13.98 -16.66,9.27 -24.49,30.58 -17.48,47.57 5.18,12.56 17.03,19.26 29.58,18.15l48.96 118.67 -17.62 88.68 22.25 50.53 29.76 -137.87 -56.49 -136.94c6.7,-10.3 8.6,-23.51 3.94,-34.81z"/>
      <rect class="fil2" transform="matrix(-0.776625 -1.88254 -1.08582 0.604269 5905.32 5830.44)" width="212.99" height="24.76" rx="12.38" ry="12.38"/>
      <rect class="fil2" transform="matrix(0.709103 -2.03139 1.10289 0.384989 5728.19 6228.18)" width="212.99" height="24.76" rx="12.38" ry="12.38"/>
      <rect class="fil2" transform="matrix(0.709103 -2.03139 1.10289 0.384989 5589.13 6626.75)" width="212.99" height="24.76" rx="12.38" ry="12.38"/>
      <rect class="fil2" transform="matrix(7.10474 17.2219 -1.08582 0.604269 5612.12 6592.34)" width="212.99" height="24.76" rx="12.38" ry="12.38"/>
     </g>
     <g>
      <path class="fil2" d="M3505.85 3286.06c-16.32,-5.7 -34.93,5.11 -41.58,24.14 -6.64,19.03 1.21,39.07 17.52,44.77 12.06,4.21 25.38,-0.6 34.19,-11.08l113.93 39.77 44.01 71.83 49.58 15.84 -66.65 -113.5 -131.47 -45.89c-1.59,-11.96 -8.69,-22.09 -19.54,-25.87z"/>
      <rect class="fil2" transform="matrix(-1.80742 -0.630922 -0.432695 1.23955 4062.96 3571.77)" width="212.99" height="24.76" rx="12.38" ry="12.38"/>
      <rect class="fil2" transform="matrix(-0.776625 -1.88254 1.08582 -0.604269 4185.97 3970.11)" width="212.99" height="24.76" rx="12.38" ry="12.38"/>
      <rect class="fil2" transform="matrix(-0.776625 -1.88254 1.08582 -0.604269 4338.4 4339.42)" width="212.99" height="24.76" rx="12.38" ry="12.38"/>
      <rect class="fil2" transform="matrix(16.5347 5.77181 -0.432695 1.23955 4333.57 4299.01)" width="212.99" height="24.76" rx="12.38" ry="12.38"/>
     </g>
     <g>
      <path class="fil2" d="M985.31 3033.25c-6.4,18.34 2.14,38 19.06,43.91 16.93,5.91 35.85,-4.17 42.25,-22.51 4.73,-13.56 1.3,-27.83 -7.65,-36.75l44.7 -128.05 68.94 -53.58 18.11 -55.62 -108.73 81.48 -51.58 147.77c-11.06,2.61 -20.85,11.16 -25.1,23.35z"/>
      <rect class="fil2" transform="matrix(-0.709103 2.03139 1.10289 0.384989 1287.39 2400.46)" width="212.99" height="24.76" rx="12.38" ry="12.38"/>
      <rect class="fil2" transform="matrix(-1.77945 0.990279 -0.473897 -1.14872 1660.9 2236.3)" width="212.99" height="24.76" rx="12.38" ry="12.38"/>
      <rect class="fil2" transform="matrix(-1.77945 0.990279 -0.473897 -1.14872 2009.99 2041.96)" width="212.99" height="24.76" rx="12.38" ry="12.38"/>
      <rect class="fil2" transform="matrix(6.48704 -18.5836 1.10289 0.384989 1972.65 2050.21)" width="212.99" height="24.76" rx="12.38" ry="12.38"/>
     </g>
     <g>
      <path class="fil2" d="M1141.78 3889.75c7.01,16.99 26.21,23.25 42.88,13.98 16.66,-9.27 24.5,-30.58 17.48,-47.57 -5.18,-12.56 -17.03,-19.26 -29.58,-18.15l-48.96 -118.67 17.63 -88.68 -22.25 -50.53 -29.76 137.87 56.49 136.94c-6.7,10.3 -8.6,23.51 -3.93,34.81z"/>
      <rect class="fil2" transform="matrix(0.776625 1.88254 1.08582 -0.604269 961.445 3240.27)" width="212.99" height="24.76" rx="12.38" ry="12.38"/>
      <rect class="fil2" transform="matrix(-0.709103 2.03139 -1.10289 -0.384989 1138.57 2842.53)" width="212.99" height="24.76" rx="12.38" ry="12.38"/>
      <rect class="fil2" transform="matrix(-0.709103 2.03139 -1.10289 -0.384989 1277.64 2443.97)" width="212.99" height="24.76" rx="12.38" ry="12.38"/>
      <rect class="fil2" transform="matrix(-7.10474 -17.2219 1.08582 -0.604269 1254.65 2478.37)" width="212.99" height="24.76" rx="12.38" ry="12.38"/>
     </g>
     <g>
      <path class="fil2" d="M-806.69 5999.55c16.32,5.69 34.93,-5.12 41.57,-24.14 6.64,-19.03 -1.2,-39.07 -17.52,-44.77 -12.06,-4.21 -25.38,0.6 -34.19,11.08l-113.93 -39.77 -44.01 -71.83 -49.58 -15.84 66.65 113.5 131.47 45.89c1.59,11.96 8.69,22.09 19.54,25.88z"/>
      <rect class="fil2" transform="matrix(1.80742 0.630922 0.432695 -1.23955 -1363.79 5713.83)" width="212.99" height="24.76" rx="12.38" ry="12.38"/>
      <rect class="fil2" transform="matrix(0.776625 1.88254 -1.08582 0.604269 -1486.81 5315.49)" width="212.99" height="24.76" rx="12.38" ry="12.38"/>
      <rect class="fil2" transform="matrix(0.776625 1.88254 -1.08582 0.604269 -1639.23 4946.18)" width="212.99" height="24.76" rx="12.38" ry="12.38"/>
      <rect class="fil2" transform="matrix(-16.5347 -5.77181 0.432695 -1.23955 -1634.41 4986.6)" width="212.99" height="24.76" rx="12.38" ry="12.38"/>
     </g>
     <g>
      <path class="fil2" d="M804.04 2406.36c-6.4,18.34 2.14,38 19.06,43.91 16.93,5.91 35.85,-4.17 42.25,-22.51 4.73,-13.56 1.3,-27.84 -7.65,-36.75l44.7 -128.05 68.94 -53.58 18.11 -55.62 -108.73 81.48 -51.58 147.77c-11.06,2.61 -20.85,11.15 -25.11,23.35z"/>
      <rect class="fil2" transform="matrix(-0.709103 2.03139 1.10289 0.384989 1106.12 1773.57)" width="212.99" height="24.76" rx="12.38" ry="12.38"/>
      <rect class="fil2" transform="matrix(-1.77945 0.990279 -0.473897 -1.14872 1479.63 1609.42)" width="212.99" height="24.76" rx="12.38" ry="12.38"/>
      <rect class="fil2" transform="matrix(-1.77945 0.990279 -0.473897 -1.14872 1828.72 1415.07)" width="212.99" height="24.76" rx="12.38" ry="12.38"/>
      <rect class="fil2" transform="matrix(6.48704 -18.5836 1.10289 0.384989 1791.38 1423.32)" width="212.99" height="24.76" rx="12.38" ry="12.38"/>
     </g>
     <g>
      <path class="fil2" d="M3532.94 -2679.42c6.69,-19.17 -2.29,-39.74 -20.07,-45.95 -17.78,-6.21 -37.62,4.31 -44.31,23.48 -4.95,14.17 -1.33,29.11 8.08,38.44l-46.73 133.87 -72.27 55.94 -18.93 58.14 113.99 -85.06 53.92 -154.47c11.6,-2.72 21.86,-11.64 26.31,-24.39z"/>
      <rect class="fil2" transform="matrix(0.741276 -2.12355 -1.15794 -0.404206 3216.83 -2018.04)" width="212.99" height="24.76" rx="12.38" ry="12.38"/>
      <rect class="fil2" transform="matrix(1.86599 -1.03318 0.498943 1.20208 2825.08 -1846.88)" width="212.99" height="24.76" rx="12.38" ry="12.38"/>
      <rect class="fil2" transform="matrix(1.86599 -1.03318 0.498943 1.20208 2459.01 -1644.12)" width="212.99" height="24.76" rx="12.38" ry="12.38"/>
      <rect class="fil2" transform="matrix(-6.78136 19.4267 -1.15794 -0.404206 2498.19 -1652.69)" width="212.99" height="24.76" rx="12.38" ry="12.38"/>
     </g>
     <g>
      <path class="fil2" d="M3873.71 -2154.54c6.69,-19.17 -2.29,-39.75 -20.07,-45.95 -17.77,-6.2 -37.62,4.31 -44.31,23.48 -4.95,14.17 -1.32,29.11 8.08,38.44l-46.73 133.86 -72.27 55.94 -18.93 58.14 113.99 -85.06 53.92 -154.47c11.6,-2.72 21.86,-11.64 26.31,-24.39z"/>
      <rect class="fil2" transform="matrix(0.741276 -2.12355 -1.15794 -0.404206 3557.6 -1493.16)" width="212.99" height="24.76" rx="12.38" ry="12.38"/>
      <rect class="fil2" transform="matrix(1.86599 -1.03318 0.498943 1.20208 3165.86 -1322.01)" width="212.99" height="24.76" rx="12.38" ry="12.38"/>
      <rect class="fil2" transform="matrix(1.86599 -1.03318 0.498943 1.20208 2799.79 -1119.24)" width="212.99" height="24.76" rx="12.38" ry="12.38"/>
      <rect class="fil2" transform="matrix(-6.78136 19.4267 -1.15794 -0.404206 2838.96 -1127.81)" width="212.99" height="24.76" rx="12.38" ry="12.38"/>
     </g>
     <g>
      <path class="fil2" d="M4214.49 -1629.67c6.69,-19.17 -2.3,-39.75 -20.07,-45.95 -17.77,-6.2 -37.62,4.31 -44.3,23.48 -4.95,14.17 -1.33,29.11 8.08,38.44l-46.73 133.86 -72.27 55.94 -18.93 58.14 113.99 -85.06 53.92 -154.47c11.61,-2.72 21.86,-11.64 26.32,-24.38z"/>
      <rect class="fil2" transform="matrix(0.741276 -2.12355 -1.15794 -0.404206 3898.37 -968.287)" width="212.99" height="24.76" rx="12.38" ry="12.38"/>
      <rect class="fil2" transform="matrix(1.86599 -1.03318 0.498943 1.20208 3506.63 -797.13)" width="212.99" height="24.76" rx="12.38" ry="12.38"/>
      <rect class="fil2" transform="matrix(1.86599 -1.03318 0.498943 1.20208 3140.56 -594.366)" width="212.99" height="24.76" rx="12.38" ry="12.38"/>
      <rect class="fil2" transform="matrix(-6.78136 19.4267 -1.15794 -0.404206 3179.73 -602.936)" width="212.99" height="24.76" rx="12.38" ry="12.38"/>
     </g>
     <g>
      <path class="fil2" d="M4555.26 -1104.79c6.69,-19.17 -2.3,-39.74 -20.07,-45.95 -17.77,-6.2 -37.61,4.31 -44.3,23.48 -4.95,14.17 -1.33,29.1 8.08,38.44l-46.73 133.86 -72.28 55.95 -18.93 58.14 113.99 -85.06 53.92 -154.47c11.6,-2.72 21.86,-11.64 26.31,-24.39z"/>
      <rect class="fil2" transform="matrix(0.741276 -2.12355 -1.15794 -0.404206 4239.15 -443.411)" width="212.99" height="24.76" rx="12.38" ry="12.38"/>
      <rect class="fil2" transform="matrix(1.86599 -1.03318 0.498943 1.20208 3847.4 -272.254)" width="212.99" height="24.76" rx="12.38" ry="12.38"/>
      <rect class="fil2" transform="matrix(1.86599 -1.03318 0.498943 1.20208 3481.33 -69.49)" width="212.99" height="24.76" rx="12.38" ry="12.38"/>
      <rect class="fil2" transform="matrix(-6.78136 19.4267 -1.15794 -0.404206 3520.51 -78.0598)" width="212.99" height="24.76" rx="12.38" ry="12.38"/>
     </g>
     <g>
      <path class="fil2" d="M4896.03 -579.91c6.69,-19.17 -2.3,-39.75 -20.07,-45.95 -17.77,-6.2 -37.61,4.31 -44.3,23.48 -4.95,14.17 -1.33,29.11 8.08,38.44l-46.73 133.86 -72.27 55.94 -18.93 58.14 113.99 -85.06 53.92 -154.47c11.6,-2.72 21.86,-11.64 26.31,-24.38z"/>
      <rect class="fil2" transform="matrix(0.741276 -2.12355 -1.15794 -0.404206 4579.92 81.4656)" width="212.99" height="24.76" rx="12.38" ry="12.38"/>
      <rect class="fil2" transform="matrix(1.86599 -1.03318 0.498943 1.20208 4188.17 252.622)" width="212.99" height="24.76" rx="12.38" ry="12.38"/>
      <rect class="fil2" transform="matrix(1.86599 -1.03318 0.498943 1.20208 3822.1 455.386)" width="212.99" height="24.76" rx="12.38" ry="12.38"/>
      <rect class="fil2" transform="matrix(-6.78136 19.4267 -1.15794 -0.404206 3861.28 446.817)" width="212.99" height="24.76" rx="12.38" ry="12.38"/>
     </g>
     <g>
      <path class="fil2" d="M5236.8 -55.04c6.69,-19.17 -2.3,-39.74 -20.07,-45.95 -17.77,-6.21 -37.61,4.31 -44.3,23.48 -4.95,14.17 -1.33,29.11 8.08,38.44l-46.73 133.87 -72.27 55.94 -18.93 58.14 113.99 -85.06 53.92 -154.47c11.6,-2.72 21.86,-11.64 26.31,-24.39z"/>
      <rect class="fil2" transform="matrix(0.741276 -2.12355 -1.15794 -0.404206 4920.69 606.342)" width="212.99" height="24.76" rx="12.38" ry="12.38"/>
      <rect class="fil2" transform="matrix(1.86599 -1.03318 0.498943 1.20208 4528.95 777.499)" width="212.99" height="24.76" rx="12.38" ry="12.38"/>
      <rect class="fil2" transform="matrix(1.86599 -1.03318 0.498943 1.20208 4162.88 980.263)" width="212.99" height="24.76" rx="12.38" ry="12.38"/>
      <rect class="fil2" transform="matrix(-6.78136 19.4267 -1.15794 -0.404206 4202.05 971.693)" width="212.99" height="24.76" rx="12.38" ry="12.38"/>
     </g>
     <g>
      <path class="fil2" d="M5577.57 469.84c6.69,-19.17 -2.29,-39.75 -20.07,-45.95 -17.78,-6.2 -37.62,4.31 -44.31,23.48 -4.95,14.17 -1.33,29.1 8.08,38.44l-46.73 133.86 -72.27 55.94 -18.93 58.14 113.99 -85.06 53.92 -154.47c11.6,-2.72 21.86,-11.64 26.31,-24.39z"/>
      <rect class="fil2" transform="matrix(0.741276 -2.12355 -1.15794 -0.404206 5261.46 1131.22)" width="212.99" height="24.76" rx="12.38" ry="12.38"/>
      <rect class="fil2" transform="matrix(1.86599 -1.03318 0.498943 1.20208 4869.72 1302.38)" width="212.99" height="24.76" rx="12.38" ry="12.38"/>
      <rect class="fil2" transform="matrix(1.86599 -1.03318 0.498943 1.20208 4503.65 1505.14)" width="212.99" height="24.76" rx="12.38" ry="12.38"/>
      <rect class="fil2" transform="matrix(-6.78136 19.4267 -1.15794 -0.404206 4542.82 1496.57)" width="212.99" height="24.76" rx="12.38" ry="12.38"/>
     </g>
    </g>
   </g>
   <path class="fil3 str0" d="M1099.25 492.56l2745.39 0c315.01,-0 570.47,255.46 570.47,570.47l0 5936.46c-0,315.01 -255.46,570.47 -570.47,570.47l-2745.39 0c-315.01,-0 -570.47,-255.46 -570.47,-570.48l0 -5936.46c0,-315.01 255.46,-570.47 570.47,-570.47z"/>
   <path class="fil4 str0" d="M1051.72 985.77l2840.47 0c59.07,0 106.97,47.9 106.97,106.96l-0 5496.73c0,59.06 -47.89,106.96 -106.96,106.96l-2840.48 0.01c-59.06,-0.01 -106.96,-47.91 -106.96,-106.97l-0 -5496.73c0,-59.06 47.9,-106.96 106.97,-106.96z"/>
   <path class="fil4 str0" d="M2088.66 694.59l766.57 0c27.89,-0 50.51,22.62 50.51,50.51l-0 0c0,27.89 -22.62,50.51 -50.51,50.51l-766.57 0c-27.89,0 -50.51,-22.62 -50.51,-50.51l-0 0c0,-27.89 22.62,-50.51 50.52,-50.51z"/>
   <circle class="fil5 str0" cx="2471.94" cy="7106.45" r="196.1"/>
  </g>
 </g>
</svg>
