<?xml version="1.0" encoding="UTF-8"?>
<!DOCTYPE svg PUBLIC "-//W3C//DTD SVG 1.1//EN" "http://www.w3.org/Graphics/SVG/1.1/DTD/svg11.dtd">
<!-- Creator: CorelDRAW 2018 (64-Bit Evaluation Version) -->
<svg xmlns="http://www.w3.org/2000/svg" xml:space="preserve" width="263.094mm" height="319.702mm" version="1.1" style="shape-rendering:geometricPrecision; text-rendering:geometricPrecision; image-rendering:optimizeQuality; fill-rule:evenodd; clip-rule:evenodd"
viewBox="0 0 4350.23 5286.23"
 xmlns:xlink="http://www.w3.org/1999/xlink">
 <defs>
  <style type="text/css">
   <![CDATA[
    .str0 {stroke:white;stroke-width:46.66;stroke-miterlimit:22.9256}
    .fil3 {fill:none}
    .fil0 {fill:#FEFEFE}
    .fil1 {fill:red}
    .fil2 {fill:white}
   ]]>
  </style>
   <clipPath id="id0">
    <path d="M3324.91 813.38l-1119.96 0c0,0 0,-105.25 0,-140 0,-77.32 -62.68,-140 -140,-140 -77.32,0 -140,62.68 -140,140 0,77.32 0,140 0,140l-1119.96 0c-154.63,0 -279.99,125.36 -279.99,279.99l0 279.99c0,154.63 125.36,279.99 279.99,279.99l0 2519.91c0,154.63 125.36,279.99 279.99,279.99l1959.93 0c154.63,0 279.99,-125.36 279.99,-279.99l0 -2519.91c154.63,0 279.99,-125.36 279.99,-279.99l0 -279.99c0,-154.63 -125.36,-279.99 -279.99,-279.99zm-279.99 3219.89c0,77.32 -62.68,140 -140,140l-1679.94 0c-77.32,0 -140,-62.68 -140,-140l0 -2379.92 279.99 0 0 2099.93c0,77.32 62.68,140 140,140 77.32,0 140,-62.68 140,-140l1.69 -2099.93 278.3 0 0 2099.93c0,77.32 62.68,140 140,140 77.32,0 140,-62.68 140,-140l1.69 -2099.93 279.99 0 -1.69 2099.93c0,77.32 62.68,140 139.99,140 77.32,0 140,-62.68 140,-140l-0 -2099.93 279.99 0 0 2379.92zm279.99 -2729.9c0,38.66 -31.34,70 -70,70l-2379.92 0c-38.66,0 -70,-31.34 -70,-70l0 -140c0,-38.66 31.34,-70 70,-70l2379.92 -0c38.66,0 70,31.34 70,70l0 140z"/>
   </clipPath>
 </defs>
 <g id="Layer_x0020_1">
  <metadata id="CorelCorpID_0Corel-Layer"/>
  <path class="fil0" d="M4038.23 2014.74l-0 2500.38c0,425.72 -345.4,771.11 -771.11,771.11l-2184 -0c-425.71,0 -771.11,-345.4 -771.11,-771.11l0 -2500.38c-194.03,-143.81 -312,-372.5 -312,-619.62l0 -312c0,-425.71 345.4,-771.11 771.11,-771.11l868.62 0c106.95,-188.67 309.41,-312 535.38,-312 225.98,0 428.43,123.34 535.38,312l868.62 0c425.71,0 771.11,345.4 771.11,771.11l0 312c0,247.13 -117.97,475.82 -312,619.62z"/>
  <path class="fil1" d="M3594.12 1916.3l-0 2352.16c0,274.87 -222.96,497.83 -497.83,497.83l-1959.93 -0c-274.87,0 -497.83,-222.96 -497.83,-497.83l0 -2352.16c-165.75,-80.82 -279.99,-250.98 -279.99,-447.74l0 -279.99c0,-274.87 222.96,-497.83 497.83,-497.83l910.62 0c35.56,-160.15 178.52,-279.99 349.34,-279.99 170.82,0 313.78,119.84 349.34,279.99l910.62 0c274.87,0 497.83,222.96 497.83,497.84l0 279.99c0,196.76 -114.24,366.92 -279.99,447.74z"/>
  <path class="fil1" d="M3324.91 813.38l-1119.96 0c0,0 0,-105.25 0,-140 0,-77.32 -62.68,-140 -140,-140 -77.32,0 -140,62.68 -140,140 0,77.32 0,140 0,140l-1119.96 0c-154.63,0 -279.99,125.36 -279.99,279.99l0 279.99c0,154.63 125.36,279.99 279.99,279.99l0 2519.91c0,154.63 125.36,279.99 279.99,279.99l1959.93 0c154.63,0 279.99,-125.36 279.99,-279.99l0 -2519.91c154.63,0 279.99,-125.36 279.99,-279.99l0 -279.99c0,-154.63 -125.36,-279.99 -279.99,-279.99zm-279.99 3219.89c0,77.32 -62.68,140 -140,140l-1679.94 0c-77.32,0 -140,-62.68 -140,-140l0 -2379.92 279.99 0 0 2099.93c0,77.32 62.68,140 140,140 77.32,0 140,-62.68 140,-140l1.69 -2099.93 278.3 0 0 2099.93c0,77.32 62.68,140 140,140 77.32,0 140,-62.68 140,-140l1.69 -2099.93 279.99 0 -1.69 2099.93c0,77.32 62.68,140 139.99,140 77.32,0 140,-62.68 140,-140l-0 -2099.93 279.99 0 0 2379.92zm279.99 -2729.9c0,38.66 -31.34,70 -70,70l-2379.92 0c-38.66,0 -70,-31.34 -70,-70l0 -140c0,-38.66 31.34,-70 70,-70l2379.92 -0c38.66,0 70,31.34 70,70l0 140z"/>
  <g style="clip-path:url(#id0)">
   <g id="_1807649640112">
    <polygon id="1" class="fil2" points="2259.35,1278.23 2295.25,1284.86 2348.33,1263.99 2388.98,1271.48 2436.71,1314.89 2427.62,1322.92 2385.43,1284.54 2349.52,1277.99 2293.33,1297.21 2252.07,1289.58 "/>
    <polygon class="fil2" points="1942.16,1114.15 1893.52,1105.26 1897.01,1118.59 1943.12,1127.02 2003.69,1108.6 2044.67,1116.17 2052.67,1104.95 2005.56,1096.25 "/>
    <g>
     <path class="fil2" d="M2052.44 1819.86c-8.22,-1.51 -16.01,3.42 -17.4,11 -1.39,7.58 4.14,14.96 12.35,16.47 6.07,1.11 11.91,-1.29 15.11,-5.68l57.37 10.54 27.32 25.76 24.83 4.02 -41.81 -40.82 -66.2 -12.16c-1.84,-4.53 -6.12,-8.12 -11.58,-9.13z"/>
     <rect class="fil2" transform="matrix(-1.96243 -0.360474 -0.195709 1.06545 2341.3 1906.43)" width="98.78" height="11.48" rx="5.74" ry="5.74"/>
     <rect class="fil2" transform="matrix(-1.16086 -1.48955 0.985131 -0.59785 2435.73 2054.32)" width="98.78" height="11.48" rx="5.74" ry="5.74"/>
     <rect class="fil2" transform="matrix(-1.16086 -1.48955 0.985131 -0.59785 2541.37 2189.83)" width="98.78" height="11.48" rx="5.74" ry="5.74"/>
     <rect class="fil2" transform="matrix(17.9528 3.29769 -0.195709 1.06545 2535.4 2174.51)" width="98.78" height="11.48" rx="5.74" ry="5.74"/>
    </g>
    <g>
     <path class="fil2" d="M1874.29 2073.16c-6.76,4.1 -8.15,12.67 -3.11,19.14 5.04,6.47 14.61,8.39 21.37,4.29 5,-3.03 7.06,-8.51 5.76,-13.77l47.2 -28.64 38.85 1.63 20 -12.79 -60.55 -3.54 -54.46 33.05c-4.82,-2.17 -10.56,-2.1 -15.05,0.63z"/>
     <rect class="fil2" transform="matrix(-1.61444 0.97976 0.708356 0.908922 2138.38 1953.63)" width="98.78" height="11.48" rx="5.74" ry="5.74"/>
     <rect class="fil2" transform="matrix(-1.96243 -0.360474 0.195709 -1.06545 2319.1 2002.63)" width="98.78" height="11.48" rx="5.74" ry="5.74"/>
     <rect class="fil2" transform="matrix(-1.96243 -0.360474 0.195709 -1.06545 2497.66 2035.41)" width="98.78" height="11.48" rx="5.74" ry="5.74"/>
     <rect class="fil2" transform="matrix(14.7692 -8.96307 0.708356 0.908922 2481.52 2027.91)" width="98.78" height="11.48" rx="5.74" ry="5.74"/>
    </g>
    <g>
     <path class="fil2" d="M1070.76 1369.06c-1.34,7.31 4.48,14.51 13,16.07 8.53,1.57 16.52,-3.09 17.87,-10.4 0.99,-5.4 -1.93,-10.74 -6.97,-13.8l9.38 -51.04 27.62 -23.45 3.46 -22.12 -43.83 35.82 -10.82 58.9c-4.98,1.46 -8.81,5.15 -9.71,10.01z"/>
     <rect class="fil2" transform="matrix(-0.32073 1.74606 1.19748 0.219961 1155.39 1113.45)" width="98.78" height="11.48" rx="5.74" ry="5.74"/>
     <rect class="fil2" transform="matrix(-1.61444 0.97976 -0.708356 -0.908922 1316.54 1034.87)" width="98.78" height="11.48" rx="5.74" ry="5.74"/>
     <rect class="fil2" transform="matrix(-1.61444 0.97976 -0.708356 -0.908922 1463.41 945.701)" width="98.78" height="11.48" rx="5.74" ry="5.74"/>
     <rect class="fil2" transform="matrix(2.93411 -15.9734 1.19748 0.219961 1446.55 950.421)" width="98.78" height="11.48" rx="5.74" ry="5.74"/>
    </g>
    <g>
     <path class="fil2" d="M1958.56 2081.19c-8.22,-1.51 -16.01,3.42 -17.4,11 -1.39,7.58 4.14,14.96 12.35,16.47 6.07,1.12 11.91,-1.28 15.11,-5.68l57.37 10.54 27.32 25.76 24.83 4.02 -41.81 -40.82 -66.2 -12.16c-1.84,-4.53 -6.12,-8.12 -11.58,-9.13z"/>
     <rect class="fil2" transform="matrix(-1.96243 -0.360474 -0.195709 1.06545 2247.42 2167.77)" width="98.78" height="11.48" rx="5.74" ry="5.74"/>
     <rect class="fil2" transform="matrix(-1.16086 -1.48955 0.985131 -0.59785 2341.84 2315.65)" width="98.78" height="11.48" rx="5.74" ry="5.74"/>
     <rect class="fil2" transform="matrix(-1.16086 -1.48955 0.985131 -0.59785 2447.49 2451.17)" width="98.78" height="11.48" rx="5.74" ry="5.74"/>
     <rect class="fil2" transform="matrix(17.9528 3.29769 -0.195709 1.06545 2441.52 2435.84)" width="98.78" height="11.48" rx="5.74" ry="5.74"/>
    </g>
    <g>
     <path class="fil2" d="M2016.95 2325.21c-6.76,4.1 -8.15,12.67 -3.11,19.14 5.04,6.47 14.61,8.39 21.37,4.29 5,-3.03 7.06,-8.51 5.76,-13.77l47.2 -28.64 38.85 1.63 20 -12.79 -60.55 -3.54 -54.46 33.05c-4.82,-2.17 -10.56,-2.1 -15.05,0.63z"/>
     <rect class="fil2" transform="matrix(-1.61444 0.97976 0.708356 0.908922 2281.04 2205.69)" width="98.78" height="11.48" rx="5.74" ry="5.74"/>
     <rect class="fil2" transform="matrix(-1.96243 -0.360474 0.195709 -1.06545 2461.76 2254.69)" width="98.78" height="11.48" rx="5.74" ry="5.74"/>
     <rect class="fil2" transform="matrix(-1.96243 -0.360474 0.195709 -1.06545 2640.31 2287.46)" width="98.78" height="11.48" rx="5.74" ry="5.74"/>
     <rect class="fil2" transform="matrix(14.7692 -8.96307 0.708356 0.908922 2624.17 2279.96)" width="98.78" height="11.48" rx="5.74" ry="5.74"/>
    </g>
    <g>
     <path class="fil2" d="M1366.4 1464.19c-1.34,7.31 4.48,14.51 13,16.07 8.52,1.57 16.52,-3.09 17.87,-10.4 0.99,-5.4 -1.93,-10.75 -6.97,-13.8l9.38 -51.04 27.61 -23.45 3.46 -22.12 -43.83 35.82 -10.82 58.9c-4.98,1.46 -8.81,5.15 -9.71,10.01z"/>
     <rect class="fil2" transform="matrix(-0.32073 1.74606 1.19748 0.219961 1451.02 1208.57)" width="98.78" height="11.48" rx="5.74" ry="5.74"/>
     <rect class="fil2" transform="matrix(-1.61444 0.97976 -0.708356 -0.908922 1612.17 1129.99)" width="98.78" height="11.48" rx="5.74" ry="5.74"/>
     <rect class="fil2" transform="matrix(-1.61444 0.97976 -0.708356 -0.908922 1759.04 1040.82)" width="98.78" height="11.48" rx="5.74" ry="5.74"/>
     <rect class="fil2" transform="matrix(2.93411 -15.9734 1.19748 0.219961 1742.19 1045.54)" width="98.78" height="11.48" rx="5.74" ry="5.74"/>
    </g>
    <g>
     <path class="fil2" d="M1864.68 2342.53c-8.22,-1.51 -16.01,3.42 -17.4,11 -1.39,7.58 4.14,14.96 12.35,16.47 6.07,1.12 11.91,-1.29 15.11,-5.68l57.37 10.54 27.32 25.76 24.83 4.02 -41.81 -40.82 -66.2 -12.16c-1.84,-4.53 -6.12,-8.12 -11.58,-9.13z"/>
     <rect class="fil2" transform="matrix(-1.96243 -0.360474 -0.195709 1.06545 2153.53 2429.11)" width="98.78" height="11.48" rx="5.74" ry="5.74"/>
     <rect class="fil2" transform="matrix(-1.16086 -1.48955 0.985131 -0.59785 2247.96 2576.99)" width="98.78" height="11.48" rx="5.74" ry="5.74"/>
     <rect class="fil2" transform="matrix(-1.16086 -1.48955 0.985131 -0.59785 2353.61 2712.5)" width="98.78" height="11.48" rx="5.74" ry="5.74"/>
     <rect class="fil2" transform="matrix(17.9528 3.29769 -0.195709 1.06545 2347.64 2697.18)" width="98.78" height="11.48" rx="5.74" ry="5.74"/>
    </g>
    <g>
     <path class="fil2" d="M2159.61 2577.27c-6.76,4.1 -8.15,12.67 -3.11,19.14 5.04,6.47 14.61,8.39 21.37,4.29 5,-3.03 7.06,-8.51 5.76,-13.77l47.2 -28.64 38.85 1.63 20 -12.79 -60.55 -3.54 -54.46 33.05c-4.82,-2.17 -10.56,-2.1 -15.05,0.63z"/>
     <rect class="fil2" transform="matrix(-1.61444 0.97976 0.708356 0.908922 2423.69 2457.74)" width="98.78" height="11.48" rx="5.74" ry="5.74"/>
     <rect class="fil2" transform="matrix(-1.96243 -0.360474 0.195709 -1.06545 2604.42 2506.74)" width="98.78" height="11.48" rx="5.74" ry="5.74"/>
     <rect class="fil2" transform="matrix(-1.96243 -0.360474 0.195709 -1.06545 2782.97 2539.52)" width="98.78" height="11.48" rx="5.74" ry="5.74"/>
     <rect class="fil2" transform="matrix(14.7692 -8.96307 0.708356 0.908922 2766.83 2532.02)" width="98.78" height="11.48" rx="5.74" ry="5.74"/>
    </g>
    <g>
     <path class="fil2" d="M1662.03 1559.31c-1.34,7.31 4.48,14.51 13,16.07 8.53,1.57 16.52,-3.09 17.87,-10.4 0.99,-5.4 -1.93,-10.74 -6.96,-13.8l9.38 -51.04 27.62 -23.45 3.46 -22.12 -43.83 35.82 -10.82 58.9c-4.98,1.46 -8.81,5.15 -9.71,10.01z"/>
     <rect class="fil2" transform="matrix(-0.32073 1.74606 1.19748 0.219961 1746.65 1303.7)" width="98.78" height="11.48" rx="5.74" ry="5.74"/>
     <rect class="fil2" transform="matrix(-1.61444 0.97976 -0.708356 -0.908922 1907.8 1225.11)" width="98.78" height="11.48" rx="5.74" ry="5.74"/>
     <rect class="fil2" transform="matrix(-1.61444 0.97976 -0.708356 -0.908922 2054.67 1135.95)" width="98.78" height="11.48" rx="5.74" ry="5.74"/>
     <rect class="fil2" transform="matrix(2.93411 -15.9734 1.19748 0.219961 2037.82 1140.67)" width="98.78" height="11.48" rx="5.74" ry="5.74"/>
    </g>
    <g>
     <path class="fil2" d="M1770.8 2603.87c-8.22,-1.51 -16.01,3.42 -17.4,11 -1.39,7.58 4.14,14.96 12.35,16.47 6.07,1.12 11.91,-1.28 15.11,-5.68l57.37 10.54 27.32 25.76 24.83 4.02 -41.81 -40.82 -66.2 -12.16c-1.84,-4.53 -6.12,-8.12 -11.58,-9.13z"/>
     <rect class="fil2" transform="matrix(-1.96243 -0.360474 -0.195709 1.06545 2059.65 2690.44)" width="98.78" height="11.48" rx="5.74" ry="5.74"/>
     <rect class="fil2" transform="matrix(-1.16086 -1.48955 0.985131 -0.59785 2154.08 2838.33)" width="98.78" height="11.48" rx="5.74" ry="5.74"/>
     <rect class="fil2" transform="matrix(-1.16086 -1.48955 0.985131 -0.59785 2259.72 2973.84)" width="98.78" height="11.48" rx="5.74" ry="5.74"/>
     <rect class="fil2" transform="matrix(17.9528 3.29769 -0.195709 1.06545 2253.75 2958.52)" width="98.78" height="11.48" rx="5.74" ry="5.74"/>
    </g>
    <g>
     <path class="fil2" d="M2302.26 2829.33c-6.76,4.1 -8.15,12.67 -3.11,19.14 5.04,6.47 14.61,8.39 21.37,4.29 5,-3.03 7.06,-8.51 5.76,-13.77l47.2 -28.64 38.85 1.63 20 -12.79 -60.56 -3.54 -54.46 33.05c-4.82,-2.17 -10.56,-2.1 -15.05,0.63z"/>
     <rect class="fil2" transform="matrix(-1.61444 0.97976 0.708356 0.908922 2566.35 2709.8)" width="98.78" height="11.48" rx="5.74" ry="5.74"/>
     <rect class="fil2" transform="matrix(-1.96243 -0.360474 0.195709 -1.06545 2747.07 2758.8)" width="98.78" height="11.48" rx="5.74" ry="5.74"/>
     <rect class="fil2" transform="matrix(-1.96243 -0.360474 0.195709 -1.06545 2925.63 2791.57)" width="98.78" height="11.48" rx="5.74" ry="5.74"/>
     <rect class="fil2" transform="matrix(14.7692 -8.96307 0.708356 0.908922 2909.49 2784.07)" width="98.78" height="11.48" rx="5.74" ry="5.74"/>
    </g>
    <g>
     <path class="fil2" d="M1957.66 1654.43c-1.34,7.31 4.48,14.51 13,16.07 8.52,1.57 16.52,-3.09 17.87,-10.4 0.99,-5.4 -1.93,-10.74 -6.97,-13.8l9.38 -51.04 27.61 -23.45 3.46 -22.12 -43.83 35.82 -10.82 58.9c-4.98,1.46 -8.81,5.15 -9.7,10.01z"/>
     <rect class="fil2" transform="matrix(-0.32073 1.74606 1.19748 0.219961 2042.28 1398.82)" width="98.78" height="11.48" rx="5.74" ry="5.74"/>
     <rect class="fil2" transform="matrix(-1.61444 0.97976 -0.708356 -0.908922 2203.43 1320.23)" width="98.78" height="11.48" rx="5.74" ry="5.74"/>
     <rect class="fil2" transform="matrix(-1.61444 0.97976 -0.708356 -0.908922 2350.3 1231.07)" width="98.78" height="11.48" rx="5.74" ry="5.74"/>
     <rect class="fil2" transform="matrix(2.93411 -15.9734 1.19748 0.219961 2333.45 1235.79)" width="98.78" height="11.48" rx="5.74" ry="5.74"/>
    </g>
    <g>
     <path class="fil2" d="M1676.91 2865.21c-8.21,-1.51 -16.01,3.42 -17.4,11 -1.39,7.58 4.14,14.96 12.35,16.47 6.07,1.12 11.91,-1.28 15.11,-5.68l57.37 10.54 27.32 25.76 24.83 4.02 -41.81 -40.82 -66.2 -12.16c-1.84,-4.53 -6.12,-8.12 -11.58,-9.13z"/>
     <rect class="fil2" transform="matrix(-1.96243 -0.360474 -0.195709 1.06545 1965.77 2951.78)" width="98.78" height="11.48" rx="5.74" ry="5.74"/>
     <rect class="fil2" transform="matrix(-1.16086 -1.48955 0.985131 -0.59785 2060.2 3099.67)" width="98.78" height="11.48" rx="5.74" ry="5.74"/>
     <rect class="fil2" transform="matrix(-1.16086 -1.48955 0.985131 -0.59785 2165.84 3235.18)" width="98.78" height="11.48" rx="5.74" ry="5.74"/>
     <rect class="fil2" transform="matrix(17.9528 3.29769 -0.195709 1.06545 2159.87 3219.86)" width="98.78" height="11.48" rx="5.74" ry="5.74"/>
    </g>
    <g>
     <path class="fil2" d="M2253.29 1749.56c-1.34,7.31 4.48,14.51 13,16.07 8.52,1.57 16.52,-3.09 17.87,-10.4 0.99,-5.4 -1.93,-10.75 -6.96,-13.8l9.38 -51.04 27.62 -23.45 3.46 -22.12 -43.83 35.82 -10.82 58.9c-4.98,1.46 -8.81,5.15 -9.71,10.01z"/>
     <rect class="fil2" transform="matrix(-0.32073 1.74606 1.19748 0.219961 2337.91 1493.94)" width="98.78" height="11.48" rx="5.74" ry="5.74"/>
     <rect class="fil2" transform="matrix(-1.61444 0.97976 -0.708356 -0.908922 2499.06 1415.36)" width="98.78" height="11.48" rx="5.74" ry="5.74"/>
     <rect class="fil2" transform="matrix(-1.61444 0.97976 -0.708356 -0.908922 2645.93 1326.19)" width="98.78" height="11.48" rx="5.74" ry="5.74"/>
     <rect class="fil2" transform="matrix(2.93411 -15.9734 1.19748 0.219961 2629.08 1330.91)" width="98.78" height="11.48" rx="5.74" ry="5.74"/>
    </g>
    <g>
     <path class="fil2" d="M1583.03 3126.54c-8.21,-1.51 -16.01,3.42 -17.4,11 -1.39,7.58 4.14,14.96 12.35,16.47 6.07,1.11 11.91,-1.29 15.11,-5.68l57.37 10.54 27.32 25.76 24.83 4.02 -41.81 -40.82 -66.2 -12.16c-1.84,-4.53 -6.12,-8.12 -11.58,-9.13z"/>
     <rect class="fil2" transform="matrix(-1.96243 -0.360474 -0.195709 1.06545 1871.89 3213.12)" width="98.78" height="11.48" rx="5.74" ry="5.74"/>
     <rect class="fil2" transform="matrix(-1.16086 -1.48955 0.985131 -0.59785 1966.32 3361)" width="98.78" height="11.48" rx="5.74" ry="5.74"/>
     <rect class="fil2" transform="matrix(-1.16086 -1.48955 0.985131 -0.59785 2071.96 3496.52)" width="98.78" height="11.48" rx="5.74" ry="5.74"/>
     <rect class="fil2" transform="matrix(17.9528 3.29769 -0.195709 1.06545 2065.99 3481.19)" width="98.78" height="11.48" rx="5.74" ry="5.74"/>
    </g>
    <g>
     <path class="fil2" d="M2548.92 1844.68c-1.34,7.31 4.48,14.51 13.01,16.07 8.52,1.57 16.52,-3.09 17.87,-10.4 0.99,-5.4 -1.93,-10.74 -6.97,-13.8l9.38 -51.04 27.61 -23.45 3.46 -22.12 -43.83 35.82 -10.82 58.9c-4.98,1.46 -8.81,5.15 -9.71,10.01z"/>
     <rect class="fil2" transform="matrix(-0.32073 1.74606 1.19748 0.219961 2633.54 1589.07)" width="98.78" height="11.48" rx="5.74" ry="5.74"/>
     <rect class="fil2" transform="matrix(-1.61444 0.97976 -0.708356 -0.908922 2794.69 1510.48)" width="98.78" height="11.48" rx="5.74" ry="5.74"/>
     <rect class="fil2" transform="matrix(-1.61444 0.97976 -0.708356 -0.908922 2941.57 1421.32)" width="98.78" height="11.48" rx="5.74" ry="5.74"/>
     <rect class="fil2" transform="matrix(2.93411 -15.9734 1.19748 0.219961 2924.71 1426.04)" width="98.78" height="11.48" rx="5.74" ry="5.74"/>
    </g>
    <g>
     <path class="fil2" d="M1489.15 3387.88c-8.22,-1.51 -16.01,3.42 -17.4,11 -1.39,7.58 4.14,14.96 12.35,16.47 6.07,1.12 11.91,-1.28 15.11,-5.68l57.37 10.54 27.32 25.76 24.83 4.02 -41.81 -40.82 -66.2 -12.16c-1.84,-4.53 -6.12,-8.12 -11.58,-9.13z"/>
     <rect class="fil2" transform="matrix(-1.96243 -0.360474 -0.195709 1.06545 1778.01 3474.46)" width="98.78" height="11.48" rx="5.74" ry="5.74"/>
     <rect class="fil2" transform="matrix(-1.16086 -1.48955 0.985131 -0.59785 1872.44 3622.34)" width="98.78" height="11.48" rx="5.74" ry="5.74"/>
     <rect class="fil2" transform="matrix(-1.16086 -1.48955 0.985131 -0.59785 1978.08 3757.86)" width="98.78" height="11.48" rx="5.74" ry="5.74"/>
     <rect class="fil2" transform="matrix(17.9528 3.29769 -0.195709 1.06545 1972.11 3742.53)" width="98.78" height="11.48" rx="5.74" ry="5.74"/>
    </g>
    <g>
     <path class="fil2" d="M1295.08 231.59c-8.22,-1.51 -13.75,-8.88 -12.35,-16.47 1.39,-7.58 9.19,-12.51 17.4,-11 6.07,1.12 10.68,5.44 12.11,10.68l57.37 10.54 34.69 -14.37 24.64 5.06 -53.58 23.3 -66.2 -12.16c-3.33,3.58 -8.61,5.42 -14.07,4.41z"/>
     <rect class="fil2" transform="matrix(-1.96243 -0.360474 0.195709 -1.06545 1595.85 253.317)" width="98.78" height="11.48" rx="5.74" ry="5.74"/>
     <rect class="fil2" transform="matrix(-1.61444 0.97976 0.708356 0.908922 1736.67 148.644)" width="98.78" height="11.48" rx="5.74" ry="5.74"/>
     <rect class="fil2" transform="matrix(-1.61444 0.97976 0.708356 0.908922 1883.58 59.5215)" width="98.78" height="11.48" rx="5.74" ry="5.74"/>
     <rect class="fil2" transform="matrix(17.9528 3.29769 0.195709 -1.06545 1872.55 71.7229)" width="98.78" height="11.48" rx="5.74" ry="5.74"/>
    </g>
    <g>
     <path class="fil2" d="M1386.76 562.82c-8.22,-1.51 -13.75,-8.88 -12.35,-16.47 1.39,-7.58 9.19,-12.51 17.4,-11 6.07,1.12 10.68,5.44 12.11,10.68l57.37 10.54 34.69 -14.37 24.64 5.06 -53.58 23.3 -66.2 -12.16c-3.33,3.58 -8.61,5.42 -14.07,4.41z"/>
     <rect class="fil2" transform="matrix(-1.96243 -0.360474 0.195709 -1.06545 1687.52 584.553)" width="98.78" height="11.48" rx="5.74" ry="5.74"/>
     <rect class="fil2" transform="matrix(-1.61444 0.97976 0.708356 0.908922 1828.34 479.88)" width="98.78" height="11.48" rx="5.74" ry="5.74"/>
     <rect class="fil2" transform="matrix(-1.61444 0.97976 0.708356 0.908922 1975.25 390.757)" width="98.78" height="11.48" rx="5.74" ry="5.74"/>
     <rect class="fil2" transform="matrix(17.9528 3.29769 0.195709 -1.06545 1964.22 402.959)" width="98.78" height="11.48" rx="5.74" ry="5.74"/>
    </g>
    <g>
     <path class="fil2" d="M1478.43 894.06c-8.22,-1.51 -13.75,-8.88 -12.35,-16.47 1.39,-7.58 9.19,-12.51 17.4,-11 6.07,1.12 10.68,5.44 12.11,10.68l57.37 10.54 34.69 -14.37 24.64 5.06 -53.58 23.3 -66.2 -12.16c-3.33,3.58 -8.6,5.42 -14.07,4.41z"/>
     <rect class="fil2" transform="matrix(-1.96243 -0.360474 0.195709 -1.06545 1779.19 915.789)" width="98.78" height="11.48" rx="5.74" ry="5.74"/>
     <rect class="fil2" transform="matrix(-1.61444 0.97976 0.708356 0.908922 1920.01 811.116)" width="98.78" height="11.48" rx="5.74" ry="5.74"/>
     <rect class="fil2" transform="matrix(-1.61444 0.97976 0.708356 0.908922 2066.92 721.993)" width="98.78" height="11.48" rx="5.74" ry="5.74"/>
     <rect class="fil2" transform="matrix(17.9528 3.29769 0.195709 -1.06545 2055.89 734.195)" width="98.78" height="11.48" rx="5.74" ry="5.74"/>
    </g>
    <g>
     <path class="fil2" d="M2233.71 2273.93c1.34,-7.31 9.34,-11.97 17.87,-10.4 8.53,1.57 14.35,8.76 13.01,16.07 -0.99,5.4 -5.62,9.36 -11.41,10.42l-9.38 51.04 17.48 31.73 -4.63 21.9 -28.24 -49.06 10.82 -58.9c-4.13,-3.14 -6.41,-7.95 -5.51,-12.81z"/>
     <rect class="fil2" transform="matrix(0.32073 -1.74606 1.19748 0.219961 2221.97 2542.93)" width="98.78" height="11.48" rx="5.74" ry="5.74"/>
     <rect class="fil2" transform="matrix(-1.16086 -1.48955 -0.985131 0.59785 2344.67 2673.66)" width="98.78" height="11.48" rx="5.74" ry="5.74"/>
     <rect class="fil2" transform="matrix(-1.16086 -1.48955 -0.985131 0.59785 2450.27 2809.2)" width="98.78" height="11.48" rx="5.74" ry="5.74"/>
     <rect class="fil2" transform="matrix(-2.93411 15.9734 1.19748 0.219961 2436.19 2798.8)" width="98.78" height="11.48" rx="5.74" ry="5.74"/>
    </g>
    <g>
     <path class="fil2" d="M2355.54 2292.58c-4.86,-6.24 -3.11,-14.74 3.9,-19 7.01,-4.26 16.64,-2.65 21.5,3.58 3.59,4.61 3.57,10.46 0.49,14.92l33.94 43.54 36.89 12.28 14.15 19.07 -57.86 -18.21 -39.16 -50.25c-5.28,0.31 -10.62,-1.79 -13.85,-5.94z"/>
     <rect class="fil2" transform="matrix(-1.16086 -1.48955 0.985131 -0.59785 2559.92 2498.16)" width="98.78" height="11.48" rx="5.74" ry="5.74"/>
     <rect class="fil2" transform="matrix(-1.96243 -0.360474 -0.195709 1.06545 2746.25 2516.58)" width="98.78" height="11.48" rx="5.74" ry="5.74"/>
     <rect class="fil2" transform="matrix(-1.96243 -0.360474 -0.195709 1.06545 2924.8 2549.4)" width="98.78" height="11.48" rx="5.74" ry="5.74"/>
     <rect class="fil2" transform="matrix(10.6198 13.6267 0.985131 -0.59785 2907.05 2550.67)" width="98.78" height="11.48" rx="5.74" ry="5.74"/>
    </g>
    <g>
     <path class="fil2" d="M1570.1 1225.29c-8.22,-1.51 -13.75,-8.88 -12.35,-16.47 1.39,-7.58 9.19,-12.51 17.4,-11 6.07,1.12 10.68,5.44 12.11,10.68l57.37 10.54 34.7 -14.37 24.64 5.06 -53.58 23.3 -66.2 -12.16c-3.33,3.58 -8.6,5.42 -14.07,4.41z"/>
     <rect class="fil2" transform="matrix(-1.96243 -0.360474 0.195709 -1.06545 1870.86 1247.02)" width="98.78" height="11.48" rx="5.74" ry="5.74"/>
     <rect class="fil2" transform="matrix(-1.61444 0.97976 0.708356 0.908922 2011.68 1142.35)" width="98.78" height="11.48" rx="5.74" ry="5.74"/>
     <rect class="fil2" transform="matrix(-1.61444 0.97976 0.708356 0.908922 2158.59 1053.23)" width="98.78" height="11.48" rx="5.74" ry="5.74"/>
     <rect class="fil2" transform="matrix(17.9528 3.29769 0.195709 -1.06545 2147.56 1065.43)" width="98.78" height="11.48" rx="5.74" ry="5.74"/>
    </g>
    <g>
     <path class="fil2" d="M1867.77 2342.42c1.34,-7.31 9.34,-11.97 17.87,-10.4 8.52,1.57 14.35,8.76 13,16.07 -0.99,5.4 -5.62,9.36 -11.41,10.42l-9.38 51.04 17.48 31.73 -4.63 21.9 -28.24 -49.06 10.82 -58.9c-4.13,-3.14 -6.41,-7.95 -5.51,-12.81z"/>
     <rect class="fil2" transform="matrix(0.32073 -1.74606 1.19748 0.219961 1856.03 2611.42)" width="98.78" height="11.48" rx="5.74" ry="5.74"/>
     <rect class="fil2" transform="matrix(-1.16086 -1.48955 -0.985131 0.59785 1978.73 2742.14)" width="98.78" height="11.48" rx="5.74" ry="5.74"/>
     <rect class="fil2" transform="matrix(-1.16086 -1.48955 -0.985131 0.59785 2084.33 2877.68)" width="98.78" height="11.48" rx="5.74" ry="5.74"/>
     <rect class="fil2" transform="matrix(-2.93411 15.9734 1.19748 0.219961 2070.25 2867.28)" width="98.78" height="11.48" rx="5.74" ry="5.74"/>
    </g>
    <g>
     <path class="fil2" d="M1661.77 1556.53c-8.22,-1.51 -13.75,-8.88 -12.35,-16.47 1.39,-7.58 9.18,-12.51 17.4,-11 6.07,1.11 10.68,5.44 12.11,10.67l57.37 10.54 34.69 -14.37 24.64 5.06 -53.58 23.3 -66.2 -12.16c-3.33,3.58 -8.6,5.42 -14.07,4.42z"/>
     <rect class="fil2" transform="matrix(-1.96243 -0.360474 0.195709 -1.06545 1962.53 1578.26)" width="98.78" height="11.48" rx="5.74" ry="5.74"/>
     <rect class="fil2" transform="matrix(-1.61444 0.97976 0.708356 0.908922 2103.35 1473.59)" width="98.78" height="11.48" rx="5.74" ry="5.74"/>
     <rect class="fil2" transform="matrix(-1.61444 0.97976 0.708356 0.908922 2250.26 1384.47)" width="98.78" height="11.48" rx="5.74" ry="5.74"/>
     <rect class="fil2" transform="matrix(17.9528 3.29769 0.195709 -1.06545 2239.24 1396.67)" width="98.78" height="11.48" rx="5.74" ry="5.74"/>
    </g>
    <g>
     <path class="fil2" d="M1501.84 2410.9c1.34,-7.31 9.34,-11.97 17.87,-10.4 8.53,1.57 14.35,8.76 13.01,16.07 -0.99,5.4 -5.62,9.36 -11.41,10.42l-9.38 51.04 17.48 31.73 -4.63 21.9 -28.24 -49.06 10.82 -58.9c-4.13,-3.14 -6.41,-7.95 -5.51,-12.81z"/>
     <rect class="fil2" transform="matrix(0.32073 -1.74606 1.19748 0.219961 1490.09 2679.9)" width="98.78" height="11.48" rx="5.74" ry="5.74"/>
     <rect class="fil2" transform="matrix(-1.16086 -1.48955 -0.985131 0.59785 1612.8 2810.62)" width="98.78" height="11.48" rx="5.74" ry="5.74"/>
     <rect class="fil2" transform="matrix(-1.16086 -1.48955 -0.985131 0.59785 1718.39 2946.16)" width="98.78" height="11.48" rx="5.74" ry="5.74"/>
     <rect class="fil2" transform="matrix(-2.93411 15.9734 1.19748 0.219961 1704.32 2935.76)" width="98.78" height="11.48" rx="5.74" ry="5.74"/>
    </g>
    <g>
     <path class="fil2" d="M1967.68 2857.86c-4.86,-6.24 -3.12,-14.74 3.9,-19 7.01,-4.26 16.64,-2.65 21.5,3.58 3.59,4.61 3.57,10.46 0.49,14.92l33.94 43.54 36.89 12.28 14.15 19.07 -57.86 -18.21 -39.16 -50.25c-5.28,0.31 -10.62,-1.79 -13.85,-5.94z"/>
     <rect class="fil2" transform="matrix(-1.16086 -1.48955 0.985131 -0.59785 2172.05 3063.44)" width="98.78" height="11.48" rx="5.74" ry="5.74"/>
     <rect class="fil2" transform="matrix(-1.96243 -0.360474 -0.195709 1.06545 2358.39 3081.86)" width="98.78" height="11.48" rx="5.74" ry="5.74"/>
     <rect class="fil2" transform="matrix(-1.96243 -0.360474 -0.195709 1.06545 2536.93 3114.69)" width="98.78" height="11.48" rx="5.74" ry="5.74"/>
     <rect class="fil2" transform="matrix(10.6198 13.6267 0.985131 -0.59785 2519.18 3115.96)" width="98.78" height="11.48" rx="5.74" ry="5.74"/>
    </g>
    <g>
     <path class="fil2" d="M1753.44 1887.76c-8.21,-1.51 -13.75,-8.88 -12.35,-16.47 1.39,-7.58 9.19,-12.51 17.4,-11 6.07,1.11 10.68,5.44 12.11,10.67l57.37 10.54 34.69 -14.37 24.64 5.06 -53.58 23.3 -66.2 -12.16c-3.33,3.58 -8.61,5.42 -14.07,4.41z"/>
     <rect class="fil2" transform="matrix(-1.96243 -0.360474 0.195709 -1.06545 2054.21 1909.5)" width="98.78" height="11.48" rx="5.74" ry="5.74"/>
     <rect class="fil2" transform="matrix(-1.61444 0.97976 0.708356 0.908922 2195.03 1804.82)" width="98.78" height="11.48" rx="5.74" ry="5.74"/>
     <rect class="fil2" transform="matrix(-1.61444 0.97976 0.708356 0.908922 2341.93 1715.7)" width="98.78" height="11.48" rx="5.74" ry="5.74"/>
     <rect class="fil2" transform="matrix(17.9528 3.29769 0.195709 -1.06545 2330.91 1727.9)" width="98.78" height="11.48" rx="5.74" ry="5.74"/>
    </g>
    <g>
     <path class="fil2" d="M1135.9 2479.38c1.34,-7.31 9.34,-11.97 17.87,-10.4 8.52,1.57 14.35,8.76 13,16.07 -0.99,5.4 -5.62,9.36 -11.41,10.42l-9.38 51.04 17.48 31.73 -4.63 21.9 -28.24 -49.06 10.82 -58.9c-4.13,-3.14 -6.41,-7.95 -5.51,-12.81z"/>
     <rect class="fil2" transform="matrix(0.32073 -1.74606 1.19748 0.219961 1124.16 2748.38)" width="98.78" height="11.48" rx="5.74" ry="5.74"/>
     <rect class="fil2" transform="matrix(-1.16086 -1.48955 -0.985131 0.59785 1246.86 2879.1)" width="98.78" height="11.48" rx="5.74" ry="5.74"/>
     <rect class="fil2" transform="matrix(-1.16086 -1.48955 -0.985131 0.59785 1352.46 3014.64)" width="98.78" height="11.48" rx="5.74" ry="5.74"/>
     <rect class="fil2" transform="matrix(-2.93411 15.9734 1.19748 0.219961 1338.38 3004.24)" width="98.78" height="11.48" rx="5.74" ry="5.74"/>
    </g>
    <g>
     <path class="fil2" d="M1773.74 3140.51c-4.86,-6.24 -3.11,-14.74 3.9,-19 7.01,-4.26 16.64,-2.65 21.5,3.59 3.59,4.61 3.57,10.46 0.49,14.92l33.94 43.54 36.89 12.28 14.15 19.07 -57.86 -18.21 -39.16 -50.25c-5.28,0.31 -10.62,-1.79 -13.85,-5.93z"/>
     <rect class="fil2" transform="matrix(-1.16086 -1.48955 0.985131 -0.59785 1978.11 3346.08)" width="98.78" height="11.48" rx="5.74" ry="5.74"/>
     <rect class="fil2" transform="matrix(-1.96243 -0.360474 -0.195709 1.06545 2164.45 3364.51)" width="98.78" height="11.48" rx="5.74" ry="5.74"/>
     <rect class="fil2" transform="matrix(-1.96243 -0.360474 -0.195709 1.06545 2343 3397.33)" width="98.78" height="11.48" rx="5.74" ry="5.74"/>
     <rect class="fil2" transform="matrix(10.6198 13.6267 0.985131 -0.59785 2325.25 3398.6)" width="98.78" height="11.48" rx="5.74" ry="5.74"/>
    </g>
    <g>
     <path class="fil2" d="M1845.11 2219c-8.22,-1.51 -13.75,-8.88 -12.35,-16.47 1.39,-7.58 9.19,-12.51 17.4,-11 6.07,1.12 10.68,5.44 12.11,10.68l57.37 10.54 34.69 -14.37 24.64 5.06 -53.58 23.3 -66.2 -12.16c-3.33,3.58 -8.61,5.42 -14.07,4.41z"/>
     <rect class="fil2" transform="matrix(-1.96243 -0.360474 0.195709 -1.06545 2145.88 2240.73)" width="98.78" height="11.48" rx="5.74" ry="5.74"/>
     <rect class="fil2" transform="matrix(-1.61444 0.97976 0.708356 0.908922 2286.7 2136.06)" width="98.78" height="11.48" rx="5.74" ry="5.74"/>
     <rect class="fil2" transform="matrix(-1.61444 0.97976 0.708356 0.908922 2433.6 2046.94)" width="98.78" height="11.48" rx="5.74" ry="5.74"/>
     <rect class="fil2" transform="matrix(17.9528 3.29769 0.195709 -1.06545 2422.58 2059.14)" width="98.78" height="11.48" rx="5.74" ry="5.74"/>
    </g>
    <g>
     <path class="fil2" d="M769.97 2547.86c1.34,-7.31 9.34,-11.97 17.87,-10.4 8.53,1.57 14.35,8.76 13,16.07 -0.99,5.4 -5.62,9.36 -11.41,10.42l-9.38 51.04 17.48 31.73 -4.63 21.9 -28.24 -49.06 10.82 -58.9c-4.13,-3.14 -6.41,-7.95 -5.51,-12.81z"/>
     <rect class="fil2" transform="matrix(0.32073 -1.74606 1.19748 0.219961 758.223 2816.86)" width="98.78" height="11.48" rx="5.74" ry="5.74"/>
     <rect class="fil2" transform="matrix(-1.16086 -1.48955 -0.985131 0.59785 880.926 2947.59)" width="98.78" height="11.48" rx="5.74" ry="5.74"/>
     <rect class="fil2" transform="matrix(-1.16086 -1.48955 -0.985131 0.59785 986.524 3083.13)" width="98.78" height="11.48" rx="5.74" ry="5.74"/>
     <rect class="fil2" transform="matrix(-2.93411 15.9734 1.19748 0.219961 972.445 3072.72)" width="98.78" height="11.48" rx="5.74" ry="5.74"/>
    </g>
    <g>
     <path class="fil2" d="M1579.81 3423.15c-4.86,-6.24 -3.12,-14.74 3.9,-19 7.01,-4.26 16.64,-2.65 21.5,3.58 3.59,4.61 3.58,10.46 0.49,14.92l33.93 43.54 36.89 12.28 14.15 19.07 -57.86 -18.21 -39.16 -50.25c-5.28,0.31 -10.62,-1.79 -13.85,-5.94z"/>
     <rect class="fil2" transform="matrix(-1.16086 -1.48955 0.985131 -0.59785 1784.18 3628.73)" width="98.78" height="11.48" rx="5.74" ry="5.74"/>
     <rect class="fil2" transform="matrix(-1.96243 -0.360474 -0.195709 1.06545 1970.52 3647.15)" width="98.78" height="11.48" rx="5.74" ry="5.74"/>
     <rect class="fil2" transform="matrix(-1.96243 -0.360474 -0.195709 1.06545 2149.06 3679.97)" width="98.78" height="11.48" rx="5.74" ry="5.74"/>
     <rect class="fil2" transform="matrix(10.6198 13.6267 0.985131 -0.59785 2131.31 3681.24)" width="98.78" height="11.48" rx="5.74" ry="5.74"/>
    </g>
    <g>
     <path class="fil2" d="M404.03 2616.34c1.34,-7.31 9.34,-11.97 17.87,-10.4 8.52,1.57 14.35,8.76 13,16.07 -0.99,5.4 -5.62,9.36 -11.41,10.42l-9.38 51.04 17.48 31.73 -4.63 21.9 -28.24 -49.06 10.82 -58.9c-4.13,-3.14 -6.41,-7.95 -5.51,-12.81z"/>
     <rect class="fil2" transform="matrix(0.32073 -1.74606 1.19748 0.219961 392.288 2885.34)" width="98.78" height="11.48" rx="5.74" ry="5.74"/>
     <rect class="fil2" transform="matrix(-1.16086 -1.48955 -0.985131 0.59785 514.991 3016.07)" width="98.78" height="11.48" rx="5.74" ry="5.74"/>
     <rect class="fil2" transform="matrix(-1.16086 -1.48955 -0.985131 0.59785 620.588 3151.61)" width="98.78" height="11.48" rx="5.74" ry="5.74"/>
     <rect class="fil2" transform="matrix(-2.93411 15.9734 1.19748 0.219961 606.509 3141.21)" width="98.78" height="11.48" rx="5.74" ry="5.74"/>
    </g>
    <g>
     <path class="fil2" d="M1385.87 3705.79c-4.86,-6.24 -3.12,-14.74 3.9,-19 7.01,-4.26 16.64,-2.65 21.5,3.59 3.59,4.61 3.57,10.46 0.49,14.92l33.94 43.54 36.89 12.28 14.15 19.07 -57.86 -18.21 -39.16 -50.25c-5.28,0.31 -10.62,-1.79 -13.85,-5.93z"/>
     <rect class="fil2" transform="matrix(-1.16086 -1.48955 0.985131 -0.59785 1590.24 3911.37)" width="98.78" height="11.48" rx="5.74" ry="5.74"/>
     <rect class="fil2" transform="matrix(-1.96243 -0.360474 -0.195709 1.06545 1776.58 3929.79)" width="98.78" height="11.48" rx="5.74" ry="5.74"/>
     <rect class="fil2" transform="matrix(-1.96243 -0.360474 -0.195709 1.06545 1955.13 3962.62)" width="98.78" height="11.48" rx="5.74" ry="5.74"/>
     <rect class="fil2" transform="matrix(10.6198 13.6267 0.985131 -0.59785 1937.38 3963.89)" width="98.78" height="11.48" rx="5.74" ry="5.74"/>
    </g>
    <g>
     <path class="fil2" d="M2028.45 2881.47c-8.22,-1.51 -13.75,-8.88 -12.35,-16.47 1.39,-7.58 9.19,-12.51 17.4,-11 6.07,1.12 10.68,5.44 12.11,10.68l57.37 10.54 34.69 -14.37 24.64 5.06 -53.58 23.3 -66.2 -12.16c-3.33,3.58 -8.6,5.42 -14.07,4.41z"/>
     <rect class="fil2" transform="matrix(-1.96243 -0.360474 0.195709 -1.06545 2329.22 2903.2)" width="98.78" height="11.48" rx="5.74" ry="5.74"/>
     <rect class="fil2" transform="matrix(-1.61444 0.97976 0.708356 0.908922 2470.04 2798.53)" width="98.78" height="11.48" rx="5.74" ry="5.74"/>
     <rect class="fil2" transform="matrix(-1.61444 0.97976 0.708356 0.908922 2616.94 2709.41)" width="98.78" height="11.48" rx="5.74" ry="5.74"/>
     <rect class="fil2" transform="matrix(17.9528 3.29769 0.195709 -1.06545 2605.92 2721.61)" width="98.78" height="11.48" rx="5.74" ry="5.74"/>
    </g>
    <g>
     <path class="fil2" d="M1898.13 1776.84c8.21,1.51 16.01,-3.42 17.4,-11 1.39,-7.58 -4.14,-14.96 -12.35,-16.47 -6.07,-1.11 -11.91,1.29 -15.11,5.68l-57.37 -10.54 -27.32 -25.76 -24.83 -4.02 41.81 40.82 66.2 12.16c1.84,4.53 6.12,8.12 11.58,9.13z"/>
     <rect class="fil2" transform="matrix(1.96243 0.360474 0.195709 -1.06545 1609.27 1690.26)" width="98.78" height="11.48" rx="5.74" ry="5.74"/>
     <rect class="fil2" transform="matrix(1.16086 1.48955 -0.985131 0.59785 1514.85 1542.38)" width="98.78" height="11.48" rx="5.74" ry="5.74"/>
     <rect class="fil2" transform="matrix(1.16086 1.48955 -0.985131 0.59785 1409.2 1406.86)" width="98.78" height="11.48" rx="5.74" ry="5.74"/>
     <rect class="fil2" transform="matrix(-17.9528 -3.29769 0.195709 -1.06545 1415.17 1422.19)" width="98.78" height="11.48" rx="5.74" ry="5.74"/>
    </g>
    <g>
     <path class="fil2" d="M1735.76 2139.39c6.76,-4.1 8.15,-12.68 3.11,-19.15 -5.04,-6.47 -14.61,-8.39 -21.37,-4.29 -5,3.03 -7.06,8.51 -5.76,13.77l-47.2 28.64 -38.85 -1.63 -20 12.79 60.55 3.54 54.46 -33.05c4.82,2.17 10.56,2.1 15.05,-0.63z"/>
     <rect class="fil2" transform="matrix(1.61444 -0.97976 -0.708356 -0.908922 1471.67 2258.92)" width="98.78" height="11.48" rx="5.74" ry="5.74"/>
     <rect class="fil2" transform="matrix(1.96243 0.360474 -0.195709 1.06545 1290.95 2209.92)" width="98.78" height="11.48" rx="5.74" ry="5.74"/>
     <rect class="fil2" transform="matrix(1.96243 0.360474 -0.195709 1.06545 1112.39 2177.14)" width="98.78" height="11.48" rx="5.74" ry="5.74"/>
     <rect class="fil2" transform="matrix(-14.7692 8.96307 -0.708356 -0.908922 1128.53 2184.64)" width="98.78" height="11.48" rx="5.74" ry="5.74"/>
    </g>
    <g>
     <path class="fil2" d="M1029.16 1505.75c1.34,-7.31 -4.48,-14.51 -13.01,-16.07 -8.52,-1.57 -16.52,3.09 -17.87,10.4 -0.99,5.4 1.93,10.74 6.97,13.8l-9.38 51.04 -27.61 23.45 -3.46 22.12 43.83 -35.82 10.82 -58.9c4.98,-1.46 8.81,-5.15 9.71,-10.01z"/>
     <rect class="fil2" transform="matrix(0.32073 -1.74606 -1.19748 -0.219961 944.541 1761.37)" width="98.78" height="11.48" rx="5.74" ry="5.74"/>
     <rect class="fil2" transform="matrix(1.61444 -0.97976 0.708356 0.908922 783.39 1839.95)" width="98.78" height="11.48" rx="5.74" ry="5.74"/>
     <rect class="fil2" transform="matrix(1.61444 -0.97976 0.708356 0.908922 636.517 1929.12)" width="98.78" height="11.48" rx="5.74" ry="5.74"/>
     <rect class="fil2" transform="matrix(-2.93411 15.9734 -1.19748 -0.219961 653.373 1924.4)" width="98.78" height="11.48" rx="5.74" ry="5.74"/>
    </g>
    <g>
     <path class="fil2" d="M1671.11 1898.07c8.22,1.51 16.01,-3.42 17.4,-11 1.39,-7.58 -4.14,-14.96 -12.36,-16.47 -6.07,-1.12 -11.91,1.28 -15.11,5.68l-57.37 -10.54 -27.32 -25.76 -24.83 -4.02 41.81 40.82 66.2 12.16c1.84,4.53 6.12,8.12 11.58,9.13z"/>
     <rect class="fil2" transform="matrix(1.96243 0.360474 0.195709 -1.06545 1382.25 1811.5)" width="98.78" height="11.48" rx="5.74" ry="5.74"/>
     <rect class="fil2" transform="matrix(1.16086 1.48955 -0.985131 0.59785 1287.82 1663.61)" width="98.78" height="11.48" rx="5.74" ry="5.74"/>
     <rect class="fil2" transform="matrix(1.16086 1.48955 -0.985131 0.59785 1182.18 1528.1)" width="98.78" height="11.48" rx="5.74" ry="5.74"/>
     <rect class="fil2" transform="matrix(-17.9528 -3.29769 0.195709 -1.06545 1188.15 1543.43)" width="98.78" height="11.48" rx="5.74" ry="5.74"/>
    </g>
    <g>
     <path class="fil2" d="M1677.61 2372.74c6.76,-4.1 8.15,-12.67 3.11,-19.14 -5.04,-6.47 -14.61,-8.39 -21.37,-4.29 -5,3.03 -7.06,8.51 -5.76,13.77l-47.2 28.64 -38.85 -1.63 -20 12.79 60.55 3.54 54.46 -33.05c4.82,2.17 10.56,2.1 15.05,-0.63z"/>
     <rect class="fil2" transform="matrix(1.61444 -0.97976 -0.708356 -0.908922 1413.52 2492.27)" width="98.78" height="11.48" rx="5.74" ry="5.74"/>
     <rect class="fil2" transform="matrix(1.96243 0.360474 -0.195709 1.06545 1232.79 2443.27)" width="98.78" height="11.48" rx="5.74" ry="5.74"/>
     <rect class="fil2" transform="matrix(1.96243 0.360474 -0.195709 1.06545 1054.24 2410.5)" width="98.78" height="11.48" rx="5.74" ry="5.74"/>
     <rect class="fil2" transform="matrix(-14.7692 8.96307 -0.708356 -0.908922 1070.38 2417.99)" width="98.78" height="11.48" rx="5.74" ry="5.74"/>
    </g>
    <g>
     <path class="fil2" d="M1173.95 1714.52c1.34,-7.31 -4.48,-14.51 -13,-16.07 -8.52,-1.57 -16.52,3.09 -17.87,10.4 -0.99,5.4 1.93,10.74 6.96,13.8l-9.38 51.04 -27.62 23.45 -3.46 22.12 43.83 -35.82 10.82 -58.9c4.98,-1.46 8.81,-5.15 9.71,-10.01z"/>
     <rect class="fil2" transform="matrix(0.32073 -1.74606 -1.19748 -0.219961 1089.32 1970.14)" width="98.78" height="11.48" rx="5.74" ry="5.74"/>
     <rect class="fil2" transform="matrix(1.61444 -0.97976 0.708356 0.908922 928.172 2048.72)" width="98.78" height="11.48" rx="5.74" ry="5.74"/>
     <rect class="fil2" transform="matrix(1.61444 -0.97976 0.708356 0.908922 781.299 2137.89)" width="98.78" height="11.48" rx="5.74" ry="5.74"/>
     <rect class="fil2" transform="matrix(-2.93411 15.9734 -1.19748 -0.219961 798.155 2133.17)" width="98.78" height="11.48" rx="5.74" ry="5.74"/>
    </g>
    <g>
     <path class="fil2" d="M1479.43 2068.9c8.22,1.51 16.01,-3.42 17.4,-11 1.39,-7.58 -4.14,-14.96 -12.35,-16.47 -6.07,-1.11 -11.92,1.29 -15.11,5.68l-57.37 -10.54 -27.32 -25.76 -24.83 -4.02 41.81 40.82 66.2 12.16c1.84,4.53 6.12,8.12 11.58,9.13z"/>
     <rect class="fil2" transform="matrix(1.96243 0.360474 0.195709 -1.06545 1190.57 1982.32)" width="98.78" height="11.48" rx="5.74" ry="5.74"/>
     <rect class="fil2" transform="matrix(1.16086 1.48955 -0.985131 0.59785 1096.15 1834.44)" width="98.78" height="11.48" rx="5.74" ry="5.74"/>
     <rect class="fil2" transform="matrix(1.16086 1.48955 -0.985131 0.59785 990.502 1698.92)" width="98.78" height="11.48" rx="5.74" ry="5.74"/>
     <rect class="fil2" transform="matrix(-17.9528 -3.29769 0.195709 -1.06545 996.472 1714.25)" width="98.78" height="11.48" rx="5.74" ry="5.74"/>
    </g>
    <g>
     <path class="fil2" d="M1682.54 2620.19c6.76,-4.1 8.15,-12.67 3.11,-19.14 -5.04,-6.47 -14.61,-8.39 -21.37,-4.29 -5,3.03 -7.06,8.51 -5.76,13.77l-47.2 28.64 -38.85 -1.63 -20 12.79 60.56 3.54 54.46 -33.05c4.82,2.17 10.56,2.1 15.05,-0.63z"/>
     <rect class="fil2" transform="matrix(1.61444 -0.97976 -0.708356 -0.908922 1418.45 2739.72)" width="98.78" height="11.48" rx="5.74" ry="5.74"/>
     <rect class="fil2" transform="matrix(1.96243 0.360474 -0.195709 1.06545 1237.73 2690.72)" width="98.78" height="11.48" rx="5.74" ry="5.74"/>
     <rect class="fil2" transform="matrix(1.96243 0.360474 -0.195709 1.06545 1059.18 2657.94)" width="98.78" height="11.48" rx="5.74" ry="5.74"/>
     <rect class="fil2" transform="matrix(-14.7692 8.96307 -0.708356 -0.908922 1075.32 2665.44)" width="98.78" height="11.48" rx="5.74" ry="5.74"/>
    </g>
    <g>
     <path class="fil2" d="M1372.61 1893.64c1.34,-7.31 -4.48,-14.51 -13,-16.07 -8.53,-1.57 -16.52,3.09 -17.87,10.4 -0.99,5.4 1.93,10.74 6.96,13.8l-9.38 51.04 -27.62 23.45 -3.46 22.12 43.83 -35.82 10.82 -58.9c4.98,-1.46 8.81,-5.15 9.71,-10.01z"/>
     <rect class="fil2" transform="matrix(0.32073 -1.74606 -1.19748 -0.219961 1287.98 2149.26)" width="98.78" height="11.48" rx="5.74" ry="5.74"/>
     <rect class="fil2" transform="matrix(1.61444 -0.97976 0.708356 0.908922 1126.83 2227.84)" width="98.78" height="11.48" rx="5.74" ry="5.74"/>
     <rect class="fil2" transform="matrix(1.61444 -0.97976 0.708356 0.908922 979.96 2317.01)" width="98.78" height="11.48" rx="5.74" ry="5.74"/>
     <rect class="fil2" transform="matrix(-2.93411 15.9734 -1.19748 -0.219961 996.816 2312.29)" width="98.78" height="11.48" rx="5.74" ry="5.74"/>
    </g>
    <g>
     <path class="fil2" d="M1287.75 2239.72c8.22,1.51 16.01,-3.42 17.4,-11 1.39,-7.58 -4.14,-14.96 -12.35,-16.47 -6.07,-1.12 -11.91,1.28 -15.11,5.68l-57.37 -10.54 -27.32 -25.76 -24.83 -4.02 41.81 40.82 66.2 12.16c1.84,4.53 6.12,8.12 11.58,9.13z"/>
     <rect class="fil2" transform="matrix(1.96243 0.360474 0.195709 -1.06545 998.895 2153.15)" width="98.78" height="11.48" rx="5.74" ry="5.74"/>
     <rect class="fil2" transform="matrix(1.16086 1.48955 -0.985131 0.59785 904.467 2005.26)" width="98.78" height="11.48" rx="5.74" ry="5.74"/>
     <rect class="fil2" transform="matrix(1.16086 1.48955 -0.985131 0.59785 798.823 1869.75)" width="98.78" height="11.48" rx="5.74" ry="5.74"/>
     <rect class="fil2" transform="matrix(-17.9528 -3.29769 0.195709 -1.06545 804.793 1885.07)" width="98.78" height="11.48" rx="5.74" ry="5.74"/>
    </g>
    <g>
     <path class="fil2" d="M1687.48 2867.64c6.76,-4.1 8.15,-12.67 3.11,-19.14 -5.04,-6.47 -14.61,-8.39 -21.37,-4.29 -5,3.03 -7.06,8.51 -5.76,13.77l-47.2 28.64 -38.85 -1.63 -20 12.79 60.56 3.54 54.46 -33.05c4.82,2.17 10.56,2.1 15.05,-0.63z"/>
     <rect class="fil2" transform="matrix(1.61444 -0.97976 -0.708356 -0.908922 1423.39 2987.16)" width="98.78" height="11.48" rx="5.74" ry="5.74"/>
     <rect class="fil2" transform="matrix(1.96243 0.360474 -0.195709 1.06545 1242.67 2938.16)" width="98.78" height="11.48" rx="5.74" ry="5.74"/>
     <rect class="fil2" transform="matrix(1.96243 0.360474 -0.195709 1.06545 1064.11 2905.39)" width="98.78" height="11.48" rx="5.74" ry="5.74"/>
     <rect class="fil2" transform="matrix(-14.7692 8.96307 -0.708356 -0.908922 1080.25 2912.89)" width="98.78" height="11.48" rx="5.74" ry="5.74"/>
    </g>
    <g>
     <path class="fil2" d="M1571.27 2072.76c1.34,-7.31 -4.48,-14.51 -13.01,-16.07 -8.52,-1.57 -16.52,3.09 -17.87,10.4 -0.99,5.4 1.93,10.75 6.97,13.8l-9.38 51.04 -27.61 23.45 -3.46 22.12 43.83 -35.82 10.82 -58.9c4.98,-1.46 8.81,-5.15 9.71,-10.01z"/>
     <rect class="fil2" transform="matrix(0.32073 -1.74606 -1.19748 -0.219961 1486.64 2328.37)" width="98.78" height="11.48" rx="5.74" ry="5.74"/>
     <rect class="fil2" transform="matrix(1.61444 -0.97976 0.708356 0.908922 1325.49 2406.96)" width="98.78" height="11.48" rx="5.74" ry="5.74"/>
     <rect class="fil2" transform="matrix(1.61444 -0.97976 0.708356 0.908922 1178.62 2496.12)" width="98.78" height="11.48" rx="5.74" ry="5.74"/>
     <rect class="fil2" transform="matrix(-2.93411 15.9734 -1.19748 -0.219961 1195.48 2491.4)" width="98.78" height="11.48" rx="5.74" ry="5.74"/>
    </g>
    <g>
     <path class="fil2" d="M1096.07 2410.54c8.22,1.51 16.01,-3.42 17.4,-11 1.39,-7.58 -4.14,-14.96 -12.35,-16.47 -6.07,-1.12 -11.91,1.28 -15.11,5.68l-57.37 -10.54 -27.32 -25.76 -24.83 -4.02 41.81 40.82 66.2 12.16c1.84,4.53 6.12,8.12 11.58,9.13z"/>
     <rect class="fil2" transform="matrix(1.96243 0.360474 0.195709 -1.06545 807.217 2323.97)" width="98.78" height="11.48" rx="5.74" ry="5.74"/>
     <rect class="fil2" transform="matrix(1.16086 1.48955 -0.985131 0.59785 712.789 2176.08)" width="98.78" height="11.48" rx="5.74" ry="5.74"/>
     <rect class="fil2" transform="matrix(1.16086 1.48955 -0.985131 0.59785 607.145 2040.57)" width="98.78" height="11.48" rx="5.74" ry="5.74"/>
     <rect class="fil2" transform="matrix(-17.9528 -3.29769 0.195709 -1.06545 613.115 2055.89)" width="98.78" height="11.48" rx="5.74" ry="5.74"/>
    </g>
    <g>
     <path class="fil2" d="M1692.42 3115.08c6.76,-4.1 8.15,-12.67 3.11,-19.15 -5.04,-6.47 -14.61,-8.39 -21.37,-4.29 -5,3.03 -7.06,8.51 -5.76,13.77l-47.2 28.64 -38.85 -1.63 -20 12.79 60.56 3.54 54.46 -33.05c4.82,2.17 10.56,2.1 15.05,-0.63z"/>
     <rect class="fil2" transform="matrix(1.61444 -0.97976 -0.708356 -0.908922 1428.33 3234.61)" width="98.78" height="11.48" rx="5.74" ry="5.74"/>
     <rect class="fil2" transform="matrix(1.96243 0.360474 -0.195709 1.06545 1247.61 3185.61)" width="98.78" height="11.48" rx="5.74" ry="5.74"/>
     <rect class="fil2" transform="matrix(1.96243 0.360474 -0.195709 1.06545 1069.05 3152.83)" width="98.78" height="11.48" rx="5.74" ry="5.74"/>
     <rect class="fil2" transform="matrix(-14.7692 8.96307 -0.708356 -0.908922 1085.19 3160.33)" width="98.78" height="11.48" rx="5.74" ry="5.74"/>
    </g>
    <g>
     <path class="fil2" d="M1769.93 2251.88c1.34,-7.31 -4.48,-14.51 -13,-16.07 -8.52,-1.57 -16.52,3.09 -17.87,10.4 -0.99,5.4 1.93,10.74 6.96,13.8l-9.38 51.04 -27.62 23.45 -3.46 22.12 43.83 -35.82 10.82 -58.9c4.98,-1.46 8.81,-5.15 9.71,-10.01z"/>
     <rect class="fil2" transform="matrix(0.32073 -1.74606 -1.19748 -0.219961 1685.31 2507.49)" width="98.78" height="11.48" rx="5.74" ry="5.74"/>
     <rect class="fil2" transform="matrix(1.61444 -0.97976 0.708356 0.908922 1524.15 2586.08)" width="98.78" height="11.48" rx="5.74" ry="5.74"/>
     <rect class="fil2" transform="matrix(1.61444 -0.97976 0.708356 0.908922 1377.28 2675.24)" width="98.78" height="11.48" rx="5.74" ry="5.74"/>
     <rect class="fil2" transform="matrix(-2.93411 15.9734 -1.19748 -0.219961 1394.14 2670.52)" width="98.78" height="11.48" rx="5.74" ry="5.74"/>
    </g>
    <g>
     <path class="fil2" d="M904.39 2581.37c8.22,1.51 16.01,-3.42 17.4,-11 1.39,-7.58 -4.14,-14.96 -12.35,-16.47 -6.07,-1.11 -11.91,1.29 -15.11,5.68l-57.37 -10.54 -27.32 -25.76 -24.83 -4.02 41.81 40.82 66.2 12.16c1.84,4.53 6.12,8.12 11.58,9.13z"/>
     <rect class="fil2" transform="matrix(1.96243 0.360474 0.195709 -1.06545 615.538 2494.79)" width="98.78" height="11.48" rx="5.74" ry="5.74"/>
     <rect class="fil2" transform="matrix(1.16086 1.48955 -0.985131 0.59785 521.11 2346.91)" width="98.78" height="11.48" rx="5.74" ry="5.74"/>
     <rect class="fil2" transform="matrix(1.16086 1.48955 -0.985131 0.59785 415.466 2211.39)" width="98.78" height="11.48" rx="5.74" ry="5.74"/>
     <rect class="fil2" transform="matrix(-17.9528 -3.29769 0.195709 -1.06545 421.436 2226.72)" width="98.78" height="11.48" rx="5.74" ry="5.74"/>
    </g>
    <g>
     <path class="fil2" d="M1697.35 3362.53c6.76,-4.1 8.15,-12.68 3.11,-19.15 -5.04,-6.47 -14.61,-8.39 -21.37,-4.29 -5,3.03 -7.06,8.51 -5.76,13.77l-47.2 28.64 -38.85 -1.63 -20 12.79 60.56 3.54 54.46 -33.05c4.82,2.17 10.56,2.1 15.05,-0.63z"/>
     <rect class="fil2" transform="matrix(1.61444 -0.97976 -0.708356 -0.908922 1433.27 3482.05)" width="98.78" height="11.48" rx="5.74" ry="5.74"/>
     <rect class="fil2" transform="matrix(1.96243 0.360474 -0.195709 1.06545 1252.54 3433.05)" width="98.78" height="11.48" rx="5.74" ry="5.74"/>
     <rect class="fil2" transform="matrix(1.96243 0.360474 -0.195709 1.06545 1073.99 3400.28)" width="98.78" height="11.48" rx="5.74" ry="5.74"/>
     <rect class="fil2" transform="matrix(-14.7692 8.96307 -0.708356 -0.908922 1090.13 3407.78)" width="98.78" height="11.48" rx="5.74" ry="5.74"/>
    </g>
    <g>
     <path class="fil2" d="M1968.59 2431c1.34,-7.31 -4.48,-14.51 -13,-16.07 -8.53,-1.57 -16.52,3.09 -17.87,10.4 -0.99,5.4 1.93,10.74 6.96,13.8l-9.38 51.04 -27.62 23.45 -3.46 22.12 43.83 -35.82 10.82 -58.9c4.98,-1.46 8.81,-5.15 9.71,-10.01z"/>
     <rect class="fil2" transform="matrix(0.32073 -1.74606 -1.19748 -0.219961 1883.97 2686.61)" width="98.78" height="11.48" rx="5.74" ry="5.74"/>
     <rect class="fil2" transform="matrix(1.61444 -0.97976 0.708356 0.908922 1722.82 2765.2)" width="98.78" height="11.48" rx="5.74" ry="5.74"/>
     <rect class="fil2" transform="matrix(1.61444 -0.97976 0.708356 0.908922 1575.94 2854.36)" width="98.78" height="11.48" rx="5.74" ry="5.74"/>
     <rect class="fil2" transform="matrix(-2.93411 15.9734 -1.19748 -0.219961 1592.8 2849.64)" width="98.78" height="11.48" rx="5.74" ry="5.74"/>
    </g>
    <g>
     <path class="fil2" d="M712.72 2752.19c8.22,1.51 16.01,-3.42 17.4,-11 1.39,-7.58 -4.14,-14.96 -12.35,-16.47 -6.07,-1.12 -11.91,1.28 -15.11,5.68l-57.37 -10.54 -27.32 -25.76 -24.83 -4.02 41.81 40.82 66.2 12.16c1.84,4.53 6.12,8.12 11.58,9.13z"/>
     <rect class="fil2" transform="matrix(1.96243 0.360474 0.195709 -1.06545 423.86 2665.61)" width="98.78" height="11.48" rx="5.74" ry="5.74"/>
     <rect class="fil2" transform="matrix(1.16086 1.48955 -0.985131 0.59785 329.432 2517.73)" width="98.78" height="11.48" rx="5.74" ry="5.74"/>
     <rect class="fil2" transform="matrix(1.16086 1.48955 -0.985131 0.59785 223.788 2382.22)" width="98.78" height="11.48" rx="5.74" ry="5.74"/>
     <rect class="fil2" transform="matrix(-17.9528 -3.29769 0.195709 -1.06545 229.757 2397.54)" width="98.78" height="11.48" rx="5.74" ry="5.74"/>
    </g>
    <g>
     <path class="fil2" d="M1702.29 3609.97c6.76,-4.1 8.15,-12.68 3.11,-19.15 -5.04,-6.47 -14.61,-8.39 -21.37,-4.29 -5,3.03 -7.06,8.51 -5.76,13.77l-47.2 28.64 -38.85 -1.63 -20 12.79 60.55 3.54 54.46 -33.05c4.82,2.17 10.56,2.1 15.05,-0.63z"/>
     <rect class="fil2" transform="matrix(1.61444 -0.97976 -0.708356 -0.908922 1438.2 3729.5)" width="98.78" height="11.48" rx="5.74" ry="5.74"/>
     <rect class="fil2" transform="matrix(1.96243 0.360474 -0.195709 1.06545 1257.48 3680.5)" width="98.78" height="11.48" rx="5.74" ry="5.74"/>
     <rect class="fil2" transform="matrix(1.96243 0.360474 -0.195709 1.06545 1078.92 3647.73)" width="98.78" height="11.48" rx="5.74" ry="5.74"/>
     <rect class="fil2" transform="matrix(-14.7692 8.96307 -0.708356 -0.908922 1095.07 3655.22)" width="98.78" height="11.48" rx="5.74" ry="5.74"/>
    </g>
    <g>
     <path class="fil2" d="M2167.25 2610.12c1.34,-7.31 -4.48,-14.51 -13.01,-16.07 -8.52,-1.57 -16.52,3.09 -17.87,10.4 -0.99,5.4 1.93,10.74 6.97,13.8l-9.38 51.04 -27.61 23.45 -3.46 22.12 43.83 -35.82 10.82 -58.9c4.98,-1.46 8.81,-5.15 9.71,-10.01z"/>
     <rect class="fil2" transform="matrix(0.32073 -1.74606 -1.19748 -0.219961 2082.63 2865.73)" width="98.78" height="11.48" rx="5.74" ry="5.74"/>
     <rect class="fil2" transform="matrix(1.61444 -0.97976 0.708356 0.908922 1921.48 2944.31)" width="98.78" height="11.48" rx="5.74" ry="5.74"/>
     <rect class="fil2" transform="matrix(1.61444 -0.97976 0.708356 0.908922 1774.6 3033.48)" width="98.78" height="11.48" rx="5.74" ry="5.74"/>
     <rect class="fil2" transform="matrix(-2.93411 15.9734 -1.19748 -0.219961 1791.46 3028.76)" width="98.78" height="11.48" rx="5.74" ry="5.74"/>
    </g>
    <g>
     <path class="fil2" d="M521.04 2923.01c8.22,1.51 16.01,-3.42 17.4,-11 1.39,-7.58 -4.14,-14.96 -12.35,-16.47 -6.07,-1.12 -11.91,1.28 -15.11,5.68l-57.37 -10.54 -27.32 -25.76 -24.83 -4.02 41.81 40.82 66.2 12.16c1.84,4.53 6.12,8.12 11.58,9.13z"/>
     <rect class="fil2" transform="matrix(1.96243 0.360474 0.195709 -1.06545 232.181 2836.44)" width="98.78" height="11.48" rx="5.74" ry="5.74"/>
     <rect class="fil2" transform="matrix(1.16086 1.48955 -0.985131 0.59785 137.753 2688.55)" width="98.78" height="11.48" rx="5.74" ry="5.74"/>
     <rect class="fil2" transform="matrix(1.16086 1.48955 -0.985131 0.59785 32.1091 2553.04)" width="98.78" height="11.48" rx="5.74" ry="5.74"/>
     <rect class="fil2" transform="matrix(-17.9528 -3.29769 0.195709 -1.06545 38.0789 2568.36)" width="98.78" height="11.48" rx="5.74" ry="5.74"/>
    </g>
    <g>
     <path class="fil2" d="M1707.23 3857.42c6.76,-4.1 8.15,-12.68 3.11,-19.15 -5.04,-6.47 -14.61,-8.39 -21.37,-4.29 -5,3.03 -7.06,8.51 -5.76,13.77l-47.2 28.64 -38.85 -1.63 -20 12.79 60.55 3.54 54.46 -33.05c4.82,2.17 10.56,2.1 15.05,-0.63z"/>
     <rect class="fil2" transform="matrix(1.61444 -0.97976 -0.708356 -0.908922 1443.14 3976.95)" width="98.78" height="11.48" rx="5.74" ry="5.74"/>
     <rect class="fil2" transform="matrix(1.96243 0.360474 -0.195709 1.06545 1262.42 3927.94)" width="98.78" height="11.48" rx="5.74" ry="5.74"/>
     <rect class="fil2" transform="matrix(1.96243 0.360474 -0.195709 1.06545 1083.86 3895.17)" width="98.78" height="11.48" rx="5.74" ry="5.74"/>
     <rect class="fil2" transform="matrix(-14.7692 8.96307 -0.708356 -0.908922 1100 3902.67)" width="98.78" height="11.48" rx="5.74" ry="5.74"/>
    </g>
    <g>
     <path class="fil2" d="M2365.91 2789.23c1.34,-7.31 -4.48,-14.51 -13,-16.07 -8.52,-1.57 -16.52,3.09 -17.87,10.4 -0.99,5.4 1.93,10.74 6.96,13.8l-9.38 51.04 -27.62 23.45 -3.46 22.12 43.83 -35.82 10.82 -58.9c4.98,-1.46 8.81,-5.15 9.71,-10.01z"/>
     <rect class="fil2" transform="matrix(0.32073 -1.74606 -1.19748 -0.219961 2281.29 3044.85)" width="98.78" height="11.48" rx="5.74" ry="5.74"/>
     <rect class="fil2" transform="matrix(1.61444 -0.97976 0.708356 0.908922 2120.14 3123.43)" width="98.78" height="11.48" rx="5.74" ry="5.74"/>
     <rect class="fil2" transform="matrix(1.61444 -0.97976 0.708356 0.908922 1973.26 3212.6)" width="98.78" height="11.48" rx="5.74" ry="5.74"/>
     <rect class="fil2" transform="matrix(-2.93411 15.9734 -1.19748 -0.219961 1990.12 3207.88)" width="98.78" height="11.48" rx="5.74" ry="5.74"/>
    </g>
    <g>
     <path class="fil2" d="M2306.87 1701.42c-8.22,-1.51 -16.01,3.42 -17.4,11 -1.39,7.58 4.14,14.96 12.35,16.47 6.07,1.12 11.91,-1.28 15.11,-5.68l57.37 10.54 27.32 25.76 24.83 4.02 -41.81 -40.82 -66.2 -12.16c-1.84,-4.53 -6.12,-8.12 -11.58,-9.13z"/>
     <rect class="fil2" transform="matrix(-1.96243 -0.360474 -0.195709 1.06545 2595.72 1788)" width="98.78" height="11.48" rx="5.74" ry="5.74"/>
     <rect class="fil2" transform="matrix(-1.16086 -1.48955 0.985131 -0.59785 2690.15 1935.88)" width="98.78" height="11.48" rx="5.74" ry="5.74"/>
     <rect class="fil2" transform="matrix(-1.16086 -1.48955 0.985131 -0.59785 2795.8 2071.39)" width="98.78" height="11.48" rx="5.74" ry="5.74"/>
     <rect class="fil2" transform="matrix(17.9528 3.29769 -0.195709 1.06545 2789.83 2056.07)" width="98.78" height="11.48" rx="5.74" ry="5.74"/>
    </g>
    <g>
     <path class="fil2" d="M1953.23 1824.48c-6.76,4.1 -8.15,12.67 -3.11,19.14 5.04,6.47 14.61,8.39 21.37,4.29 5,-3.03 7.06,-8.51 5.76,-13.77l47.2 -28.64 38.85 1.63 20 -12.79 -60.56 -3.54 -54.46 33.05c-4.82,-2.17 -10.56,-2.1 -15.05,0.63z"/>
     <rect class="fil2" transform="matrix(-1.61444 0.97976 0.708356 0.908922 2217.32 1704.95)" width="98.78" height="11.48" rx="5.74" ry="5.74"/>
     <rect class="fil2" transform="matrix(-1.96243 -0.360474 0.195709 -1.06545 2398.04 1753.95)" width="98.78" height="11.48" rx="5.74" ry="5.74"/>
     <rect class="fil2" transform="matrix(-1.96243 -0.360474 0.195709 -1.06545 2576.59 1786.73)" width="98.78" height="11.48" rx="5.74" ry="5.74"/>
     <rect class="fil2" transform="matrix(14.7692 -8.96307 0.708356 0.908922 2560.45 1779.23)" width="98.78" height="11.48" rx="5.74" ry="5.74"/>
    </g>
    <g>
     <path class="fil2" d="M927.97 1135.82c-1.34,7.31 4.48,14.51 13,16.07 8.53,1.57 16.52,-3.09 17.87,-10.4 0.99,-5.4 -1.93,-10.74 -6.97,-13.8l9.38 -51.04 27.62 -23.45 3.46 -22.12 -43.83 35.82 -10.82 58.9c-4.98,1.46 -8.81,5.15 -9.71,10.01z"/>
     <rect class="fil2" transform="matrix(-0.32073 1.74606 1.19748 0.219961 1012.59 880.203)" width="98.78" height="11.48" rx="5.74" ry="5.74"/>
     <rect class="fil2" transform="matrix(-1.61444 0.97976 -0.708356 -0.908922 1173.74 801.618)" width="98.78" height="11.48" rx="5.74" ry="5.74"/>
     <rect class="fil2" transform="matrix(-1.61444 0.97976 -0.708356 -0.908922 1320.62 712.453)" width="98.78" height="11.48" rx="5.74" ry="5.74"/>
     <rect class="fil2" transform="matrix(2.93411 -15.9734 1.19748 0.219961 1303.76 717.173)" width="98.78" height="11.48" rx="5.74" ry="5.74"/>
    </g>
    <g>
     <path class="fil2" d="M2561.3 1582.98c-8.22,-1.51 -16.01,3.42 -17.4,11 -1.39,7.58 4.14,14.96 12.35,16.47 6.07,1.12 11.91,-1.28 15.11,-5.68l57.37 10.54 27.32 25.76 24.83 4.02 -41.81 -40.82 -66.2 -12.16c-1.84,-4.53 -6.12,-8.12 -11.58,-9.13z"/>
     <rect class="fil2" transform="matrix(-1.96243 -0.360474 -0.195709 1.06545 2850.15 1669.56)" width="98.78" height="11.48" rx="5.74" ry="5.74"/>
     <rect class="fil2" transform="matrix(-1.16086 -1.48955 0.985131 -0.59785 2944.58 1817.45)" width="98.78" height="11.48" rx="5.74" ry="5.74"/>
     <rect class="fil2" transform="matrix(-1.16086 -1.48955 0.985131 -0.59785 3050.22 1952.96)" width="98.78" height="11.48" rx="5.74" ry="5.74"/>
     <rect class="fil2" transform="matrix(17.9528 3.29769 -0.195709 1.06545 3044.25 1937.63)" width="98.78" height="11.48" rx="5.74" ry="5.74"/>
    </g>
    <g>
     <path class="fil2" d="M4902.75 2406.74c8.59,1.58 16.74,-3.6 18.2,-11.56 1.46,-7.96 -4.32,-15.7 -12.9,-17.28 -6.35,-1.17 -12.46,1.36 -15.8,5.97l-59.97 -11.02 -28.55 -27.02 -25.96 -4.2 43.68 42.82 69.2 12.71c1.92,4.75 6.39,8.52 12.1,9.57z"/>
     <rect class="fil2" transform="matrix(2.05147 0.376829 0.205478 -1.11863 4600.82 2316.09)" width="98.78" height="11.48" rx="5.74" ry="5.74"/>
     <rect class="fil2" transform="matrix(1.2125 1.56274 -1.03046 0.628399 4502.21 2160.92)" width="98.78" height="11.48" rx="5.74" ry="5.74"/>
     <rect class="fil2" transform="matrix(1.2125 1.56274 -1.03046 0.628399 4391.87 2018.75)" width="98.78" height="11.48" rx="5.74" ry="5.74"/>
     <rect class="fil2" transform="matrix(-18.7673 -3.44731 0.205478 -1.11863 4398.1 2034.83)" width="98.78" height="11.48" rx="5.74" ry="5.74"/>
    </g>
    <g>
     <path class="fil2" d="M4702.21 2586.22c8.59,1.58 16.74,-3.6 18.2,-11.56 1.46,-7.96 -4.32,-15.7 -12.9,-17.28 -6.35,-1.17 -12.46,1.36 -15.8,5.97l-59.97 -11.02 -28.55 -27.02 -25.96 -4.2 43.68 42.82 69.2 12.71c1.92,4.75 6.39,8.52 12.1,9.57z"/>
     <rect class="fil2" transform="matrix(2.05147 0.376829 0.205478 -1.11863 4400.28 2495.57)" width="98.78" height="11.48" rx="5.74" ry="5.74"/>
     <rect class="fil2" transform="matrix(1.2125 1.56274 -1.03046 0.628399 4301.67 2340.4)" width="98.78" height="11.48" rx="5.74" ry="5.74"/>
     <rect class="fil2" transform="matrix(1.2125 1.56274 -1.03046 0.628399 4191.33 2198.23)" width="98.78" height="11.48" rx="5.74" ry="5.74"/>
     <rect class="fil2" transform="matrix(-18.7673 -3.44731 0.205478 -1.11863 4197.56 2214.31)" width="98.78" height="11.48" rx="5.74" ry="5.74"/>
    </g>
    <g>
     <path class="fil2" d="M4501.67 2765.7c8.59,1.58 16.74,-3.6 18.2,-11.56 1.46,-7.96 -4.32,-15.7 -12.9,-17.28 -6.35,-1.17 -12.46,1.36 -15.8,5.97l-59.97 -11.02 -28.55 -27.02 -25.96 -4.2 43.68 42.82 69.2 12.71c1.92,4.75 6.39,8.52 12.1,9.57z"/>
     <rect class="fil2" transform="matrix(2.05147 0.376829 0.205478 -1.11863 4199.74 2675.05)" width="98.78" height="11.48" rx="5.74" ry="5.74"/>
     <rect class="fil2" transform="matrix(1.2125 1.56274 -1.03046 0.628399 4101.13 2519.88)" width="98.78" height="11.48" rx="5.74" ry="5.74"/>
     <rect class="fil2" transform="matrix(1.2125 1.56274 -1.03046 0.628399 3990.79 2377.71)" width="98.78" height="11.48" rx="5.74" ry="5.74"/>
     <rect class="fil2" transform="matrix(-18.7673 -3.44731 0.205478 -1.11863 3997.01 2393.79)" width="98.78" height="11.48" rx="5.74" ry="5.74"/>
    </g>
    <g>
     <path class="fil2" d="M4301.13 2945.18c8.59,1.58 16.74,-3.6 18.2,-11.56 1.46,-7.96 -4.32,-15.7 -12.9,-17.28 -6.35,-1.17 -12.46,1.36 -15.8,5.97l-59.97 -11.02 -28.55 -27.02 -25.96 -4.2 43.68 42.82 69.2 12.71c1.92,4.75 6.39,8.52 12.1,9.57z"/>
     <rect class="fil2" transform="matrix(2.05147 0.376829 0.205478 -1.11863 3999.19 2854.53)" width="98.78" height="11.48" rx="5.74" ry="5.74"/>
     <rect class="fil2" transform="matrix(1.2125 1.56274 -1.03046 0.628399 3900.59 2699.36)" width="98.78" height="11.48" rx="5.74" ry="5.74"/>
     <rect class="fil2" transform="matrix(1.2125 1.56274 -1.03046 0.628399 3790.24 2557.19)" width="98.78" height="11.48" rx="5.74" ry="5.74"/>
     <rect class="fil2" transform="matrix(-18.7673 -3.44731 0.205478 -1.11863 3796.47 2573.27)" width="98.78" height="11.48" rx="5.74" ry="5.74"/>
    </g>
    <g>
     <path class="fil2" d="M4100.59 3124.66c8.59,1.58 16.74,-3.6 18.2,-11.56 1.46,-7.96 -4.32,-15.7 -12.9,-17.28 -6.35,-1.17 -12.46,1.36 -15.8,5.97l-59.97 -11.02 -28.55 -27.02 -25.96 -4.2 43.68 42.82 69.2 12.71c1.92,4.75 6.39,8.52 12.1,9.57z"/>
     <rect class="fil2" transform="matrix(2.05147 0.376829 0.205478 -1.11863 3798.65 3034.01)" width="98.78" height="11.48" rx="5.74" ry="5.74"/>
     <rect class="fil2" transform="matrix(1.2125 1.56274 -1.03046 0.628399 3700.05 2878.84)" width="98.78" height="11.48" rx="5.74" ry="5.74"/>
     <rect class="fil2" transform="matrix(1.2125 1.56274 -1.03046 0.628399 3589.7 2736.67)" width="98.78" height="11.48" rx="5.74" ry="5.74"/>
     <rect class="fil2" transform="matrix(-18.7673 -3.44731 0.205478 -1.11863 3595.93 2752.75)" width="98.78" height="11.48" rx="5.74" ry="5.74"/>
    </g>
   </g>
  </g>
  <path class="fil3 str0" d="M3324.91 813.38l-1119.96 0c0,0 0,-105.25 0,-140 0,-77.32 -62.68,-140 -140,-140 -77.32,0 -140,62.68 -140,140 0,77.32 0,140 0,140l-1119.96 0c-154.63,0 -279.99,125.36 -279.99,279.99l0 279.99c0,154.63 125.36,279.99 279.99,279.99l0 2519.91c0,154.63 125.36,279.99 279.99,279.99l1959.93 0c154.63,0 279.99,-125.36 279.99,-279.99l0 -2519.91c154.63,0 279.99,-125.36 279.99,-279.99l0 -279.99c0,-154.63 -125.36,-279.99 -279.99,-279.99zm-279.99 3219.89c0,77.32 -62.68,140 -140,140l-1679.94 0c-77.32,0 -140,-62.68 -140,-140l0 -2379.92 279.99 0 0 2099.93c0,77.32 62.68,140 140,140 77.32,0 140,-62.68 140,-140l1.69 -2099.93 278.3 0 0 2099.93c0,77.32 62.68,140 140,140 77.32,0 140,-62.68 140,-140l1.69 -2099.93 279.99 0 -1.69 2099.93c0,77.32 62.68,140 139.99,140 77.32,0 140,-62.68 140,-140l-0 -2099.93 279.99 0 0 2379.92zm279.99 -2729.9c0,38.66 -31.34,70 -70,70l-2379.92 0c-38.66,0 -70,-31.34 -70,-70l0 -140c0,-38.66 31.34,-70 70,-70l2379.92 -0c38.66,0 70,31.34 70,70l0 140z"/>
 </g>
</svg>
