<?xml version="1.0" encoding="UTF-8"?>
<!DOCTYPE svg PUBLIC "-//W3C//DTD SVG 1.1//EN" "http://www.w3.org/Graphics/SVG/1.1/DTD/svg11.dtd">
<!-- Creator: CorelDRAW 2018 (64-Bit Evaluation Version) -->
<svg xmlns="http://www.w3.org/2000/svg" xml:space="preserve" width="117.25mm" height="107.568mm" version="1.1" style="shape-rendering:geometricPrecision; text-rendering:geometricPrecision; image-rendering:optimizeQuality; fill-rule:evenodd; clip-rule:evenodd"
viewBox="0 0 12477.76 11447.43"
 xmlns:xlink="http://www.w3.org/1999/xlink">
 <defs>
  <style type="text/css">
   <![CDATA[
    .str0 {stroke:#00CCFF;stroke-width:150.17;stroke-miterlimit:22.9256}
    .fil3 {fill:none}
    .fil0 {fill:#FEFEFE}
    .fil1 {fill:#002444}
    .fil2 {fill:#00CCFF}
   ]]>
  </style>
   <clipPath id="id0">
    <path d="M5460.38 9466.75c-219.75,-246.25 -768.43,-726.3 -1219.31,-1066.79 -1335.91,-1008.86 -1517.73,-1154.86 -2060.13,-1654.31 -999.97,-920.77 -1424.63,-1845.84 -1423.18,-3100.17 0.71,-612.31 42.45,-848.21 213.92,-1209.14 290.92,-612.34 719.46,-1067.35 1267.34,-1345.64 388.05,-197.11 579.43,-284.67 1227.44,-288.26 677.87,-3.75 820.57,75.29 1219.31,294.35 485.33,266.64 984.89,836.48 1088.15,1241.26l63.78 250.01 157.29 -344.32c888.8,-1945.75 3726.43,-1916.63 4713.94,48.36 313.27,623.36 347.67,1954.37 69.88,2704.12 -362.36,978.03 -1042.95,1723.66 -2616.27,2866.25 -1031.81,749.34 -2199.58,1883.11 -2280.87,2042.35 -94.37,184.84 -4.51,28.96 -421.28,-438.07z"/>
   </clipPath>
 </defs>
 <g id="Layer_x0020_1">
  <metadata id="CorelCorpID_0Corel-Layer"/>
  <path class="fil0" d="M6239.03 886.97c423.65,-371.43 931.72,-634.96 1490.08,-773.73 1738.06,-431.94 3563.82,400.83 4368.86,2002.75 479.45,954.04 488.42,2612.7 119.97,3607.12 -557.63,1505.07 -1756.92,2477.36 -3013.18,3389.72 -188.63,137 -372.4,280.64 -553.06,427.96 -347.51,283.38 -684.45,579.99 -1010.24,888.08 -116.55,110.22 -231.89,221.84 -343.53,337.07 -26.35,27.19 -59.1,58.04 -86.2,88.27 -216.29,361.08 -549.09,586.8 -988.1,593.07 -529.09,7.56 -826.97,-263.27 -1077.01,-687.07 -43.21,-73.23 -99.67,-142.28 -156.16,-205.58 -201.38,-225.69 -456.2,-432.82 -689.46,-625.69 -120.39,-99.55 -242.5,-197.07 -367.17,-291.22 -733.88,-554.21 -1467.3,-1101.11 -2144.87,-1725.02 -1188.12,-1094.02 -1790.84,-2306.11 -1788.95,-3935.51 0.74,-639.15 44.1,-1106.01 323.61,-1694.34 383.16,-806.51 977.6,-1463.43 1777.96,-1869.97 628.21,-319.1 1030.91,-407.28 1734.62,-411.17 746.93,-4.13 1114.54,73.53 1771.48,434.42 219.15,120.39 433.79,276.03 631.35,450.86z"/>
  <path class="fil1" d="M6054.97 1714.22c1315.57,-1782.49 4229.75,-1512.16 5281.72,581.13 398.28,792.51 398.14,2270.09 91.68,3097.21 -505.84,1365.28 -1647.4,2265.01 -2789.06,3094.12 -198.2,143.94 -391.62,295.01 -581.44,449.81 -358.92,292.68 -709.03,600.86 -1045.54,919.09 -123.2,116.51 -245.42,234.93 -363.43,356.72 -47.86,49.4 -111.62,112.25 -154.92,168.43 -98.58,181.89 -233.89,314.9 -468.73,318.25 -288.08,4.12 -396.41,-168.76 -516.46,-372.24 -64.85,-109.93 -145.06,-211.46 -229.88,-306.52 -214.14,-239.96 -510.9,-487.54 -759.18,-692.83 -127.59,-105.49 -257.19,-208.95 -389.31,-308.72 -726.87,-548.93 -1427.42,-1068.53 -2097.03,-1685.09 -1058.68,-974.84 -1584.08,-2017.6 -1582.4,-3463.79 0.64,-549.09 25.21,-922.65 261.67,-1420.35 322.62,-679.09 816.49,-1231.98 1489.62,-1573.89 537.17,-272.85 828.82,-338.33 1448.21,-341.76 654.38,-3.61 903.69,49.89 1459.67,355.33 320.3,175.97 676.76,480.55 944.78,825.11z"/>
  <path id="path2417" class="fil1" d="M5460.38 9466.75c-219.75,-246.25 -768.43,-726.3 -1219.31,-1066.79 -1335.91,-1008.86 -1517.73,-1154.86 -2060.13,-1654.31 -999.97,-920.77 -1424.63,-1845.84 -1423.18,-3100.17 0.71,-612.31 42.45,-848.21 213.92,-1209.14 290.92,-612.34 719.46,-1067.35 1267.34,-1345.64 388.05,-197.11 579.43,-284.67 1227.44,-288.26 677.87,-3.75 820.57,75.29 1219.31,294.35 485.33,266.64 984.89,836.48 1088.15,1241.26l63.78 250.01 157.29 -344.32c888.8,-1945.75 3726.43,-1916.63 4713.94,48.36 313.27,623.36 347.67,1954.37 69.88,2704.12 -362.36,978.03 -1042.95,1723.66 -2616.27,2866.25 -1031.81,749.34 -2199.58,1883.11 -2280.87,2042.35 -94.37,184.84 -4.51,28.96 -421.28,-438.07z"/>
  <g style="clip-path:url(#id0)">
   <g id="_2023404163072">
    <polygon id="1" class="fil2" points="7161.42,1240.6 7272.23,1261.08 7436.11,1196.62 7561.61,1219.75 7708.99,1353.79 7680.92,1378.57 7550.66,1260.08 7439.79,1239.85 7266.33,1299.2 7138.93,1275.65 "/>
    <polygon class="fil2" points="6182.15,734.02 6032,706.6 6042.76,747.76 6185.13,773.77 6372.13,716.91 6498.63,740.28 6523.32,705.62 6377.9,678.76 "/>
    <g>
     <path class="fil2" d="M6522.63 2912.76c-25.36,-4.66 -49.41,10.55 -53.72,33.96 -4.3,23.42 12.78,46.19 38.15,50.85 18.74,3.44 36.78,-3.97 46.64,-17.53l177.12 32.53 84.35 79.52 76.67 12.42 -129.07 -126.03 -204.38 -37.55c-5.68,-13.97 -18.89,-25.07 -35.76,-28.17z"/>
     <rect class="fil2" transform="matrix(-0.94134 -0.172912 -0.0938781 0.511075 7414.41 3180.04)" width="635.73" height="73.9" rx="36.95" ry="36.95"/>
     <rect class="fil2" transform="matrix(-0.556841 -0.714507 0.472548 -0.286777 7705.94 3636.6)" width="635.73" height="73.9" rx="36.95" ry="36.95"/>
     <rect class="fil2" transform="matrix(-0.556841 -0.714507 0.472548 -0.286777 8032.09 4054.97)" width="635.73" height="73.9" rx="36.95" ry="36.95"/>
     <rect class="fil2" transform="matrix(8.61159 1.58184 -0.0938781 0.511075 8013.66 4007.66)" width="635.73" height="73.9" rx="36.95" ry="36.95"/>
    </g>
    <g>
     <path class="fil2" d="M5972.63 3694.78c-20.87,12.65 -25.17,39.12 -9.6,59.1 15.57,19.98 45.11,25.91 65.98,13.25 15.42,-9.37 21.79,-26.26 17.78,-42.51l145.7 -88.42 119.94 5.04 61.76 -39.49 -186.95 -10.94 -168.13 102.05c-14.89,-6.69 -32.6,-6.49 -46.47,1.94z"/>
     <rect class="fil2" transform="matrix(-0.774415 0.469972 0.339785 0.435993 6787.94 3325.76)" width="635.73" height="73.9" rx="36.95" ry="36.95"/>
     <rect class="fil2" transform="matrix(-0.94134 -0.172912 0.0938781 -0.511075 7345.88 3477.04)" width="635.73" height="73.9" rx="36.95" ry="36.95"/>
     <rect class="fil2" transform="matrix(-0.94134 -0.172912 0.0938781 -0.511075 7897.14 3578.22)" width="635.73" height="73.9" rx="36.95" ry="36.95"/>
     <rect class="fil2" transform="matrix(7.08452 -4.29941 0.339785 0.435993 7847.31 3555.07)" width="635.73" height="73.9" rx="36.95" ry="36.95"/>
    </g>
    <g>
     <path class="fil2" d="M3491.91 1521.04c-4.14,22.57 13.83,44.79 40.15,49.62 26.32,4.83 51.02,-9.55 55.16,-32.12 3.06,-16.68 -5.96,-33.17 -21.5,-42.59l28.95 -157.59 85.25 -72.39 10.67 -68.28 -135.31 110.58 -33.41 181.84c-15.37,4.52 -27.21,15.91 -29.97,30.92z"/>
     <rect class="fil2" transform="matrix(-0.153848 0.837553 0.574406 0.105511 3753.17 731.884)" width="635.73" height="73.9" rx="36.95" ry="36.95"/>
     <rect class="fil2" transform="matrix(-0.774415 0.469972 -0.339785 -0.435993 4250.69 489.268)" width="635.73" height="73.9" rx="36.95" ry="36.95"/>
     <rect class="fil2" transform="matrix(-0.774415 0.469972 -0.339785 -0.435993 4704.13 213.991)" width="635.73" height="73.9" rx="36.95" ry="36.95"/>
     <rect class="fil2" transform="matrix(1.40744 -7.66213 0.574406 0.105511 4652.08 228.561)" width="635.73" height="73.9" rx="36.95" ry="36.95"/>
    </g>
    <g>
     <path class="fil2" d="M6232.79 3719.59c-25.36,-4.66 -49.42,10.55 -53.72,33.96 -4.3,23.41 12.78,46.19 38.14,50.84 18.75,3.45 36.78,-3.96 46.65,-17.52l177.1 32.53 84.36 79.52 76.67 12.42 -129.07 -126.03 -204.38 -37.55c-5.68,-13.97 -18.89,-25.07 -35.76,-28.17z"/>
     <rect class="fil2" transform="matrix(-0.94134 -0.172912 -0.0938781 0.511075 7124.57 3986.87)" width="635.73" height="73.9" rx="36.95" ry="36.95"/>
     <rect class="fil2" transform="matrix(-0.556841 -0.714507 0.472548 -0.286777 7416.1 4443.43)" width="635.73" height="73.9" rx="36.95" ry="36.95"/>
     <rect class="fil2" transform="matrix(-0.556841 -0.714507 0.472548 -0.286777 7742.25 4861.8)" width="635.73" height="73.9" rx="36.95" ry="36.95"/>
     <rect class="fil2" transform="matrix(8.61159 1.58184 -0.0938781 0.511075 7723.82 4814.49)" width="635.73" height="73.9" rx="36.95" ry="36.95"/>
    </g>
    <g>
     <path class="fil2" d="M6413.05 4472.95c-20.86,12.66 -25.16,39.12 -9.59,59.1 15.57,19.98 45.11,25.91 65.97,13.25 15.43,-9.37 21.79,-26.26 17.78,-42.51l145.71 -88.42 119.94 5.04 61.75 -39.49 -186.95 -10.93 -168.13 102.04c-14.89,-6.69 -32.6,-6.49 -46.47,1.94z"/>
     <rect class="fil2" transform="matrix(-0.774415 0.469972 0.339785 0.435993 7228.37 4103.93)" width="635.73" height="73.9" rx="36.95" ry="36.95"/>
     <rect class="fil2" transform="matrix(-0.94134 -0.172912 0.0938781 -0.511075 7786.31 4255.21)" width="635.73" height="73.9" rx="36.95" ry="36.95"/>
     <rect class="fil2" transform="matrix(-0.94134 -0.172912 0.0938781 -0.511075 8337.56 4356.39)" width="635.73" height="73.9" rx="36.95" ry="36.95"/>
     <rect class="fil2" transform="matrix(7.08452 -4.29941 0.339785 0.435993 8287.73 4333.24)" width="635.73" height="73.9" rx="36.95" ry="36.95"/>
    </g>
    <g>
     <path class="fil2" d="M4404.6 1814.7c-4.14,22.57 13.83,44.79 40.15,49.62 26.32,4.83 51.02,-9.55 55.17,-32.11 3.06,-16.69 -5.96,-33.17 -21.51,-42.6l28.95 -157.58 85.25 -72.4 10.68 -68.27 -135.32 110.57 -33.41 181.85c-15.37,4.51 -27.21,15.9 -29.97,30.9z"/>
     <rect class="fil2" transform="matrix(-0.153848 0.837553 0.574406 0.105511 4665.86 1025.56)" width="635.73" height="73.9" rx="36.95" ry="36.95"/>
     <rect class="fil2" transform="matrix(-0.774415 0.469972 -0.339785 -0.435993 5163.38 782.94)" width="635.73" height="73.9" rx="36.95" ry="36.95"/>
     <rect class="fil2" transform="matrix(-0.774415 0.469972 -0.339785 -0.435993 5616.82 507.662)" width="635.73" height="73.9" rx="36.95" ry="36.95"/>
     <rect class="fil2" transform="matrix(1.40744 -7.66213 0.574406 0.105511 5564.78 522.233)" width="635.73" height="73.9" rx="36.95" ry="36.95"/>
    </g>
    <g>
     <path class="fil2" d="M5942.96 4526.4c-25.37,-4.65 -49.42,10.56 -53.72,33.97 -4.3,23.41 12.78,46.18 38.14,50.84 18.75,3.45 36.78,-3.97 46.64,-17.53l177.12 32.53 84.36 79.53 76.65 12.42 -129.07 -126.03 -204.38 -37.55c-5.68,-13.97 -18.88,-25.08 -35.75,-28.18z"/>
     <rect class="fil2" transform="matrix(-0.94134 -0.172912 -0.0938781 0.511075 6834.73 4793.69)" width="635.73" height="73.9" rx="36.95" ry="36.95"/>
     <rect class="fil2" transform="matrix(-0.556841 -0.714507 0.472548 -0.286777 7126.26 5250.25)" width="635.73" height="73.9" rx="36.95" ry="36.95"/>
     <rect class="fil2" transform="matrix(-0.556841 -0.714507 0.472548 -0.286777 7452.41 5668.62)" width="635.73" height="73.9" rx="36.95" ry="36.95"/>
     <rect class="fil2" transform="matrix(8.61159 1.58184 -0.0938781 0.511075 7433.98 5621.31)" width="635.73" height="73.9" rx="36.95" ry="36.95"/>
    </g>
    <g>
     <path class="fil2" d="M6853.48 5251.12c-20.87,12.66 -25.17,39.12 -9.6,59.11 15.57,19.98 45.11,25.9 65.98,13.24 15.42,-9.37 21.79,-26.26 17.78,-42.51l145.7 -88.42 119.94 5.04 61.76 -39.49 -186.95 -10.93 -168.13 102.04c-14.89,-6.69 -32.6,-6.49 -46.47,1.94z"/>
     <rect class="fil2" transform="matrix(-0.774415 0.469972 0.339785 0.435993 7668.8 4882.09)" width="635.73" height="73.9" rx="36.95" ry="36.95"/>
     <rect class="fil2" transform="matrix(-0.94134 -0.172912 0.0938781 -0.511075 8226.74 5033.38)" width="635.73" height="73.9" rx="36.95" ry="36.95"/>
     <rect class="fil2" transform="matrix(-0.94134 -0.172912 0.0938781 -0.511075 8777.99 5134.56)" width="635.73" height="73.9" rx="36.95" ry="36.95"/>
     <rect class="fil2" transform="matrix(7.08452 -4.29941 0.339785 0.435993 8728.16 5111.41)" width="635.73" height="73.9" rx="36.95" ry="36.95"/>
    </g>
    <g>
     <path class="fil2" d="M5317.31 2108.38c-4.15,22.56 13.83,44.78 40.14,49.62 26.32,4.83 51.03,-9.55 55.17,-32.12 3.06,-16.69 -5.96,-33.17 -21.51,-42.59l28.95 -157.59 85.26 -72.39 10.67 -68.28 -135.32 110.58 -33.41 181.84c-15.36,4.52 -27.2,15.91 -29.96,30.92z"/>
     <rect class="fil2" transform="matrix(-0.153848 0.837553 0.574406 0.105511 5578.56 1319.23)" width="635.73" height="73.9" rx="36.95" ry="36.95"/>
     <rect class="fil2" transform="matrix(-0.774415 0.469972 -0.339785 -0.435993 6076.08 1076.61)" width="635.73" height="73.9" rx="36.95" ry="36.95"/>
     <rect class="fil2" transform="matrix(-0.774415 0.469972 -0.339785 -0.435993 6529.52 801.334)" width="635.73" height="73.9" rx="36.95" ry="36.95"/>
     <rect class="fil2" transform="matrix(1.40744 -7.66213 0.574406 0.105511 6477.48 815.904)" width="635.73" height="73.9" rx="36.95" ry="36.95"/>
    </g>
    <g>
     <path class="fil2" d="M5653.11 5333.23c-25.36,-4.66 -49.41,10.55 -53.72,33.97 -4.3,23.41 12.78,46.18 38.15,50.84 18.74,3.45 36.78,-3.97 46.64,-17.53l177.12 32.53 84.35 79.53 76.67 12.42 -129.07 -126.03 -204.38 -37.55c-5.68,-13.98 -18.89,-25.08 -35.76,-28.18z"/>
     <rect class="fil2" transform="matrix(-0.94134 -0.172912 -0.0938781 0.511075 6544.89 5600.51)" width="635.73" height="73.9" rx="36.95" ry="36.95"/>
     <rect class="fil2" transform="matrix(-0.556841 -0.714507 0.472548 -0.286777 6836.42 6057.08)" width="635.73" height="73.9" rx="36.95" ry="36.95"/>
     <rect class="fil2" transform="matrix(-0.556841 -0.714507 0.472548 -0.286777 7162.57 6475.44)" width="635.73" height="73.9" rx="36.95" ry="36.95"/>
     <rect class="fil2" transform="matrix(8.61159 1.58184 -0.0938781 0.511075 7144.14 6428.14)" width="635.73" height="73.9" rx="36.95" ry="36.95"/>
    </g>
    <g>
     <path class="fil2" d="M7293.9 6029.28c-20.86,12.66 -25.16,39.13 -9.59,59.11 15.57,19.98 45.11,25.9 65.97,13.24 15.43,-9.37 21.79,-26.26 17.78,-42.51l145.71 -88.42 119.94 5.04 61.75 -39.49 -186.95 -10.93 -168.13 102.04c-14.89,-6.69 -32.6,-6.49 -46.47,1.94z"/>
     <rect class="fil2" transform="matrix(-0.774415 0.469972 0.339785 0.435993 8109.22 5660.26)" width="635.73" height="73.9" rx="36.95" ry="36.95"/>
     <rect class="fil2" transform="matrix(-0.94134 -0.172912 0.0938781 -0.511075 8667.16 5811.55)" width="635.73" height="73.9" rx="36.95" ry="36.95"/>
     <rect class="fil2" transform="matrix(-0.94134 -0.172912 0.0938781 -0.511075 9218.42 5912.73)" width="635.73" height="73.9" rx="36.95" ry="36.95"/>
     <rect class="fil2" transform="matrix(7.08452 -4.29941 0.339785 0.435993 9168.59 5889.58)" width="635.73" height="73.9" rx="36.95" ry="36.95"/>
    </g>
    <g>
     <path class="fil2" d="M6230 2402.05c-4.14,22.57 13.83,44.79 40.15,49.62 26.32,4.83 51.02,-9.55 55.16,-32.12 3.06,-16.68 -5.96,-33.17 -21.5,-42.59l28.95 -157.59 85.25 -72.39 10.67 -68.28 -135.31 110.58 -33.41 181.84c-15.37,4.52 -27.21,15.91 -29.97,30.92z"/>
     <rect class="fil2" transform="matrix(-0.153848 0.837553 0.574406 0.105511 6491.26 1612.9)" width="635.73" height="73.9" rx="36.95" ry="36.95"/>
     <rect class="fil2" transform="matrix(-0.774415 0.469972 -0.339785 -0.435993 6988.78 1370.28)" width="635.73" height="73.9" rx="36.95" ry="36.95"/>
     <rect class="fil2" transform="matrix(-0.774415 0.469972 -0.339785 -0.435993 7442.22 1095.01)" width="635.73" height="73.9" rx="36.95" ry="36.95"/>
     <rect class="fil2" transform="matrix(1.40744 -7.66213 0.574406 0.105511 7390.18 1109.58)" width="635.73" height="73.9" rx="36.95" ry="36.95"/>
    </g>
    <g>
     <path class="fil2" d="M5363.27 6140.06c-25.36,-4.66 -49.42,10.55 -53.72,33.97 -4.3,23.41 12.78,46.18 38.14,50.84 18.75,3.44 36.78,-3.97 46.65,-17.53l177.1 32.53 84.36 79.52 76.65 12.43 -129.06 -126.04 -204.38 -37.53c-5.68,-13.98 -18.89,-25.08 -35.76,-28.18z"/>
     <rect class="fil2" transform="matrix(-0.94134 -0.172912 -0.0938781 0.511075 6255.05 6407.34)" width="635.73" height="73.9" rx="36.95" ry="36.95"/>
     <rect class="fil2" transform="matrix(-0.556841 -0.714507 0.472548 -0.286777 6546.58 6863.9)" width="635.73" height="73.9" rx="36.95" ry="36.95"/>
     <rect class="fil2" transform="matrix(-0.556841 -0.714507 0.472548 -0.286777 6872.73 7282.27)" width="635.73" height="73.9" rx="36.95" ry="36.95"/>
     <rect class="fil2" transform="matrix(8.61159 1.58184 -0.0938781 0.511075 6854.3 7234.96)" width="635.73" height="73.9" rx="36.95" ry="36.95"/>
    </g>
    <g>
     <path class="fil2" d="M7142.7 2695.73c-4.14,22.56 13.83,44.78 40.15,49.61 26.32,4.84 51.02,-9.55 55.17,-32.11 3.06,-16.69 -5.96,-33.17 -21.51,-42.59l28.95 -157.59 85.25 -72.4 10.67 -68.27 -135.31 110.57 -33.41 181.85c-15.37,4.51 -27.21,15.9 -29.97,30.92z"/>
     <rect class="fil2" transform="matrix(-0.153848 0.837553 0.574406 0.105511 7403.96 1906.57)" width="635.73" height="73.9" rx="36.95" ry="36.95"/>
     <rect class="fil2" transform="matrix(-0.774415 0.469972 -0.339785 -0.435993 7901.47 1663.95)" width="635.73" height="73.9" rx="36.95" ry="36.95"/>
     <rect class="fil2" transform="matrix(-0.774415 0.469972 -0.339785 -0.435993 8354.91 1388.68)" width="635.73" height="73.9" rx="36.95" ry="36.95"/>
     <rect class="fil2" transform="matrix(1.40744 -7.66213 0.574406 0.105511 8302.87 1403.25)" width="635.73" height="73.9" rx="36.95" ry="36.95"/>
    </g>
    <g>
     <path class="fil2" d="M5073.44 6946.88c-25.37,-4.66 -49.42,10.55 -53.72,33.96 -4.31,23.42 12.77,46.19 38.14,50.85 18.75,3.44 36.78,-3.97 46.64,-17.53l177.12 32.53 84.36 79.52 76.65 12.42 -129.07 -126.03 -204.38 -37.55c-5.68,-13.97 -18.88,-25.07 -35.75,-28.17z"/>
     <rect class="fil2" transform="matrix(-0.94134 -0.172912 -0.0938781 0.511075 5965.21 7214.16)" width="635.73" height="73.9" rx="36.95" ry="36.95"/>
     <rect class="fil2" transform="matrix(-0.556841 -0.714507 0.472548 -0.286777 6256.74 7670.73)" width="635.73" height="73.9" rx="36.95" ry="36.95"/>
     <rect class="fil2" transform="matrix(-0.556841 -0.714507 0.472548 -0.286777 6582.89 8089.09)" width="635.73" height="73.9" rx="36.95" ry="36.95"/>
     <rect class="fil2" transform="matrix(8.61159 1.58184 -0.0938781 0.511075 6564.46 8041.79)" width="635.73" height="73.9" rx="36.95" ry="36.95"/>
    </g>
    <g>
     <path class="fil2" d="M8055.4 2989.39c-4.15,22.57 13.83,44.79 40.14,49.62 26.32,4.83 51.02,-9.55 55.17,-32.12 3.06,-16.68 -5.96,-33.17 -21.51,-42.59l28.95 -157.59 85.26 -72.39 10.67 -68.28 -135.32 110.58 -33.41 181.84c-15.36,4.52 -27.2,15.91 -29.96,30.92z"/>
     <rect class="fil2" transform="matrix(-0.153848 0.837553 0.574406 0.105511 8316.65 2200.24)" width="635.73" height="73.9" rx="36.95" ry="36.95"/>
     <rect class="fil2" transform="matrix(-0.774415 0.469972 -0.339785 -0.435993 8814.17 1957.63)" width="635.73" height="73.9" rx="36.95" ry="36.95"/>
     <rect class="fil2" transform="matrix(-0.774415 0.469972 -0.339785 -0.435993 9267.61 1682.35)" width="635.73" height="73.9" rx="36.95" ry="36.95"/>
     <rect class="fil2" transform="matrix(1.40744 -7.66213 0.574406 0.105511 9215.57 1696.92)" width="635.73" height="73.9" rx="36.95" ry="36.95"/>
    </g>
    <g>
     <path class="fil2" d="M4783.59 7753.7c-25.36,-4.65 -49.42,10.56 -53.72,33.97 -4.3,23.41 12.78,46.19 38.14,50.84 18.75,3.45 36.79,-3.97 46.65,-17.52l177.12 32.53 84.35 79.52 76.67 12.42 -129.07 -126.03 -204.38 -37.55c-5.68,-13.97 -18.89,-25.07 -35.76,-28.18z"/>
     <rect class="fil2" transform="matrix(-0.94134 -0.172912 -0.0938781 0.511075 5675.37 8020.99)" width="635.73" height="73.9" rx="36.95" ry="36.95"/>
     <rect class="fil2" transform="matrix(-0.556841 -0.714507 0.472548 -0.286777 5966.9 8477.55)" width="635.73" height="73.9" rx="36.95" ry="36.95"/>
     <rect class="fil2" transform="matrix(-0.556841 -0.714507 0.472548 -0.286777 6293.05 8895.92)" width="635.73" height="73.9" rx="36.95" ry="36.95"/>
     <rect class="fil2" transform="matrix(8.61159 1.58184 -0.0938781 0.511075 6274.62 8848.61)" width="635.73" height="73.9" rx="36.95" ry="36.95"/>
    </g>
    <g>
     <path class="fil2" d="M4184.45 -1990.69c-25.36,-4.66 -42.44,-27.42 -38.14,-50.84 4.3,-23.41 28.35,-38.63 53.72,-33.97 18.75,3.45 32.97,16.78 37.37,32.96l177.12 32.53 107.1 -44.35 76.07 15.63 -165.43 71.94 -204.38 -37.55c-10.28,11.05 -26.56,16.73 -43.43,13.63z"/>
     <rect class="fil2" transform="matrix(-0.94134 -0.172912 0.0938781 -0.511075 5113.01 -1923.6)" width="635.73" height="73.9" rx="36.95" ry="36.95"/>
     <rect class="fil2" transform="matrix(-0.774415 0.469972 0.339785 0.435993 5547.76 -2246.76)" width="635.73" height="73.9" rx="36.95" ry="36.95"/>
     <rect class="fil2" transform="matrix(-0.774415 0.469972 0.339785 0.435993 6001.3 -2521.9)" width="635.73" height="73.9" rx="36.95" ry="36.95"/>
     <rect class="fil2" transform="matrix(8.61159 1.58184 0.0938781 -0.511075 5967.26 -2484.23)" width="635.73" height="73.9" rx="36.95" ry="36.95"/>
    </g>
    <g>
     <path class="fil2" d="M4467.47 -968.06c-25.36,-4.66 -42.44,-27.42 -38.14,-50.85 4.3,-23.41 28.35,-38.62 53.72,-33.96 18.75,3.44 32.97,16.78 37.37,32.96l177.12 32.53 107.1 -44.36 76.07 15.63 -165.43 71.94 -204.38 -37.53c-10.28,11.05 -26.56,16.73 -43.43,13.63z"/>
     <rect class="fil2" transform="matrix(-0.94134 -0.172912 0.0938781 -0.511075 5396.02 -900.979)" width="635.73" height="73.9" rx="36.95" ry="36.95"/>
     <rect class="fil2" transform="matrix(-0.774415 0.469972 0.339785 0.435993 5830.77 -1224.13)" width="635.73" height="73.9" rx="36.95" ry="36.95"/>
     <rect class="fil2" transform="matrix(-0.774415 0.469972 0.339785 0.435993 6284.32 -1499.28)" width="635.73" height="73.9" rx="36.95" ry="36.95"/>
     <rect class="fil2" transform="matrix(8.61159 1.58184 0.0938781 -0.511075 6250.28 -1461.61)" width="635.73" height="73.9" rx="36.95" ry="36.95"/>
    </g>
    <g>
     <path class="fil2" d="M4750.48 54.55c-25.37,-4.66 -42.44,-27.42 -38.14,-50.84 4.3,-23.41 28.35,-38.63 53.72,-33.97 18.74,3.45 32.97,16.78 37.37,32.96l177.1 32.53 107.11 -44.35 76.07 15.63 -165.43 71.94 -204.38 -37.55c-10.28,11.05 -26.56,16.73 -43.43,13.63z"/>
     <rect class="fil2" transform="matrix(-0.94134 -0.172912 0.0938781 -0.511075 5679.03 121.641)" width="635.73" height="73.9" rx="36.95" ry="36.95"/>
     <rect class="fil2" transform="matrix(-0.774415 0.469972 0.339785 0.435993 6113.79 -201.514)" width="635.73" height="73.9" rx="36.95" ry="36.95"/>
     <rect class="fil2" transform="matrix(-0.774415 0.469972 0.339785 0.435993 6567.33 -476.66)" width="635.73" height="73.9" rx="36.95" ry="36.95"/>
     <rect class="fil2" transform="matrix(8.61159 1.58184 0.0938781 -0.511075 6533.29 -438.991)" width="635.73" height="73.9" rx="36.95" ry="36.95"/>
    </g>
    <g>
     <path class="fil2" d="M7082.25 4314.63c4.15,-22.57 28.85,-36.95 55.17,-32.12 26.32,4.84 44.29,27.05 40.14,49.62 -3.06,16.69 -17.36,28.89 -35.24,32.17l-28.95 157.59 53.97 97.96 -14.28 67.62 -87.19 -151.46 33.41 -181.84c-12.76,-9.68 -19.78,-24.54 -17.03,-39.55z"/>
     <rect class="fil2" transform="matrix(0.153848 -0.837553 0.574406 0.105511 7046 5145.11)" width="635.73" height="73.9" rx="36.95" ry="36.95"/>
     <rect class="fil2" transform="matrix(-0.556841 -0.714507 -0.472548 0.286777 7424.82 5548.7)" width="635.73" height="73.9" rx="36.95" ry="36.95"/>
     <rect class="fil2" transform="matrix(-0.556841 -0.714507 -0.472548 0.286777 7750.83 5967.15)" width="635.73" height="73.9" rx="36.95" ry="36.95"/>
     <rect class="fil2" transform="matrix(-1.40744 7.66213 0.574406 0.105511 7707.36 5935.03)" width="635.73" height="73.9" rx="36.95" ry="36.95"/>
    </g>
    <g>
     <path class="fil2" d="M7458.39 4372.19c-15.01,-19.25 -9.61,-45.52 12.04,-58.66 21.66,-13.14 51.38,-8.18 66.39,11.07 11.09,14.24 11.04,32.3 1.51,46.06l104.76 134.43 113.9 37.91 43.69 58.87 -178.63 -56.22 -120.9 -155.13c-16.28,0.96 -32.77,-5.52 -42.75,-18.33z"/>
     <rect class="fil2" transform="matrix(-0.556841 -0.714507 0.472548 -0.286777 8089.35 5006.87)" width="635.73" height="73.9" rx="36.95" ry="36.95"/>
     <rect class="fil2" transform="matrix(-0.94134 -0.172912 -0.0938781 0.511075 8664.63 5063.74)" width="635.73" height="73.9" rx="36.95" ry="36.95"/>
     <rect class="fil2" transform="matrix(-0.94134 -0.172912 -0.0938781 0.511075 9215.86 5165.07)" width="635.73" height="73.9" rx="36.95" ry="36.95"/>
     <rect class="fil2" transform="matrix(5.09411 6.53647 0.472548 -0.286777 9161.05 5169)" width="635.73" height="73.9" rx="36.95" ry="36.95"/>
    </g>
    <g>
     <path class="fil2" d="M5033.5 1077.18c-25.37,-4.66 -42.45,-27.42 -38.14,-50.85 4.3,-23.41 28.35,-38.62 53.72,-33.96 18.74,3.44 32.97,16.78 37.37,32.96l177.1 32.53 107.11 -44.36 76.07 15.63 -165.43 71.94 -204.38 -37.53c-10.28,11.05 -26.56,16.73 -43.43,13.63z"/>
     <rect class="fil2" transform="matrix(-0.94134 -0.172912 0.0938781 -0.511075 5962.05 1144.26)" width="635.73" height="73.9" rx="36.95" ry="36.95"/>
     <rect class="fil2" transform="matrix(-0.774415 0.469972 0.339785 0.435993 6396.8 821.107)" width="635.73" height="73.9" rx="36.95" ry="36.95"/>
     <rect class="fil2" transform="matrix(-0.774415 0.469972 0.339785 0.435993 6850.34 545.96)" width="635.73" height="73.9" rx="36.95" ry="36.95"/>
     <rect class="fil2" transform="matrix(8.61159 1.58184 0.0938781 -0.511075 6816.3 583.63)" width="635.73" height="73.9" rx="36.95" ry="36.95"/>
    </g>
    <g>
     <path class="fil2" d="M5952.5 4526.05c4.15,-22.57 28.85,-36.95 55.17,-32.12 26.32,4.83 44.29,27.05 40.15,49.62 -3.06,16.68 -17.37,28.88 -35.25,32.17l-28.95 157.58 53.97 97.97 -14.28 67.61 -87.19 -151.45 33.41 -181.85c-12.76,-9.68 -19.78,-24.53 -17.03,-39.54z"/>
     <rect class="fil2" transform="matrix(0.153848 -0.837553 0.574406 0.105511 5916.25 5356.53)" width="635.73" height="73.9" rx="36.95" ry="36.95"/>
     <rect class="fil2" transform="matrix(-0.556841 -0.714507 -0.472548 0.286777 6295.07 5760.12)" width="635.73" height="73.9" rx="36.95" ry="36.95"/>
     <rect class="fil2" transform="matrix(-0.556841 -0.714507 -0.472548 0.286777 6621.08 6178.57)" width="635.73" height="73.9" rx="36.95" ry="36.95"/>
     <rect class="fil2" transform="matrix(-1.40744 7.66213 0.574406 0.105511 6577.62 6146.46)" width="635.73" height="73.9" rx="36.95" ry="36.95"/>
    </g>
    <g>
     <path class="fil2" d="M5316.51 2099.79c-25.37,-4.66 -42.45,-27.42 -38.15,-50.84 4.31,-23.41 28.36,-38.63 53.72,-33.97 18.75,3.45 32.97,16.78 37.37,32.96l177.12 32.53 107.11 -44.35 76.07 15.63 -165.43 71.94 -204.38 -37.55c-10.28,11.05 -26.56,16.73 -43.43,13.63z"/>
     <rect class="fil2" transform="matrix(-0.94134 -0.172912 0.0938781 -0.511075 6245.06 2166.88)" width="635.73" height="73.9" rx="36.95" ry="36.95"/>
     <rect class="fil2" transform="matrix(-0.774415 0.469972 0.339785 0.435993 6679.81 1843.73)" width="635.73" height="73.9" rx="36.95" ry="36.95"/>
     <rect class="fil2" transform="matrix(-0.774415 0.469972 0.339785 0.435993 7133.36 1568.58)" width="635.73" height="73.9" rx="36.95" ry="36.95"/>
     <rect class="fil2" transform="matrix(8.61159 1.58184 0.0938781 -0.511075 7099.32 1606.25)" width="635.73" height="73.9" rx="36.95" ry="36.95"/>
    </g>
    <g>
     <path class="fil2" d="M4822.75 4737.47c4.15,-22.56 28.85,-36.95 55.17,-32.11 26.32,4.83 44.29,27.05 40.15,49.61 -3.06,16.69 -17.37,28.89 -35.24,32.17l-28.96 157.59 53.98 97.96 -14.29 67.62 -87.19 -151.45 33.41 -181.85c-12.76,-9.68 -19.78,-24.54 -17.03,-39.55z"/>
     <rect class="fil2" transform="matrix(0.153848 -0.837553 0.574406 0.105511 4786.5 5567.95)" width="635.73" height="73.9" rx="36.95" ry="36.95"/>
     <rect class="fil2" transform="matrix(-0.556841 -0.714507 -0.472548 0.286777 5165.32 5971.54)" width="635.73" height="73.9" rx="36.95" ry="36.95"/>
     <rect class="fil2" transform="matrix(-0.556841 -0.714507 -0.472548 0.286777 5491.33 6389.99)" width="635.73" height="73.9" rx="36.95" ry="36.95"/>
     <rect class="fil2" transform="matrix(-1.40744 7.66213 0.574406 0.105511 5447.87 6357.88)" width="635.73" height="73.9" rx="36.95" ry="36.95"/>
    </g>
    <g>
     <path class="fil2" d="M6260.93 6117.39c-14.99,-19.25 -9.61,-45.53 12.04,-58.66 21.66,-13.14 51.38,-8.18 66.39,11.07 11.09,14.23 11.04,32.3 1.51,46.06l104.77 134.43 113.89 37.91 43.69 58.87 -178.63 -56.22 -120.9 -155.14c-16.28,0.97 -32.77,-5.51 -42.75,-18.31z"/>
     <rect class="fil2" transform="matrix(-0.556841 -0.714507 0.472548 -0.286777 6891.89 6752.06)" width="635.73" height="73.9" rx="36.95" ry="36.95"/>
     <rect class="fil2" transform="matrix(-0.94134 -0.172912 -0.0938781 0.511075 7467.17 6808.94)" width="635.73" height="73.9" rx="36.95" ry="36.95"/>
     <rect class="fil2" transform="matrix(-0.94134 -0.172912 -0.0938781 0.511075 8018.4 6910.27)" width="635.73" height="73.9" rx="36.95" ry="36.95"/>
     <rect class="fil2" transform="matrix(5.09411 6.53647 0.472548 -0.286777 7963.59 6914.2)" width="635.73" height="73.9" rx="36.95" ry="36.95"/>
    </g>
    <g>
     <path class="fil2" d="M5599.53 3122.42c-25.37,-4.66 -42.45,-27.42 -38.15,-50.85 4.31,-23.41 28.36,-38.62 53.72,-33.96 18.75,3.44 32.97,16.77 37.37,32.96l177.12 32.53 107.11 -44.36 76.07 15.63 -165.43 71.94 -204.38 -37.53c-10.28,11.05 -26.57,16.73 -43.43,13.63z"/>
     <rect class="fil2" transform="matrix(-0.94134 -0.172912 0.0938781 -0.511075 6528.08 3189.5)" width="635.73" height="73.9" rx="36.95" ry="36.95"/>
     <rect class="fil2" transform="matrix(-0.774415 0.469972 0.339785 0.435993 6962.83 2866.35)" width="635.73" height="73.9" rx="36.95" ry="36.95"/>
     <rect class="fil2" transform="matrix(-0.774415 0.469972 0.339785 0.435993 7416.37 2591.2)" width="635.73" height="73.9" rx="36.95" ry="36.95"/>
     <rect class="fil2" transform="matrix(8.61159 1.58184 0.0938781 -0.511075 7382.33 2628.87)" width="635.73" height="73.9" rx="36.95" ry="36.95"/>
    </g>
    <g>
     <path class="fil2" d="M3693 4948.89c4.15,-22.57 28.85,-36.95 55.17,-32.12 26.32,4.83 44.29,27.05 40.15,49.62 -3.06,16.69 -17.37,28.88 -35.24,32.17l-28.95 157.59 53.97 97.96 -14.29 67.61 -87.19 -151.45 33.41 -181.84c-12.76,-9.68 -19.78,-24.54 -17.03,-39.55z"/>
     <rect class="fil2" transform="matrix(0.153848 -0.837553 0.574406 0.105511 3656.75 5779.37)" width="635.73" height="73.9" rx="36.95" ry="36.95"/>
     <rect class="fil2" transform="matrix(-0.556841 -0.714507 -0.472548 0.286777 4035.57 6182.96)" width="635.73" height="73.9" rx="36.95" ry="36.95"/>
     <rect class="fil2" transform="matrix(-0.556841 -0.714507 -0.472548 0.286777 4361.58 6601.41)" width="635.73" height="73.9" rx="36.95" ry="36.95"/>
     <rect class="fil2" transform="matrix(-1.40744 7.66213 0.574406 0.105511 4318.12 6569.3)" width="635.73" height="73.9" rx="36.95" ry="36.95"/>
    </g>
    <g>
     <path class="fil2" d="M5662.21 6989.98c-15.01,-19.25 -9.62,-45.52 12.03,-58.66 21.66,-13.13 51.38,-8.17 66.39,11.08 11.09,14.23 11.04,32.29 1.51,46.05l104.77 134.43 113.89 37.92 43.69 58.86 -178.63 -56.22 -120.89 -155.13c-16.29,0.96 -32.78,-5.52 -42.75,-18.33z"/>
     <rect class="fil2" transform="matrix(-0.556841 -0.714507 0.472548 -0.286777 6293.16 7624.66)" width="635.73" height="73.9" rx="36.95" ry="36.95"/>
     <rect class="fil2" transform="matrix(-0.94134 -0.172912 -0.0938781 0.511075 6868.44 7681.54)" width="635.73" height="73.9" rx="36.95" ry="36.95"/>
     <rect class="fil2" transform="matrix(-0.94134 -0.172912 -0.0938781 0.511075 7419.66 7782.87)" width="635.73" height="73.9" rx="36.95" ry="36.95"/>
     <rect class="fil2" transform="matrix(5.09411 6.53647 0.472548 -0.286777 7364.86 7786.8)" width="635.73" height="73.9" rx="36.95" ry="36.95"/>
    </g>
    <g>
     <path class="fil2" d="M5882.53 4145.03c-25.36,-4.66 -42.44,-27.42 -38.14,-50.84 4.3,-23.42 28.36,-38.63 53.72,-33.97 18.75,3.45 32.97,16.78 37.37,32.96l177.12 32.53 107.11 -44.35 76.07 15.63 -165.43 71.94 -204.38 -37.55c-10.28,11.05 -26.57,16.73 -43.44,13.63z"/>
     <rect class="fil2" transform="matrix(-0.94134 -0.172912 0.0938781 -0.511075 6811.09 4212.12)" width="635.73" height="73.9" rx="36.95" ry="36.95"/>
     <rect class="fil2" transform="matrix(-0.774415 0.469972 0.339785 0.435993 7245.84 3888.97)" width="635.73" height="73.9" rx="36.95" ry="36.95"/>
     <rect class="fil2" transform="matrix(-0.774415 0.469972 0.339785 0.435993 7699.38 3613.82)" width="635.73" height="73.9" rx="36.95" ry="36.95"/>
     <rect class="fil2" transform="matrix(8.61159 1.58184 0.0938781 -0.511075 7665.34 3651.49)" width="635.73" height="73.9" rx="36.95" ry="36.95"/>
    </g>
    <g>
     <path class="fil2" d="M2563.25 5160.31c4.15,-22.56 28.85,-36.94 55.17,-32.11 26.32,4.83 44.29,27.05 40.15,49.62 -3.06,16.68 -17.36,28.88 -35.24,32.16l-28.95 157.59 53.97 97.97 -14.29 67.61 -87.19 -151.45 33.41 -181.85c-12.76,-9.68 -19.78,-24.53 -17.03,-39.55z"/>
     <rect class="fil2" transform="matrix(0.153848 -0.837553 0.574406 0.105511 2527.01 5990.79)" width="635.73" height="73.9" rx="36.95" ry="36.95"/>
     <rect class="fil2" transform="matrix(-0.556841 -0.714507 -0.472548 0.286777 2905.83 6394.38)" width="635.73" height="73.9" rx="36.95" ry="36.95"/>
     <rect class="fil2" transform="matrix(-0.556841 -0.714507 -0.472548 0.286777 3231.84 6812.83)" width="635.73" height="73.9" rx="36.95" ry="36.95"/>
     <rect class="fil2" transform="matrix(-1.40744 7.66213 0.574406 0.105511 3188.37 6780.72)" width="635.73" height="73.9" rx="36.95" ry="36.95"/>
    </g>
    <g>
     <path class="fil2" d="M5063.48 7862.59c-15.01,-19.25 -9.62,-45.53 12.03,-58.66 21.66,-13.14 51.38,-8.18 66.39,11.07 11.09,14.23 11.04,32.29 1.51,46.06l104.77 134.43 113.89 37.91 43.69 58.86 -178.63 -56.21 -120.89 -155.14c-16.29,0.97 -32.78,-5.51 -42.75,-18.31z"/>
     <rect class="fil2" transform="matrix(-0.556841 -0.714507 0.472548 -0.286777 5694.42 8497.26)" width="635.73" height="73.9" rx="36.95" ry="36.95"/>
     <rect class="fil2" transform="matrix(-0.94134 -0.172912 -0.0938781 0.511075 6269.71 8554.14)" width="635.73" height="73.9" rx="36.95" ry="36.95"/>
     <rect class="fil2" transform="matrix(-0.94134 -0.172912 -0.0938781 0.511075 6820.93 8655.47)" width="635.73" height="73.9" rx="36.95" ry="36.95"/>
     <rect class="fil2" transform="matrix(5.09411 6.53647 0.472548 -0.286777 6766.13 8659.4)" width="635.73" height="73.9" rx="36.95" ry="36.95"/>
    </g>
    <g>
     <path class="fil2" d="M1433.52 5371.73c4.14,-22.57 28.84,-36.95 55.16,-32.12 26.32,4.84 44.29,27.06 40.15,49.62 -3.06,16.69 -17.36,28.89 -35.24,32.17l-28.95 157.59 53.97 97.96 -14.29 67.62 -87.19 -151.46 33.41 -181.84c-12.76,-9.68 -19.77,-24.54 -17.02,-39.55z"/>
     <rect class="fil2" transform="matrix(0.153848 -0.837553 0.574406 0.105511 1397.26 6202.22)" width="635.73" height="73.9" rx="36.95" ry="36.95"/>
     <rect class="fil2" transform="matrix(-0.556841 -0.714507 -0.472548 0.286777 1776.08 6605.8)" width="635.73" height="73.9" rx="36.95" ry="36.95"/>
     <rect class="fil2" transform="matrix(-0.556841 -0.714507 -0.472548 0.286777 2102.09 7024.26)" width="635.73" height="73.9" rx="36.95" ry="36.95"/>
     <rect class="fil2" transform="matrix(-1.40744 7.66213 0.574406 0.105511 2058.62 6992.14)" width="635.73" height="73.9" rx="36.95" ry="36.95"/>
    </g>
    <g>
     <path class="fil2" d="M4464.74 8735.18c-15.01,-19.25 -9.62,-45.52 12.04,-58.66 21.65,-13.13 51.37,-8.18 66.37,11.08 11.09,14.23 11.04,32.29 1.51,46.05l104.77 134.43 113.89 37.92 43.69 58.86 -178.63 -56.22 -120.89 -155.13c-16.29,0.96 -32.78,-5.52 -42.75,-18.33z"/>
     <rect class="fil2" transform="matrix(-0.556841 -0.714507 0.472548 -0.286777 5095.69 9369.86)" width="635.73" height="73.9" rx="36.95" ry="36.95"/>
     <rect class="fil2" transform="matrix(-0.94134 -0.172912 -0.0938781 0.511075 5670.97 9426.74)" width="635.73" height="73.9" rx="36.95" ry="36.95"/>
     <rect class="fil2" transform="matrix(-0.94134 -0.172912 -0.0938781 0.511075 6222.2 9528.07)" width="635.73" height="73.9" rx="36.95" ry="36.95"/>
     <rect class="fil2" transform="matrix(5.09411 6.53647 0.472548 -0.286777 6167.4 9532)" width="635.73" height="73.9" rx="36.95" ry="36.95"/>
    </g>
    <g>
     <path class="fil2" d="M6448.56 6190.28c-25.36,-4.66 -42.44,-27.42 -38.14,-50.84 4.3,-23.42 28.36,-38.63 53.72,-33.97 18.75,3.45 32.97,16.78 37.37,32.96l177.12 32.53 107.11 -44.35 76.07 15.63 -165.43 71.94 -204.38 -37.55c-10.28,11.05 -26.57,16.73 -43.44,13.63z"/>
     <rect class="fil2" transform="matrix(-0.94134 -0.172912 0.0938781 -0.511075 7377.12 6257.36)" width="635.73" height="73.9" rx="36.95" ry="36.95"/>
     <rect class="fil2" transform="matrix(-0.774415 0.469972 0.339785 0.435993 7811.87 5934.21)" width="635.73" height="73.9" rx="36.95" ry="36.95"/>
     <rect class="fil2" transform="matrix(-0.774415 0.469972 0.339785 0.435993 8265.41 5659.06)" width="635.73" height="73.9" rx="36.95" ry="36.95"/>
     <rect class="fil2" transform="matrix(8.61159 1.58184 0.0938781 -0.511075 8231.37 5696.73)" width="635.73" height="73.9" rx="36.95" ry="36.95"/>
    </g>
    <g>
     <path class="fil2" d="M6046.23 2779.95c25.36,4.65 49.42,-10.56 53.72,-33.97 4.3,-23.41 -12.78,-46.18 -38.14,-50.84 -18.75,-3.45 -36.78,3.97 -46.65,17.53l-177.1 -32.54 -84.36 -79.52 -76.65 -12.42 129.06 126.03 204.38 37.55c5.68,13.97 18.89,25.07 35.76,28.18z"/>
     <rect class="fil2" transform="matrix(0.94134 0.172912 0.0938781 -0.511075 5154.45 2512.66)" width="635.73" height="73.9" rx="36.95" ry="36.95"/>
     <rect class="fil2" transform="matrix(0.556841 0.714507 -0.472548 0.286777 4862.92 2056.1)" width="635.73" height="73.9" rx="36.95" ry="36.95"/>
     <rect class="fil2" transform="matrix(0.556841 0.714507 -0.472548 0.286777 4536.77 1637.73)" width="635.73" height="73.9" rx="36.95" ry="36.95"/>
     <rect class="fil2" transform="matrix(-8.61159 -1.58184 0.0938781 -0.511075 4555.2 1685.04)" width="635.73" height="73.9" rx="36.95" ry="36.95"/>
    </g>
    <g>
     <path class="fil2" d="M5544.93 3899.26c20.87,-12.66 25.17,-39.13 9.6,-59.11 -15.57,-19.98 -45.11,-25.9 -65.98,-13.24 -15.42,9.35 -21.78,26.26 -17.77,42.5l-145.71 88.42 -119.94 -5.04 -61.76 39.5 186.95 10.93 168.14 -102.04c14.88,6.68 32.6,6.48 46.46,-1.94z"/>
     <rect class="fil2" transform="matrix(0.774415 -0.469972 -0.339785 -0.435993 4729.62 4268.27)" width="635.73" height="73.9" rx="36.95" ry="36.95"/>
     <rect class="fil2" transform="matrix(0.94134 0.172912 -0.0938781 0.511075 4171.68 4116.99)" width="635.73" height="73.9" rx="36.95" ry="36.95"/>
     <rect class="fil2" transform="matrix(0.94134 0.172912 -0.0938781 0.511075 3620.42 4015.81)" width="635.73" height="73.9" rx="36.95" ry="36.95"/>
     <rect class="fil2" transform="matrix(-7.08452 4.29941 -0.339785 -0.435993 3670.25 4038.96)" width="635.73" height="73.9" rx="36.95" ry="36.95"/>
    </g>
    <g>
     <path class="fil2" d="M3363.48 1943.04c4.14,-22.57 -13.83,-44.79 -40.15,-49.62 -26.32,-4.83 -51.02,9.55 -55.17,32.11 -3.06,16.69 5.96,33.17 21.51,42.6l-28.95 157.58 -85.26 72.4 -10.67 68.27 135.32 -110.57 33.41 -181.85c15.37,-4.51 27.2,-15.9 29.97,-30.9z"/>
     <rect class="fil2" transform="matrix(0.153848 -0.837553 -0.574406 -0.105511 3102.22 2732.18)" width="635.73" height="73.9" rx="36.95" ry="36.95"/>
     <rect class="fil2" transform="matrix(0.774415 -0.469972 0.339785 0.435993 2604.7 2974.8)" width="635.73" height="73.9" rx="36.95" ry="36.95"/>
     <rect class="fil2" transform="matrix(0.774415 -0.469972 0.339785 0.435993 2151.26 3250.08)" width="635.73" height="73.9" rx="36.95" ry="36.95"/>
     <rect class="fil2" transform="matrix(-1.40744 7.66213 -0.574406 -0.105511 2203.31 3235.51)" width="635.73" height="73.9" rx="36.95" ry="36.95"/>
    </g>
    <g>
     <path class="fil2" d="M5345.35 3154.24c25.36,4.66 49.41,-10.55 53.72,-33.96 4.3,-23.42 -12.78,-46.19 -38.15,-50.85 -18.74,-3.44 -36.78,3.97 -46.64,17.53l-177.12 -32.53 -84.35 -79.52 -76.67 -12.42 129.07 126.03 204.38 37.55c5.68,13.97 18.89,25.07 35.76,28.17z"/>
     <rect class="fil2" transform="matrix(0.94134 0.172912 0.0938781 -0.511075 4453.56 2886.96)" width="635.73" height="73.9" rx="36.95" ry="36.95"/>
     <rect class="fil2" transform="matrix(0.556841 0.714507 -0.472548 0.286777 4162.04 2430.39)" width="635.73" height="73.9" rx="36.95" ry="36.95"/>
     <rect class="fil2" transform="matrix(0.556841 0.714507 -0.472548 0.286777 3835.89 2012.03)" width="635.73" height="73.9" rx="36.95" ry="36.95"/>
     <rect class="fil2" transform="matrix(-8.61159 -1.58184 0.0938781 -0.511075 3854.32 2059.34)" width="635.73" height="73.9" rx="36.95" ry="36.95"/>
    </g>
    <g>
     <path class="fil2" d="M5365.4 4619.68c20.87,-12.66 25.17,-39.13 9.6,-59.11 -15.57,-19.98 -45.11,-25.9 -65.98,-13.24 -15.42,9.37 -21.78,26.26 -17.77,42.5l-145.71 88.42 -119.94 -5.03 -61.76 39.49 186.95 10.93 168.14 -102.04c14.88,6.68 32.6,6.48 46.46,-1.94z"/>
     <rect class="fil2" transform="matrix(0.774415 -0.469972 -0.339785 -0.435993 4550.09 4988.7)" width="635.73" height="73.9" rx="36.95" ry="36.95"/>
     <rect class="fil2" transform="matrix(0.94134 0.172912 -0.0938781 0.511075 3992.15 4837.41)" width="635.73" height="73.9" rx="36.95" ry="36.95"/>
     <rect class="fil2" transform="matrix(0.94134 0.172912 -0.0938781 0.511075 3440.89 4736.24)" width="635.73" height="73.9" rx="36.95" ry="36.95"/>
     <rect class="fil2" transform="matrix(-7.08452 4.29941 -0.339785 -0.435993 3490.72 4759.38)" width="635.73" height="73.9" rx="36.95" ry="36.95"/>
    </g>
    <g>
     <path class="fil2" d="M3810.46 2587.57c4.15,-22.57 -13.83,-44.79 -40.15,-49.62 -26.31,-4.83 -51.02,9.55 -55.16,32.12 -3.06,16.68 5.96,33.17 21.51,42.59l-28.95 157.59 -85.26 72.39 -10.67 68.28 135.32 -110.58 33.39 -181.85c15.37,-4.51 27.21,-15.9 29.97,-30.9z"/>
     <rect class="fil2" transform="matrix(0.153848 -0.837553 -0.574406 -0.105511 3549.21 3376.72)" width="635.73" height="73.9" rx="36.95" ry="36.95"/>
     <rect class="fil2" transform="matrix(0.774415 -0.469972 0.339785 0.435993 3051.69 3619.34)" width="635.73" height="73.9" rx="36.95" ry="36.95"/>
     <rect class="fil2" transform="matrix(0.774415 -0.469972 0.339785 0.435993 2598.25 3894.61)" width="635.73" height="73.9" rx="36.95" ry="36.95"/>
     <rect class="fil2" transform="matrix(-1.40744 7.66213 -0.574406 -0.105511 2650.29 3880.04)" width="635.73" height="73.9" rx="36.95" ry="36.95"/>
    </g>
    <g>
     <path class="fil2" d="M4753.58 3681.62c25.36,4.66 49.42,-10.55 53.72,-33.96 4.3,-23.41 -12.78,-46.19 -38.14,-50.84 -18.75,-3.45 -36.78,3.97 -46.65,17.52l-177.1 -32.53 -84.36 -79.52 -76.65 -12.42 129.06 126.03 204.38 37.55c5.68,13.97 18.89,25.07 35.76,28.17z"/>
     <rect class="fil2" transform="matrix(0.94134 0.172912 0.0938781 -0.511075 3861.8 3414.34)" width="635.73" height="73.9" rx="36.95" ry="36.95"/>
     <rect class="fil2" transform="matrix(0.556841 0.714507 -0.472548 0.286777 3570.27 2957.77)" width="635.73" height="73.9" rx="36.95" ry="36.95"/>
     <rect class="fil2" transform="matrix(0.556841 0.714507 -0.472548 0.286777 3244.12 2539.41)" width="635.73" height="73.9" rx="36.95" ry="36.95"/>
     <rect class="fil2" transform="matrix(-8.61159 -1.58184 0.0938781 -0.511075 3262.55 2586.72)" width="635.73" height="73.9" rx="36.95" ry="36.95"/>
    </g>
    <g>
     <path class="fil2" d="M5380.65 5383.62c20.87,-12.66 25.16,-39.13 9.59,-59.11 -15.56,-19.98 -45.11,-25.9 -65.97,-13.24 -15.43,9.35 -21.79,26.25 -17.78,42.5l-145.71 88.42 -119.93 -5.04 -61.76 39.5 186.95 10.93 168.13 -102.04c14.89,6.68 32.6,6.48 46.47,-1.94z"/>
     <rect class="fil2" transform="matrix(0.774415 -0.469972 -0.339785 -0.435993 4565.33 5752.63)" width="635.73" height="73.9" rx="36.95" ry="36.95"/>
     <rect class="fil2" transform="matrix(0.94134 0.172912 -0.0938781 0.511075 4007.39 5601.35)" width="635.73" height="73.9" rx="36.95" ry="36.95"/>
     <rect class="fil2" transform="matrix(0.94134 0.172912 -0.0938781 0.511075 3456.13 5500.17)" width="635.73" height="73.9" rx="36.95" ry="36.95"/>
     <rect class="fil2" transform="matrix(-7.08452 4.29941 -0.339785 -0.435993 3505.96 5523.32)" width="635.73" height="73.9" rx="36.95" ry="36.95"/>
    </g>
    <g>
     <path class="fil2" d="M4423.78 3140.55c4.15,-22.56 -13.83,-44.78 -40.15,-49.61 -26.31,-4.84 -51.02,9.55 -55.16,32.11 -3.06,16.69 5.96,33.17 21.51,42.59l-28.95 157.59 -85.26 72.4 -10.67 68.27 135.32 -110.57 33.41 -181.85c15.36,-4.51 27.2,-15.9 29.96,-30.92z"/>
     <rect class="fil2" transform="matrix(0.153848 -0.837553 -0.574406 -0.105511 4162.53 3929.71)" width="635.73" height="73.9" rx="36.95" ry="36.95"/>
     <rect class="fil2" transform="matrix(0.774415 -0.469972 0.339785 0.435993 3665.01 4172.33)" width="635.73" height="73.9" rx="36.95" ry="36.95"/>
     <rect class="fil2" transform="matrix(0.774415 -0.469972 0.339785 0.435993 3211.57 4447.6)" width="635.73" height="73.9" rx="36.95" ry="36.95"/>
     <rect class="fil2" transform="matrix(-1.40744 7.66213 -0.574406 -0.105511 3263.61 4433.03)" width="635.73" height="73.9" rx="36.95" ry="36.95"/>
    </g>
    <g>
     <path class="fil2" d="M4161.82 4209c25.36,4.65 49.41,-10.56 53.72,-33.97 4.3,-23.41 -12.78,-46.18 -38.15,-50.84 -18.74,-3.45 -36.78,3.97 -46.64,17.53l-177.12 -32.53 -84.35 -79.53 -76.67 -12.42 129.07 126.03 204.38 37.55c5.68,13.97 18.89,25.08 35.76,28.18z"/>
     <rect class="fil2" transform="matrix(0.94134 0.172912 0.0938781 -0.511075 3270.03 3941.72)" width="635.73" height="73.9" rx="36.95" ry="36.95"/>
     <rect class="fil2" transform="matrix(0.556841 0.714507 -0.472548 0.286777 2978.5 3485.15)" width="635.73" height="73.9" rx="36.95" ry="36.95"/>
     <rect class="fil2" transform="matrix(0.556841 0.714507 -0.472548 0.286777 2652.35 3066.79)" width="635.73" height="73.9" rx="36.95" ry="36.95"/>
     <rect class="fil2" transform="matrix(-8.61159 -1.58184 0.0938781 -0.511075 2670.78 3114.09)" width="635.73" height="73.9" rx="36.95" ry="36.95"/>
    </g>
    <g>
     <path class="fil2" d="M5395.89 6147.55c20.87,-12.65 25.17,-39.12 9.6,-59.1 -15.57,-19.98 -45.11,-25.91 -65.98,-13.25 -15.42,9.37 -21.79,26.26 -17.78,42.51l-145.7 88.42 -119.94 -5.04 -61.76 39.49 186.95 10.94 168.13 -102.05c14.89,6.69 32.6,6.49 46.47,-1.94z"/>
     <rect class="fil2" transform="matrix(0.774415 -0.469972 -0.339785 -0.435993 4580.57 6516.57)" width="635.73" height="73.9" rx="36.95" ry="36.95"/>
     <rect class="fil2" transform="matrix(0.94134 0.172912 -0.0938781 0.511075 4022.63 6365.29)" width="635.73" height="73.9" rx="36.95" ry="36.95"/>
     <rect class="fil2" transform="matrix(0.94134 0.172912 -0.0938781 0.511075 3471.38 6264.11)" width="635.73" height="73.9" rx="36.95" ry="36.95"/>
     <rect class="fil2" transform="matrix(-7.08452 4.29941 -0.339785 -0.435993 3521.21 6287.26)" width="635.73" height="73.9" rx="36.95" ry="36.95"/>
    </g>
    <g>
     <path class="fil2" d="M5037.1 3693.55c4.15,-22.57 -13.83,-44.79 -40.14,-49.62 -26.32,-4.83 -51.02,9.55 -55.17,32.12 -3.06,16.68 5.96,33.17 21.51,42.59l-28.95 157.59 -85.26 72.39 -10.67 68.28 135.32 -110.58 33.41 -181.84c15.37,-4.52 27.2,-15.91 29.96,-30.92z"/>
     <rect class="fil2" transform="matrix(0.153848 -0.837553 -0.574406 -0.105511 4775.85 4482.7)" width="635.73" height="73.9" rx="36.95" ry="36.95"/>
     <rect class="fil2" transform="matrix(0.774415 -0.469972 0.339785 0.435993 4278.33 4725.31)" width="635.73" height="73.9" rx="36.95" ry="36.95"/>
     <rect class="fil2" transform="matrix(0.774415 -0.469972 0.339785 0.435993 3824.89 5000.59)" width="635.73" height="73.9" rx="36.95" ry="36.95"/>
     <rect class="fil2" transform="matrix(-1.40744 7.66213 -0.574406 -0.105511 3876.94 4986.02)" width="635.73" height="73.9" rx="36.95" ry="36.95"/>
    </g>
    <g>
     <path class="fil2" d="M3570.04 4736.38c25.37,4.66 49.42,-10.56 53.72,-33.97 4.3,-23.41 -12.78,-46.18 -38.14,-50.84 -18.75,-3.45 -36.78,3.97 -46.65,17.53l-177.1 -32.53 -84.36 -79.53 -76.65 -12.42 129.06 126.03 204.38 37.55c5.68,13.98 18.89,25.08 35.76,28.18z"/>
     <rect class="fil2" transform="matrix(0.94134 0.172912 0.0938781 -0.511075 2678.26 4469.1)" width="635.73" height="73.9" rx="36.95" ry="36.95"/>
     <rect class="fil2" transform="matrix(0.556841 0.714507 -0.472548 0.286777 2386.74 4012.53)" width="635.73" height="73.9" rx="36.95" ry="36.95"/>
     <rect class="fil2" transform="matrix(0.556841 0.714507 -0.472548 0.286777 2060.58 3594.17)" width="635.73" height="73.9" rx="36.95" ry="36.95"/>
     <rect class="fil2" transform="matrix(-8.61159 -1.58184 0.0938781 -0.511075 2079.01 3641.47)" width="635.73" height="73.9" rx="36.95" ry="36.95"/>
    </g>
    <g>
     <path class="fil2" d="M5411.13 6911.49c20.87,-12.66 25.17,-39.13 9.6,-59.11 -15.57,-19.98 -45.11,-25.9 -65.98,-13.24 -15.42,9.37 -21.79,26.26 -17.77,42.5l-145.71 88.42 -119.94 -5.03 -61.76 39.49 186.95 10.93 168.14 -102.04c14.88,6.68 32.59,6.48 46.46,-1.94z"/>
     <rect class="fil2" transform="matrix(0.774415 -0.469972 -0.339785 -0.435993 4595.81 7280.51)" width="635.73" height="73.9" rx="36.95" ry="36.95"/>
     <rect class="fil2" transform="matrix(0.94134 0.172912 -0.0938781 0.511075 4037.87 7129.22)" width="635.73" height="73.9" rx="36.95" ry="36.95"/>
     <rect class="fil2" transform="matrix(0.94134 0.172912 -0.0938781 0.511075 3486.62 7028.04)" width="635.73" height="73.9" rx="36.95" ry="36.95"/>
     <rect class="fil2" transform="matrix(-7.08452 4.29941 -0.339785 -0.435993 3536.45 7051.19)" width="635.73" height="73.9" rx="36.95" ry="36.95"/>
    </g>
    <g>
     <path class="fil2" d="M5650.43 4246.54c4.15,-22.57 -13.82,-44.79 -40.14,-49.62 -26.32,-4.83 -51.02,9.55 -55.17,32.12 -3.06,16.68 5.96,33.17 21.51,42.59l-28.95 157.59 -85.26 72.39 -10.67 68.28 135.32 -110.58 33.41 -181.84c15.37,-4.52 27.2,-15.91 29.96,-30.92z"/>
     <rect class="fil2" transform="matrix(0.153848 -0.837553 -0.574406 -0.105511 5389.18 5035.69)" width="635.73" height="73.9" rx="36.95" ry="36.95"/>
     <rect class="fil2" transform="matrix(0.774415 -0.469972 0.339785 0.435993 4891.66 5278.3)" width="635.73" height="73.9" rx="36.95" ry="36.95"/>
     <rect class="fil2" transform="matrix(0.774415 -0.469972 0.339785 0.435993 4438.22 5553.58)" width="635.73" height="73.9" rx="36.95" ry="36.95"/>
     <rect class="fil2" transform="matrix(-1.40744 7.66213 -0.574406 -0.105511 4490.26 5539.01)" width="635.73" height="73.9" rx="36.95" ry="36.95"/>
    </g>
    <g>
     <path class="fil2" d="M2978.28 5263.76c25.36,4.66 49.41,-10.55 53.72,-33.97 4.3,-23.41 -12.78,-46.18 -38.15,-50.84 -18.74,-3.45 -36.78,3.97 -46.64,17.53l-177.12 -32.53 -84.35 -79.53 -76.67 -12.42 129.07 126.04 204.38 37.53c5.68,13.98 18.89,25.08 35.76,28.18z"/>
     <rect class="fil2" transform="matrix(0.94134 0.172912 0.0938781 -0.511075 2086.5 4996.47)" width="635.73" height="73.9" rx="36.95" ry="36.95"/>
     <rect class="fil2" transform="matrix(0.556841 0.714507 -0.472548 0.286777 1794.97 4539.91)" width="635.73" height="73.9" rx="36.95" ry="36.95"/>
     <rect class="fil2" transform="matrix(0.556841 0.714507 -0.472548 0.286777 1468.82 4121.54)" width="635.73" height="73.9" rx="36.95" ry="36.95"/>
     <rect class="fil2" transform="matrix(-8.61159 -1.58184 0.0938781 -0.511075 1487.25 4168.85)" width="635.73" height="73.9" rx="36.95" ry="36.95"/>
    </g>
    <g>
     <path class="fil2" d="M5426.38 7675.43c20.86,-12.66 25.16,-39.13 9.59,-59.11 -15.56,-19.98 -45.11,-25.9 -65.97,-13.24 -15.43,9.35 -21.79,26.25 -17.78,42.5l-145.71 88.42 -119.94 -5.04 -61.75 39.5 186.95 10.93 168.13 -102.04c14.89,6.68 32.6,6.48 46.47,-1.94z"/>
     <rect class="fil2" transform="matrix(0.774415 -0.469972 -0.339785 -0.435993 4611.06 8044.44)" width="635.73" height="73.9" rx="36.95" ry="36.95"/>
     <rect class="fil2" transform="matrix(0.94134 0.172912 -0.0938781 0.511075 4053.12 7893.16)" width="635.73" height="73.9" rx="36.95" ry="36.95"/>
     <rect class="fil2" transform="matrix(0.94134 0.172912 -0.0938781 0.511075 3501.86 7791.98)" width="635.73" height="73.9" rx="36.95" ry="36.95"/>
     <rect class="fil2" transform="matrix(-7.08452 4.29941 -0.339785 -0.435993 3551.69 7815.13)" width="635.73" height="73.9" rx="36.95" ry="36.95"/>
    </g>
    <g>
     <path class="fil2" d="M6263.75 4799.52c4.15,-22.56 -13.82,-44.78 -40.14,-49.61 -26.32,-4.84 -51.02,9.55 -55.17,32.11 -3.06,16.69 5.96,33.17 21.51,42.59l-28.95 157.59 -85.26 72.4 -10.67 68.27 135.32 -110.57 33.41 -181.85c15.37,-4.51 27.2,-15.9 29.96,-30.92z"/>
     <rect class="fil2" transform="matrix(0.153848 -0.837553 -0.574406 -0.105511 6002.5 5588.68)" width="635.73" height="73.9" rx="36.95" ry="36.95"/>
     <rect class="fil2" transform="matrix(0.774415 -0.469972 0.339785 0.435993 5504.98 5831.29)" width="635.73" height="73.9" rx="36.95" ry="36.95"/>
     <rect class="fil2" transform="matrix(0.774415 -0.469972 0.339785 0.435993 5051.54 6106.57)" width="635.73" height="73.9" rx="36.95" ry="36.95"/>
     <rect class="fil2" transform="matrix(-1.40744 7.66213 -0.574406 -0.105511 5103.58 6092)" width="635.73" height="73.9" rx="36.95" ry="36.95"/>
    </g>
    <g>
     <path class="fil2" d="M2386.51 5791.14c25.37,4.66 49.42,-10.55 53.72,-33.96 4.3,-23.42 -12.78,-46.19 -38.14,-50.85 -18.75,-3.44 -36.78,3.97 -46.65,17.53l-177.1 -32.53 -84.36 -79.52 -76.65 -12.42 129.06 126.03 204.38 37.53c5.68,13.98 18.89,25.08 35.76,28.18z"/>
     <rect class="fil2" transform="matrix(0.94134 0.172912 0.0938781 -0.511075 1494.73 5523.85)" width="635.73" height="73.9" rx="36.95" ry="36.95"/>
     <rect class="fil2" transform="matrix(0.556841 0.714507 -0.472548 0.286777 1203.2 5067.29)" width="635.73" height="73.9" rx="36.95" ry="36.95"/>
     <rect class="fil2" transform="matrix(0.556841 0.714507 -0.472548 0.286777 877.051 4648.92)" width="635.73" height="73.9" rx="36.95" ry="36.95"/>
     <rect class="fil2" transform="matrix(-8.61159 -1.58184 0.0938781 -0.511075 895.481 4696.23)" width="635.73" height="73.9" rx="36.95" ry="36.95"/>
    </g>
    <g>
     <path class="fil2" d="M5441.62 8439.36c20.87,-12.65 25.16,-39.12 9.6,-59.1 -15.57,-19.98 -45.11,-25.91 -65.98,-13.25 -15.43,9.37 -21.79,26.26 -17.78,42.51l-145.7 88.42 -119.94 -5.04 -61.76 39.49 186.95 10.94 168.13 -102.05c14.89,6.69 32.6,6.49 46.47,-1.94z"/>
     <rect class="fil2" transform="matrix(0.774415 -0.469972 -0.339785 -0.435993 4626.3 8808.38)" width="635.73" height="73.9" rx="36.95" ry="36.95"/>
     <rect class="fil2" transform="matrix(0.94134 0.172912 -0.0938781 0.511075 4068.36 8657.09)" width="635.73" height="73.9" rx="36.95" ry="36.95"/>
     <rect class="fil2" transform="matrix(0.94134 0.172912 -0.0938781 0.511075 3517.1 8555.91)" width="635.73" height="73.9" rx="36.95" ry="36.95"/>
     <rect class="fil2" transform="matrix(-7.08452 4.29941 -0.339785 -0.435993 3566.93 8579.06)" width="635.73" height="73.9" rx="36.95" ry="36.95"/>
    </g>
    <g>
     <path class="fil2" d="M6877.07 5352.51c4.15,-22.57 -13.82,-44.78 -40.14,-49.62 -26.32,-4.83 -51.02,9.55 -55.17,32.12 -3.06,16.69 5.96,33.17 21.51,42.59l-28.95 157.59 -85.26 72.39 -10.67 68.28 135.32 -110.58 33.41 -181.84c15.37,-4.52 27.2,-15.91 29.96,-30.92z"/>
     <rect class="fil2" transform="matrix(0.153848 -0.837553 -0.574406 -0.105511 6615.82 6141.67)" width="635.73" height="73.9" rx="36.95" ry="36.95"/>
     <rect class="fil2" transform="matrix(0.774415 -0.469972 0.339785 0.435993 6118.3 6384.28)" width="635.73" height="73.9" rx="36.95" ry="36.95"/>
     <rect class="fil2" transform="matrix(0.774415 -0.469972 0.339785 0.435993 5664.86 6659.56)" width="635.73" height="73.9" rx="36.95" ry="36.95"/>
     <rect class="fil2" transform="matrix(-1.40744 7.66213 -0.574406 -0.105511 5716.9 6644.99)" width="635.73" height="73.9" rx="36.95" ry="36.95"/>
    </g>
    <g>
     <path class="fil2" d="M1794.75 6318.51c25.36,4.66 49.41,-10.55 53.72,-33.96 4.3,-23.42 -12.78,-46.19 -38.15,-50.85 -18.74,-3.44 -36.78,3.97 -46.64,17.53l-177.12 -32.53 -84.35 -79.52 -76.67 -12.42 129.07 126.03 204.38 37.55c5.68,13.97 18.89,25.07 35.76,28.17z"/>
     <rect class="fil2" transform="matrix(0.94134 0.172912 0.0938781 -0.511075 902.964 6051.23)" width="635.73" height="73.9" rx="36.95" ry="36.95"/>
     <rect class="fil2" transform="matrix(0.556841 0.714507 -0.472548 0.286777 611.437 5594.67)" width="635.73" height="73.9" rx="36.95" ry="36.95"/>
     <rect class="fil2" transform="matrix(0.556841 0.714507 -0.472548 0.286777 285.284 5176.3)" width="635.73" height="73.9" rx="36.95" ry="36.95"/>
     <rect class="fil2" transform="matrix(-8.61159 -1.58184 0.0938781 -0.511075 303.714 5223.61)" width="635.73" height="73.9" rx="36.95" ry="36.95"/>
    </g>
    <g>
     <path class="fil2" d="M5456.86 9203.3c20.87,-12.66 25.17,-39.13 9.6,-59.11 -15.57,-19.98 -45.11,-25.9 -65.98,-13.24 -15.42,9.37 -21.79,26.26 -17.78,42.5l-145.7 88.42 -119.94 -5.03 -61.76 39.49 186.95 10.93 168.14 -102.04c14.88,6.68 32.59,6.48 46.46,-1.94z"/>
     <rect class="fil2" transform="matrix(0.774415 -0.469972 -0.339785 -0.435993 4641.54 9572.31)" width="635.73" height="73.9" rx="36.95" ry="36.95"/>
     <rect class="fil2" transform="matrix(0.94134 0.172912 -0.0938781 0.511075 4083.6 9421.03)" width="635.73" height="73.9" rx="36.95" ry="36.95"/>
     <rect class="fil2" transform="matrix(0.94134 0.172912 -0.0938781 0.511075 3532.35 9319.85)" width="635.73" height="73.9" rx="36.95" ry="36.95"/>
     <rect class="fil2" transform="matrix(-7.08452 4.29941 -0.339785 -0.435993 3582.18 9343)" width="635.73" height="73.9" rx="36.95" ry="36.95"/>
    </g>
    <g>
     <path class="fil2" d="M7490.4 5905.51c4.14,-22.57 -13.83,-44.79 -40.15,-49.62 -26.32,-4.83 -51.02,9.55 -55.17,32.12 -3.06,16.68 5.96,33.17 21.51,42.59l-28.95 157.59 -85.26 72.39 -10.67 68.28 135.32 -110.58 33.41 -181.84c15.37,-4.52 27.21,-15.91 29.97,-30.92z"/>
     <rect class="fil2" transform="matrix(0.153848 -0.837553 -0.574406 -0.105511 7229.15 6694.66)" width="635.73" height="73.9" rx="36.95" ry="36.95"/>
     <rect class="fil2" transform="matrix(0.774415 -0.469972 0.339785 0.435993 6731.63 6937.27)" width="635.73" height="73.9" rx="36.95" ry="36.95"/>
     <rect class="fil2" transform="matrix(0.774415 -0.469972 0.339785 0.435993 6278.19 7212.55)" width="635.73" height="73.9" rx="36.95" ry="36.95"/>
     <rect class="fil2" transform="matrix(-1.40744 7.66213 -0.574406 -0.105511 6330.23 7197.98)" width="635.73" height="73.9" rx="36.95" ry="36.95"/>
    </g>
    <g>
     <path class="fil2" d="M7308.12 2547.11c-25.36,-4.66 -49.41,10.56 -53.72,33.97 -4.3,23.41 12.78,46.18 38.15,50.84 18.74,3.45 36.78,-3.97 46.64,-17.53l177.12 32.53 84.35 79.53 76.67 12.42 -129.07 -126.03 -204.38 -37.55c-5.68,-13.97 -18.89,-25.08 -35.76,-28.18z"/>
     <rect class="fil2" transform="matrix(-0.94134 -0.172912 -0.0938781 0.511075 8199.9 2814.4)" width="635.73" height="73.9" rx="36.95" ry="36.95"/>
     <rect class="fil2" transform="matrix(-0.556841 -0.714507 0.472548 -0.286777 8491.43 3270.96)" width="635.73" height="73.9" rx="36.95" ry="36.95"/>
     <rect class="fil2" transform="matrix(-0.556841 -0.714507 0.472548 -0.286777 8817.58 3689.33)" width="635.73" height="73.9" rx="36.95" ry="36.95"/>
     <rect class="fil2" transform="matrix(8.61159 1.58184 -0.0938781 0.511075 8799.15 3642.02)" width="635.73" height="73.9" rx="36.95" ry="36.95"/>
    </g>
    <g>
     <path class="fil2" d="M6216.33 2927.03c-20.87,12.66 -25.17,39.13 -9.6,59.11 15.57,19.98 45.11,25.9 65.98,13.24 15.42,-9.35 21.79,-26.25 17.77,-42.5l145.71 -88.42 119.94 5.04 61.76 -39.5 -186.95 -10.93 -168.14 102.05c-14.88,-6.69 -32.59,-6.49 -46.46,1.93z"/>
     <rect class="fil2" transform="matrix(-0.774415 0.469972 0.339785 0.435993 7031.64 2558.02)" width="635.73" height="73.9" rx="36.95" ry="36.95"/>
     <rect class="fil2" transform="matrix(-0.94134 -0.172912 0.0938781 -0.511075 7589.58 2709.3)" width="635.73" height="73.9" rx="36.95" ry="36.95"/>
     <rect class="fil2" transform="matrix(-0.94134 -0.172912 0.0938781 -0.511075 8140.84 2810.48)" width="635.73" height="73.9" rx="36.95" ry="36.95"/>
     <rect class="fil2" transform="matrix(7.08452 -4.29941 0.339785 0.435993 8091.01 2787.33)" width="635.73" height="73.9" rx="36.95" ry="36.95"/>
    </g>
    <g>
     <path class="fil2" d="M3051.06 800.93c-4.14,22.57 13.83,44.79 40.15,49.62 26.32,4.83 51.02,-9.55 55.17,-32.12 3.06,-16.68 -5.96,-33.17 -21.51,-42.59l28.95 -157.59 85.25 -72.39 10.67 -68.28 -135.31 110.58 -33.41 181.84c-15.37,4.52 -27.21,15.91 -29.97,30.92z"/>
     <rect class="fil2" transform="matrix(-0.153848 0.837553 0.574406 0.105511 3312.32 11.7796)" width="635.73" height="73.9" rx="36.95" ry="36.95"/>
     <rect class="fil2" transform="matrix(-0.774415 0.469972 -0.339785 -0.435993 3809.84 -230.836)" width="635.73" height="73.9" rx="36.95" ry="36.95"/>
     <rect class="fil2" transform="matrix(-0.774415 0.469972 -0.339785 -0.435993 4263.28 -506.113)" width="635.73" height="73.9" rx="36.95" ry="36.95"/>
     <rect class="fil2" transform="matrix(1.40744 -7.66213 0.574406 0.105511 4211.24 -491.543)" width="635.73" height="73.9" rx="36.95" ry="36.95"/>
    </g>
    <g>
     <path class="fil2" d="M8093.61 2181.47c-25.36,-4.66 -49.41,10.55 -53.72,33.96 -4.3,23.42 12.78,46.19 38.15,50.85 18.74,3.44 36.78,-3.97 46.64,-17.53l177.12 32.53 84.35 79.52 76.67 12.42 -129.07 -126.03 -204.38 -37.55c-5.68,-13.97 -18.89,-25.07 -35.76,-28.17z"/>
     <rect class="fil2" transform="matrix(-0.94134 -0.172912 -0.0938781 0.511075 8985.39 2448.75)" width="635.73" height="73.9" rx="36.95" ry="36.95"/>
     <rect class="fil2" transform="matrix(-0.556841 -0.714507 0.472548 -0.286777 9276.92 2905.32)" width="635.73" height="73.9" rx="36.95" ry="36.95"/>
     <rect class="fil2" transform="matrix(-0.556841 -0.714507 0.472548 -0.286777 9603.07 3323.68)" width="635.73" height="73.9" rx="36.95" ry="36.95"/>
     <rect class="fil2" transform="matrix(8.61159 1.58184 -0.0938781 0.511075 9584.64 3276.37)" width="635.73" height="73.9" rx="36.95" ry="36.95"/>
    </g>
    <g>
     <path class="fil2" d="M15322.37 4724.65c26.51,4.86 51.68,-11.12 56.19,-35.7 4.51,-24.58 -13.32,-48.46 -39.84,-53.34 -19.59,-3.6 -38.45,4.19 -48.78,18.43l-185.15 -34 -88.13 -83.41 -80.13 -12.98 134.83 132.21 213.65 39.25c5.93,14.66 19.73,26.31 37.36,29.55z"/>
     <rect class="fil2" transform="matrix(0.98405 0.180758 0.0985641 -0.536586 14390.2 4444.78)" width="635.73" height="73.9" rx="36.95" ry="36.95"/>
     <rect class="fil2" transform="matrix(0.581611 0.749617 -0.49429 0.301431 14085.8 3965.73)" width="635.73" height="73.9" rx="36.95" ry="36.95"/>
     <rect class="fil2" transform="matrix(0.581611 0.749617 -0.49429 0.301431 13745.1 3526.81)" width="635.73" height="73.9" rx="36.95" ry="36.95"/>
     <rect class="fil2" transform="matrix(-9.00231 -1.65361 0.0985641 -0.536586 13764.3 3576.46)" width="635.73" height="73.9" rx="36.95" ry="36.95"/>
    </g>
    <g>
     <path class="fil2" d="M14703.23 5278.75c26.52,4.87 51.68,-11.11 56.19,-35.7 4.52,-24.58 -13.32,-48.46 -39.83,-53.34 -19.6,-3.6 -38.46,4.2 -48.78,18.44l-185.15 -34.01 -88.14 -83.41 -80.13 -12.97 134.83 132.21 213.65 39.24c5.94,14.68 19.73,26.32 37.36,29.55z"/>
     <rect class="fil2" transform="matrix(0.98405 0.180758 0.0985641 -0.536586 13771.1 4998.89)" width="635.73" height="73.9" rx="36.95" ry="36.95"/>
     <rect class="fil2" transform="matrix(0.581611 0.749617 -0.49429 0.301431 13466.6 4519.84)" width="635.73" height="73.9" rx="36.95" ry="36.95"/>
     <rect class="fil2" transform="matrix(0.581611 0.749617 -0.49429 0.301431 13126 4080.91)" width="635.73" height="73.9" rx="36.95" ry="36.95"/>
     <rect class="fil2" transform="matrix(-9.00231 -1.65361 0.0985641 -0.536586 13145.2 4130.56)" width="635.73" height="73.9" rx="36.95" ry="36.95"/>
    </g>
    <g>
     <path class="fil2" d="M14084.1 5832.85c26.52,4.87 51.68,-11.11 56.2,-35.69 4.51,-24.58 -13.32,-48.47 -39.84,-53.34 -19.6,-3.61 -38.46,4.19 -48.78,18.43l-185.15 -34.01 -88.13 -83.41 -80.15 -12.97 134.85 132.21 213.65 39.25c5.93,14.66 19.72,26.31 37.35,29.54z"/>
     <rect class="fil2" transform="matrix(0.98405 0.180758 0.0985641 -0.536586 13151.9 5552.99)" width="635.73" height="73.9" rx="36.95" ry="36.95"/>
     <rect class="fil2" transform="matrix(0.581611 0.749617 -0.49429 0.301431 12847.5 5073.94)" width="635.73" height="73.9" rx="36.95" ry="36.95"/>
     <rect class="fil2" transform="matrix(0.581611 0.749617 -0.49429 0.301431 12506.9 4635.02)" width="635.73" height="73.9" rx="36.95" ry="36.95"/>
     <rect class="fil2" transform="matrix(-9.00231 -1.65361 0.0985641 -0.536586 12526.1 4684.66)" width="635.73" height="73.9" rx="36.95" ry="36.95"/>
    </g>
    <g>
     <path class="fil2" d="M13464.98 6386.96c26.51,4.86 51.68,-11.12 56.19,-35.7 4.51,-24.58 -13.32,-48.46 -39.84,-53.34 -19.59,-3.6 -38.45,4.19 -48.78,18.43l-185.15 -34 -88.13 -83.41 -80.13 -12.98 134.83 132.21 213.65 39.25c5.93,14.66 19.73,26.31 37.36,29.55z"/>
     <rect class="fil2" transform="matrix(0.98405 0.180758 0.0985641 -0.536586 12532.8 6107.09)" width="635.73" height="73.9" rx="36.95" ry="36.95"/>
     <rect class="fil2" transform="matrix(0.581611 0.749617 -0.49429 0.301431 12228.4 5628.04)" width="635.73" height="73.9" rx="36.95" ry="36.95"/>
     <rect class="fil2" transform="matrix(0.581611 0.749617 -0.49429 0.301431 11887.7 5189.12)" width="635.73" height="73.9" rx="36.95" ry="36.95"/>
     <rect class="fil2" transform="matrix(-9.00231 -1.65361 0.0985641 -0.536586 11907 5238.77)" width="635.73" height="73.9" rx="36.95" ry="36.95"/>
    </g>
    <g>
     <path class="fil2" d="M12845.84 6941.06c26.52,4.87 51.68,-11.11 56.19,-35.69 4.52,-24.59 -13.32,-48.47 -39.83,-53.35 -19.6,-3.6 -38.46,4.2 -48.78,18.44l-185.15 -34.01 -88.14 -83.41 -80.13 -12.97 134.83 132.21 213.65 39.24c5.94,14.68 19.73,26.32 37.36,29.55z"/>
     <rect class="fil2" transform="matrix(0.98405 0.180758 0.0985641 -0.536586 11913.7 6661.2)" width="635.73" height="73.9" rx="36.95" ry="36.95"/>
     <rect class="fil2" transform="matrix(0.581611 0.749617 -0.49429 0.301431 11609.3 6182.15)" width="635.73" height="73.9" rx="36.95" ry="36.95"/>
     <rect class="fil2" transform="matrix(0.581611 0.749617 -0.49429 0.301431 11268.6 5743.22)" width="635.73" height="73.9" rx="36.95" ry="36.95"/>
     <rect class="fil2" transform="matrix(-9.00231 -1.65361 0.0985641 -0.536586 11287.8 5792.87)" width="635.73" height="73.9" rx="36.95" ry="36.95"/>
    </g>
   </g>
  </g>
  <path class="fil3 str0" d="M5460.38 9466.75c-219.75,-246.25 -768.43,-726.3 -1219.31,-1066.79 -1335.91,-1008.86 -1517.73,-1154.86 -2060.13,-1654.31 -999.97,-920.77 -1424.63,-1845.84 -1423.18,-3100.17 0.71,-612.31 42.45,-848.21 213.92,-1209.14 290.92,-612.34 719.46,-1067.35 1267.34,-1345.64 388.05,-197.11 579.43,-284.67 1227.44,-288.26 677.87,-3.75 820.57,75.29 1219.31,294.35 485.33,266.64 984.89,836.48 1088.15,1241.26l63.78 250.01 157.29 -344.32c888.8,-1945.75 3726.43,-1916.63 4713.94,48.36 313.27,623.36 347.67,1954.37 69.88,2704.12 -362.36,978.03 -1042.95,1723.66 -2616.27,2866.25 -1031.81,749.34 -2199.58,1883.11 -2280.87,2042.35 -94.37,184.84 -4.51,28.96 -421.28,-438.07z"/>
 </g>
</svg>
